<?xml version="1.0" encoding="utf-8" standalone="no"?>
<!DOCTYPE svg PUBLIC "-//W3C//DTD SVG 1.1//EN"
  "http://www.w3.org/Graphics/SVG/1.1/DTD/svg11.dtd">
<!-- Created with matplotlib (https://matplotlib.org/) -->
<svg height="216pt" version="1.1" viewBox="0 0 432 216" width="432pt" xmlns="http://www.w3.org/2000/svg" xmlns:xlink="http://www.w3.org/1999/xlink">
 <defs>
  <style type="text/css">
*{stroke-linecap:butt;stroke-linejoin:round;}
  </style>
 </defs>
 <g id="figure_1">
  <g id="patch_1">
   <path d="M 0 216 
L 432 216 
L 432 0 
L 0 0 
z
" style="fill:#ffffff;"/>
  </g>
  <g id="axes_1">
   <g id="patch_2">
    <path d="M 12.96 167.337225 
L 419.04 167.337225 
L 419.04 25.24965 
L 12.96 25.24965 
z
" style="fill:#eaeaf2;"/>
   </g>
   <g id="matplotlib.axis_1">
    <g id="xtick_1">
     <g id="line2d_1">
      <path clip-path="url(#p801cc4b68c)" d="M 80.64 167.337225 
L 80.64 25.24965 
" style="fill:none;stroke:#ffffff;stroke-linecap:round;"/>
     </g>
     <g id="text_1">
      <!-- Almost -->
      <defs>
       <path d="M -0.140625 0 
L 27.34375 71.578125 
L 37.546875 71.578125 
L 66.84375 0 
L 56.0625 0 
L 47.703125 21.6875 
L 17.78125 21.6875 
L 9.90625 0 
z
M 20.515625 29.390625 
L 44.78125 29.390625 
L 37.3125 49.21875 
Q 33.890625 58.25 32.234375 64.0625 
Q 30.859375 57.171875 28.375 50.390625 
z
" id="ArialMT-65"/>
       <path d="M 6.390625 0 
L 6.390625 71.578125 
L 15.1875 71.578125 
L 15.1875 0 
z
" id="ArialMT-108"/>
       <path d="M 6.59375 0 
L 6.59375 51.859375 
L 14.453125 51.859375 
L 14.453125 44.578125 
Q 16.890625 48.390625 20.9375 50.703125 
Q 25 53.03125 30.171875 53.03125 
Q 35.9375 53.03125 39.625 50.640625 
Q 43.3125 48.25 44.828125 43.953125 
Q 50.984375 53.03125 60.84375 53.03125 
Q 68.5625 53.03125 72.703125 48.75 
Q 76.859375 44.484375 76.859375 35.59375 
L 76.859375 0 
L 68.109375 0 
L 68.109375 32.671875 
Q 68.109375 37.9375 67.25 40.25 
Q 66.40625 42.578125 64.15625 43.984375 
Q 61.921875 45.40625 58.890625 45.40625 
Q 53.421875 45.40625 49.796875 41.765625 
Q 46.1875 38.140625 46.1875 30.125 
L 46.1875 0 
L 37.40625 0 
L 37.40625 33.6875 
Q 37.40625 39.546875 35.25 42.46875 
Q 33.109375 45.40625 28.21875 45.40625 
Q 24.515625 45.40625 21.359375 43.453125 
Q 18.21875 41.5 16.796875 37.734375 
Q 15.375 33.984375 15.375 26.90625 
L 15.375 0 
z
" id="ArialMT-109"/>
       <path d="M 3.328125 25.921875 
Q 3.328125 40.328125 11.328125 47.265625 
Q 18.015625 53.03125 27.640625 53.03125 
Q 38.328125 53.03125 45.109375 46.015625 
Q 51.90625 39.015625 51.90625 26.65625 
Q 51.90625 16.65625 48.90625 10.90625 
Q 45.90625 5.171875 40.15625 2 
Q 34.421875 -1.171875 27.640625 -1.171875 
Q 16.75 -1.171875 10.03125 5.8125 
Q 3.328125 12.796875 3.328125 25.921875 
z
M 12.359375 25.921875 
Q 12.359375 15.96875 16.703125 11.015625 
Q 21.046875 6.0625 27.640625 6.0625 
Q 34.1875 6.0625 38.53125 11.03125 
Q 42.875 16.015625 42.875 26.21875 
Q 42.875 35.84375 38.5 40.796875 
Q 34.125 45.75 27.640625 45.75 
Q 21.046875 45.75 16.703125 40.8125 
Q 12.359375 35.890625 12.359375 25.921875 
z
" id="ArialMT-111"/>
       <path d="M 3.078125 15.484375 
L 11.765625 16.84375 
Q 12.5 11.625 15.84375 8.84375 
Q 19.1875 6.0625 25.203125 6.0625 
Q 31.25 6.0625 34.171875 8.515625 
Q 37.109375 10.984375 37.109375 14.3125 
Q 37.109375 17.28125 34.515625 19 
Q 32.71875 20.171875 25.53125 21.96875 
Q 15.875 24.421875 12.140625 26.203125 
Q 8.40625 27.984375 6.46875 31.125 
Q 4.546875 34.28125 4.546875 38.09375 
Q 4.546875 41.546875 6.125 44.5 
Q 7.71875 47.46875 10.453125 49.421875 
Q 12.5 50.921875 16.03125 51.96875 
Q 19.578125 53.03125 23.640625 53.03125 
Q 29.734375 53.03125 34.34375 51.265625 
Q 38.96875 49.515625 41.15625 46.5 
Q 43.359375 43.5 44.1875 38.484375 
L 35.59375 37.3125 
Q 35.015625 41.3125 32.203125 43.546875 
Q 29.390625 45.796875 24.265625 45.796875 
Q 18.21875 45.796875 15.625 43.796875 
Q 13.03125 41.796875 13.03125 39.109375 
Q 13.03125 37.40625 14.109375 36.03125 
Q 15.1875 34.625 17.484375 33.6875 
Q 18.796875 33.203125 25.25 31.453125 
Q 34.578125 28.953125 38.25 27.359375 
Q 41.9375 25.78125 44.03125 22.75 
Q 46.140625 19.734375 46.140625 15.234375 
Q 46.140625 10.84375 43.578125 6.953125 
Q 41.015625 3.078125 36.171875 0.953125 
Q 31.34375 -1.171875 25.25 -1.171875 
Q 15.140625 -1.171875 9.84375 3.03125 
Q 4.546875 7.234375 3.078125 15.484375 
z
" id="ArialMT-115"/>
       <path d="M 25.78125 7.859375 
L 27.046875 0.09375 
Q 23.34375 -0.6875 20.40625 -0.6875 
Q 15.625 -0.6875 12.984375 0.828125 
Q 10.359375 2.34375 9.28125 4.8125 
Q 8.203125 7.28125 8.203125 15.1875 
L 8.203125 45.015625 
L 1.765625 45.015625 
L 1.765625 51.859375 
L 8.203125 51.859375 
L 8.203125 64.703125 
L 16.9375 69.96875 
L 16.9375 51.859375 
L 25.78125 51.859375 
L 25.78125 45.015625 
L 16.9375 45.015625 
L 16.9375 14.703125 
Q 16.9375 10.9375 17.40625 9.859375 
Q 17.875 8.796875 18.921875 8.15625 
Q 19.96875 7.515625 21.921875 7.515625 
Q 23.390625 7.515625 25.78125 7.859375 
z
" id="ArialMT-116"/>
      </defs>
      <g style="fill:#262626;" transform="translate(65.359531 183.995037)scale(0.1 -0.1)">
       <use xlink:href="#ArialMT-65"/>
       <use x="66.699219" xlink:href="#ArialMT-108"/>
       <use x="88.916016" xlink:href="#ArialMT-109"/>
       <use x="172.216797" xlink:href="#ArialMT-111"/>
       <use x="227.832031" xlink:href="#ArialMT-115"/>
       <use x="277.832031" xlink:href="#ArialMT-116"/>
      </g>
      <!-- no one -->
      <defs>
       <path d="M 6.59375 0 
L 6.59375 51.859375 
L 14.5 51.859375 
L 14.5 44.484375 
Q 20.21875 53.03125 31 53.03125 
Q 35.6875 53.03125 39.625 51.34375 
Q 43.5625 49.65625 45.515625 46.921875 
Q 47.46875 44.1875 48.25 40.4375 
Q 48.734375 37.984375 48.734375 31.890625 
L 48.734375 0 
L 39.9375 0 
L 39.9375 31.546875 
Q 39.9375 36.921875 38.90625 39.578125 
Q 37.890625 42.234375 35.28125 43.8125 
Q 32.671875 45.40625 29.15625 45.40625 
Q 23.53125 45.40625 19.453125 41.84375 
Q 15.375 38.28125 15.375 28.328125 
L 15.375 0 
z
" id="ArialMT-110"/>
       <path id="ArialMT-32"/>
       <path d="M 42.09375 16.703125 
L 51.171875 15.578125 
Q 49.03125 7.625 43.21875 3.21875 
Q 37.40625 -1.171875 28.375 -1.171875 
Q 17 -1.171875 10.328125 5.828125 
Q 3.65625 12.84375 3.65625 25.484375 
Q 3.65625 38.578125 10.390625 45.796875 
Q 17.140625 53.03125 27.875 53.03125 
Q 38.28125 53.03125 44.875 45.953125 
Q 51.46875 38.875 51.46875 26.03125 
Q 51.46875 25.25 51.421875 23.6875 
L 12.75 23.6875 
Q 13.234375 15.140625 17.578125 10.59375 
Q 21.921875 6.0625 28.421875 6.0625 
Q 33.25 6.0625 36.671875 8.59375 
Q 40.09375 11.140625 42.09375 16.703125 
z
M 13.234375 30.90625 
L 42.1875 30.90625 
Q 41.609375 37.453125 38.875 40.71875 
Q 34.671875 45.796875 27.984375 45.796875 
Q 21.921875 45.796875 17.796875 41.75 
Q 13.671875 37.703125 13.234375 30.90625 
z
" id="ArialMT-101"/>
      </defs>
      <g style="fill:#262626;" transform="translate(65.348594 194.571912)scale(0.1 -0.1)">
       <use xlink:href="#ArialMT-110"/>
       <use x="55.615234" xlink:href="#ArialMT-111"/>
       <use x="111.230469" xlink:href="#ArialMT-32"/>
       <use x="139.013672" xlink:href="#ArialMT-111"/>
       <use x="194.628906" xlink:href="#ArialMT-110"/>
       <use x="250.244141" xlink:href="#ArialMT-101"/>
      </g>
     </g>
    </g>
    <g id="xtick_2">
     <g id="line2d_2">
      <path clip-path="url(#p801cc4b68c)" d="M 148.32 167.337225 
L 148.32 25.24965 
" style="fill:none;stroke:#ffffff;stroke-linecap:round;"/>
     </g>
     <g id="text_2">
      <!-- Uncommon -->
      <defs>
       <path d="M 54.6875 71.578125 
L 64.15625 71.578125 
L 64.15625 30.21875 
Q 64.15625 19.4375 61.71875 13.078125 
Q 59.28125 6.734375 52.90625 2.75 
Q 46.53125 -1.21875 36.1875 -1.21875 
Q 26.125 -1.21875 19.71875 2.25 
Q 13.328125 5.71875 10.59375 12.28125 
Q 7.859375 18.84375 7.859375 30.21875 
L 7.859375 71.578125 
L 17.328125 71.578125 
L 17.328125 30.28125 
Q 17.328125 20.953125 19.0625 16.53125 
Q 20.796875 12.109375 25.015625 9.71875 
Q 29.25 7.328125 35.359375 7.328125 
Q 45.796875 7.328125 50.234375 12.0625 
Q 54.6875 16.796875 54.6875 30.28125 
z
" id="ArialMT-85"/>
       <path d="M 40.4375 19 
L 49.078125 17.875 
Q 47.65625 8.9375 41.8125 3.875 
Q 35.984375 -1.171875 27.484375 -1.171875 
Q 16.84375 -1.171875 10.375 5.78125 
Q 3.90625 12.75 3.90625 25.734375 
Q 3.90625 34.125 6.6875 40.421875 
Q 9.46875 46.734375 15.15625 49.875 
Q 20.84375 53.03125 27.546875 53.03125 
Q 35.984375 53.03125 41.359375 48.75 
Q 46.734375 44.484375 48.25 36.625 
L 39.703125 35.296875 
Q 38.484375 40.53125 35.375 43.15625 
Q 32.28125 45.796875 27.875 45.796875 
Q 21.234375 45.796875 17.078125 41.03125 
Q 12.9375 36.28125 12.9375 25.984375 
Q 12.9375 15.53125 16.9375 10.796875 
Q 20.953125 6.0625 27.390625 6.0625 
Q 32.5625 6.0625 36.03125 9.234375 
Q 39.5 12.40625 40.4375 19 
z
" id="ArialMT-99"/>
      </defs>
      <g style="fill:#262626;" transform="translate(122.7575 183.995037)scale(0.1 -0.1)">
       <use xlink:href="#ArialMT-85"/>
       <use x="72.216797" xlink:href="#ArialMT-110"/>
       <use x="127.832031" xlink:href="#ArialMT-99"/>
       <use x="177.832031" xlink:href="#ArialMT-111"/>
       <use x="233.447266" xlink:href="#ArialMT-109"/>
       <use x="316.748047" xlink:href="#ArialMT-109"/>
       <use x="400.048828" xlink:href="#ArialMT-111"/>
       <use x="455.664062" xlink:href="#ArialMT-110"/>
      </g>
     </g>
    </g>
    <g id="xtick_3">
     <g id="line2d_3">
      <path clip-path="url(#p801cc4b68c)" d="M 216 167.337225 
L 216 25.24965 
" style="fill:none;stroke:#ffffff;stroke-linecap:round;"/>
     </g>
     <g id="text_3">
      <!-- Controversial -->
      <defs>
       <path d="M 58.796875 25.09375 
L 68.265625 22.703125 
Q 65.28125 11.03125 57.546875 4.90625 
Q 49.8125 -1.21875 38.625 -1.21875 
Q 27.046875 -1.21875 19.796875 3.484375 
Q 12.546875 8.203125 8.765625 17.140625 
Q 4.984375 26.078125 4.984375 36.328125 
Q 4.984375 47.515625 9.25 55.828125 
Q 13.53125 64.15625 21.40625 68.46875 
Q 29.296875 72.796875 38.765625 72.796875 
Q 49.515625 72.796875 56.828125 67.328125 
Q 64.15625 61.859375 67.046875 51.953125 
L 57.71875 49.75 
Q 55.21875 57.5625 50.484375 61.125 
Q 45.75 64.703125 38.578125 64.703125 
Q 30.328125 64.703125 24.78125 60.734375 
Q 19.234375 56.78125 16.984375 50.109375 
Q 14.75 43.453125 14.75 36.375 
Q 14.75 27.25 17.40625 20.4375 
Q 20.0625 13.625 25.671875 10.25 
Q 31.296875 6.890625 37.84375 6.890625 
Q 45.796875 6.890625 51.3125 11.46875 
Q 56.84375 16.0625 58.796875 25.09375 
z
" id="ArialMT-67"/>
       <path d="M 6.5 0 
L 6.5 51.859375 
L 14.40625 51.859375 
L 14.40625 44 
Q 17.4375 49.515625 20 51.265625 
Q 22.5625 53.03125 25.640625 53.03125 
Q 30.078125 53.03125 34.671875 50.203125 
L 31.640625 42.046875 
Q 28.421875 43.953125 25.203125 43.953125 
Q 22.3125 43.953125 20.015625 42.21875 
Q 17.71875 40.484375 16.75 37.40625 
Q 15.28125 32.71875 15.28125 27.15625 
L 15.28125 0 
z
" id="ArialMT-114"/>
       <path d="M 21 0 
L 1.265625 51.859375 
L 10.546875 51.859375 
L 21.6875 20.796875 
Q 23.484375 15.765625 25 10.359375 
Q 26.171875 14.453125 28.265625 20.21875 
L 39.796875 51.859375 
L 48.828125 51.859375 
L 29.203125 0 
z
" id="ArialMT-118"/>
       <path d="M 6.640625 61.46875 
L 6.640625 71.578125 
L 15.4375 71.578125 
L 15.4375 61.46875 
z
M 6.640625 0 
L 6.640625 51.859375 
L 15.4375 51.859375 
L 15.4375 0 
z
" id="ArialMT-105"/>
       <path d="M 40.4375 6.390625 
Q 35.546875 2.25 31.03125 0.53125 
Q 26.515625 -1.171875 21.34375 -1.171875 
Q 12.796875 -1.171875 8.203125 3 
Q 3.609375 7.171875 3.609375 13.671875 
Q 3.609375 17.484375 5.34375 20.625 
Q 7.078125 23.78125 9.890625 25.6875 
Q 12.703125 27.59375 16.21875 28.5625 
Q 18.796875 29.25 24.03125 29.890625 
Q 34.671875 31.15625 39.703125 32.90625 
Q 39.75 34.71875 39.75 35.203125 
Q 39.75 40.578125 37.25 42.78125 
Q 33.890625 45.75 27.25 45.75 
Q 21.046875 45.75 18.09375 43.578125 
Q 15.140625 41.40625 13.71875 35.890625 
L 5.125 37.0625 
Q 6.296875 42.578125 8.984375 45.96875 
Q 11.671875 49.359375 16.75 51.1875 
Q 21.828125 53.03125 28.515625 53.03125 
Q 35.15625 53.03125 39.296875 51.46875 
Q 43.453125 49.90625 45.40625 47.53125 
Q 47.359375 45.171875 48.140625 41.546875 
Q 48.578125 39.3125 48.578125 33.453125 
L 48.578125 21.734375 
Q 48.578125 9.46875 49.140625 6.21875 
Q 49.703125 2.984375 51.375 0 
L 42.1875 0 
Q 40.828125 2.734375 40.4375 6.390625 
z
M 39.703125 26.03125 
Q 34.90625 24.078125 25.34375 22.703125 
Q 19.921875 21.921875 17.671875 20.9375 
Q 15.4375 19.96875 14.203125 18.09375 
Q 12.984375 16.21875 12.984375 13.921875 
Q 12.984375 10.40625 15.640625 8.0625 
Q 18.3125 5.71875 23.4375 5.71875 
Q 28.515625 5.71875 32.46875 7.9375 
Q 36.421875 10.15625 38.28125 14.015625 
Q 39.703125 17 39.703125 22.796875 
z
" id="ArialMT-97"/>
      </defs>
      <g style="fill:#262626;" transform="translate(186.546094 183.995037)scale(0.1 -0.1)">
       <use xlink:href="#ArialMT-67"/>
       <use x="72.216797" xlink:href="#ArialMT-111"/>
       <use x="127.832031" xlink:href="#ArialMT-110"/>
       <use x="183.447266" xlink:href="#ArialMT-116"/>
       <use x="211.230469" xlink:href="#ArialMT-114"/>
       <use x="244.53125" xlink:href="#ArialMT-111"/>
       <use x="300.146484" xlink:href="#ArialMT-118"/>
       <use x="350.146484" xlink:href="#ArialMT-101"/>
       <use x="405.761719" xlink:href="#ArialMT-114"/>
       <use x="439.0625" xlink:href="#ArialMT-115"/>
       <use x="489.0625" xlink:href="#ArialMT-105"/>
       <use x="511.279297" xlink:href="#ArialMT-97"/>
       <use x="566.894531" xlink:href="#ArialMT-108"/>
      </g>
     </g>
    </g>
    <g id="xtick_4">
     <g id="line2d_4">
      <path clip-path="url(#p801cc4b68c)" d="M 283.68 167.337225 
L 283.68 25.24965 
" style="fill:none;stroke:#ffffff;stroke-linecap:round;"/>
     </g>
     <g id="text_4">
      <!-- Common -->
      <g style="fill:#262626;" transform="translate(263.397969 183.995037)scale(0.1 -0.1)">
       <use xlink:href="#ArialMT-67"/>
       <use x="72.216797" xlink:href="#ArialMT-111"/>
       <use x="127.832031" xlink:href="#ArialMT-109"/>
       <use x="211.132812" xlink:href="#ArialMT-109"/>
       <use x="294.433594" xlink:href="#ArialMT-111"/>
       <use x="350.048828" xlink:href="#ArialMT-110"/>
      </g>
     </g>
    </g>
    <g id="xtick_5">
     <g id="line2d_5">
      <path clip-path="url(#p801cc4b68c)" d="M 351.36 167.337225 
L 351.36 25.24965 
" style="fill:none;stroke:#ffffff;stroke-linecap:round;"/>
     </g>
     <g id="text_5">
      <!-- Universal -->
      <g style="fill:#262626;" transform="translate(330.520937 183.995037)scale(0.1 -0.1)">
       <use xlink:href="#ArialMT-85"/>
       <use x="72.216797" xlink:href="#ArialMT-110"/>
       <use x="127.832031" xlink:href="#ArialMT-105"/>
       <use x="150.048828" xlink:href="#ArialMT-118"/>
       <use x="200.048828" xlink:href="#ArialMT-101"/>
       <use x="255.664062" xlink:href="#ArialMT-114"/>
       <use x="288.964844" xlink:href="#ArialMT-115"/>
       <use x="338.964844" xlink:href="#ArialMT-97"/>
       <use x="394.580078" xlink:href="#ArialMT-108"/>
      </g>
     </g>
    </g>
    <g id="text_6">
     <!-- Anticipated agreement -->
     <defs>
      <path d="M 6.59375 -19.875 
L 6.59375 51.859375 
L 14.59375 51.859375 
L 14.59375 45.125 
Q 17.4375 49.078125 21 51.046875 
Q 24.5625 53.03125 29.640625 53.03125 
Q 36.28125 53.03125 41.359375 49.609375 
Q 46.4375 46.1875 49.015625 39.953125 
Q 51.609375 33.734375 51.609375 26.3125 
Q 51.609375 18.359375 48.75 11.984375 
Q 45.90625 5.609375 40.453125 2.21875 
Q 35.015625 -1.171875 29 -1.171875 
Q 24.609375 -1.171875 21.109375 0.6875 
Q 17.625 2.546875 15.375 5.375 
L 15.375 -19.875 
z
M 14.546875 25.640625 
Q 14.546875 15.625 18.59375 10.84375 
Q 22.65625 6.0625 28.421875 6.0625 
Q 34.28125 6.0625 38.453125 11.015625 
Q 42.625 15.96875 42.625 26.375 
Q 42.625 36.28125 38.546875 41.203125 
Q 34.46875 46.140625 28.8125 46.140625 
Q 23.1875 46.140625 18.859375 40.890625 
Q 14.546875 35.640625 14.546875 25.640625 
z
" id="ArialMT-112"/>
      <path d="M 40.234375 0 
L 40.234375 6.546875 
Q 35.296875 -1.171875 25.734375 -1.171875 
Q 19.53125 -1.171875 14.328125 2.25 
Q 9.125 5.671875 6.265625 11.796875 
Q 3.421875 17.921875 3.421875 25.875 
Q 3.421875 33.640625 6 39.96875 
Q 8.59375 46.296875 13.765625 49.65625 
Q 18.953125 53.03125 25.34375 53.03125 
Q 30.03125 53.03125 33.6875 51.046875 
Q 37.359375 49.078125 39.65625 45.90625 
L 39.65625 71.578125 
L 48.390625 71.578125 
L 48.390625 0 
z
M 12.453125 25.875 
Q 12.453125 15.921875 16.640625 10.984375 
Q 20.84375 6.0625 26.5625 6.0625 
Q 32.328125 6.0625 36.34375 10.765625 
Q 40.375 15.484375 40.375 25.140625 
Q 40.375 35.796875 36.265625 40.765625 
Q 32.171875 45.75 26.171875 45.75 
Q 20.3125 45.75 16.375 40.96875 
Q 12.453125 36.1875 12.453125 25.875 
z
" id="ArialMT-100"/>
      <path d="M 4.984375 -4.296875 
L 13.53125 -5.5625 
Q 14.0625 -9.515625 16.5 -11.328125 
Q 19.78125 -13.765625 25.4375 -13.765625 
Q 31.546875 -13.765625 34.859375 -11.328125 
Q 38.1875 -8.890625 39.359375 -4.5 
Q 40.046875 -1.8125 39.984375 6.78125 
Q 34.234375 0 25.640625 0 
Q 14.9375 0 9.078125 7.71875 
Q 3.21875 15.4375 3.21875 26.21875 
Q 3.21875 33.640625 5.90625 39.90625 
Q 8.59375 46.1875 13.6875 49.609375 
Q 18.796875 53.03125 25.6875 53.03125 
Q 34.859375 53.03125 40.828125 45.609375 
L 40.828125 51.859375 
L 48.921875 51.859375 
L 48.921875 7.03125 
Q 48.921875 -5.078125 46.453125 -10.125 
Q 44 -15.1875 38.640625 -18.109375 
Q 33.296875 -21.046875 25.484375 -21.046875 
Q 16.21875 -21.046875 10.5 -16.875 
Q 4.78125 -12.703125 4.984375 -4.296875 
z
M 12.25 26.859375 
Q 12.25 16.65625 16.296875 11.96875 
Q 20.359375 7.28125 26.46875 7.28125 
Q 32.515625 7.28125 36.609375 11.9375 
Q 40.71875 16.609375 40.71875 26.5625 
Q 40.71875 36.078125 36.5 40.90625 
Q 32.28125 45.75 26.3125 45.75 
Q 20.453125 45.75 16.34375 40.984375 
Q 12.25 36.234375 12.25 26.859375 
z
" id="ArialMT-103"/>
     </defs>
     <g style="fill:#262626;" transform="translate(155.96625 209.148787)scale(0.12 -0.12)">
      <use xlink:href="#ArialMT-65"/>
      <use x="66.699219" xlink:href="#ArialMT-110"/>
      <use x="122.314453" xlink:href="#ArialMT-116"/>
      <use x="150.097656" xlink:href="#ArialMT-105"/>
      <use x="172.314453" xlink:href="#ArialMT-99"/>
      <use x="222.314453" xlink:href="#ArialMT-105"/>
      <use x="244.53125" xlink:href="#ArialMT-112"/>
      <use x="300.146484" xlink:href="#ArialMT-97"/>
      <use x="355.761719" xlink:href="#ArialMT-116"/>
      <use x="383.544922" xlink:href="#ArialMT-101"/>
      <use x="439.160156" xlink:href="#ArialMT-100"/>
      <use x="494.775391" xlink:href="#ArialMT-32"/>
      <use x="522.558594" xlink:href="#ArialMT-97"/>
      <use x="578.173828" xlink:href="#ArialMT-103"/>
      <use x="633.789062" xlink:href="#ArialMT-114"/>
      <use x="667.089844" xlink:href="#ArialMT-101"/>
      <use x="722.705078" xlink:href="#ArialMT-101"/>
      <use x="778.320312" xlink:href="#ArialMT-109"/>
      <use x="861.621094" xlink:href="#ArialMT-101"/>
      <use x="917.236328" xlink:href="#ArialMT-110"/>
      <use x="972.851562" xlink:href="#ArialMT-116"/>
     </g>
    </g>
   </g>
   <g id="matplotlib.axis_2">
    <g id="ytick_1"/>
   </g>
   <g id="PolyCollection_1">
    <defs>
     <path d="M 16.432464 -117.764532 
L 16.432464 -121.648593 
L 20.464131 -122.184914 
L 24.495799 -122.820405 
L 28.527466 -123.55851 
L 32.559133 -124.398409 
L 36.590801 -125.334194 
L 40.622468 -126.354331 
L 44.654136 -127.441547 
L 48.685803 -128.57322 
L 52.71747 -129.722347 
L 56.749138 -130.859071 
L 60.780805 -131.95269 
L 64.812473 -132.973996 
L 68.84414 -133.897716 
L 72.875807 -134.704811 
L 76.907475 -135.384343 
L 80.939142 -135.934663 
L 84.97081 -136.36374 
L 89.002477 -136.688534 
L 93.034144 -136.93343 
L 97.065812 -137.127892 
L 101.097479 -137.303601 
L 105.129147 -137.491407 
L 109.160814 -137.718509 
L 113.192481 -138.006222 
L 117.224149 -138.368665 
L 121.255816 -138.812551 
L 125.287484 -139.338146 
L 129.319151 -139.94126 
L 133.350818 -140.616007 
L 137.382486 -141.357901 
L 141.414153 -142.166799 
L 145.445821 -143.049183 
L 149.477488 -144.019311 
L 153.509155 -145.098938 
L 157.540823 -146.315459 
L 161.57249 -147.698571 
L 165.604158 -149.275799 
L 169.635825 -151.067408 
L 173.667492 -153.081393 
L 177.69916 -155.309315 
L 181.730827 -157.723671 
L 185.762495 -160.277386 
L 189.794162 -162.905746 
L 193.825829 -165.53078 
L 197.857497 -168.067776 
L 201.889164 -170.433267 
L 205.920832 -172.553586 
L 209.952499 -174.37291 
L 213.984166 -175.859731 
L 218.015834 -177.010788 
L 222.047501 -177.851794 
L 226.079168 -178.434675 
L 230.110836 -178.831464 
L 234.142503 -179.125458 
L 238.174171 -179.400631 
L 242.205838 -179.730552 
L 246.237505 -180.168181 
L 250.269173 -180.737844 
L 254.30084 -181.430431 
L 258.332508 -182.202497 
L 262.364175 -182.979449 
L 266.395842 -183.662485 
L 270.42751 -184.138504 
L 274.459177 -184.291824 
L 278.490845 -184.016332 
L 282.522512 -183.226667 
L 286.554179 -181.867183 
L 290.585847 -179.917731 
L 294.617514 -177.395738 
L 298.649182 -174.354502 
L 302.680849 -170.878077 
L 306.712516 -167.073508 
L 310.744184 -163.061417 
L 314.775851 -158.966057 
L 318.807519 -154.905904 
L 322.839186 -150.985717 
L 326.870853 -147.290684 
L 330.902521 -143.883022 
L 334.934188 -140.801034 
L 338.965856 -138.060367 
L 342.997523 -135.657024 
L 347.02919 -133.571541 
L 351.060858 -131.7737 
L 355.092525 -130.227233 
L 359.124193 -128.894029 
L 363.15586 -127.737546 
L 367.187527 -126.725228 
L 371.219195 -125.829932 
L 375.250862 -125.030437 
L 379.28253 -124.311205 
L 383.314197 -123.661628 
L 387.345864 -123.07496 
L 391.377532 -122.547157 
L 395.409199 -122.07577 
L 399.440867 -121.659021 
L 403.472534 -121.295108 
L 407.504201 -120.981761 
L 411.535869 -120.716033 
L 415.567536 -120.494283 
L 415.567536 -118.918842 
L 415.567536 -118.918842 
L 411.535869 -118.697092 
L 407.504201 -118.431364 
L 403.472534 -118.118017 
L 399.440867 -117.754104 
L 395.409199 -117.337355 
L 391.377532 -116.865968 
L 387.345864 -116.338165 
L 383.314197 -115.751497 
L 379.28253 -115.10192 
L 375.250862 -114.382688 
L 371.219195 -113.583193 
L 367.187527 -112.687897 
L 363.15586 -111.675579 
L 359.124193 -110.519096 
L 355.092525 -109.185892 
L 351.060858 -107.639425 
L 347.02919 -105.841584 
L 342.997523 -103.756101 
L 338.965856 -101.352758 
L 334.934188 -98.612091 
L 330.902521 -95.530103 
L 326.870853 -92.122441 
L 322.839186 -88.427408 
L 318.807519 -84.507221 
L 314.775851 -80.447068 
L 310.744184 -76.351708 
L 306.712516 -72.339617 
L 302.680849 -68.535048 
L 298.649182 -65.058623 
L 294.617514 -62.017387 
L 290.585847 -59.495394 
L 286.554179 -57.545942 
L 282.522512 -56.186458 
L 278.490845 -55.396793 
L 274.459177 -55.121301 
L 270.42751 -55.274621 
L 266.395842 -55.75064 
L 262.364175 -56.433676 
L 258.332508 -57.210628 
L 254.30084 -57.982694 
L 250.269173 -58.675281 
L 246.237505 -59.244944 
L 242.205838 -59.682573 
L 238.174171 -60.012494 
L 234.142503 -60.287667 
L 230.110836 -60.581661 
L 226.079168 -60.97845 
L 222.047501 -61.561331 
L 218.015834 -62.402337 
L 213.984166 -63.553394 
L 209.952499 -65.040215 
L 205.920832 -66.859539 
L 201.889164 -68.979858 
L 197.857497 -71.345349 
L 193.825829 -73.882345 
L 189.794162 -76.507379 
L 185.762495 -79.135739 
L 181.730827 -81.689454 
L 177.69916 -84.10381 
L 173.667492 -86.331732 
L 169.635825 -88.345717 
L 165.604158 -90.137326 
L 161.57249 -91.714554 
L 157.540823 -93.097666 
L 153.509155 -94.314187 
L 149.477488 -95.393814 
L 145.445821 -96.363942 
L 141.414153 -97.246326 
L 137.382486 -98.055224 
L 133.350818 -98.797118 
L 129.319151 -99.471865 
L 125.287484 -100.074979 
L 121.255816 -100.600574 
L 117.224149 -101.04446 
L 113.192481 -101.406903 
L 109.160814 -101.694616 
L 105.129147 -101.921718 
L 101.097479 -102.109524 
L 97.065812 -102.285233 
L 93.034144 -102.479695 
L 89.002477 -102.724591 
L 84.97081 -103.049385 
L 80.939142 -103.478462 
L 76.907475 -104.028782 
L 72.875807 -104.708314 
L 68.84414 -105.515409 
L 64.812473 -106.439129 
L 60.780805 -107.460435 
L 56.749138 -108.554054 
L 52.71747 -109.690778 
L 48.685803 -110.839905 
L 44.654136 -111.971578 
L 40.622468 -113.058794 
L 36.590801 -114.078931 
L 32.559133 -115.014716 
L 28.527466 -115.854615 
L 24.495799 -116.59272 
L 20.464131 -117.228211 
L 16.432464 -117.764532 
z
" id="m981eeccfa6" style="stroke:#6d6d6d;stroke-width:1.5;"/>
    </defs>
    <g clip-path="url(#p801cc4b68c)">
     <use style="fill:#86e5c1;stroke:#6d6d6d;stroke-width:1.5;" x="0" xlink:href="#m981eeccfa6" y="216"/>
    </g>
   </g>
   <g id="line2d_6">
    <path clip-path="url(#p801cc4b68c)" d="M 148.32 96.293437 
L 351.36 96.293437 
" style="fill:none;stroke:#6d6d6d;stroke-linecap:round;stroke-width:1.5;"/>
   </g>
   <g id="line2d_7">
    <path clip-path="url(#p801cc4b68c)" d="M 216 96.293437 
L 283.68 96.293437 
" style="fill:none;stroke:#6d6d6d;stroke-linecap:round;stroke-width:4.5;"/>
   </g>
   <g id="patch_3">
    <path d="M 12.96 167.337225 
L 12.96 25.24965 
" style="fill:none;stroke:#ffffff;stroke-linecap:square;stroke-linejoin:miter;stroke-width:1.25;"/>
   </g>
   <g id="patch_4">
    <path d="M 419.04 167.337225 
L 419.04 25.24965 
" style="fill:none;stroke:#ffffff;stroke-linecap:square;stroke-linejoin:miter;stroke-width:1.25;"/>
   </g>
   <g id="patch_5">
    <path d="M 12.96 167.337225 
L 419.04 167.337225 
" style="fill:none;stroke:#ffffff;stroke-linecap:square;stroke-linejoin:miter;stroke-width:1.25;"/>
   </g>
   <g id="patch_6">
    <path d="M 12.96 25.24965 
L 419.04 25.24965 
" style="fill:none;stroke:#ffffff;stroke-linecap:square;stroke-linejoin:miter;stroke-width:1.25;"/>
   </g>
   <g id="PathCollection_1">
    <defs>
     <path d="M 0 1.5 
C 0.397805 1.5 0.77937 1.341951 1.06066 1.06066 
C 1.341951 0.77937 1.5 0.397805 1.5 0 
C 1.5 -0.397805 1.341951 -0.77937 1.06066 -1.06066 
C 0.77937 -1.341951 0.397805 -1.5 0 -1.5 
C -0.397805 -1.5 -0.77937 -1.341951 -1.06066 -1.06066 
C -1.341951 -0.77937 -1.5 -0.397805 -1.5 0 
C -1.5 0.397805 -1.341951 0.77937 -1.06066 1.06066 
C -0.77937 1.341951 -0.397805 1.5 0 1.5 
z
" id="m15662a7e91" style="stroke:#6d6d6d;"/>
    </defs>
    <g clip-path="url(#p801cc4b68c)">
     <use style="fill:#ffffff;stroke:#6d6d6d;" x="216" xlink:href="#m15662a7e91" y="96.293437"/>
    </g>
   </g>
   <g id="PathCollection_2">
    <defs>
     <path d="M 0 2.5 
C 0.663008 2.5 1.29895 2.236584 1.767767 1.767767 
C 2.236584 1.29895 2.5 0.663008 2.5 0 
C 2.5 -0.663008 2.236584 -1.29895 1.767767 -1.767767 
C 1.29895 -2.236584 0.663008 -2.5 0 -2.5 
C -0.663008 -2.5 -1.29895 -2.236584 -1.767767 -1.767767 
C -2.236584 -1.29895 -2.5 -0.663008 -2.5 0 
C -2.5 0.663008 -2.236584 1.29895 -1.767767 1.767767 
C -1.29895 2.236584 -0.663008 2.5 0 2.5 
z
" id="C0_0_cdf278b240"/>
    </defs>
    <g clip-path="url(#p801cc4b68c)">
     <use style="fill:#333333;" x="344.693146" xlink:href="#C0_0_cdf278b240" y="95.617258"/>
    </g>
    <g clip-path="url(#p801cc4b68c)">
     <use style="fill:#333333;" x="275.305029" xlink:href="#C0_0_cdf278b240" y="107.09613"/>
    </g>
    <g clip-path="url(#p801cc4b68c)">
     <use style="fill:#333333;" x="91.694583" xlink:href="#C0_0_cdf278b240" y="104.237743"/>
    </g>
    <g clip-path="url(#p801cc4b68c)">
     <use style="fill:#333333;" x="271.725524" xlink:href="#C0_0_cdf278b240" y="93.012751"/>
    </g>
    <g clip-path="url(#p801cc4b68c)">
     <use style="fill:#333333;" x="202.798025" xlink:href="#C0_0_cdf278b240" y="110.430663"/>
    </g>
    <g clip-path="url(#p801cc4b68c)">
     <use style="fill:#333333;" x="219.361749" xlink:href="#C0_0_cdf278b240" y="93.605399"/>
    </g>
    <g clip-path="url(#p801cc4b68c)">
     <use style="fill:#333333;" x="82.205568" xlink:href="#C0_0_cdf278b240" y="87.336268"/>
    </g>
    <g clip-path="url(#p801cc4b68c)">
     <use style="fill:#333333;" x="145.198204" xlink:href="#C0_0_cdf278b240" y="108.686279"/>
    </g>
    <g clip-path="url(#p801cc4b68c)">
     <use style="fill:#333333;" x="290.176515" xlink:href="#C0_0_cdf278b240" y="100.028843"/>
    </g>
    <g clip-path="url(#p801cc4b68c)">
     <use style="fill:#333333;" x="225.812247" xlink:href="#C0_0_cdf278b240" y="101.886298"/>
    </g>
    <g clip-path="url(#p801cc4b68c)">
     <use style="fill:#333333;" x="280.332102" xlink:href="#C0_0_cdf278b240" y="110.864929"/>
    </g>
    <g clip-path="url(#p801cc4b68c)">
     <use style="fill:#333333;" x="206.905223" xlink:href="#C0_0_cdf278b240" y="105.578017"/>
    </g>
    <g clip-path="url(#p801cc4b68c)">
     <use style="fill:#333333;" x="212.106178" xlink:href="#C0_0_cdf278b240" y="105.306049"/>
    </g>
    <g clip-path="url(#p801cc4b68c)">
     <use style="fill:#333333;" x="279.591482" xlink:href="#C0_0_cdf278b240" y="112.148785"/>
    </g>
    <g clip-path="url(#p801cc4b68c)">
     <use style="fill:#333333;" x="297.177973" xlink:href="#C0_0_cdf278b240" y="85.814393"/>
    </g>
    <g clip-path="url(#p801cc4b68c)">
     <use style="fill:#333333;" x="203.121176" xlink:href="#C0_0_cdf278b240" y="111.70654"/>
    </g>
    <g clip-path="url(#p801cc4b68c)">
     <use style="fill:#333333;" x="274.009236" xlink:href="#C0_0_cdf278b240" y="89.143842"/>
    </g>
    <g clip-path="url(#p801cc4b68c)">
     <use style="fill:#333333;" x="228.319647" xlink:href="#C0_0_cdf278b240" y="99.19999"/>
    </g>
    <g clip-path="url(#p801cc4b68c)">
     <use style="fill:#333333;" x="284.342199" xlink:href="#C0_0_cdf278b240" y="85.208165"/>
    </g>
    <g clip-path="url(#p801cc4b68c)">
     <use style="fill:#333333;" x="291.872285" xlink:href="#C0_0_cdf278b240" y="101.255898"/>
    </g>
    <g clip-path="url(#p801cc4b68c)">
     <use style="fill:#333333;" x="160.658553" xlink:href="#C0_0_cdf278b240" y="108.726948"/>
    </g>
    <g clip-path="url(#p801cc4b68c)">
     <use style="fill:#333333;" x="283.141919" xlink:href="#C0_0_cdf278b240" y="107.804218"/>
    </g>
    <g clip-path="url(#p801cc4b68c)">
     <use style="fill:#333333;" x="284.815733" xlink:href="#C0_0_cdf278b240" y="103.751091"/>
    </g>
    <g clip-path="url(#p801cc4b68c)">
     <use style="fill:#333333;" x="282.223301" xlink:href="#C0_0_cdf278b240" y="85.664166"/>
    </g>
    <g clip-path="url(#p801cc4b68c)">
     <use style="fill:#333333;" x="209.371959" xlink:href="#C0_0_cdf278b240" y="99.378584"/>
    </g>
    <g clip-path="url(#p801cc4b68c)">
     <use style="fill:#333333;" x="220.631499" xlink:href="#C0_0_cdf278b240" y="100.07982"/>
    </g>
    <g clip-path="url(#p801cc4b68c)">
     <use style="fill:#333333;" x="212.421603" xlink:href="#C0_0_cdf278b240" y="80.737286"/>
    </g>
    <g clip-path="url(#p801cc4b68c)">
     <use style="fill:#333333;" x="225.466179" xlink:href="#C0_0_cdf278b240" y="100.811985"/>
    </g>
    <g clip-path="url(#p801cc4b68c)">
     <use style="fill:#333333;" x="276.56079" xlink:href="#C0_0_cdf278b240" y="99.659148"/>
    </g>
    <g clip-path="url(#p801cc4b68c)">
     <use style="fill:#333333;" x="222.976887" xlink:href="#C0_0_cdf278b240" y="80.487339"/>
    </g>
    <g clip-path="url(#p801cc4b68c)">
     <use style="fill:#333333;" x="277.446996" xlink:href="#C0_0_cdf278b240" y="105.67619"/>
    </g>
    <g clip-path="url(#p801cc4b68c)">
     <use style="fill:#333333;" x="147.540256" xlink:href="#C0_0_cdf278b240" y="82.43498"/>
    </g>
    <g clip-path="url(#p801cc4b68c)">
     <use style="fill:#333333;" x="294.240106" xlink:href="#C0_0_cdf278b240" y="107.770271"/>
    </g>
    <g clip-path="url(#p801cc4b68c)">
     <use style="fill:#333333;" x="71.161229" xlink:href="#C0_0_cdf278b240" y="103.687806"/>
    </g>
    <g clip-path="url(#p801cc4b68c)">
     <use style="fill:#333333;" x="282.903135" xlink:href="#C0_0_cdf278b240" y="92.144131"/>
    </g>
    <g clip-path="url(#p801cc4b68c)">
     <use style="fill:#333333;" x="83.687209" xlink:href="#C0_0_cdf278b240" y="110.071932"/>
    </g>
    <g clip-path="url(#p801cc4b68c)">
     <use style="fill:#333333;" x="294.040872" xlink:href="#C0_0_cdf278b240" y="94.49721"/>
    </g>
    <g clip-path="url(#p801cc4b68c)">
     <use style="fill:#333333;" x="280.893716" xlink:href="#C0_0_cdf278b240" y="96.930983"/>
    </g>
    <g clip-path="url(#p801cc4b68c)">
     <use style="fill:#333333;" x="210.870816" xlink:href="#C0_0_cdf278b240" y="88.546421"/>
    </g>
    <g clip-path="url(#p801cc4b68c)">
     <use style="fill:#333333;" x="277.489631" xlink:href="#C0_0_cdf278b240" y="98.061032"/>
    </g>
    <g clip-path="url(#p801cc4b68c)">
     <use style="fill:#333333;" x="223.151345" xlink:href="#C0_0_cdf278b240" y="109.271123"/>
    </g>
    <g clip-path="url(#p801cc4b68c)">
     <use style="fill:#333333;" x="224.902548" xlink:href="#C0_0_cdf278b240" y="102.097386"/>
    </g>
    <g clip-path="url(#p801cc4b68c)">
     <use style="fill:#333333;" x="290.965956" xlink:href="#C0_0_cdf278b240" y="99.356226"/>
    </g>
    <g clip-path="url(#p801cc4b68c)">
     <use style="fill:#333333;" x="140.598428" xlink:href="#C0_0_cdf278b240" y="81.668455"/>
    </g>
    <g clip-path="url(#p801cc4b68c)">
     <use style="fill:#333333;" x="352.807979" xlink:href="#C0_0_cdf278b240" y="88.173532"/>
    </g>
    <g clip-path="url(#p801cc4b68c)">
     <use style="fill:#333333;" x="224.100255" xlink:href="#C0_0_cdf278b240" y="82.259231"/>
    </g>
    <g clip-path="url(#p801cc4b68c)">
     <use style="fill:#333333;" x="161.767872" xlink:href="#C0_0_cdf278b240" y="103.871822"/>
    </g>
    <g clip-path="url(#p801cc4b68c)">
     <use style="fill:#333333;" x="210.077295" xlink:href="#C0_0_cdf278b240" y="111.461133"/>
    </g>
    <g clip-path="url(#p801cc4b68c)">
     <use style="fill:#333333;" x="160.989712" xlink:href="#C0_0_cdf278b240" y="87.909172"/>
    </g>
    <g clip-path="url(#p801cc4b68c)">
     <use style="fill:#333333;" x="85.365154" xlink:href="#C0_0_cdf278b240" y="112.082174"/>
    </g>
   </g>
   <g id="text_7">
    <!-- Rule-of-Thumb: You shouldn't touch other people. -->
    <defs>
     <path d="M 7.859375 0 
L 7.859375 71.578125 
L 39.59375 71.578125 
Q 49.171875 71.578125 54.140625 69.640625 
Q 59.125 67.71875 62.109375 62.828125 
Q 65.09375 57.953125 65.09375 52.046875 
Q 65.09375 44.4375 60.15625 39.203125 
Q 55.21875 33.984375 44.921875 32.5625 
Q 48.6875 30.765625 50.640625 29 
Q 54.78125 25.203125 58.5 19.484375 
L 70.953125 0 
L 59.03125 0 
L 49.5625 14.890625 
Q 45.40625 21.34375 42.71875 24.75 
Q 40.046875 28.171875 37.921875 29.53125 
Q 35.796875 30.90625 33.59375 31.453125 
Q 31.984375 31.78125 28.328125 31.78125 
L 17.328125 31.78125 
L 17.328125 0 
z
M 17.328125 39.984375 
L 37.703125 39.984375 
Q 44.1875 39.984375 47.84375 41.328125 
Q 51.515625 42.671875 53.421875 45.625 
Q 55.328125 48.578125 55.328125 52.046875 
Q 55.328125 57.125 51.640625 60.390625 
Q 47.953125 63.671875 39.984375 63.671875 
L 17.328125 63.671875 
z
" id="ArialMT-82"/>
     <path d="M 40.578125 0 
L 40.578125 7.625 
Q 34.515625 -1.171875 24.125 -1.171875 
Q 19.53125 -1.171875 15.546875 0.578125 
Q 11.578125 2.34375 9.640625 5 
Q 7.71875 7.671875 6.9375 11.53125 
Q 6.390625 14.109375 6.390625 19.734375 
L 6.390625 51.859375 
L 15.1875 51.859375 
L 15.1875 23.09375 
Q 15.1875 16.21875 15.71875 13.8125 
Q 16.546875 10.359375 19.234375 8.375 
Q 21.921875 6.390625 25.875 6.390625 
Q 29.828125 6.390625 33.296875 8.421875 
Q 36.765625 10.453125 38.203125 13.9375 
Q 39.65625 17.4375 39.65625 24.078125 
L 39.65625 51.859375 
L 48.4375 51.859375 
L 48.4375 0 
z
" id="ArialMT-117"/>
     <path d="M 3.171875 21.484375 
L 3.171875 30.328125 
L 30.171875 30.328125 
L 30.171875 21.484375 
z
" id="ArialMT-45"/>
     <path d="M 8.6875 0 
L 8.6875 45.015625 
L 0.921875 45.015625 
L 0.921875 51.859375 
L 8.6875 51.859375 
L 8.6875 57.375 
Q 8.6875 62.59375 9.625 65.140625 
Q 10.890625 68.5625 14.078125 70.671875 
Q 17.28125 72.796875 23.046875 72.796875 
Q 26.765625 72.796875 31.25 71.921875 
L 29.9375 64.265625 
Q 27.203125 64.75 24.75 64.75 
Q 20.75 64.75 19.09375 63.03125 
Q 17.4375 61.328125 17.4375 56.640625 
L 17.4375 51.859375 
L 27.546875 51.859375 
L 27.546875 45.015625 
L 17.4375 45.015625 
L 17.4375 0 
z
" id="ArialMT-102"/>
     <path d="M 25.921875 0 
L 25.921875 63.140625 
L 2.34375 63.140625 
L 2.34375 71.578125 
L 59.078125 71.578125 
L 59.078125 63.140625 
L 35.40625 63.140625 
L 35.40625 0 
z
" id="ArialMT-84"/>
     <path d="M 6.59375 0 
L 6.59375 71.578125 
L 15.375 71.578125 
L 15.375 45.90625 
Q 21.53125 53.03125 30.90625 53.03125 
Q 36.671875 53.03125 40.921875 50.75 
Q 45.171875 48.484375 47 44.484375 
Q 48.828125 40.484375 48.828125 32.859375 
L 48.828125 0 
L 40.046875 0 
L 40.046875 32.859375 
Q 40.046875 39.453125 37.1875 42.453125 
Q 34.328125 45.453125 29.109375 45.453125 
Q 25.203125 45.453125 21.75 43.421875 
Q 18.3125 41.40625 16.84375 37.9375 
Q 15.375 34.46875 15.375 28.375 
L 15.375 0 
z
" id="ArialMT-104"/>
     <path d="M 14.703125 0 
L 6.546875 0 
L 6.546875 71.578125 
L 15.328125 71.578125 
L 15.328125 46.046875 
Q 20.90625 53.03125 29.546875 53.03125 
Q 34.328125 53.03125 38.59375 51.09375 
Q 42.875 49.171875 45.625 45.671875 
Q 48.390625 42.1875 49.953125 37.25 
Q 51.515625 32.328125 51.515625 26.703125 
Q 51.515625 13.375 44.921875 6.09375 
Q 38.328125 -1.171875 29.109375 -1.171875 
Q 19.921875 -1.171875 14.703125 6.5 
z
M 14.59375 26.3125 
Q 14.59375 17 17.140625 12.84375 
Q 21.296875 6.0625 28.375 6.0625 
Q 34.125 6.0625 38.328125 11.0625 
Q 42.53125 16.0625 42.53125 25.984375 
Q 42.53125 36.140625 38.5 40.96875 
Q 34.46875 45.796875 28.765625 45.796875 
Q 23 45.796875 18.796875 40.796875 
Q 14.59375 35.796875 14.59375 26.3125 
z
" id="ArialMT-98"/>
     <path d="M 9.03125 41.84375 
L 9.03125 51.859375 
L 19.046875 51.859375 
L 19.046875 41.84375 
z
M 9.03125 0 
L 9.03125 10.015625 
L 19.046875 10.015625 
L 19.046875 0 
z
" id="ArialMT-58"/>
     <path d="M 27.875 0 
L 27.875 30.328125 
L 0.296875 71.578125 
L 11.8125 71.578125 
L 25.921875 50 
Q 29.828125 43.953125 33.203125 37.890625 
Q 36.421875 43.5 41.015625 50.53125 
L 54.890625 71.578125 
L 65.921875 71.578125 
L 37.359375 30.328125 
L 37.359375 0 
z
" id="ArialMT-89"/>
     <path d="M 6.640625 46.234375 
L 4.390625 59.625 
L 4.390625 71.578125 
L 14.40625 71.578125 
L 14.40625 59.625 
L 12.0625 46.234375 
z
" id="ArialMT-39"/>
     <path d="M 9.078125 0 
L 9.078125 10.015625 
L 19.09375 10.015625 
L 19.09375 0 
z
" id="ArialMT-46"/>
    </defs>
    <g style="fill:#262626;" transform="translate(84.103125 19.24965)scale(0.12 -0.12)">
     <use xlink:href="#ArialMT-82"/>
     <use x="72.216797" xlink:href="#ArialMT-117"/>
     <use x="127.832031" xlink:href="#ArialMT-108"/>
     <use x="150.048828" xlink:href="#ArialMT-101"/>
     <use x="205.664062" xlink:href="#ArialMT-45"/>
     <use x="238.964844" xlink:href="#ArialMT-111"/>
     <use x="294.580078" xlink:href="#ArialMT-102"/>
     <use x="322.363281" xlink:href="#ArialMT-45"/>
     <use x="355.664062" xlink:href="#ArialMT-84"/>
     <use x="416.748047" xlink:href="#ArialMT-104"/>
     <use x="472.363281" xlink:href="#ArialMT-117"/>
     <use x="527.978516" xlink:href="#ArialMT-109"/>
     <use x="611.279297" xlink:href="#ArialMT-98"/>
     <use x="666.894531" xlink:href="#ArialMT-58"/>
     <use x="694.677734" xlink:href="#ArialMT-32"/>
     <use x="720.710938" xlink:href="#ArialMT-89"/>
     <use x="778.285156" xlink:href="#ArialMT-111"/>
     <use x="833.900391" xlink:href="#ArialMT-117"/>
     <use x="889.515625" xlink:href="#ArialMT-32"/>
     <use x="917.298828" xlink:href="#ArialMT-115"/>
     <use x="967.298828" xlink:href="#ArialMT-104"/>
     <use x="1022.914062" xlink:href="#ArialMT-111"/>
     <use x="1078.529297" xlink:href="#ArialMT-117"/>
     <use x="1134.144531" xlink:href="#ArialMT-108"/>
     <use x="1156.361328" xlink:href="#ArialMT-100"/>
     <use x="1211.976562" xlink:href="#ArialMT-110"/>
     <use x="1267.591797" xlink:href="#ArialMT-39"/>
     <use x="1286.683594" xlink:href="#ArialMT-116"/>
     <use x="1314.466797" xlink:href="#ArialMT-32"/>
     <use x="1342.25" xlink:href="#ArialMT-116"/>
     <use x="1370.033203" xlink:href="#ArialMT-111"/>
     <use x="1425.648438" xlink:href="#ArialMT-117"/>
     <use x="1481.263672" xlink:href="#ArialMT-99"/>
     <use x="1531.263672" xlink:href="#ArialMT-104"/>
     <use x="1586.878906" xlink:href="#ArialMT-32"/>
     <use x="1614.662109" xlink:href="#ArialMT-111"/>
     <use x="1670.277344" xlink:href="#ArialMT-116"/>
     <use x="1698.060547" xlink:href="#ArialMT-104"/>
     <use x="1753.675781" xlink:href="#ArialMT-101"/>
     <use x="1809.291016" xlink:href="#ArialMT-114"/>
     <use x="1842.591797" xlink:href="#ArialMT-32"/>
     <use x="1870.375" xlink:href="#ArialMT-112"/>
     <use x="1925.990234" xlink:href="#ArialMT-101"/>
     <use x="1981.605469" xlink:href="#ArialMT-111"/>
     <use x="2037.220703" xlink:href="#ArialMT-112"/>
     <use x="2092.835938" xlink:href="#ArialMT-108"/>
     <use x="2115.052734" xlink:href="#ArialMT-101"/>
     <use x="2170.667969" xlink:href="#ArialMT-46"/>
    </g>
   </g>
  </g>
 </g>
 <defs>
  <clipPath id="p801cc4b68c">
   <rect height="142.087575" width="406.08" x="12.96" y="25.24965"/>
  </clipPath>
 </defs>
</svg>
