<?xml version="1.0" encoding="utf-8" standalone="no"?>
<!DOCTYPE svg PUBLIC "-//W3C//DTD SVG 1.1//EN"
  "http://www.w3.org/Graphics/SVG/1.1/DTD/svg11.dtd">
<!-- Created with matplotlib (https://matplotlib.org/) -->
<svg height="216pt" version="1.1" viewBox="0 0 432 216" width="432pt" xmlns="http://www.w3.org/2000/svg" xmlns:xlink="http://www.w3.org/1999/xlink">
 <defs>
  <style type="text/css">
*{stroke-linecap:butt;stroke-linejoin:round;}
  </style>
 </defs>
 <g id="figure_1">
  <g id="patch_1">
   <path d="M 0 216 
L 432 216 
L 432 0 
L 0 0 
z
" style="fill:#ffffff;"/>
  </g>
  <g id="axes_1">
   <g id="patch_2">
    <path d="M 12.96 167.337225 
L 419.04 167.337225 
L 419.04 25.24965 
L 12.96 25.24965 
z
" style="fill:#eaeaf2;"/>
   </g>
   <g id="matplotlib.axis_1">
    <g id="xtick_1">
     <g id="line2d_1">
      <path clip-path="url(#p0d9568e2fe)" d="M 80.64 167.337225 
L 80.64 25.24965 
" style="fill:none;stroke:#ffffff;stroke-linecap:round;"/>
     </g>
     <g id="text_1">
      <!-- Almost -->
      <defs>
       <path d="M -0.140625 0 
L 27.34375 71.578125 
L 37.546875 71.578125 
L 66.84375 0 
L 56.0625 0 
L 47.703125 21.6875 
L 17.78125 21.6875 
L 9.90625 0 
z
M 20.515625 29.390625 
L 44.78125 29.390625 
L 37.3125 49.21875 
Q 33.890625 58.25 32.234375 64.0625 
Q 30.859375 57.171875 28.375 50.390625 
z
" id="ArialMT-65"/>
       <path d="M 6.390625 0 
L 6.390625 71.578125 
L 15.1875 71.578125 
L 15.1875 0 
z
" id="ArialMT-108"/>
       <path d="M 6.59375 0 
L 6.59375 51.859375 
L 14.453125 51.859375 
L 14.453125 44.578125 
Q 16.890625 48.390625 20.9375 50.703125 
Q 25 53.03125 30.171875 53.03125 
Q 35.9375 53.03125 39.625 50.640625 
Q 43.3125 48.25 44.828125 43.953125 
Q 50.984375 53.03125 60.84375 53.03125 
Q 68.5625 53.03125 72.703125 48.75 
Q 76.859375 44.484375 76.859375 35.59375 
L 76.859375 0 
L 68.109375 0 
L 68.109375 32.671875 
Q 68.109375 37.9375 67.25 40.25 
Q 66.40625 42.578125 64.15625 43.984375 
Q 61.921875 45.40625 58.890625 45.40625 
Q 53.421875 45.40625 49.796875 41.765625 
Q 46.1875 38.140625 46.1875 30.125 
L 46.1875 0 
L 37.40625 0 
L 37.40625 33.6875 
Q 37.40625 39.546875 35.25 42.46875 
Q 33.109375 45.40625 28.21875 45.40625 
Q 24.515625 45.40625 21.359375 43.453125 
Q 18.21875 41.5 16.796875 37.734375 
Q 15.375 33.984375 15.375 26.90625 
L 15.375 0 
z
" id="ArialMT-109"/>
       <path d="M 3.328125 25.921875 
Q 3.328125 40.328125 11.328125 47.265625 
Q 18.015625 53.03125 27.640625 53.03125 
Q 38.328125 53.03125 45.109375 46.015625 
Q 51.90625 39.015625 51.90625 26.65625 
Q 51.90625 16.65625 48.90625 10.90625 
Q 45.90625 5.171875 40.15625 2 
Q 34.421875 -1.171875 27.640625 -1.171875 
Q 16.75 -1.171875 10.03125 5.8125 
Q 3.328125 12.796875 3.328125 25.921875 
z
M 12.359375 25.921875 
Q 12.359375 15.96875 16.703125 11.015625 
Q 21.046875 6.0625 27.640625 6.0625 
Q 34.1875 6.0625 38.53125 11.03125 
Q 42.875 16.015625 42.875 26.21875 
Q 42.875 35.84375 38.5 40.796875 
Q 34.125 45.75 27.640625 45.75 
Q 21.046875 45.75 16.703125 40.8125 
Q 12.359375 35.890625 12.359375 25.921875 
z
" id="ArialMT-111"/>
       <path d="M 3.078125 15.484375 
L 11.765625 16.84375 
Q 12.5 11.625 15.84375 8.84375 
Q 19.1875 6.0625 25.203125 6.0625 
Q 31.25 6.0625 34.171875 8.515625 
Q 37.109375 10.984375 37.109375 14.3125 
Q 37.109375 17.28125 34.515625 19 
Q 32.71875 20.171875 25.53125 21.96875 
Q 15.875 24.421875 12.140625 26.203125 
Q 8.40625 27.984375 6.46875 31.125 
Q 4.546875 34.28125 4.546875 38.09375 
Q 4.546875 41.546875 6.125 44.5 
Q 7.71875 47.46875 10.453125 49.421875 
Q 12.5 50.921875 16.03125 51.96875 
Q 19.578125 53.03125 23.640625 53.03125 
Q 29.734375 53.03125 34.34375 51.265625 
Q 38.96875 49.515625 41.15625 46.5 
Q 43.359375 43.5 44.1875 38.484375 
L 35.59375 37.3125 
Q 35.015625 41.3125 32.203125 43.546875 
Q 29.390625 45.796875 24.265625 45.796875 
Q 18.21875 45.796875 15.625 43.796875 
Q 13.03125 41.796875 13.03125 39.109375 
Q 13.03125 37.40625 14.109375 36.03125 
Q 15.1875 34.625 17.484375 33.6875 
Q 18.796875 33.203125 25.25 31.453125 
Q 34.578125 28.953125 38.25 27.359375 
Q 41.9375 25.78125 44.03125 22.75 
Q 46.140625 19.734375 46.140625 15.234375 
Q 46.140625 10.84375 43.578125 6.953125 
Q 41.015625 3.078125 36.171875 0.953125 
Q 31.34375 -1.171875 25.25 -1.171875 
Q 15.140625 -1.171875 9.84375 3.03125 
Q 4.546875 7.234375 3.078125 15.484375 
z
" id="ArialMT-115"/>
       <path d="M 25.78125 7.859375 
L 27.046875 0.09375 
Q 23.34375 -0.6875 20.40625 -0.6875 
Q 15.625 -0.6875 12.984375 0.828125 
Q 10.359375 2.34375 9.28125 4.8125 
Q 8.203125 7.28125 8.203125 15.1875 
L 8.203125 45.015625 
L 1.765625 45.015625 
L 1.765625 51.859375 
L 8.203125 51.859375 
L 8.203125 64.703125 
L 16.9375 69.96875 
L 16.9375 51.859375 
L 25.78125 51.859375 
L 25.78125 45.015625 
L 16.9375 45.015625 
L 16.9375 14.703125 
Q 16.9375 10.9375 17.40625 9.859375 
Q 17.875 8.796875 18.921875 8.15625 
Q 19.96875 7.515625 21.921875 7.515625 
Q 23.390625 7.515625 25.78125 7.859375 
z
" id="ArialMT-116"/>
      </defs>
      <g style="fill:#262626;" transform="translate(65.359531 183.995037)scale(0.1 -0.1)">
       <use xlink:href="#ArialMT-65"/>
       <use x="66.699219" xlink:href="#ArialMT-108"/>
       <use x="88.916016" xlink:href="#ArialMT-109"/>
       <use x="172.216797" xlink:href="#ArialMT-111"/>
       <use x="227.832031" xlink:href="#ArialMT-115"/>
       <use x="277.832031" xlink:href="#ArialMT-116"/>
      </g>
      <!-- no one -->
      <defs>
       <path d="M 6.59375 0 
L 6.59375 51.859375 
L 14.5 51.859375 
L 14.5 44.484375 
Q 20.21875 53.03125 31 53.03125 
Q 35.6875 53.03125 39.625 51.34375 
Q 43.5625 49.65625 45.515625 46.921875 
Q 47.46875 44.1875 48.25 40.4375 
Q 48.734375 37.984375 48.734375 31.890625 
L 48.734375 0 
L 39.9375 0 
L 39.9375 31.546875 
Q 39.9375 36.921875 38.90625 39.578125 
Q 37.890625 42.234375 35.28125 43.8125 
Q 32.671875 45.40625 29.15625 45.40625 
Q 23.53125 45.40625 19.453125 41.84375 
Q 15.375 38.28125 15.375 28.328125 
L 15.375 0 
z
" id="ArialMT-110"/>
       <path id="ArialMT-32"/>
       <path d="M 42.09375 16.703125 
L 51.171875 15.578125 
Q 49.03125 7.625 43.21875 3.21875 
Q 37.40625 -1.171875 28.375 -1.171875 
Q 17 -1.171875 10.328125 5.828125 
Q 3.65625 12.84375 3.65625 25.484375 
Q 3.65625 38.578125 10.390625 45.796875 
Q 17.140625 53.03125 27.875 53.03125 
Q 38.28125 53.03125 44.875 45.953125 
Q 51.46875 38.875 51.46875 26.03125 
Q 51.46875 25.25 51.421875 23.6875 
L 12.75 23.6875 
Q 13.234375 15.140625 17.578125 10.59375 
Q 21.921875 6.0625 28.421875 6.0625 
Q 33.25 6.0625 36.671875 8.59375 
Q 40.09375 11.140625 42.09375 16.703125 
z
M 13.234375 30.90625 
L 42.1875 30.90625 
Q 41.609375 37.453125 38.875 40.71875 
Q 34.671875 45.796875 27.984375 45.796875 
Q 21.921875 45.796875 17.796875 41.75 
Q 13.671875 37.703125 13.234375 30.90625 
z
" id="ArialMT-101"/>
      </defs>
      <g style="fill:#262626;" transform="translate(65.348594 194.571912)scale(0.1 -0.1)">
       <use xlink:href="#ArialMT-110"/>
       <use x="55.615234" xlink:href="#ArialMT-111"/>
       <use x="111.230469" xlink:href="#ArialMT-32"/>
       <use x="139.013672" xlink:href="#ArialMT-111"/>
       <use x="194.628906" xlink:href="#ArialMT-110"/>
       <use x="250.244141" xlink:href="#ArialMT-101"/>
      </g>
     </g>
    </g>
    <g id="xtick_2">
     <g id="line2d_2">
      <path clip-path="url(#p0d9568e2fe)" d="M 148.32 167.337225 
L 148.32 25.24965 
" style="fill:none;stroke:#ffffff;stroke-linecap:round;"/>
     </g>
     <g id="text_2">
      <!-- Uncommon -->
      <defs>
       <path d="M 54.6875 71.578125 
L 64.15625 71.578125 
L 64.15625 30.21875 
Q 64.15625 19.4375 61.71875 13.078125 
Q 59.28125 6.734375 52.90625 2.75 
Q 46.53125 -1.21875 36.1875 -1.21875 
Q 26.125 -1.21875 19.71875 2.25 
Q 13.328125 5.71875 10.59375 12.28125 
Q 7.859375 18.84375 7.859375 30.21875 
L 7.859375 71.578125 
L 17.328125 71.578125 
L 17.328125 30.28125 
Q 17.328125 20.953125 19.0625 16.53125 
Q 20.796875 12.109375 25.015625 9.71875 
Q 29.25 7.328125 35.359375 7.328125 
Q 45.796875 7.328125 50.234375 12.0625 
Q 54.6875 16.796875 54.6875 30.28125 
z
" id="ArialMT-85"/>
       <path d="M 40.4375 19 
L 49.078125 17.875 
Q 47.65625 8.9375 41.8125 3.875 
Q 35.984375 -1.171875 27.484375 -1.171875 
Q 16.84375 -1.171875 10.375 5.78125 
Q 3.90625 12.75 3.90625 25.734375 
Q 3.90625 34.125 6.6875 40.421875 
Q 9.46875 46.734375 15.15625 49.875 
Q 20.84375 53.03125 27.546875 53.03125 
Q 35.984375 53.03125 41.359375 48.75 
Q 46.734375 44.484375 48.25 36.625 
L 39.703125 35.296875 
Q 38.484375 40.53125 35.375 43.15625 
Q 32.28125 45.796875 27.875 45.796875 
Q 21.234375 45.796875 17.078125 41.03125 
Q 12.9375 36.28125 12.9375 25.984375 
Q 12.9375 15.53125 16.9375 10.796875 
Q 20.953125 6.0625 27.390625 6.0625 
Q 32.5625 6.0625 36.03125 9.234375 
Q 39.5 12.40625 40.4375 19 
z
" id="ArialMT-99"/>
      </defs>
      <g style="fill:#262626;" transform="translate(122.7575 183.995037)scale(0.1 -0.1)">
       <use xlink:href="#ArialMT-85"/>
       <use x="72.216797" xlink:href="#ArialMT-110"/>
       <use x="127.832031" xlink:href="#ArialMT-99"/>
       <use x="177.832031" xlink:href="#ArialMT-111"/>
       <use x="233.447266" xlink:href="#ArialMT-109"/>
       <use x="316.748047" xlink:href="#ArialMT-109"/>
       <use x="400.048828" xlink:href="#ArialMT-111"/>
       <use x="455.664062" xlink:href="#ArialMT-110"/>
      </g>
     </g>
    </g>
    <g id="xtick_3">
     <g id="line2d_3">
      <path clip-path="url(#p0d9568e2fe)" d="M 216 167.337225 
L 216 25.24965 
" style="fill:none;stroke:#ffffff;stroke-linecap:round;"/>
     </g>
     <g id="text_3">
      <!-- Controversial -->
      <defs>
       <path d="M 58.796875 25.09375 
L 68.265625 22.703125 
Q 65.28125 11.03125 57.546875 4.90625 
Q 49.8125 -1.21875 38.625 -1.21875 
Q 27.046875 -1.21875 19.796875 3.484375 
Q 12.546875 8.203125 8.765625 17.140625 
Q 4.984375 26.078125 4.984375 36.328125 
Q 4.984375 47.515625 9.25 55.828125 
Q 13.53125 64.15625 21.40625 68.46875 
Q 29.296875 72.796875 38.765625 72.796875 
Q 49.515625 72.796875 56.828125 67.328125 
Q 64.15625 61.859375 67.046875 51.953125 
L 57.71875 49.75 
Q 55.21875 57.5625 50.484375 61.125 
Q 45.75 64.703125 38.578125 64.703125 
Q 30.328125 64.703125 24.78125 60.734375 
Q 19.234375 56.78125 16.984375 50.109375 
Q 14.75 43.453125 14.75 36.375 
Q 14.75 27.25 17.40625 20.4375 
Q 20.0625 13.625 25.671875 10.25 
Q 31.296875 6.890625 37.84375 6.890625 
Q 45.796875 6.890625 51.3125 11.46875 
Q 56.84375 16.0625 58.796875 25.09375 
z
" id="ArialMT-67"/>
       <path d="M 6.5 0 
L 6.5 51.859375 
L 14.40625 51.859375 
L 14.40625 44 
Q 17.4375 49.515625 20 51.265625 
Q 22.5625 53.03125 25.640625 53.03125 
Q 30.078125 53.03125 34.671875 50.203125 
L 31.640625 42.046875 
Q 28.421875 43.953125 25.203125 43.953125 
Q 22.3125 43.953125 20.015625 42.21875 
Q 17.71875 40.484375 16.75 37.40625 
Q 15.28125 32.71875 15.28125 27.15625 
L 15.28125 0 
z
" id="ArialMT-114"/>
       <path d="M 21 0 
L 1.265625 51.859375 
L 10.546875 51.859375 
L 21.6875 20.796875 
Q 23.484375 15.765625 25 10.359375 
Q 26.171875 14.453125 28.265625 20.21875 
L 39.796875 51.859375 
L 48.828125 51.859375 
L 29.203125 0 
z
" id="ArialMT-118"/>
       <path d="M 6.640625 61.46875 
L 6.640625 71.578125 
L 15.4375 71.578125 
L 15.4375 61.46875 
z
M 6.640625 0 
L 6.640625 51.859375 
L 15.4375 51.859375 
L 15.4375 0 
z
" id="ArialMT-105"/>
       <path d="M 40.4375 6.390625 
Q 35.546875 2.25 31.03125 0.53125 
Q 26.515625 -1.171875 21.34375 -1.171875 
Q 12.796875 -1.171875 8.203125 3 
Q 3.609375 7.171875 3.609375 13.671875 
Q 3.609375 17.484375 5.34375 20.625 
Q 7.078125 23.78125 9.890625 25.6875 
Q 12.703125 27.59375 16.21875 28.5625 
Q 18.796875 29.25 24.03125 29.890625 
Q 34.671875 31.15625 39.703125 32.90625 
Q 39.75 34.71875 39.75 35.203125 
Q 39.75 40.578125 37.25 42.78125 
Q 33.890625 45.75 27.25 45.75 
Q 21.046875 45.75 18.09375 43.578125 
Q 15.140625 41.40625 13.71875 35.890625 
L 5.125 37.0625 
Q 6.296875 42.578125 8.984375 45.96875 
Q 11.671875 49.359375 16.75 51.1875 
Q 21.828125 53.03125 28.515625 53.03125 
Q 35.15625 53.03125 39.296875 51.46875 
Q 43.453125 49.90625 45.40625 47.53125 
Q 47.359375 45.171875 48.140625 41.546875 
Q 48.578125 39.3125 48.578125 33.453125 
L 48.578125 21.734375 
Q 48.578125 9.46875 49.140625 6.21875 
Q 49.703125 2.984375 51.375 0 
L 42.1875 0 
Q 40.828125 2.734375 40.4375 6.390625 
z
M 39.703125 26.03125 
Q 34.90625 24.078125 25.34375 22.703125 
Q 19.921875 21.921875 17.671875 20.9375 
Q 15.4375 19.96875 14.203125 18.09375 
Q 12.984375 16.21875 12.984375 13.921875 
Q 12.984375 10.40625 15.640625 8.0625 
Q 18.3125 5.71875 23.4375 5.71875 
Q 28.515625 5.71875 32.46875 7.9375 
Q 36.421875 10.15625 38.28125 14.015625 
Q 39.703125 17 39.703125 22.796875 
z
" id="ArialMT-97"/>
      </defs>
      <g style="fill:#262626;" transform="translate(186.546094 183.995037)scale(0.1 -0.1)">
       <use xlink:href="#ArialMT-67"/>
       <use x="72.216797" xlink:href="#ArialMT-111"/>
       <use x="127.832031" xlink:href="#ArialMT-110"/>
       <use x="183.447266" xlink:href="#ArialMT-116"/>
       <use x="211.230469" xlink:href="#ArialMT-114"/>
       <use x="244.53125" xlink:href="#ArialMT-111"/>
       <use x="300.146484" xlink:href="#ArialMT-118"/>
       <use x="350.146484" xlink:href="#ArialMT-101"/>
       <use x="405.761719" xlink:href="#ArialMT-114"/>
       <use x="439.0625" xlink:href="#ArialMT-115"/>
       <use x="489.0625" xlink:href="#ArialMT-105"/>
       <use x="511.279297" xlink:href="#ArialMT-97"/>
       <use x="566.894531" xlink:href="#ArialMT-108"/>
      </g>
     </g>
    </g>
    <g id="xtick_4">
     <g id="line2d_4">
      <path clip-path="url(#p0d9568e2fe)" d="M 283.68 167.337225 
L 283.68 25.24965 
" style="fill:none;stroke:#ffffff;stroke-linecap:round;"/>
     </g>
     <g id="text_4">
      <!-- Common -->
      <g style="fill:#262626;" transform="translate(263.397969 183.995037)scale(0.1 -0.1)">
       <use xlink:href="#ArialMT-67"/>
       <use x="72.216797" xlink:href="#ArialMT-111"/>
       <use x="127.832031" xlink:href="#ArialMT-109"/>
       <use x="211.132812" xlink:href="#ArialMT-109"/>
       <use x="294.433594" xlink:href="#ArialMT-111"/>
       <use x="350.048828" xlink:href="#ArialMT-110"/>
      </g>
     </g>
    </g>
    <g id="xtick_5">
     <g id="line2d_5">
      <path clip-path="url(#p0d9568e2fe)" d="M 351.36 167.337225 
L 351.36 25.24965 
" style="fill:none;stroke:#ffffff;stroke-linecap:round;"/>
     </g>
     <g id="text_5">
      <!-- Universal -->
      <g style="fill:#262626;" transform="translate(330.520937 183.995037)scale(0.1 -0.1)">
       <use xlink:href="#ArialMT-85"/>
       <use x="72.216797" xlink:href="#ArialMT-110"/>
       <use x="127.832031" xlink:href="#ArialMT-105"/>
       <use x="150.048828" xlink:href="#ArialMT-118"/>
       <use x="200.048828" xlink:href="#ArialMT-101"/>
       <use x="255.664062" xlink:href="#ArialMT-114"/>
       <use x="288.964844" xlink:href="#ArialMT-115"/>
       <use x="338.964844" xlink:href="#ArialMT-97"/>
       <use x="394.580078" xlink:href="#ArialMT-108"/>
      </g>
     </g>
    </g>
    <g id="text_6">
     <!-- Anticipated agreement -->
     <defs>
      <path d="M 6.59375 -19.875 
L 6.59375 51.859375 
L 14.59375 51.859375 
L 14.59375 45.125 
Q 17.4375 49.078125 21 51.046875 
Q 24.5625 53.03125 29.640625 53.03125 
Q 36.28125 53.03125 41.359375 49.609375 
Q 46.4375 46.1875 49.015625 39.953125 
Q 51.609375 33.734375 51.609375 26.3125 
Q 51.609375 18.359375 48.75 11.984375 
Q 45.90625 5.609375 40.453125 2.21875 
Q 35.015625 -1.171875 29 -1.171875 
Q 24.609375 -1.171875 21.109375 0.6875 
Q 17.625 2.546875 15.375 5.375 
L 15.375 -19.875 
z
M 14.546875 25.640625 
Q 14.546875 15.625 18.59375 10.84375 
Q 22.65625 6.0625 28.421875 6.0625 
Q 34.28125 6.0625 38.453125 11.015625 
Q 42.625 15.96875 42.625 26.375 
Q 42.625 36.28125 38.546875 41.203125 
Q 34.46875 46.140625 28.8125 46.140625 
Q 23.1875 46.140625 18.859375 40.890625 
Q 14.546875 35.640625 14.546875 25.640625 
z
" id="ArialMT-112"/>
      <path d="M 40.234375 0 
L 40.234375 6.546875 
Q 35.296875 -1.171875 25.734375 -1.171875 
Q 19.53125 -1.171875 14.328125 2.25 
Q 9.125 5.671875 6.265625 11.796875 
Q 3.421875 17.921875 3.421875 25.875 
Q 3.421875 33.640625 6 39.96875 
Q 8.59375 46.296875 13.765625 49.65625 
Q 18.953125 53.03125 25.34375 53.03125 
Q 30.03125 53.03125 33.6875 51.046875 
Q 37.359375 49.078125 39.65625 45.90625 
L 39.65625 71.578125 
L 48.390625 71.578125 
L 48.390625 0 
z
M 12.453125 25.875 
Q 12.453125 15.921875 16.640625 10.984375 
Q 20.84375 6.0625 26.5625 6.0625 
Q 32.328125 6.0625 36.34375 10.765625 
Q 40.375 15.484375 40.375 25.140625 
Q 40.375 35.796875 36.265625 40.765625 
Q 32.171875 45.75 26.171875 45.75 
Q 20.3125 45.75 16.375 40.96875 
Q 12.453125 36.1875 12.453125 25.875 
z
" id="ArialMT-100"/>
      <path d="M 4.984375 -4.296875 
L 13.53125 -5.5625 
Q 14.0625 -9.515625 16.5 -11.328125 
Q 19.78125 -13.765625 25.4375 -13.765625 
Q 31.546875 -13.765625 34.859375 -11.328125 
Q 38.1875 -8.890625 39.359375 -4.5 
Q 40.046875 -1.8125 39.984375 6.78125 
Q 34.234375 0 25.640625 0 
Q 14.9375 0 9.078125 7.71875 
Q 3.21875 15.4375 3.21875 26.21875 
Q 3.21875 33.640625 5.90625 39.90625 
Q 8.59375 46.1875 13.6875 49.609375 
Q 18.796875 53.03125 25.6875 53.03125 
Q 34.859375 53.03125 40.828125 45.609375 
L 40.828125 51.859375 
L 48.921875 51.859375 
L 48.921875 7.03125 
Q 48.921875 -5.078125 46.453125 -10.125 
Q 44 -15.1875 38.640625 -18.109375 
Q 33.296875 -21.046875 25.484375 -21.046875 
Q 16.21875 -21.046875 10.5 -16.875 
Q 4.78125 -12.703125 4.984375 -4.296875 
z
M 12.25 26.859375 
Q 12.25 16.65625 16.296875 11.96875 
Q 20.359375 7.28125 26.46875 7.28125 
Q 32.515625 7.28125 36.609375 11.9375 
Q 40.71875 16.609375 40.71875 26.5625 
Q 40.71875 36.078125 36.5 40.90625 
Q 32.28125 45.75 26.3125 45.75 
Q 20.453125 45.75 16.34375 40.984375 
Q 12.25 36.234375 12.25 26.859375 
z
" id="ArialMT-103"/>
     </defs>
     <g style="fill:#262626;" transform="translate(155.96625 209.148787)scale(0.12 -0.12)">
      <use xlink:href="#ArialMT-65"/>
      <use x="66.699219" xlink:href="#ArialMT-110"/>
      <use x="122.314453" xlink:href="#ArialMT-116"/>
      <use x="150.097656" xlink:href="#ArialMT-105"/>
      <use x="172.314453" xlink:href="#ArialMT-99"/>
      <use x="222.314453" xlink:href="#ArialMT-105"/>
      <use x="244.53125" xlink:href="#ArialMT-112"/>
      <use x="300.146484" xlink:href="#ArialMT-97"/>
      <use x="355.761719" xlink:href="#ArialMT-116"/>
      <use x="383.544922" xlink:href="#ArialMT-101"/>
      <use x="439.160156" xlink:href="#ArialMT-100"/>
      <use x="494.775391" xlink:href="#ArialMT-32"/>
      <use x="522.558594" xlink:href="#ArialMT-97"/>
      <use x="578.173828" xlink:href="#ArialMT-103"/>
      <use x="633.789062" xlink:href="#ArialMT-114"/>
      <use x="667.089844" xlink:href="#ArialMT-101"/>
      <use x="722.705078" xlink:href="#ArialMT-101"/>
      <use x="778.320312" xlink:href="#ArialMT-109"/>
      <use x="861.621094" xlink:href="#ArialMT-101"/>
      <use x="917.236328" xlink:href="#ArialMT-110"/>
      <use x="972.851562" xlink:href="#ArialMT-116"/>
     </g>
    </g>
   </g>
   <g id="matplotlib.axis_2">
    <g id="ytick_1"/>
   </g>
   <g id="PolyCollection_1">
    <defs>
     <path d="M 123.813634 -119.512143 
L 123.813634 -119.900982 
L 126.359621 -119.99486 
L 128.905608 -120.116006 
L 131.451596 -120.263486 
L 133.997583 -120.43208 
L 136.54357 -120.611774 
L 139.089557 -120.788252 
L 141.635544 -120.944519 
L 144.181532 -121.063496 
L 146.727519 -121.131064 
L 149.273506 -121.138818 
L 151.819493 -121.0858 
L 154.36548 -120.978718 
L 156.911468 -120.830638 
L 159.457455 -120.658542 
L 162.003442 -120.480555 
L 164.549429 -120.313718 
L 167.095416 -120.173133 
L 169.641403 -120.073057 
L 172.187391 -120.030283 
L 174.733378 -120.069901 
L 177.279365 -120.233209 
L 179.825352 -120.587033 
L 182.371339 -121.232839 
L 184.917327 -122.312748 
L 187.463314 -124.008316 
L 190.009301 -126.52722 
L 192.555288 -130.073921 
L 195.101275 -134.803567 
L 197.647263 -140.763974 
L 200.19325 -147.837388 
L 202.739237 -155.699247 
L 205.285224 -163.812538 
L 207.831211 -171.470959 
L 210.377199 -177.892107 
L 212.923186 -182.346195 
L 215.469173 -184.291824 
L 218.01516 -183.484101 
L 220.561147 -180.025296 
L 223.107134 -174.343564 
L 225.653122 -167.105854 
L 228.199109 -159.089465 
L 230.745096 -151.046359 
L 233.291083 -143.592511 
L 235.83707 -137.143225 
L 238.383058 -131.899587 
L 240.929045 -127.877132 
L 243.475032 -124.959551 
L 246.021019 -122.958919 
L 248.567006 -121.668114 
L 251.112994 -120.897657 
L 253.658981 -120.49549 
L 256.204968 -120.3524 
L 258.750955 -120.397585 
L 261.296942 -120.588787 
L 263.84293 -120.900493 
L 266.388917 -121.312649 
L 268.934904 -121.801583 
L 271.480891 -122.334363 
L 274.026878 -122.867384 
L 276.572866 -123.349347 
L 279.118853 -123.727923 
L 281.66484 -123.958436 
L 284.210827 -124.012259 
L 286.756814 -123.882543 
L 289.302801 -123.585604 
L 291.848789 -123.157533 
L 294.394776 -122.646988 
L 296.940763 -122.106145 
L 299.48675 -121.582123 
L 302.032737 -121.110796 
L 304.578725 -120.713946 
L 307.124712 -120.399703 
L 309.670699 -120.165382 
L 312.216686 -120.0015 
L 314.762673 -119.895805 
L 317.308661 -119.836524 
L 319.854648 -119.814441 
L 322.400635 -119.82379 
L 324.946622 -119.862106 
L 327.492609 -119.929276 
L 330.038597 -120.026033 
L 332.584584 -120.152166 
L 335.130571 -120.304764 
L 337.676558 -120.476893 
L 340.222545 -120.657108 
L 342.768532 -120.8301 
L 345.31452 -120.978525 
L 347.860507 -121.085733 
L 350.406494 -121.138796 
L 352.952481 -121.131057 
L 355.498468 -121.063494 
L 358.044456 -120.944519 
L 360.590443 -120.788252 
L 363.13643 -120.611774 
L 365.682417 -120.43208 
L 368.228404 -120.263486 
L 370.774392 -120.116006 
L 373.320379 -119.99486 
L 375.866366 -119.900982 
L 375.866366 -119.512143 
L 375.866366 -119.512143 
L 373.320379 -119.418265 
L 370.774392 -119.297119 
L 368.228404 -119.149639 
L 365.682417 -118.981045 
L 363.13643 -118.801351 
L 360.590443 -118.624873 
L 358.044456 -118.468606 
L 355.498468 -118.349631 
L 352.952481 -118.282068 
L 350.406494 -118.274329 
L 347.860507 -118.327392 
L 345.31452 -118.4346 
L 342.768532 -118.583025 
L 340.222545 -118.756017 
L 337.676558 -118.936232 
L 335.130571 -119.108361 
L 332.584584 -119.260959 
L 330.038597 -119.387092 
L 327.492609 -119.483849 
L 324.946622 -119.551019 
L 322.400635 -119.589335 
L 319.854648 -119.598684 
L 317.308661 -119.576601 
L 314.762673 -119.51732 
L 312.216686 -119.411625 
L 309.670699 -119.247743 
L 307.124712 -119.013422 
L 304.578725 -118.699179 
L 302.032737 -118.302329 
L 299.48675 -117.831002 
L 296.940763 -117.30698 
L 294.394776 -116.766137 
L 291.848789 -116.255592 
L 289.302801 -115.827521 
L 286.756814 -115.530582 
L 284.210827 -115.400866 
L 281.66484 -115.454689 
L 279.118853 -115.685202 
L 276.572866 -116.063778 
L 274.026878 -116.545741 
L 271.480891 -117.078762 
L 268.934904 -117.611542 
L 266.388917 -118.100476 
L 263.84293 -118.512632 
L 261.296942 -118.824338 
L 258.750955 -119.01554 
L 256.204968 -119.060725 
L 253.658981 -118.917635 
L 251.112994 -118.515468 
L 248.567006 -117.745011 
L 246.021019 -116.454206 
L 243.475032 -114.453574 
L 240.929045 -111.535993 
L 238.383058 -107.513538 
L 235.83707 -102.2699 
L 233.291083 -95.820614 
L 230.745096 -88.366766 
L 228.199109 -80.32366 
L 225.653122 -72.307271 
L 223.107134 -65.069561 
L 220.561147 -59.387829 
L 218.01516 -55.929024 
L 215.469173 -55.121301 
L 212.923186 -57.06693 
L 210.377199 -61.521018 
L 207.831211 -67.942166 
L 205.285224 -75.600587 
L 202.739237 -83.713878 
L 200.19325 -91.575737 
L 197.647263 -98.649151 
L 195.101275 -104.609558 
L 192.555288 -109.339204 
L 190.009301 -112.885905 
L 187.463314 -115.404809 
L 184.917327 -117.100377 
L 182.371339 -118.180286 
L 179.825352 -118.826092 
L 177.279365 -119.179916 
L 174.733378 -119.343224 
L 172.187391 -119.382842 
L 169.641403 -119.340068 
L 167.095416 -119.239992 
L 164.549429 -119.099407 
L 162.003442 -118.93257 
L 159.457455 -118.754583 
L 156.911468 -118.582487 
L 154.36548 -118.434407 
L 151.819493 -118.327325 
L 149.273506 -118.274307 
L 146.727519 -118.282061 
L 144.181532 -118.349629 
L 141.635544 -118.468606 
L 139.089557 -118.624873 
L 136.54357 -118.801351 
L 133.997583 -118.981045 
L 131.451596 -119.149639 
L 128.905608 -119.297119 
L 126.359621 -119.418265 
L 123.813634 -119.512143 
z
" id="m5aaa007707" style="stroke:#6d6d6d;stroke-width:1.5;"/>
    </defs>
    <g clip-path="url(#p0d9568e2fe)">
     <use style="fill:#86e5c1;stroke:#6d6d6d;stroke-width:1.5;" x="0" xlink:href="#m5aaa007707" y="216"/>
    </g>
   </g>
   <g id="line2d_6">
    <path clip-path="url(#p0d9568e2fe)" d="M 216 96.293437 
L 216 96.293437 
" style="fill:none;stroke:#6d6d6d;stroke-linecap:round;stroke-width:1.5;"/>
   </g>
   <g id="line2d_7">
    <path clip-path="url(#p0d9568e2fe)" d="M 216 96.293437 
L 216 96.293437 
" style="fill:none;stroke:#6d6d6d;stroke-linecap:round;stroke-width:4.5;"/>
   </g>
   <g id="patch_3">
    <path d="M 12.96 167.337225 
L 12.96 25.24965 
" style="fill:none;stroke:#ffffff;stroke-linecap:square;stroke-linejoin:miter;stroke-width:1.25;"/>
   </g>
   <g id="patch_4">
    <path d="M 419.04 167.337225 
L 419.04 25.24965 
" style="fill:none;stroke:#ffffff;stroke-linecap:square;stroke-linejoin:miter;stroke-width:1.25;"/>
   </g>
   <g id="patch_5">
    <path d="M 12.96 167.337225 
L 419.04 167.337225 
" style="fill:none;stroke:#ffffff;stroke-linecap:square;stroke-linejoin:miter;stroke-width:1.25;"/>
   </g>
   <g id="patch_6">
    <path d="M 12.96 25.24965 
L 419.04 25.24965 
" style="fill:none;stroke:#ffffff;stroke-linecap:square;stroke-linejoin:miter;stroke-width:1.25;"/>
   </g>
   <g id="PathCollection_1">
    <defs>
     <path d="M 0 1.5 
C 0.397805 1.5 0.77937 1.341951 1.06066 1.06066 
C 1.341951 0.77937 1.5 0.397805 1.5 0 
C 1.5 -0.397805 1.341951 -0.77937 1.06066 -1.06066 
C 0.77937 -1.341951 0.397805 -1.5 0 -1.5 
C -0.397805 -1.5 -0.77937 -1.341951 -1.06066 -1.06066 
C -1.341951 -0.77937 -1.5 -0.397805 -1.5 0 
C -1.5 0.397805 -1.341951 0.77937 -1.06066 1.06066 
C -0.77937 1.341951 -0.397805 1.5 0 1.5 
z
" id="m4782df73be" style="stroke:#6d6d6d;"/>
    </defs>
    <g clip-path="url(#p0d9568e2fe)">
     <use style="fill:#ffffff;stroke:#6d6d6d;" x="216" xlink:href="#m4782df73be" y="96.293437"/>
    </g>
   </g>
   <g id="PathCollection_2">
    <defs>
     <path d="M 0 2.5 
C 0.663008 2.5 1.29895 2.236584 1.767767 1.767767 
C 2.236584 1.29895 2.5 0.663008 2.5 0 
C 2.5 -0.663008 2.236584 -1.29895 1.767767 -1.767767 
C 1.29895 -2.236584 0.663008 -2.5 0 -2.5 
C -0.663008 -2.5 -1.29895 -2.236584 -1.767767 -1.767767 
C -2.236584 -1.29895 -2.5 -0.663008 -2.5 0 
C -2.5 0.663008 -2.236584 1.29895 -1.767767 1.767767 
C -1.29895 2.236584 -0.663008 2.5 0 2.5 
z
" id="C0_0_a0b1f6e06b"/>
    </defs>
    <g clip-path="url(#p0d9568e2fe)">
     <use style="fill:#333333;" x="161.221262" xlink:href="#C0_0_a0b1f6e06b" y="100.611033"/>
    </g>
    <g clip-path="url(#p0d9568e2fe)">
     <use style="fill:#333333;" x="215.555409" xlink:href="#C0_0_a0b1f6e06b" y="94.938821"/>
    </g>
    <g clip-path="url(#p0d9568e2fe)">
     <use style="fill:#333333;" x="205.64883" xlink:href="#C0_0_a0b1f6e06b" y="87.924576"/>
    </g>
    <g clip-path="url(#p0d9568e2fe)">
     <use style="fill:#333333;" x="210.215025" xlink:href="#C0_0_a0b1f6e06b" y="103.85294"/>
    </g>
    <g clip-path="url(#p0d9568e2fe)">
     <use style="fill:#333333;" x="221.398265" xlink:href="#C0_0_a0b1f6e06b" y="105.010016"/>
    </g>
    <g clip-path="url(#p0d9568e2fe)">
     <use style="fill:#333333;" x="225.580885" xlink:href="#C0_0_a0b1f6e06b" y="106.364961"/>
    </g>
    <g clip-path="url(#p0d9568e2fe)">
     <use style="fill:#333333;" x="226.428684" xlink:href="#C0_0_a0b1f6e06b" y="111.341571"/>
    </g>
    <g clip-path="url(#p0d9568e2fe)">
     <use style="fill:#333333;" x="221.69705" xlink:href="#C0_0_a0b1f6e06b" y="90.274375"/>
    </g>
    <g clip-path="url(#p0d9568e2fe)">
     <use style="fill:#333333;" x="227.510919" xlink:href="#C0_0_a0b1f6e06b" y="104.792789"/>
    </g>
    <g clip-path="url(#p0d9568e2fe)">
     <use style="fill:#333333;" x="225.290164" xlink:href="#C0_0_a0b1f6e06b" y="89.080751"/>
    </g>
    <g clip-path="url(#p0d9568e2fe)">
     <use style="fill:#333333;" x="214.804921" xlink:href="#C0_0_a0b1f6e06b" y="102.362457"/>
    </g>
    <g clip-path="url(#p0d9568e2fe)">
     <use style="fill:#333333;" x="357.137326" xlink:href="#C0_0_a0b1f6e06b" y="83.283387"/>
    </g>
    <g clip-path="url(#p0d9568e2fe)">
     <use style="fill:#333333;" x="222.100409" xlink:href="#C0_0_a0b1f6e06b" y="85.497962"/>
    </g>
    <g clip-path="url(#p0d9568e2fe)">
     <use style="fill:#333333;" x="281.978288" xlink:href="#C0_0_a0b1f6e06b" y="97.942822"/>
    </g>
    <g clip-path="url(#p0d9568e2fe)">
     <use style="fill:#333333;" x="275.752939" xlink:href="#C0_0_a0b1f6e06b" y="99.690437"/>
    </g>
    <g clip-path="url(#p0d9568e2fe)">
     <use style="fill:#333333;" x="291.034839" xlink:href="#C0_0_a0b1f6e06b" y="89.208574"/>
    </g>
    <g clip-path="url(#p0d9568e2fe)">
     <use style="fill:#333333;" x="214.181676" xlink:href="#C0_0_a0b1f6e06b" y="99.087913"/>
    </g>
    <g clip-path="url(#p0d9568e2fe)">
     <use style="fill:#333333;" x="203.229736" xlink:href="#C0_0_a0b1f6e06b" y="104.267521"/>
    </g>
    <g clip-path="url(#p0d9568e2fe)">
     <use style="fill:#333333;" x="220.23133" xlink:href="#C0_0_a0b1f6e06b" y="94.048602"/>
    </g>
    <g clip-path="url(#p0d9568e2fe)">
     <use style="fill:#333333;" x="217.302917" xlink:href="#C0_0_a0b1f6e06b" y="88.502054"/>
    </g>
    <g clip-path="url(#p0d9568e2fe)">
     <use style="fill:#333333;" x="229.495116" xlink:href="#C0_0_a0b1f6e06b" y="100.163533"/>
    </g>
    <g clip-path="url(#p0d9568e2fe)">
     <use style="fill:#333333;" x="226.183028" xlink:href="#C0_0_a0b1f6e06b" y="101.752959"/>
    </g>
    <g clip-path="url(#p0d9568e2fe)">
     <use style="fill:#333333;" x="208.887668" xlink:href="#C0_0_a0b1f6e06b" y="106.074814"/>
    </g>
    <g clip-path="url(#p0d9568e2fe)">
     <use style="fill:#333333;" x="225.339901" xlink:href="#C0_0_a0b1f6e06b" y="91.334145"/>
    </g>
    <g clip-path="url(#p0d9568e2fe)">
     <use style="fill:#333333;" x="206.968301" xlink:href="#C0_0_a0b1f6e06b" y="83.868289"/>
    </g>
    <g clip-path="url(#p0d9568e2fe)">
     <use style="fill:#333333;" x="208.237949" xlink:href="#C0_0_a0b1f6e06b" y="110.039004"/>
    </g>
    <g clip-path="url(#p0d9568e2fe)">
     <use style="fill:#333333;" x="222.536755" xlink:href="#C0_0_a0b1f6e06b" y="100.135552"/>
    </g>
    <g clip-path="url(#p0d9568e2fe)">
     <use style="fill:#333333;" x="204.252555" xlink:href="#C0_0_a0b1f6e06b" y="103.852236"/>
    </g>
    <g clip-path="url(#p0d9568e2fe)">
     <use style="fill:#333333;" x="224.834445" xlink:href="#C0_0_a0b1f6e06b" y="97.921327"/>
    </g>
    <g clip-path="url(#p0d9568e2fe)">
     <use style="fill:#333333;" x="209.435312" xlink:href="#C0_0_a0b1f6e06b" y="104.502877"/>
    </g>
    <g clip-path="url(#p0d9568e2fe)">
     <use style="fill:#333333;" x="226.861866" xlink:href="#C0_0_a0b1f6e06b" y="108.728048"/>
    </g>
    <g clip-path="url(#p0d9568e2fe)">
     <use style="fill:#333333;" x="214.033301" xlink:href="#C0_0_a0b1f6e06b" y="83.648774"/>
    </g>
    <g clip-path="url(#p0d9568e2fe)">
     <use style="fill:#333333;" x="227.309352" xlink:href="#C0_0_a0b1f6e06b" y="106.013599"/>
    </g>
    <g clip-path="url(#p0d9568e2fe)">
     <use style="fill:#333333;" x="207.827413" xlink:href="#C0_0_a0b1f6e06b" y="88.17133"/>
    </g>
    <g clip-path="url(#p0d9568e2fe)">
     <use style="fill:#333333;" x="224.887904" xlink:href="#C0_0_a0b1f6e06b" y="105.644525"/>
    </g>
    <g clip-path="url(#p0d9568e2fe)">
     <use style="fill:#333333;" x="214.524438" xlink:href="#C0_0_a0b1f6e06b" y="92.984905"/>
    </g>
    <g clip-path="url(#p0d9568e2fe)">
     <use style="fill:#333333;" x="206.939519" xlink:href="#C0_0_a0b1f6e06b" y="86.41708"/>
    </g>
    <g clip-path="url(#p0d9568e2fe)">
     <use style="fill:#333333;" x="210.701406" xlink:href="#C0_0_a0b1f6e06b" y="110.458396"/>
    </g>
    <g clip-path="url(#p0d9568e2fe)">
     <use style="fill:#333333;" x="215.607598" xlink:href="#C0_0_a0b1f6e06b" y="111.494301"/>
    </g>
    <g clip-path="url(#p0d9568e2fe)">
     <use style="fill:#333333;" x="204.979688" xlink:href="#C0_0_a0b1f6e06b" y="85.853499"/>
    </g>
    <g clip-path="url(#p0d9568e2fe)">
     <use style="fill:#333333;" x="205.241711" xlink:href="#C0_0_a0b1f6e06b" y="92.019491"/>
    </g>
    <g clip-path="url(#p0d9568e2fe)">
     <use style="fill:#333333;" x="210.713888" xlink:href="#C0_0_a0b1f6e06b" y="97.663356"/>
    </g>
    <g clip-path="url(#p0d9568e2fe)">
     <use style="fill:#333333;" x="227.095348" xlink:href="#C0_0_a0b1f6e06b" y="88.952647"/>
    </g>
    <g clip-path="url(#p0d9568e2fe)">
     <use style="fill:#333333;" x="218.751809" xlink:href="#C0_0_a0b1f6e06b" y="96.519855"/>
    </g>
    <g clip-path="url(#p0d9568e2fe)">
     <use style="fill:#333333;" x="209.331969" xlink:href="#C0_0_a0b1f6e06b" y="96.385499"/>
    </g>
    <g clip-path="url(#p0d9568e2fe)">
     <use style="fill:#333333;" x="224.213946" xlink:href="#C0_0_a0b1f6e06b" y="100.215896"/>
    </g>
    <g clip-path="url(#p0d9568e2fe)">
     <use style="fill:#333333;" x="210.265685" xlink:href="#C0_0_a0b1f6e06b" y="82.2163"/>
    </g>
    <g clip-path="url(#p0d9568e2fe)">
     <use style="fill:#333333;" x="204.562354" xlink:href="#C0_0_a0b1f6e06b" y="85.172324"/>
    </g>
    <g clip-path="url(#p0d9568e2fe)">
     <use style="fill:#333333;" x="208.538088" xlink:href="#C0_0_a0b1f6e06b" y="83.571676"/>
    </g>
    <g clip-path="url(#p0d9568e2fe)">
     <use style="fill:#333333;" x="228.503535" xlink:href="#C0_0_a0b1f6e06b" y="101.493992"/>
    </g>
   </g>
   <g id="text_7">
    <!-- Rule-of-Thumb: It's okay to have an abortion. -->
    <defs>
     <path d="M 7.859375 0 
L 7.859375 71.578125 
L 39.59375 71.578125 
Q 49.171875 71.578125 54.140625 69.640625 
Q 59.125 67.71875 62.109375 62.828125 
Q 65.09375 57.953125 65.09375 52.046875 
Q 65.09375 44.4375 60.15625 39.203125 
Q 55.21875 33.984375 44.921875 32.5625 
Q 48.6875 30.765625 50.640625 29 
Q 54.78125 25.203125 58.5 19.484375 
L 70.953125 0 
L 59.03125 0 
L 49.5625 14.890625 
Q 45.40625 21.34375 42.71875 24.75 
Q 40.046875 28.171875 37.921875 29.53125 
Q 35.796875 30.90625 33.59375 31.453125 
Q 31.984375 31.78125 28.328125 31.78125 
L 17.328125 31.78125 
L 17.328125 0 
z
M 17.328125 39.984375 
L 37.703125 39.984375 
Q 44.1875 39.984375 47.84375 41.328125 
Q 51.515625 42.671875 53.421875 45.625 
Q 55.328125 48.578125 55.328125 52.046875 
Q 55.328125 57.125 51.640625 60.390625 
Q 47.953125 63.671875 39.984375 63.671875 
L 17.328125 63.671875 
z
" id="ArialMT-82"/>
     <path d="M 40.578125 0 
L 40.578125 7.625 
Q 34.515625 -1.171875 24.125 -1.171875 
Q 19.53125 -1.171875 15.546875 0.578125 
Q 11.578125 2.34375 9.640625 5 
Q 7.71875 7.671875 6.9375 11.53125 
Q 6.390625 14.109375 6.390625 19.734375 
L 6.390625 51.859375 
L 15.1875 51.859375 
L 15.1875 23.09375 
Q 15.1875 16.21875 15.71875 13.8125 
Q 16.546875 10.359375 19.234375 8.375 
Q 21.921875 6.390625 25.875 6.390625 
Q 29.828125 6.390625 33.296875 8.421875 
Q 36.765625 10.453125 38.203125 13.9375 
Q 39.65625 17.4375 39.65625 24.078125 
L 39.65625 51.859375 
L 48.4375 51.859375 
L 48.4375 0 
z
" id="ArialMT-117"/>
     <path d="M 3.171875 21.484375 
L 3.171875 30.328125 
L 30.171875 30.328125 
L 30.171875 21.484375 
z
" id="ArialMT-45"/>
     <path d="M 8.6875 0 
L 8.6875 45.015625 
L 0.921875 45.015625 
L 0.921875 51.859375 
L 8.6875 51.859375 
L 8.6875 57.375 
Q 8.6875 62.59375 9.625 65.140625 
Q 10.890625 68.5625 14.078125 70.671875 
Q 17.28125 72.796875 23.046875 72.796875 
Q 26.765625 72.796875 31.25 71.921875 
L 29.9375 64.265625 
Q 27.203125 64.75 24.75 64.75 
Q 20.75 64.75 19.09375 63.03125 
Q 17.4375 61.328125 17.4375 56.640625 
L 17.4375 51.859375 
L 27.546875 51.859375 
L 27.546875 45.015625 
L 17.4375 45.015625 
L 17.4375 0 
z
" id="ArialMT-102"/>
     <path d="M 25.921875 0 
L 25.921875 63.140625 
L 2.34375 63.140625 
L 2.34375 71.578125 
L 59.078125 71.578125 
L 59.078125 63.140625 
L 35.40625 63.140625 
L 35.40625 0 
z
" id="ArialMT-84"/>
     <path d="M 6.59375 0 
L 6.59375 71.578125 
L 15.375 71.578125 
L 15.375 45.90625 
Q 21.53125 53.03125 30.90625 53.03125 
Q 36.671875 53.03125 40.921875 50.75 
Q 45.171875 48.484375 47 44.484375 
Q 48.828125 40.484375 48.828125 32.859375 
L 48.828125 0 
L 40.046875 0 
L 40.046875 32.859375 
Q 40.046875 39.453125 37.1875 42.453125 
Q 34.328125 45.453125 29.109375 45.453125 
Q 25.203125 45.453125 21.75 43.421875 
Q 18.3125 41.40625 16.84375 37.9375 
Q 15.375 34.46875 15.375 28.375 
L 15.375 0 
z
" id="ArialMT-104"/>
     <path d="M 14.703125 0 
L 6.546875 0 
L 6.546875 71.578125 
L 15.328125 71.578125 
L 15.328125 46.046875 
Q 20.90625 53.03125 29.546875 53.03125 
Q 34.328125 53.03125 38.59375 51.09375 
Q 42.875 49.171875 45.625 45.671875 
Q 48.390625 42.1875 49.953125 37.25 
Q 51.515625 32.328125 51.515625 26.703125 
Q 51.515625 13.375 44.921875 6.09375 
Q 38.328125 -1.171875 29.109375 -1.171875 
Q 19.921875 -1.171875 14.703125 6.5 
z
M 14.59375 26.3125 
Q 14.59375 17 17.140625 12.84375 
Q 21.296875 6.0625 28.375 6.0625 
Q 34.125 6.0625 38.328125 11.0625 
Q 42.53125 16.0625 42.53125 25.984375 
Q 42.53125 36.140625 38.5 40.96875 
Q 34.46875 45.796875 28.765625 45.796875 
Q 23 45.796875 18.796875 40.796875 
Q 14.59375 35.796875 14.59375 26.3125 
z
" id="ArialMT-98"/>
     <path d="M 9.03125 41.84375 
L 9.03125 51.859375 
L 19.046875 51.859375 
L 19.046875 41.84375 
z
M 9.03125 0 
L 9.03125 10.015625 
L 19.046875 10.015625 
L 19.046875 0 
z
" id="ArialMT-58"/>
     <path d="M 9.328125 0 
L 9.328125 71.578125 
L 18.796875 71.578125 
L 18.796875 0 
z
" id="ArialMT-73"/>
     <path d="M 6.640625 46.234375 
L 4.390625 59.625 
L 4.390625 71.578125 
L 14.40625 71.578125 
L 14.40625 59.625 
L 12.0625 46.234375 
z
" id="ArialMT-39"/>
     <path d="M 6.640625 0 
L 6.640625 71.578125 
L 15.4375 71.578125 
L 15.4375 30.765625 
L 36.234375 51.859375 
L 47.609375 51.859375 
L 27.78125 32.625 
L 49.609375 0 
L 38.765625 0 
L 21.625 26.515625 
L 15.4375 20.5625 
L 15.4375 0 
z
" id="ArialMT-107"/>
     <path d="M 6.203125 -19.96875 
L 5.21875 -11.71875 
Q 8.109375 -12.5 10.25 -12.5 
Q 13.1875 -12.5 14.9375 -11.515625 
Q 16.703125 -10.546875 17.828125 -8.796875 
Q 18.65625 -7.46875 20.515625 -2.25 
Q 20.75 -1.515625 21.296875 -0.09375 
L 1.609375 51.859375 
L 11.078125 51.859375 
L 21.875 21.828125 
Q 23.96875 16.109375 25.640625 9.8125 
Q 27.15625 15.875 29.25 21.625 
L 40.328125 51.859375 
L 49.125 51.859375 
L 29.390625 -0.875 
Q 26.21875 -9.421875 24.46875 -12.640625 
Q 22.125 -17 19.09375 -19.015625 
Q 16.0625 -21.046875 11.859375 -21.046875 
Q 9.328125 -21.046875 6.203125 -19.96875 
z
" id="ArialMT-121"/>
     <path d="M 9.078125 0 
L 9.078125 10.015625 
L 19.09375 10.015625 
L 19.09375 0 
z
" id="ArialMT-46"/>
    </defs>
    <g style="fill:#262626;" transform="translate(96.135 19.24965)scale(0.12 -0.12)">
     <use xlink:href="#ArialMT-82"/>
     <use x="72.216797" xlink:href="#ArialMT-117"/>
     <use x="127.832031" xlink:href="#ArialMT-108"/>
     <use x="150.048828" xlink:href="#ArialMT-101"/>
     <use x="205.664062" xlink:href="#ArialMT-45"/>
     <use x="238.964844" xlink:href="#ArialMT-111"/>
     <use x="294.580078" xlink:href="#ArialMT-102"/>
     <use x="322.363281" xlink:href="#ArialMT-45"/>
     <use x="355.664062" xlink:href="#ArialMT-84"/>
     <use x="416.748047" xlink:href="#ArialMT-104"/>
     <use x="472.363281" xlink:href="#ArialMT-117"/>
     <use x="527.978516" xlink:href="#ArialMT-109"/>
     <use x="611.279297" xlink:href="#ArialMT-98"/>
     <use x="666.894531" xlink:href="#ArialMT-58"/>
     <use x="694.677734" xlink:href="#ArialMT-32"/>
     <use x="722.460938" xlink:href="#ArialMT-73"/>
     <use x="750.244141" xlink:href="#ArialMT-116"/>
     <use x="778.027344" xlink:href="#ArialMT-39"/>
     <use x="797.119141" xlink:href="#ArialMT-115"/>
     <use x="847.119141" xlink:href="#ArialMT-32"/>
     <use x="874.902344" xlink:href="#ArialMT-111"/>
     <use x="930.517578" xlink:href="#ArialMT-107"/>
     <use x="980.517578" xlink:href="#ArialMT-97"/>
     <use x="1036.132812" xlink:href="#ArialMT-121"/>
     <use x="1086.132812" xlink:href="#ArialMT-32"/>
     <use x="1113.916016" xlink:href="#ArialMT-116"/>
     <use x="1141.699219" xlink:href="#ArialMT-111"/>
     <use x="1197.314453" xlink:href="#ArialMT-32"/>
     <use x="1225.097656" xlink:href="#ArialMT-104"/>
     <use x="1280.712891" xlink:href="#ArialMT-97"/>
     <use x="1336.328125" xlink:href="#ArialMT-118"/>
     <use x="1386.328125" xlink:href="#ArialMT-101"/>
     <use x="1441.943359" xlink:href="#ArialMT-32"/>
     <use x="1469.726562" xlink:href="#ArialMT-97"/>
     <use x="1525.341797" xlink:href="#ArialMT-110"/>
     <use x="1580.957031" xlink:href="#ArialMT-32"/>
     <use x="1608.740234" xlink:href="#ArialMT-97"/>
     <use x="1664.355469" xlink:href="#ArialMT-98"/>
     <use x="1719.970703" xlink:href="#ArialMT-111"/>
     <use x="1775.585938" xlink:href="#ArialMT-114"/>
     <use x="1808.886719" xlink:href="#ArialMT-116"/>
     <use x="1836.669922" xlink:href="#ArialMT-105"/>
     <use x="1858.886719" xlink:href="#ArialMT-111"/>
     <use x="1914.501953" xlink:href="#ArialMT-110"/>
     <use x="1970.117188" xlink:href="#ArialMT-46"/>
    </g>
   </g>
  </g>
 </g>
 <defs>
  <clipPath id="p0d9568e2fe">
   <rect height="142.087575" width="406.08" x="12.96" y="25.24965"/>
  </clipPath>
 </defs>
</svg>
