<?xml version="1.0" encoding="utf-8" standalone="no"?>
<!DOCTYPE svg PUBLIC "-//W3C//DTD SVG 1.1//EN"
  "http://www.w3.org/Graphics/SVG/1.1/DTD/svg11.dtd">
<!-- Created with matplotlib (https://matplotlib.org/) -->
<svg height="216pt" version="1.1" viewBox="0 0 432 216" width="432pt" xmlns="http://www.w3.org/2000/svg" xmlns:xlink="http://www.w3.org/1999/xlink">
 <defs>
  <style type="text/css">
*{stroke-linecap:butt;stroke-linejoin:round;}
  </style>
 </defs>
 <g id="figure_1">
  <g id="patch_1">
   <path d="M 0 216 
L 432 216 
L 432 0 
L 0 0 
z
" style="fill:#ffffff;"/>
  </g>
  <g id="axes_1">
   <g id="patch_2">
    <path d="M 12.96 167.337225 
L 419.04 167.337225 
L 419.04 25.24965 
L 12.96 25.24965 
z
" style="fill:#eaeaf2;"/>
   </g>
   <g id="matplotlib.axis_1">
    <g id="xtick_1">
     <g id="line2d_1">
      <path clip-path="url(#pa53c70e85e)" d="M 80.64 167.337225 
L 80.64 25.24965 
" style="fill:none;stroke:#ffffff;stroke-linecap:round;"/>
     </g>
     <g id="text_1">
      <!-- Almost -->
      <defs>
       <path d="M -0.140625 0 
L 27.34375 71.578125 
L 37.546875 71.578125 
L 66.84375 0 
L 56.0625 0 
L 47.703125 21.6875 
L 17.78125 21.6875 
L 9.90625 0 
z
M 20.515625 29.390625 
L 44.78125 29.390625 
L 37.3125 49.21875 
Q 33.890625 58.25 32.234375 64.0625 
Q 30.859375 57.171875 28.375 50.390625 
z
" id="ArialMT-65"/>
       <path d="M 6.390625 0 
L 6.390625 71.578125 
L 15.1875 71.578125 
L 15.1875 0 
z
" id="ArialMT-108"/>
       <path d="M 6.59375 0 
L 6.59375 51.859375 
L 14.453125 51.859375 
L 14.453125 44.578125 
Q 16.890625 48.390625 20.9375 50.703125 
Q 25 53.03125 30.171875 53.03125 
Q 35.9375 53.03125 39.625 50.640625 
Q 43.3125 48.25 44.828125 43.953125 
Q 50.984375 53.03125 60.84375 53.03125 
Q 68.5625 53.03125 72.703125 48.75 
Q 76.859375 44.484375 76.859375 35.59375 
L 76.859375 0 
L 68.109375 0 
L 68.109375 32.671875 
Q 68.109375 37.9375 67.25 40.25 
Q 66.40625 42.578125 64.15625 43.984375 
Q 61.921875 45.40625 58.890625 45.40625 
Q 53.421875 45.40625 49.796875 41.765625 
Q 46.1875 38.140625 46.1875 30.125 
L 46.1875 0 
L 37.40625 0 
L 37.40625 33.6875 
Q 37.40625 39.546875 35.25 42.46875 
Q 33.109375 45.40625 28.21875 45.40625 
Q 24.515625 45.40625 21.359375 43.453125 
Q 18.21875 41.5 16.796875 37.734375 
Q 15.375 33.984375 15.375 26.90625 
L 15.375 0 
z
" id="ArialMT-109"/>
       <path d="M 3.328125 25.921875 
Q 3.328125 40.328125 11.328125 47.265625 
Q 18.015625 53.03125 27.640625 53.03125 
Q 38.328125 53.03125 45.109375 46.015625 
Q 51.90625 39.015625 51.90625 26.65625 
Q 51.90625 16.65625 48.90625 10.90625 
Q 45.90625 5.171875 40.15625 2 
Q 34.421875 -1.171875 27.640625 -1.171875 
Q 16.75 -1.171875 10.03125 5.8125 
Q 3.328125 12.796875 3.328125 25.921875 
z
M 12.359375 25.921875 
Q 12.359375 15.96875 16.703125 11.015625 
Q 21.046875 6.0625 27.640625 6.0625 
Q 34.1875 6.0625 38.53125 11.03125 
Q 42.875 16.015625 42.875 26.21875 
Q 42.875 35.84375 38.5 40.796875 
Q 34.125 45.75 27.640625 45.75 
Q 21.046875 45.75 16.703125 40.8125 
Q 12.359375 35.890625 12.359375 25.921875 
z
" id="ArialMT-111"/>
       <path d="M 3.078125 15.484375 
L 11.765625 16.84375 
Q 12.5 11.625 15.84375 8.84375 
Q 19.1875 6.0625 25.203125 6.0625 
Q 31.25 6.0625 34.171875 8.515625 
Q 37.109375 10.984375 37.109375 14.3125 
Q 37.109375 17.28125 34.515625 19 
Q 32.71875 20.171875 25.53125 21.96875 
Q 15.875 24.421875 12.140625 26.203125 
Q 8.40625 27.984375 6.46875 31.125 
Q 4.546875 34.28125 4.546875 38.09375 
Q 4.546875 41.546875 6.125 44.5 
Q 7.71875 47.46875 10.453125 49.421875 
Q 12.5 50.921875 16.03125 51.96875 
Q 19.578125 53.03125 23.640625 53.03125 
Q 29.734375 53.03125 34.34375 51.265625 
Q 38.96875 49.515625 41.15625 46.5 
Q 43.359375 43.5 44.1875 38.484375 
L 35.59375 37.3125 
Q 35.015625 41.3125 32.203125 43.546875 
Q 29.390625 45.796875 24.265625 45.796875 
Q 18.21875 45.796875 15.625 43.796875 
Q 13.03125 41.796875 13.03125 39.109375 
Q 13.03125 37.40625 14.109375 36.03125 
Q 15.1875 34.625 17.484375 33.6875 
Q 18.796875 33.203125 25.25 31.453125 
Q 34.578125 28.953125 38.25 27.359375 
Q 41.9375 25.78125 44.03125 22.75 
Q 46.140625 19.734375 46.140625 15.234375 
Q 46.140625 10.84375 43.578125 6.953125 
Q 41.015625 3.078125 36.171875 0.953125 
Q 31.34375 -1.171875 25.25 -1.171875 
Q 15.140625 -1.171875 9.84375 3.03125 
Q 4.546875 7.234375 3.078125 15.484375 
z
" id="ArialMT-115"/>
       <path d="M 25.78125 7.859375 
L 27.046875 0.09375 
Q 23.34375 -0.6875 20.40625 -0.6875 
Q 15.625 -0.6875 12.984375 0.828125 
Q 10.359375 2.34375 9.28125 4.8125 
Q 8.203125 7.28125 8.203125 15.1875 
L 8.203125 45.015625 
L 1.765625 45.015625 
L 1.765625 51.859375 
L 8.203125 51.859375 
L 8.203125 64.703125 
L 16.9375 69.96875 
L 16.9375 51.859375 
L 25.78125 51.859375 
L 25.78125 45.015625 
L 16.9375 45.015625 
L 16.9375 14.703125 
Q 16.9375 10.9375 17.40625 9.859375 
Q 17.875 8.796875 18.921875 8.15625 
Q 19.96875 7.515625 21.921875 7.515625 
Q 23.390625 7.515625 25.78125 7.859375 
z
" id="ArialMT-116"/>
      </defs>
      <g style="fill:#262626;" transform="translate(65.359531 183.995037)scale(0.1 -0.1)">
       <use xlink:href="#ArialMT-65"/>
       <use x="66.699219" xlink:href="#ArialMT-108"/>
       <use x="88.916016" xlink:href="#ArialMT-109"/>
       <use x="172.216797" xlink:href="#ArialMT-111"/>
       <use x="227.832031" xlink:href="#ArialMT-115"/>
       <use x="277.832031" xlink:href="#ArialMT-116"/>
      </g>
      <!-- no one -->
      <defs>
       <path d="M 6.59375 0 
L 6.59375 51.859375 
L 14.5 51.859375 
L 14.5 44.484375 
Q 20.21875 53.03125 31 53.03125 
Q 35.6875 53.03125 39.625 51.34375 
Q 43.5625 49.65625 45.515625 46.921875 
Q 47.46875 44.1875 48.25 40.4375 
Q 48.734375 37.984375 48.734375 31.890625 
L 48.734375 0 
L 39.9375 0 
L 39.9375 31.546875 
Q 39.9375 36.921875 38.90625 39.578125 
Q 37.890625 42.234375 35.28125 43.8125 
Q 32.671875 45.40625 29.15625 45.40625 
Q 23.53125 45.40625 19.453125 41.84375 
Q 15.375 38.28125 15.375 28.328125 
L 15.375 0 
z
" id="ArialMT-110"/>
       <path id="ArialMT-32"/>
       <path d="M 42.09375 16.703125 
L 51.171875 15.578125 
Q 49.03125 7.625 43.21875 3.21875 
Q 37.40625 -1.171875 28.375 -1.171875 
Q 17 -1.171875 10.328125 5.828125 
Q 3.65625 12.84375 3.65625 25.484375 
Q 3.65625 38.578125 10.390625 45.796875 
Q 17.140625 53.03125 27.875 53.03125 
Q 38.28125 53.03125 44.875 45.953125 
Q 51.46875 38.875 51.46875 26.03125 
Q 51.46875 25.25 51.421875 23.6875 
L 12.75 23.6875 
Q 13.234375 15.140625 17.578125 10.59375 
Q 21.921875 6.0625 28.421875 6.0625 
Q 33.25 6.0625 36.671875 8.59375 
Q 40.09375 11.140625 42.09375 16.703125 
z
M 13.234375 30.90625 
L 42.1875 30.90625 
Q 41.609375 37.453125 38.875 40.71875 
Q 34.671875 45.796875 27.984375 45.796875 
Q 21.921875 45.796875 17.796875 41.75 
Q 13.671875 37.703125 13.234375 30.90625 
z
" id="ArialMT-101"/>
      </defs>
      <g style="fill:#262626;" transform="translate(65.348594 194.571912)scale(0.1 -0.1)">
       <use xlink:href="#ArialMT-110"/>
       <use x="55.615234" xlink:href="#ArialMT-111"/>
       <use x="111.230469" xlink:href="#ArialMT-32"/>
       <use x="139.013672" xlink:href="#ArialMT-111"/>
       <use x="194.628906" xlink:href="#ArialMT-110"/>
       <use x="250.244141" xlink:href="#ArialMT-101"/>
      </g>
     </g>
    </g>
    <g id="xtick_2">
     <g id="line2d_2">
      <path clip-path="url(#pa53c70e85e)" d="M 148.32 167.337225 
L 148.32 25.24965 
" style="fill:none;stroke:#ffffff;stroke-linecap:round;"/>
     </g>
     <g id="text_2">
      <!-- Uncommon -->
      <defs>
       <path d="M 54.6875 71.578125 
L 64.15625 71.578125 
L 64.15625 30.21875 
Q 64.15625 19.4375 61.71875 13.078125 
Q 59.28125 6.734375 52.90625 2.75 
Q 46.53125 -1.21875 36.1875 -1.21875 
Q 26.125 -1.21875 19.71875 2.25 
Q 13.328125 5.71875 10.59375 12.28125 
Q 7.859375 18.84375 7.859375 30.21875 
L 7.859375 71.578125 
L 17.328125 71.578125 
L 17.328125 30.28125 
Q 17.328125 20.953125 19.0625 16.53125 
Q 20.796875 12.109375 25.015625 9.71875 
Q 29.25 7.328125 35.359375 7.328125 
Q 45.796875 7.328125 50.234375 12.0625 
Q 54.6875 16.796875 54.6875 30.28125 
z
" id="ArialMT-85"/>
       <path d="M 40.4375 19 
L 49.078125 17.875 
Q 47.65625 8.9375 41.8125 3.875 
Q 35.984375 -1.171875 27.484375 -1.171875 
Q 16.84375 -1.171875 10.375 5.78125 
Q 3.90625 12.75 3.90625 25.734375 
Q 3.90625 34.125 6.6875 40.421875 
Q 9.46875 46.734375 15.15625 49.875 
Q 20.84375 53.03125 27.546875 53.03125 
Q 35.984375 53.03125 41.359375 48.75 
Q 46.734375 44.484375 48.25 36.625 
L 39.703125 35.296875 
Q 38.484375 40.53125 35.375 43.15625 
Q 32.28125 45.796875 27.875 45.796875 
Q 21.234375 45.796875 17.078125 41.03125 
Q 12.9375 36.28125 12.9375 25.984375 
Q 12.9375 15.53125 16.9375 10.796875 
Q 20.953125 6.0625 27.390625 6.0625 
Q 32.5625 6.0625 36.03125 9.234375 
Q 39.5 12.40625 40.4375 19 
z
" id="ArialMT-99"/>
      </defs>
      <g style="fill:#262626;" transform="translate(122.7575 183.995037)scale(0.1 -0.1)">
       <use xlink:href="#ArialMT-85"/>
       <use x="72.216797" xlink:href="#ArialMT-110"/>
       <use x="127.832031" xlink:href="#ArialMT-99"/>
       <use x="177.832031" xlink:href="#ArialMT-111"/>
       <use x="233.447266" xlink:href="#ArialMT-109"/>
       <use x="316.748047" xlink:href="#ArialMT-109"/>
       <use x="400.048828" xlink:href="#ArialMT-111"/>
       <use x="455.664062" xlink:href="#ArialMT-110"/>
      </g>
     </g>
    </g>
    <g id="xtick_3">
     <g id="line2d_3">
      <path clip-path="url(#pa53c70e85e)" d="M 216 167.337225 
L 216 25.24965 
" style="fill:none;stroke:#ffffff;stroke-linecap:round;"/>
     </g>
     <g id="text_3">
      <!-- Controversial -->
      <defs>
       <path d="M 58.796875 25.09375 
L 68.265625 22.703125 
Q 65.28125 11.03125 57.546875 4.90625 
Q 49.8125 -1.21875 38.625 -1.21875 
Q 27.046875 -1.21875 19.796875 3.484375 
Q 12.546875 8.203125 8.765625 17.140625 
Q 4.984375 26.078125 4.984375 36.328125 
Q 4.984375 47.515625 9.25 55.828125 
Q 13.53125 64.15625 21.40625 68.46875 
Q 29.296875 72.796875 38.765625 72.796875 
Q 49.515625 72.796875 56.828125 67.328125 
Q 64.15625 61.859375 67.046875 51.953125 
L 57.71875 49.75 
Q 55.21875 57.5625 50.484375 61.125 
Q 45.75 64.703125 38.578125 64.703125 
Q 30.328125 64.703125 24.78125 60.734375 
Q 19.234375 56.78125 16.984375 50.109375 
Q 14.75 43.453125 14.75 36.375 
Q 14.75 27.25 17.40625 20.4375 
Q 20.0625 13.625 25.671875 10.25 
Q 31.296875 6.890625 37.84375 6.890625 
Q 45.796875 6.890625 51.3125 11.46875 
Q 56.84375 16.0625 58.796875 25.09375 
z
" id="ArialMT-67"/>
       <path d="M 6.5 0 
L 6.5 51.859375 
L 14.40625 51.859375 
L 14.40625 44 
Q 17.4375 49.515625 20 51.265625 
Q 22.5625 53.03125 25.640625 53.03125 
Q 30.078125 53.03125 34.671875 50.203125 
L 31.640625 42.046875 
Q 28.421875 43.953125 25.203125 43.953125 
Q 22.3125 43.953125 20.015625 42.21875 
Q 17.71875 40.484375 16.75 37.40625 
Q 15.28125 32.71875 15.28125 27.15625 
L 15.28125 0 
z
" id="ArialMT-114"/>
       <path d="M 21 0 
L 1.265625 51.859375 
L 10.546875 51.859375 
L 21.6875 20.796875 
Q 23.484375 15.765625 25 10.359375 
Q 26.171875 14.453125 28.265625 20.21875 
L 39.796875 51.859375 
L 48.828125 51.859375 
L 29.203125 0 
z
" id="ArialMT-118"/>
       <path d="M 6.640625 61.46875 
L 6.640625 71.578125 
L 15.4375 71.578125 
L 15.4375 61.46875 
z
M 6.640625 0 
L 6.640625 51.859375 
L 15.4375 51.859375 
L 15.4375 0 
z
" id="ArialMT-105"/>
       <path d="M 40.4375 6.390625 
Q 35.546875 2.25 31.03125 0.53125 
Q 26.515625 -1.171875 21.34375 -1.171875 
Q 12.796875 -1.171875 8.203125 3 
Q 3.609375 7.171875 3.609375 13.671875 
Q 3.609375 17.484375 5.34375 20.625 
Q 7.078125 23.78125 9.890625 25.6875 
Q 12.703125 27.59375 16.21875 28.5625 
Q 18.796875 29.25 24.03125 29.890625 
Q 34.671875 31.15625 39.703125 32.90625 
Q 39.75 34.71875 39.75 35.203125 
Q 39.75 40.578125 37.25 42.78125 
Q 33.890625 45.75 27.25 45.75 
Q 21.046875 45.75 18.09375 43.578125 
Q 15.140625 41.40625 13.71875 35.890625 
L 5.125 37.0625 
Q 6.296875 42.578125 8.984375 45.96875 
Q 11.671875 49.359375 16.75 51.1875 
Q 21.828125 53.03125 28.515625 53.03125 
Q 35.15625 53.03125 39.296875 51.46875 
Q 43.453125 49.90625 45.40625 47.53125 
Q 47.359375 45.171875 48.140625 41.546875 
Q 48.578125 39.3125 48.578125 33.453125 
L 48.578125 21.734375 
Q 48.578125 9.46875 49.140625 6.21875 
Q 49.703125 2.984375 51.375 0 
L 42.1875 0 
Q 40.828125 2.734375 40.4375 6.390625 
z
M 39.703125 26.03125 
Q 34.90625 24.078125 25.34375 22.703125 
Q 19.921875 21.921875 17.671875 20.9375 
Q 15.4375 19.96875 14.203125 18.09375 
Q 12.984375 16.21875 12.984375 13.921875 
Q 12.984375 10.40625 15.640625 8.0625 
Q 18.3125 5.71875 23.4375 5.71875 
Q 28.515625 5.71875 32.46875 7.9375 
Q 36.421875 10.15625 38.28125 14.015625 
Q 39.703125 17 39.703125 22.796875 
z
" id="ArialMT-97"/>
      </defs>
      <g style="fill:#262626;" transform="translate(186.546094 183.995037)scale(0.1 -0.1)">
       <use xlink:href="#ArialMT-67"/>
       <use x="72.216797" xlink:href="#ArialMT-111"/>
       <use x="127.832031" xlink:href="#ArialMT-110"/>
       <use x="183.447266" xlink:href="#ArialMT-116"/>
       <use x="211.230469" xlink:href="#ArialMT-114"/>
       <use x="244.53125" xlink:href="#ArialMT-111"/>
       <use x="300.146484" xlink:href="#ArialMT-118"/>
       <use x="350.146484" xlink:href="#ArialMT-101"/>
       <use x="405.761719" xlink:href="#ArialMT-114"/>
       <use x="439.0625" xlink:href="#ArialMT-115"/>
       <use x="489.0625" xlink:href="#ArialMT-105"/>
       <use x="511.279297" xlink:href="#ArialMT-97"/>
       <use x="566.894531" xlink:href="#ArialMT-108"/>
      </g>
     </g>
    </g>
    <g id="xtick_4">
     <g id="line2d_4">
      <path clip-path="url(#pa53c70e85e)" d="M 283.68 167.337225 
L 283.68 25.24965 
" style="fill:none;stroke:#ffffff;stroke-linecap:round;"/>
     </g>
     <g id="text_4">
      <!-- Common -->
      <g style="fill:#262626;" transform="translate(263.397969 183.995037)scale(0.1 -0.1)">
       <use xlink:href="#ArialMT-67"/>
       <use x="72.216797" xlink:href="#ArialMT-111"/>
       <use x="127.832031" xlink:href="#ArialMT-109"/>
       <use x="211.132812" xlink:href="#ArialMT-109"/>
       <use x="294.433594" xlink:href="#ArialMT-111"/>
       <use x="350.048828" xlink:href="#ArialMT-110"/>
      </g>
     </g>
    </g>
    <g id="xtick_5">
     <g id="line2d_5">
      <path clip-path="url(#pa53c70e85e)" d="M 351.36 167.337225 
L 351.36 25.24965 
" style="fill:none;stroke:#ffffff;stroke-linecap:round;"/>
     </g>
     <g id="text_5">
      <!-- Universal -->
      <g style="fill:#262626;" transform="translate(330.520937 183.995037)scale(0.1 -0.1)">
       <use xlink:href="#ArialMT-85"/>
       <use x="72.216797" xlink:href="#ArialMT-110"/>
       <use x="127.832031" xlink:href="#ArialMT-105"/>
       <use x="150.048828" xlink:href="#ArialMT-118"/>
       <use x="200.048828" xlink:href="#ArialMT-101"/>
       <use x="255.664062" xlink:href="#ArialMT-114"/>
       <use x="288.964844" xlink:href="#ArialMT-115"/>
       <use x="338.964844" xlink:href="#ArialMT-97"/>
       <use x="394.580078" xlink:href="#ArialMT-108"/>
      </g>
     </g>
    </g>
    <g id="text_6">
     <!-- Anticipated agreement -->
     <defs>
      <path d="M 6.59375 -19.875 
L 6.59375 51.859375 
L 14.59375 51.859375 
L 14.59375 45.125 
Q 17.4375 49.078125 21 51.046875 
Q 24.5625 53.03125 29.640625 53.03125 
Q 36.28125 53.03125 41.359375 49.609375 
Q 46.4375 46.1875 49.015625 39.953125 
Q 51.609375 33.734375 51.609375 26.3125 
Q 51.609375 18.359375 48.75 11.984375 
Q 45.90625 5.609375 40.453125 2.21875 
Q 35.015625 -1.171875 29 -1.171875 
Q 24.609375 -1.171875 21.109375 0.6875 
Q 17.625 2.546875 15.375 5.375 
L 15.375 -19.875 
z
M 14.546875 25.640625 
Q 14.546875 15.625 18.59375 10.84375 
Q 22.65625 6.0625 28.421875 6.0625 
Q 34.28125 6.0625 38.453125 11.015625 
Q 42.625 15.96875 42.625 26.375 
Q 42.625 36.28125 38.546875 41.203125 
Q 34.46875 46.140625 28.8125 46.140625 
Q 23.1875 46.140625 18.859375 40.890625 
Q 14.546875 35.640625 14.546875 25.640625 
z
" id="ArialMT-112"/>
      <path d="M 40.234375 0 
L 40.234375 6.546875 
Q 35.296875 -1.171875 25.734375 -1.171875 
Q 19.53125 -1.171875 14.328125 2.25 
Q 9.125 5.671875 6.265625 11.796875 
Q 3.421875 17.921875 3.421875 25.875 
Q 3.421875 33.640625 6 39.96875 
Q 8.59375 46.296875 13.765625 49.65625 
Q 18.953125 53.03125 25.34375 53.03125 
Q 30.03125 53.03125 33.6875 51.046875 
Q 37.359375 49.078125 39.65625 45.90625 
L 39.65625 71.578125 
L 48.390625 71.578125 
L 48.390625 0 
z
M 12.453125 25.875 
Q 12.453125 15.921875 16.640625 10.984375 
Q 20.84375 6.0625 26.5625 6.0625 
Q 32.328125 6.0625 36.34375 10.765625 
Q 40.375 15.484375 40.375 25.140625 
Q 40.375 35.796875 36.265625 40.765625 
Q 32.171875 45.75 26.171875 45.75 
Q 20.3125 45.75 16.375 40.96875 
Q 12.453125 36.1875 12.453125 25.875 
z
" id="ArialMT-100"/>
      <path d="M 4.984375 -4.296875 
L 13.53125 -5.5625 
Q 14.0625 -9.515625 16.5 -11.328125 
Q 19.78125 -13.765625 25.4375 -13.765625 
Q 31.546875 -13.765625 34.859375 -11.328125 
Q 38.1875 -8.890625 39.359375 -4.5 
Q 40.046875 -1.8125 39.984375 6.78125 
Q 34.234375 0 25.640625 0 
Q 14.9375 0 9.078125 7.71875 
Q 3.21875 15.4375 3.21875 26.21875 
Q 3.21875 33.640625 5.90625 39.90625 
Q 8.59375 46.1875 13.6875 49.609375 
Q 18.796875 53.03125 25.6875 53.03125 
Q 34.859375 53.03125 40.828125 45.609375 
L 40.828125 51.859375 
L 48.921875 51.859375 
L 48.921875 7.03125 
Q 48.921875 -5.078125 46.453125 -10.125 
Q 44 -15.1875 38.640625 -18.109375 
Q 33.296875 -21.046875 25.484375 -21.046875 
Q 16.21875 -21.046875 10.5 -16.875 
Q 4.78125 -12.703125 4.984375 -4.296875 
z
M 12.25 26.859375 
Q 12.25 16.65625 16.296875 11.96875 
Q 20.359375 7.28125 26.46875 7.28125 
Q 32.515625 7.28125 36.609375 11.9375 
Q 40.71875 16.609375 40.71875 26.5625 
Q 40.71875 36.078125 36.5 40.90625 
Q 32.28125 45.75 26.3125 45.75 
Q 20.453125 45.75 16.34375 40.984375 
Q 12.25 36.234375 12.25 26.859375 
z
" id="ArialMT-103"/>
     </defs>
     <g style="fill:#262626;" transform="translate(155.96625 209.148787)scale(0.12 -0.12)">
      <use xlink:href="#ArialMT-65"/>
      <use x="66.699219" xlink:href="#ArialMT-110"/>
      <use x="122.314453" xlink:href="#ArialMT-116"/>
      <use x="150.097656" xlink:href="#ArialMT-105"/>
      <use x="172.314453" xlink:href="#ArialMT-99"/>
      <use x="222.314453" xlink:href="#ArialMT-105"/>
      <use x="244.53125" xlink:href="#ArialMT-112"/>
      <use x="300.146484" xlink:href="#ArialMT-97"/>
      <use x="355.761719" xlink:href="#ArialMT-116"/>
      <use x="383.544922" xlink:href="#ArialMT-101"/>
      <use x="439.160156" xlink:href="#ArialMT-100"/>
      <use x="494.775391" xlink:href="#ArialMT-32"/>
      <use x="522.558594" xlink:href="#ArialMT-97"/>
      <use x="578.173828" xlink:href="#ArialMT-103"/>
      <use x="633.789062" xlink:href="#ArialMT-114"/>
      <use x="667.089844" xlink:href="#ArialMT-101"/>
      <use x="722.705078" xlink:href="#ArialMT-101"/>
      <use x="778.320312" xlink:href="#ArialMT-109"/>
      <use x="861.621094" xlink:href="#ArialMT-101"/>
      <use x="917.236328" xlink:href="#ArialMT-110"/>
      <use x="972.851562" xlink:href="#ArialMT-116"/>
     </g>
    </g>
   </g>
   <g id="matplotlib.axis_2">
    <g id="ytick_1"/>
   </g>
   <g id="PolyCollection_1">
    <defs>
     <path d="M 120.356064 -118.890762 
L 120.356064 -120.522363 
L 122.971901 -120.871989 
L 125.587738 -121.314188 
L 128.203575 -121.847894 
L 130.819412 -122.460678 
L 133.435249 -123.126983 
L 136.051086 -123.808379 
L 138.666923 -124.456331 
L 141.28276 -125.017473 
L 143.898598 -125.440693 
L 146.514435 -125.68479 
L 149.130272 -125.725148 
L 151.746109 -125.557962 
L 154.361946 -125.201133 
L 156.977783 -124.691703 
L 159.59362 -124.080653 
L 162.209457 -123.42652 
L 164.825294 -122.789634 
L 167.441131 -122.228584 
L 170.056969 -121.79999 
L 172.672806 -121.561797 
L 175.288643 -121.579352 
L 177.90448 -121.932605 
L 180.520317 -122.721986 
L 183.136154 -124.070019 
L 185.751991 -126.115746 
L 188.367828 -128.999755 
L 190.983665 -132.839241 
L 193.599502 -137.69504 
L 196.215339 -143.535652 
L 198.831177 -150.206035 
L 201.447014 -157.410499 
L 204.062851 -164.7182 
L 206.678688 -171.596135 
L 209.294525 -177.468504 
L 211.910362 -181.794259 
L 214.526199 -184.148657 
L 217.142036 -184.291824 
L 219.757873 -182.208966 
L 222.37371 -178.112867 
L 224.989548 -172.408089 
L 227.605385 -165.625205 
L 230.221222 -158.339884 
L 232.837059 -151.09387 
L 235.452896 -144.332592 
L 238.068733 -138.368449 
L 240.68457 -133.371776 
L 243.300407 -129.385281 
L 245.916244 -126.353776 
L 248.532081 -124.15993 
L 251.147919 -122.658066 
L 253.763756 -121.700713 
L 256.379593 -121.155688 
L 258.99543 -120.91402 
L 261.611267 -120.890671 
L 264.227104 -121.020689 
L 266.842941 -121.253401 
L 269.458778 -121.546741 
L 272.074615 -121.863112 
L 274.690452 -122.167448 
L 277.30629 -122.42746 
L 279.922127 -122.615525 
L 282.537964 -122.711316 
L 285.153801 -122.704201 
L 287.769638 -122.594525 
L 290.385475 -122.393302 
L 293.001312 -122.12025 
L 295.617149 -121.800567 
L 298.232986 -121.461135 
L 300.848823 -121.126941 
L 303.464661 -120.818365 
L 306.080498 -120.549713 
L 308.696335 -120.329051 
L 311.312172 -120.159093 
L 313.928009 -120.038734 
L 316.543846 -119.964759 
L 319.159683 -119.933315 
L 321.77552 -119.940878 
L 324.391357 -119.98459 
L 327.007194 -120.061988 
L 329.623031 -120.170273 
L 332.238869 -120.305372 
L 334.854706 -120.461066 
L 337.470543 -120.628494 
L 340.08638 -120.79623 
L 342.702217 -120.951067 
L 345.318054 -121.079411 
L 347.933891 -121.16907 
L 350.549728 -121.211066 
L 353.165565 -121.201062 
L 355.781402 -121.140073 
L 358.39724 -121.034282 
L 361.013077 -120.894002 
L 363.628914 -120.732015 
L 366.244751 -120.561667 
L 368.860588 -120.395091 
L 371.476425 -120.241895 
L 374.092262 -120.108469 
L 376.708099 -119.997919 
L 379.323936 -119.910513 
L 379.323936 -119.502612 
L 379.323936 -119.502612 
L 376.708099 -119.415206 
L 374.092262 -119.304656 
L 371.476425 -119.17123 
L 368.860588 -119.018034 
L 366.244751 -118.851458 
L 363.628914 -118.68111 
L 361.013077 -118.519123 
L 358.39724 -118.378843 
L 355.781402 -118.273052 
L 353.165565 -118.212063 
L 350.549728 -118.202059 
L 347.933891 -118.244055 
L 345.318054 -118.333714 
L 342.702217 -118.462058 
L 340.08638 -118.616895 
L 337.470543 -118.784631 
L 334.854706 -118.952059 
L 332.238869 -119.107753 
L 329.623031 -119.242852 
L 327.007194 -119.351137 
L 324.391357 -119.428535 
L 321.77552 -119.472247 
L 319.159683 -119.47981 
L 316.543846 -119.448366 
L 313.928009 -119.374391 
L 311.312172 -119.254032 
L 308.696335 -119.084074 
L 306.080498 -118.863412 
L 303.464661 -118.59476 
L 300.848823 -118.286184 
L 298.232986 -117.95199 
L 295.617149 -117.612558 
L 293.001312 -117.292875 
L 290.385475 -117.019823 
L 287.769638 -116.8186 
L 285.153801 -116.708924 
L 282.537964 -116.701809 
L 279.922127 -116.7976 
L 277.30629 -116.985665 
L 274.690452 -117.245677 
L 272.074615 -117.550013 
L 269.458778 -117.866384 
L 266.842941 -118.159724 
L 264.227104 -118.392436 
L 261.611267 -118.522454 
L 258.99543 -118.499105 
L 256.379593 -118.257437 
L 253.763756 -117.712412 
L 251.147919 -116.755059 
L 248.532081 -115.253195 
L 245.916244 -113.059349 
L 243.300407 -110.027844 
L 240.68457 -106.041349 
L 238.068733 -101.044676 
L 235.452896 -95.080533 
L 232.837059 -88.319255 
L 230.221222 -81.073241 
L 227.605385 -73.78792 
L 224.989548 -67.005036 
L 222.37371 -61.300258 
L 219.757873 -57.204159 
L 217.142036 -55.121301 
L 214.526199 -55.264468 
L 211.910362 -57.618866 
L 209.294525 -61.944621 
L 206.678688 -67.81699 
L 204.062851 -74.694925 
L 201.447014 -82.002626 
L 198.831177 -89.20709 
L 196.215339 -95.877473 
L 193.599502 -101.718085 
L 190.983665 -106.573884 
L 188.367828 -110.41337 
L 185.751991 -113.297379 
L 183.136154 -115.343106 
L 180.520317 -116.691139 
L 177.90448 -117.48052 
L 175.288643 -117.833773 
L 172.672806 -117.851328 
L 170.056969 -117.613135 
L 167.441131 -117.184541 
L 164.825294 -116.623491 
L 162.209457 -115.986605 
L 159.59362 -115.332472 
L 156.977783 -114.721422 
L 154.361946 -114.211992 
L 151.746109 -113.855163 
L 149.130272 -113.687977 
L 146.514435 -113.728335 
L 143.898598 -113.972432 
L 141.28276 -114.395652 
L 138.666923 -114.956794 
L 136.051086 -115.604746 
L 133.435249 -116.286142 
L 130.819412 -116.952447 
L 128.203575 -117.565231 
L 125.587738 -118.098937 
L 122.971901 -118.541136 
L 120.356064 -118.890762 
z
" id="m8fb9b41bda" style="stroke:#6d6d6d;stroke-width:1.5;"/>
    </defs>
    <g clip-path="url(#pa53c70e85e)">
     <use style="fill:#86e5c1;stroke:#6d6d6d;stroke-width:1.5;" x="0" xlink:href="#m8fb9b41bda" y="216"/>
    </g>
   </g>
   <g id="line2d_6">
    <path clip-path="url(#pa53c70e85e)" d="M 216 96.293437 
L 216 96.293437 
" style="fill:none;stroke:#6d6d6d;stroke-linecap:round;stroke-width:1.5;"/>
   </g>
   <g id="line2d_7">
    <path clip-path="url(#pa53c70e85e)" d="M 216 96.293437 
L 216 96.293437 
" style="fill:none;stroke:#6d6d6d;stroke-linecap:round;stroke-width:4.5;"/>
   </g>
   <g id="patch_3">
    <path d="M 12.96 167.337225 
L 12.96 25.24965 
" style="fill:none;stroke:#ffffff;stroke-linecap:square;stroke-linejoin:miter;stroke-width:1.25;"/>
   </g>
   <g id="patch_4">
    <path d="M 419.04 167.337225 
L 419.04 25.24965 
" style="fill:none;stroke:#ffffff;stroke-linecap:square;stroke-linejoin:miter;stroke-width:1.25;"/>
   </g>
   <g id="patch_5">
    <path d="M 12.96 167.337225 
L 419.04 167.337225 
" style="fill:none;stroke:#ffffff;stroke-linecap:square;stroke-linejoin:miter;stroke-width:1.25;"/>
   </g>
   <g id="patch_6">
    <path d="M 12.96 25.24965 
L 419.04 25.24965 
" style="fill:none;stroke:#ffffff;stroke-linecap:square;stroke-linejoin:miter;stroke-width:1.25;"/>
   </g>
   <g id="PathCollection_1">
    <defs>
     <path d="M 0 1.5 
C 0.397805 1.5 0.77937 1.341951 1.06066 1.06066 
C 1.341951 0.77937 1.5 0.397805 1.5 0 
C 1.5 -0.397805 1.341951 -0.77937 1.06066 -1.06066 
C 0.77937 -1.341951 0.397805 -1.5 0 -1.5 
C -0.397805 -1.5 -0.77937 -1.341951 -1.06066 -1.06066 
C -1.341951 -0.77937 -1.5 -0.397805 -1.5 0 
C -1.5 0.397805 -1.341951 0.77937 -1.06066 1.06066 
C -0.77937 1.341951 -0.397805 1.5 0 1.5 
z
" id="mf52c185b67" style="stroke:#6d6d6d;"/>
    </defs>
    <g clip-path="url(#pa53c70e85e)">
     <use style="fill:#ffffff;stroke:#6d6d6d;" x="216" xlink:href="#mf52c185b67" y="96.293437"/>
    </g>
   </g>
   <g id="PathCollection_2">
    <defs>
     <path d="M 0 2.5 
C 0.663008 2.5 1.29895 2.236584 1.767767 1.767767 
C 2.236584 1.29895 2.5 0.663008 2.5 0 
C 2.5 -0.663008 2.236584 -1.29895 1.767767 -1.767767 
C 1.29895 -2.236584 0.663008 -2.5 0 -2.5 
C -0.663008 -2.5 -1.29895 -2.236584 -1.767767 -1.767767 
C -2.236584 -1.29895 -2.5 -0.663008 -2.5 0 
C -2.5 0.663008 -2.236584 1.29895 -1.767767 1.767767 
C -1.29895 2.236584 -0.663008 2.5 0 2.5 
z
" id="C0_0_177c566270"/>
    </defs>
    <g clip-path="url(#pa53c70e85e)">
     <use style="fill:#333333;" x="275.476751" xlink:href="#C0_0_177c566270" y="102.734601"/>
    </g>
    <g clip-path="url(#pa53c70e85e)">
     <use style="fill:#333333;" x="139.870124" xlink:href="#C0_0_177c566270" y="110.136621"/>
    </g>
    <g clip-path="url(#pa53c70e85e)">
     <use style="fill:#333333;" x="215.948004" xlink:href="#C0_0_177c566270" y="105.186558"/>
    </g>
    <g clip-path="url(#pa53c70e85e)">
     <use style="fill:#333333;" x="218.681646" xlink:href="#C0_0_177c566270" y="91.578591"/>
    </g>
    <g clip-path="url(#pa53c70e85e)">
     <use style="fill:#333333;" x="204.071242" xlink:href="#C0_0_177c566270" y="91.219081"/>
    </g>
    <g clip-path="url(#pa53c70e85e)">
     <use style="fill:#333333;" x="140.589024" xlink:href="#C0_0_177c566270" y="109.644145"/>
    </g>
    <g clip-path="url(#pa53c70e85e)">
     <use style="fill:#333333;" x="208.366602" xlink:href="#C0_0_177c566270" y="107.714916"/>
    </g>
    <g clip-path="url(#pa53c70e85e)">
     <use style="fill:#333333;" x="223.161555" xlink:href="#C0_0_177c566270" y="87.708947"/>
    </g>
    <g clip-path="url(#pa53c70e85e)">
     <use style="fill:#333333;" x="220.148127" xlink:href="#C0_0_177c566270" y="92.034823"/>
    </g>
    <g clip-path="url(#pa53c70e85e)">
     <use style="fill:#333333;" x="353.527336" xlink:href="#C0_0_177c566270" y="85.354693"/>
    </g>
    <g clip-path="url(#pa53c70e85e)">
     <use style="fill:#333333;" x="217.680319" xlink:href="#C0_0_177c566270" y="112.101053"/>
    </g>
    <g clip-path="url(#pa53c70e85e)">
     <use style="fill:#333333;" x="156.022166" xlink:href="#C0_0_177c566270" y="110.255581"/>
    </g>
    <g clip-path="url(#pa53c70e85e)">
     <use style="fill:#333333;" x="210.148294" xlink:href="#C0_0_177c566270" y="110.24883"/>
    </g>
    <g clip-path="url(#pa53c70e85e)">
     <use style="fill:#333333;" x="203.332398" xlink:href="#C0_0_177c566270" y="87.904372"/>
    </g>
    <g clip-path="url(#pa53c70e85e)">
     <use style="fill:#333333;" x="217.765173" xlink:href="#C0_0_177c566270" y="97.577938"/>
    </g>
    <g clip-path="url(#pa53c70e85e)">
     <use style="fill:#333333;" x="224.649068" xlink:href="#C0_0_177c566270" y="99.141782"/>
    </g>
    <g clip-path="url(#pa53c70e85e)">
     <use style="fill:#333333;" x="223.963206" xlink:href="#C0_0_177c566270" y="106.257798"/>
    </g>
    <g clip-path="url(#pa53c70e85e)">
     <use style="fill:#333333;" x="220.065812" xlink:href="#C0_0_177c566270" y="84.041546"/>
    </g>
    <g clip-path="url(#pa53c70e85e)">
     <use style="fill:#333333;" x="216.855843" xlink:href="#C0_0_177c566270" y="108.230877"/>
    </g>
    <g clip-path="url(#pa53c70e85e)">
     <use style="fill:#333333;" x="206.431868" xlink:href="#C0_0_177c566270" y="106.637015"/>
    </g>
    <g clip-path="url(#pa53c70e85e)">
     <use style="fill:#333333;" x="206.248852" xlink:href="#C0_0_177c566270" y="108.049028"/>
    </g>
    <g clip-path="url(#pa53c70e85e)">
     <use style="fill:#333333;" x="281.240873" xlink:href="#C0_0_177c566270" y="97.70362"/>
    </g>
    <g clip-path="url(#pa53c70e85e)">
     <use style="fill:#333333;" x="209.446883" xlink:href="#C0_0_177c566270" y="110.867872"/>
    </g>
    <g clip-path="url(#pa53c70e85e)">
     <use style="fill:#333333;" x="218.030257" xlink:href="#C0_0_177c566270" y="99.772064"/>
    </g>
    <g clip-path="url(#pa53c70e85e)">
     <use style="fill:#333333;" x="205.17719" xlink:href="#C0_0_177c566270" y="81.668621"/>
    </g>
    <g clip-path="url(#pa53c70e85e)">
     <use style="fill:#333333;" x="220.701675" xlink:href="#C0_0_177c566270" y="83.337203"/>
    </g>
    <g clip-path="url(#pa53c70e85e)">
     <use style="fill:#333333;" x="227.68793" xlink:href="#C0_0_177c566270" y="87.115592"/>
    </g>
    <g clip-path="url(#pa53c70e85e)">
     <use style="fill:#333333;" x="221.067472" xlink:href="#C0_0_177c566270" y="110.871909"/>
    </g>
    <g clip-path="url(#pa53c70e85e)">
     <use style="fill:#333333;" x="218.678956" xlink:href="#C0_0_177c566270" y="85.86195"/>
    </g>
    <g clip-path="url(#pa53c70e85e)">
     <use style="fill:#333333;" x="223.353048" xlink:href="#C0_0_177c566270" y="82.012972"/>
    </g>
    <g clip-path="url(#pa53c70e85e)">
     <use style="fill:#333333;" x="208.637787" xlink:href="#C0_0_177c566270" y="90.297741"/>
    </g>
    <g clip-path="url(#pa53c70e85e)">
     <use style="fill:#333333;" x="207.036954" xlink:href="#C0_0_177c566270" y="107.454593"/>
    </g>
    <g clip-path="url(#pa53c70e85e)">
     <use style="fill:#333333;" x="222.488913" xlink:href="#C0_0_177c566270" y="96.920692"/>
    </g>
    <g clip-path="url(#pa53c70e85e)">
     <use style="fill:#333333;" x="212.462906" xlink:href="#C0_0_177c566270" y="91.339027"/>
    </g>
    <g clip-path="url(#pa53c70e85e)">
     <use style="fill:#333333;" x="217.684719" xlink:href="#C0_0_177c566270" y="88.208256"/>
    </g>
    <g clip-path="url(#pa53c70e85e)">
     <use style="fill:#333333;" x="222.176441" xlink:href="#C0_0_177c566270" y="102.100043"/>
    </g>
    <g clip-path="url(#pa53c70e85e)">
     <use style="fill:#333333;" x="214.033004" xlink:href="#C0_0_177c566270" y="103.527918"/>
    </g>
    <g clip-path="url(#pa53c70e85e)">
     <use style="fill:#333333;" x="222.542403" xlink:href="#C0_0_177c566270" y="105.201165"/>
    </g>
    <g clip-path="url(#pa53c70e85e)">
     <use style="fill:#333333;" x="216.763638" xlink:href="#C0_0_177c566270" y="88.309688"/>
    </g>
    <g clip-path="url(#pa53c70e85e)">
     <use style="fill:#333333;" x="225.335266" xlink:href="#C0_0_177c566270" y="110.483257"/>
    </g>
    <g clip-path="url(#pa53c70e85e)">
     <use style="fill:#333333;" x="137.45367" xlink:href="#C0_0_177c566270" y="85.449579"/>
    </g>
    <g clip-path="url(#pa53c70e85e)">
     <use style="fill:#333333;" x="206.548902" xlink:href="#C0_0_177c566270" y="89.892269"/>
    </g>
    <g clip-path="url(#pa53c70e85e)">
     <use style="fill:#333333;" x="217.146804" xlink:href="#C0_0_177c566270" y="80.553952"/>
    </g>
    <g clip-path="url(#pa53c70e85e)">
     <use style="fill:#333333;" x="215.905828" xlink:href="#C0_0_177c566270" y="96.9489"/>
    </g>
    <g clip-path="url(#pa53c70e85e)">
     <use style="fill:#333333;" x="209.066842" xlink:href="#C0_0_177c566270" y="87.739"/>
    </g>
    <g clip-path="url(#pa53c70e85e)">
     <use style="fill:#333333;" x="222.002417" xlink:href="#C0_0_177c566270" y="81.179011"/>
    </g>
    <g clip-path="url(#pa53c70e85e)">
     <use style="fill:#333333;" x="222.771499" xlink:href="#C0_0_177c566270" y="87.840733"/>
    </g>
    <g clip-path="url(#pa53c70e85e)">
     <use style="fill:#333333;" x="214.651583" xlink:href="#C0_0_177c566270" y="89.369943"/>
    </g>
    <g clip-path="url(#pa53c70e85e)">
     <use style="fill:#333333;" x="219.434686" xlink:href="#C0_0_177c566270" y="94.305805"/>
    </g>
    <g clip-path="url(#pa53c70e85e)">
     <use style="fill:#333333;" x="218.507308" xlink:href="#C0_0_177c566270" y="95.57062"/>
    </g>
   </g>
   <g id="text_7">
    <!-- Rule-of-Thumb: It's good to play games of chance where you can win money. -->
    <defs>
     <path d="M 7.859375 0 
L 7.859375 71.578125 
L 39.59375 71.578125 
Q 49.171875 71.578125 54.140625 69.640625 
Q 59.125 67.71875 62.109375 62.828125 
Q 65.09375 57.953125 65.09375 52.046875 
Q 65.09375 44.4375 60.15625 39.203125 
Q 55.21875 33.984375 44.921875 32.5625 
Q 48.6875 30.765625 50.640625 29 
Q 54.78125 25.203125 58.5 19.484375 
L 70.953125 0 
L 59.03125 0 
L 49.5625 14.890625 
Q 45.40625 21.34375 42.71875 24.75 
Q 40.046875 28.171875 37.921875 29.53125 
Q 35.796875 30.90625 33.59375 31.453125 
Q 31.984375 31.78125 28.328125 31.78125 
L 17.328125 31.78125 
L 17.328125 0 
z
M 17.328125 39.984375 
L 37.703125 39.984375 
Q 44.1875 39.984375 47.84375 41.328125 
Q 51.515625 42.671875 53.421875 45.625 
Q 55.328125 48.578125 55.328125 52.046875 
Q 55.328125 57.125 51.640625 60.390625 
Q 47.953125 63.671875 39.984375 63.671875 
L 17.328125 63.671875 
z
" id="ArialMT-82"/>
     <path d="M 40.578125 0 
L 40.578125 7.625 
Q 34.515625 -1.171875 24.125 -1.171875 
Q 19.53125 -1.171875 15.546875 0.578125 
Q 11.578125 2.34375 9.640625 5 
Q 7.71875 7.671875 6.9375 11.53125 
Q 6.390625 14.109375 6.390625 19.734375 
L 6.390625 51.859375 
L 15.1875 51.859375 
L 15.1875 23.09375 
Q 15.1875 16.21875 15.71875 13.8125 
Q 16.546875 10.359375 19.234375 8.375 
Q 21.921875 6.390625 25.875 6.390625 
Q 29.828125 6.390625 33.296875 8.421875 
Q 36.765625 10.453125 38.203125 13.9375 
Q 39.65625 17.4375 39.65625 24.078125 
L 39.65625 51.859375 
L 48.4375 51.859375 
L 48.4375 0 
z
" id="ArialMT-117"/>
     <path d="M 3.171875 21.484375 
L 3.171875 30.328125 
L 30.171875 30.328125 
L 30.171875 21.484375 
z
" id="ArialMT-45"/>
     <path d="M 8.6875 0 
L 8.6875 45.015625 
L 0.921875 45.015625 
L 0.921875 51.859375 
L 8.6875 51.859375 
L 8.6875 57.375 
Q 8.6875 62.59375 9.625 65.140625 
Q 10.890625 68.5625 14.078125 70.671875 
Q 17.28125 72.796875 23.046875 72.796875 
Q 26.765625 72.796875 31.25 71.921875 
L 29.9375 64.265625 
Q 27.203125 64.75 24.75 64.75 
Q 20.75 64.75 19.09375 63.03125 
Q 17.4375 61.328125 17.4375 56.640625 
L 17.4375 51.859375 
L 27.546875 51.859375 
L 27.546875 45.015625 
L 17.4375 45.015625 
L 17.4375 0 
z
" id="ArialMT-102"/>
     <path d="M 25.921875 0 
L 25.921875 63.140625 
L 2.34375 63.140625 
L 2.34375 71.578125 
L 59.078125 71.578125 
L 59.078125 63.140625 
L 35.40625 63.140625 
L 35.40625 0 
z
" id="ArialMT-84"/>
     <path d="M 6.59375 0 
L 6.59375 71.578125 
L 15.375 71.578125 
L 15.375 45.90625 
Q 21.53125 53.03125 30.90625 53.03125 
Q 36.671875 53.03125 40.921875 50.75 
Q 45.171875 48.484375 47 44.484375 
Q 48.828125 40.484375 48.828125 32.859375 
L 48.828125 0 
L 40.046875 0 
L 40.046875 32.859375 
Q 40.046875 39.453125 37.1875 42.453125 
Q 34.328125 45.453125 29.109375 45.453125 
Q 25.203125 45.453125 21.75 43.421875 
Q 18.3125 41.40625 16.84375 37.9375 
Q 15.375 34.46875 15.375 28.375 
L 15.375 0 
z
" id="ArialMT-104"/>
     <path d="M 14.703125 0 
L 6.546875 0 
L 6.546875 71.578125 
L 15.328125 71.578125 
L 15.328125 46.046875 
Q 20.90625 53.03125 29.546875 53.03125 
Q 34.328125 53.03125 38.59375 51.09375 
Q 42.875 49.171875 45.625 45.671875 
Q 48.390625 42.1875 49.953125 37.25 
Q 51.515625 32.328125 51.515625 26.703125 
Q 51.515625 13.375 44.921875 6.09375 
Q 38.328125 -1.171875 29.109375 -1.171875 
Q 19.921875 -1.171875 14.703125 6.5 
z
M 14.59375 26.3125 
Q 14.59375 17 17.140625 12.84375 
Q 21.296875 6.0625 28.375 6.0625 
Q 34.125 6.0625 38.328125 11.0625 
Q 42.53125 16.0625 42.53125 25.984375 
Q 42.53125 36.140625 38.5 40.96875 
Q 34.46875 45.796875 28.765625 45.796875 
Q 23 45.796875 18.796875 40.796875 
Q 14.59375 35.796875 14.59375 26.3125 
z
" id="ArialMT-98"/>
     <path d="M 9.03125 41.84375 
L 9.03125 51.859375 
L 19.046875 51.859375 
L 19.046875 41.84375 
z
M 9.03125 0 
L 9.03125 10.015625 
L 19.046875 10.015625 
L 19.046875 0 
z
" id="ArialMT-58"/>
     <path d="M 9.328125 0 
L 9.328125 71.578125 
L 18.796875 71.578125 
L 18.796875 0 
z
" id="ArialMT-73"/>
     <path d="M 6.640625 46.234375 
L 4.390625 59.625 
L 4.390625 71.578125 
L 14.40625 71.578125 
L 14.40625 59.625 
L 12.0625 46.234375 
z
" id="ArialMT-39"/>
     <path d="M 6.203125 -19.96875 
L 5.21875 -11.71875 
Q 8.109375 -12.5 10.25 -12.5 
Q 13.1875 -12.5 14.9375 -11.515625 
Q 16.703125 -10.546875 17.828125 -8.796875 
Q 18.65625 -7.46875 20.515625 -2.25 
Q 20.75 -1.515625 21.296875 -0.09375 
L 1.609375 51.859375 
L 11.078125 51.859375 
L 21.875 21.828125 
Q 23.96875 16.109375 25.640625 9.8125 
Q 27.15625 15.875 29.25 21.625 
L 40.328125 51.859375 
L 49.125 51.859375 
L 29.390625 -0.875 
Q 26.21875 -9.421875 24.46875 -12.640625 
Q 22.125 -17 19.09375 -19.015625 
Q 16.0625 -21.046875 11.859375 -21.046875 
Q 9.328125 -21.046875 6.203125 -19.96875 
z
" id="ArialMT-121"/>
     <path d="M 16.15625 0 
L 0.296875 51.859375 
L 9.375 51.859375 
L 17.625 21.921875 
L 20.703125 10.796875 
Q 20.90625 11.625 23.390625 21.484375 
L 31.640625 51.859375 
L 40.671875 51.859375 
L 48.4375 21.78125 
L 51.03125 11.859375 
L 54 21.875 
L 62.890625 51.859375 
L 71.4375 51.859375 
L 55.21875 0 
L 46.09375 0 
L 37.84375 31.0625 
L 35.84375 39.890625 
L 25.34375 0 
z
" id="ArialMT-119"/>
     <path d="M 9.078125 0 
L 9.078125 10.015625 
L 19.09375 10.015625 
L 19.09375 0 
z
" id="ArialMT-46"/>
    </defs>
    <g style="fill:#262626;" transform="translate(11.205938 19.24965)scale(0.12 -0.12)">
     <use xlink:href="#ArialMT-82"/>
     <use x="72.216797" xlink:href="#ArialMT-117"/>
     <use x="127.832031" xlink:href="#ArialMT-108"/>
     <use x="150.048828" xlink:href="#ArialMT-101"/>
     <use x="205.664062" xlink:href="#ArialMT-45"/>
     <use x="238.964844" xlink:href="#ArialMT-111"/>
     <use x="294.580078" xlink:href="#ArialMT-102"/>
     <use x="322.363281" xlink:href="#ArialMT-45"/>
     <use x="355.664062" xlink:href="#ArialMT-84"/>
     <use x="416.748047" xlink:href="#ArialMT-104"/>
     <use x="472.363281" xlink:href="#ArialMT-117"/>
     <use x="527.978516" xlink:href="#ArialMT-109"/>
     <use x="611.279297" xlink:href="#ArialMT-98"/>
     <use x="666.894531" xlink:href="#ArialMT-58"/>
     <use x="694.677734" xlink:href="#ArialMT-32"/>
     <use x="722.460938" xlink:href="#ArialMT-73"/>
     <use x="750.244141" xlink:href="#ArialMT-116"/>
     <use x="778.027344" xlink:href="#ArialMT-39"/>
     <use x="797.119141" xlink:href="#ArialMT-115"/>
     <use x="847.119141" xlink:href="#ArialMT-32"/>
     <use x="874.902344" xlink:href="#ArialMT-103"/>
     <use x="930.517578" xlink:href="#ArialMT-111"/>
     <use x="986.132812" xlink:href="#ArialMT-111"/>
     <use x="1041.748047" xlink:href="#ArialMT-100"/>
     <use x="1097.363281" xlink:href="#ArialMT-32"/>
     <use x="1125.146484" xlink:href="#ArialMT-116"/>
     <use x="1152.929688" xlink:href="#ArialMT-111"/>
     <use x="1208.544922" xlink:href="#ArialMT-32"/>
     <use x="1236.328125" xlink:href="#ArialMT-112"/>
     <use x="1291.943359" xlink:href="#ArialMT-108"/>
     <use x="1314.160156" xlink:href="#ArialMT-97"/>
     <use x="1369.775391" xlink:href="#ArialMT-121"/>
     <use x="1419.775391" xlink:href="#ArialMT-32"/>
     <use x="1447.558594" xlink:href="#ArialMT-103"/>
     <use x="1503.173828" xlink:href="#ArialMT-97"/>
     <use x="1558.789062" xlink:href="#ArialMT-109"/>
     <use x="1642.089844" xlink:href="#ArialMT-101"/>
     <use x="1697.705078" xlink:href="#ArialMT-115"/>
     <use x="1747.705078" xlink:href="#ArialMT-32"/>
     <use x="1775.488281" xlink:href="#ArialMT-111"/>
     <use x="1831.103516" xlink:href="#ArialMT-102"/>
     <use x="1858.886719" xlink:href="#ArialMT-32"/>
     <use x="1886.669922" xlink:href="#ArialMT-99"/>
     <use x="1936.669922" xlink:href="#ArialMT-104"/>
     <use x="1992.285156" xlink:href="#ArialMT-97"/>
     <use x="2047.900391" xlink:href="#ArialMT-110"/>
     <use x="2103.515625" xlink:href="#ArialMT-99"/>
     <use x="2153.515625" xlink:href="#ArialMT-101"/>
     <use x="2209.130859" xlink:href="#ArialMT-32"/>
     <use x="2236.914062" xlink:href="#ArialMT-119"/>
     <use x="2309.130859" xlink:href="#ArialMT-104"/>
     <use x="2364.746094" xlink:href="#ArialMT-101"/>
     <use x="2420.361328" xlink:href="#ArialMT-114"/>
     <use x="2453.662109" xlink:href="#ArialMT-101"/>
     <use x="2509.277344" xlink:href="#ArialMT-32"/>
     <use x="2537.060547" xlink:href="#ArialMT-121"/>
     <use x="2587.060547" xlink:href="#ArialMT-111"/>
     <use x="2642.675781" xlink:href="#ArialMT-117"/>
     <use x="2698.291016" xlink:href="#ArialMT-32"/>
     <use x="2726.074219" xlink:href="#ArialMT-99"/>
     <use x="2776.074219" xlink:href="#ArialMT-97"/>
     <use x="2831.689453" xlink:href="#ArialMT-110"/>
     <use x="2887.304688" xlink:href="#ArialMT-32"/>
     <use x="2915.087891" xlink:href="#ArialMT-119"/>
     <use x="2987.304688" xlink:href="#ArialMT-105"/>
     <use x="3009.521484" xlink:href="#ArialMT-110"/>
     <use x="3065.136719" xlink:href="#ArialMT-32"/>
     <use x="3092.919922" xlink:href="#ArialMT-109"/>
     <use x="3176.220703" xlink:href="#ArialMT-111"/>
     <use x="3231.835938" xlink:href="#ArialMT-110"/>
     <use x="3287.451172" xlink:href="#ArialMT-101"/>
     <use x="3343.066406" xlink:href="#ArialMT-121"/>
     <use x="3385.691406" xlink:href="#ArialMT-46"/>
    </g>
   </g>
  </g>
 </g>
 <defs>
  <clipPath id="pa53c70e85e">
   <rect height="142.087575" width="406.08" x="12.96" y="25.24965"/>
  </clipPath>
 </defs>
</svg>
