<svg width="1200" height="630" viewBox="0 0 1200 630" xmlns="http://www.w3.org/2000/svg"><defs><linearGradient x1="0%" y1="49.578%" x2="100%" y2="49.774%" id="a"><stop stop-color="#A6D854" offset="0%"/><stop stop-color="#8DA0CB" offset="100%"/></linearGradient><filter x="-1.9%" y="-3.7%" width="103.7%" height="107.4%" filterUnits="objectBoundingBox" id="b"><feGaussianBlur stdDeviation="7" in="SourceGraphic"/></filter></defs><g fill="none" fill-rule="evenodd"><rect fill-opacity=".5" fill="url(#a)" width="1200" height="630"/><rect fill-opacity=".74" fill="#FFF" filter="url(#b)" x="41" y="31" width="1126" height="568" rx="15"/><circle fill="#66C2A5" cx="814.5" cy="511" r="55"/><circle fill="#A6D854" cx="174.5" cy="303" r="55"/><circle fill="#E78AC3" cx="814.5" cy="104.5" r="55"/><circle fill="#FFD92F" cx="384.5" cy="511" r="55"/><circle fill="#FC8D62" cx="384.5" cy="104.5" r="55"/><circle fill="#8DA0CB" cx="1024.5" cy="303" r="55"/><path d="M832.981564,134.5 C873.027087,134.5 899.36328,140.963636 922.160224,153.155575 C944.872732,165.302358 962.697642,183.127268 974.844425,205.839776 C987.036364,228.63672 993.5,254.972913 993.5,295.018436 L993.5,295.018436 L993.5,316.981564 C993.5,357.027087 987.036364,383.36328 974.844425,406.160224 C962.697642,428.872732 944.872732,446.697642 922.160224,458.844425 C899.36328,471.036364 873.027087,477.5 832.981564,477.5 L832.981564,477.5 L368.018436,477.5 C327.972913,477.5 301.63672,471.036364 278.839776,458.844425 C256.127268,446.697642 238.302358,428.872732 226.155575,406.160224 C213.963636,383.36328 207.5,357.027087 207.5,316.981564 L207.5,316.981564 L207.5,295.018436 C207.5,254.972913 213.963636,228.63672 226.155575,205.839776 C238.302358,183.127268 256.127268,165.302358 278.839776,153.155575 C301.63672,140.963636 327.972913,134.5 368.018436,134.5 L368.018436,134.5 Z" stroke="#909090" stroke-width="3" fill-opacity=".5" fill="#FFF"/><g transform="translate(346 157)" fill-rule="nonzero"><path d="M261,15 C331.520236,15 389.780731,70.0147327 393.782428,140.384993 C397.784064,210.755254 346.135631,272.01364 276.069552,280 L261,147.92803 L261,15 Z" fill="#66C2A5"/><path d="M245,10.3809056 C248.327354,10.1270593 251.663069,10 255,10 L255,143 L245,10.3809056 Z" fill="#FFD92F"/><path d="M234,11.1352118 C237.308219,10.6313359 240.634367,10.2526616 243.971282,10 L254,142 L234,11.1352118 Z" fill="#A6D854"/><path d="M223,12.8867415 C226.276214,12.1337613 229.579921,11.5043966 232.904013,11 L253,142 L223,12.8867415 Z" fill="#E78AC3"/><path d="M140,70.1351307 C158.845102,41.7571892 187.82253,21.6724349 220.989362,14 L251,144 L140,70.1351307 Z" fill="#8DA0CB"/><path d="M264,283.143279 C212.61896,288.987724 162.502753,264.581618 135.523964,220.576674 C108.545163,176.571742 109.600578,120.955141 138.229577,78 L248.937194,151.403877 L264,283.143279 Z" fill="#FC8D62"/></g></g></svg>