<?xml version="1.0" encoding="UTF-8"?>
<svg width="1917px" height="1271px" viewBox="0 0 1917 1271" version="1.1" xmlns="http://www.w3.org/2000/svg" xmlns:xlink="http://www.w3.org/1999/xlink">
    <title>device-diagram</title>
    <g id="device-diagram" stroke="none" stroke-width="1" fill="none" fill-rule="evenodd">
        <rect id="Rectangle" fill-opacity="0.4" fill="#FFD700" x="131" y="27" width="331" height="1046"></rect>
        <rect id="Rectangle-Copy-2" fill-opacity="0.4" fill="#FF4136" x="131" y="229" width="331" height="223"></rect>
        <rect id="Rectangle-Copy-2" fill-opacity="0.4" fill="#FF4136" x="131" y="646" width="331" height="93"></rect>
        <rect id="Rectangle" fill-opacity="0.4" fill="#FFD700" x="688" y="27" width="331" height="1046"></rect>
        <rect id="Rectangle-Copy-3" fill-opacity="0.4" fill="#FFD700" x="1364" y="27" width="331" height="1046"></rect>
        <rect id="Rectangle-Copy-2" fill-opacity="0.4" fill="#FF4136" x="688" y="229" width="331" height="223"></rect>
        <rect id="Rectangle-Copy-4" fill-opacity="0.4" fill="#FF4136" x="1251" y="229" width="557" height="223"></rect>
        <rect id="Rectangle-Copy-2" fill-opacity="0.4" fill="#FF4136" x="688" y="646" width="331" height="93"></rect>
        <rect id="Rectangle-Copy-5" fill-opacity="0.4" fill="#FF4136" x="1332" y="646" width="395" height="93"></rect>
        <rect id="Rectangle-Copy-6" fill-opacity="0.4" fill="#FFD700" x="476" y="1174" width="60" height="60"></rect>
        <path d="M583.045,1223 C585.061667,1223 586.959167,1222.77083 588.7375,1222.3125 C590.515833,1221.85417 592.065,1221.17583 593.385,1220.2775 C594.705,1219.37917 595.75,1218.23333 596.52,1216.84 C597.29,1215.44667 597.675,1213.815 597.675,1211.945 C597.675,1210.58833 597.464167,1209.36 597.0425,1208.26 C596.620833,1207.16 596.025,1206.20667 595.255,1205.4 C594.485,1204.59333 593.568333,1203.9425 592.505,1203.4475 C591.441667,1202.9525 590.286667,1202.63167 589.04,1202.485 L589.04,1202.485 L589.04,1202.375 C591.093333,1201.825 592.743333,1200.81667 593.99,1199.35 C595.236667,1197.88333 595.86,1196.06833 595.86,1193.905 C595.86,1192.035 595.5025,1190.47667 594.7875,1189.23 C594.0725,1187.98333 593.1375,1186.975 591.9825,1186.205 C590.8275,1185.435 589.516667,1184.885 588.05,1184.555 C586.583333,1184.225 585.116667,1184.06 583.65,1184.06 L583.65,1184.06 L570.23,1184.06 L570.23,1223 L583.045,1223 Z M582.77,1200.505 L575.675,1200.505 L575.675,1188.625 L581.89,1188.625 C584.493333,1188.625 586.565,1189.07417 588.105,1189.9725 C589.645,1190.87083 590.415,1192.365 590.415,1194.455 C590.415,1195.51833 590.213333,1196.42583 589.81,1197.1775 C589.406667,1197.92917 588.856667,1198.5525 588.16,1199.0475 C587.463333,1199.5425 586.6475,1199.90917 585.7125,1200.1475 C584.7775,1200.38583 583.796667,1200.505 582.77,1200.505 L582.77,1200.505 Z M582.495,1218.38 L575.675,1218.38 L575.675,1205.125 L582.99,1205.125 C585.96,1205.125 588.233333,1205.63833 589.81,1206.665 C591.386667,1207.69167 592.175,1209.36 592.175,1211.67 C592.175,1212.99 591.890833,1214.08083 591.3225,1214.9425 C590.754167,1215.80417 590.0025,1216.49167 589.0675,1217.005 C588.1325,1217.51833 587.0875,1217.87583 585.9325,1218.0775 C584.7775,1218.27917 583.631667,1218.38 582.495,1218.38 L582.495,1218.38 Z M617.585,1223.715 C619.565,1223.715 621.416667,1223.37583 623.14,1222.6975 C624.863333,1222.01917 626.3575,1221.06583 627.6225,1219.8375 C628.8875,1218.60917 629.8775,1217.15167 630.5925,1215.465 C631.3075,1213.77833 631.665,1211.92667 631.665,1209.91 C631.665,1207.89333 631.3075,1206.05083 630.5925,1204.3825 C629.8775,1202.71417 628.8875,1201.275 627.6225,1200.065 C626.3575,1198.855 624.863333,1197.91083 623.14,1197.2325 C621.416667,1196.55417 619.565,1196.215 617.585,1196.215 C615.605,1196.215 613.753333,1196.55417 612.03,1197.2325 C610.306667,1197.91083 608.821667,1198.855 607.575,1200.065 C606.328333,1201.275 605.3475,1202.71417 604.6325,1204.3825 C603.9175,1206.05083 603.56,1207.89333 603.56,1209.91 C603.56,1211.92667 603.9175,1213.77833 604.6325,1215.465 C605.3475,1217.15167 606.328333,1218.60917 607.575,1219.8375 C608.821667,1221.06583 610.306667,1222.01917 612.03,1222.6975 C613.753333,1223.37583 615.605,1223.715 617.585,1223.715 Z M617.585,1219.37 C616.191667,1219.37 614.954167,1219.11333 613.8725,1218.6 C612.790833,1218.08667 611.883333,1217.39 611.15,1216.51 C610.416667,1215.63 609.8575,1214.62167 609.4725,1213.485 C609.0875,1212.34833 608.895,1211.15667 608.895,1209.91 C608.895,1208.66333 609.0875,1207.47167 609.4725,1206.335 C609.8575,1205.19833 610.416667,1204.19917 611.15,1203.3375 C611.883333,1202.47583 612.790833,1201.78833 613.8725,1201.275 C614.954167,1200.76167 616.191667,1200.505 617.585,1200.505 C618.978333,1200.505 620.215833,1200.76167 621.2975,1201.275 C622.379167,1201.78833 623.286667,1202.47583 624.02,1203.3375 C624.753333,1204.19917 625.3125,1205.19833 625.6975,1206.335 C626.0825,1207.47167 626.275,1208.66333 626.275,1209.91 C626.275,1211.15667 626.0825,1212.34833 625.6975,1213.485 C625.3125,1214.62167 624.753333,1215.63 624.02,1216.51 C623.286667,1217.39 622.379167,1218.08667 621.2975,1218.6 C620.215833,1219.11333 618.978333,1219.37 617.585,1219.37 Z M650.2,1223.715 C652.07,1223.715 653.8575,1223.3025 655.5625,1222.4775 C657.2675,1221.6525 658.615,1220.45167 659.605,1218.875 L659.605,1218.875 L659.715,1218.875 L659.715,1223 L664.72,1223 L664.72,1181.42 L659.55,1181.42 L659.55,1200.835 L659.44,1200.835 C658.523333,1199.55167 657.276667,1198.46083 655.7,1197.5625 C654.123333,1196.66417 652.271667,1196.215 650.145,1196.215 C648.201667,1196.215 646.423333,1196.56333 644.81,1197.26 C643.196667,1197.95667 641.8125,1198.92833 640.6575,1200.175 C639.5025,1201.42167 638.613333,1202.87917 637.99,1204.5475 C637.366667,1206.21583 637.055,1208.00333 637.055,1209.91 C637.055,1211.81667 637.366667,1213.61333 637.99,1215.3 C638.613333,1216.98667 639.493333,1218.45333 640.63,1219.7 C641.766667,1220.94667 643.141667,1221.9275 644.755,1222.6425 C646.368333,1223.3575 648.183333,1223.715 650.2,1223.715 Z M651.08,1219.37 C649.65,1219.37 648.403333,1219.10417 647.34,1218.5725 C646.276667,1218.04083 645.378333,1217.335 644.645,1216.455 C643.911667,1215.575 643.361667,1214.56667 642.995,1213.43 C642.628333,1212.29333 642.445,1211.12 642.445,1209.91 C642.445,1208.7 642.628333,1207.52667 642.995,1206.39 C643.361667,1205.25333 643.911667,1204.245 644.645,1203.365 C645.378333,1202.485 646.276667,1201.78833 647.34,1201.275 C648.403333,1200.76167 649.65,1200.505 651.08,1200.505 C652.4,1200.505 653.600833,1200.76167 654.6825,1201.275 C655.764167,1201.78833 656.69,1202.485 657.46,1203.365 C658.23,1204.245 658.825833,1205.25333 659.2475,1206.39 C659.669167,1207.52667 659.88,1208.71833 659.88,1209.965 C659.88,1211.21167 659.669167,1212.40333 659.2475,1213.54 C658.825833,1214.67667 658.23,1215.67583 657.46,1216.5375 C656.69,1217.39917 655.764167,1218.08667 654.6825,1218.6 C653.600833,1219.11333 652.4,1219.37 651.08,1219.37 Z M674.785,1236.2 C676.068333,1236.2 677.1775,1236.035 678.1125,1235.705 C679.0475,1235.375 679.863333,1234.9075 680.56,1234.3025 C681.256667,1233.6975 681.861667,1232.96417 682.375,1232.1025 C682.888333,1231.24083 683.365,1230.26 683.805,1229.16 L683.805,1229.16 L696.455,1196.93 L690.955,1196.93 L683.75,1217.39 L683.64,1217.39 L675.555,1196.93 L669.78,1196.93 L680.945,1223 L679.295,1227.345 C678.745,1228.73833 678.14,1229.81083 677.48,1230.5625 C676.82,1231.31417 675.811667,1231.69 674.455,1231.69 C673.611667,1231.69 672.75,1231.54333 671.87,1231.25 L671.87,1231.25 L671.375,1235.815 C671.961667,1235.96167 672.539167,1236.0625 673.1075,1236.1175 C673.675833,1236.1725 674.235,1236.2 674.785,1236.2 Z M723.515,1223.44 C724.321667,1223.44 725.100833,1223.37583 725.8525,1223.2475 C726.604167,1223.11917 727.291667,1222.945 727.915,1222.725 L727.915,1222.725 L727.75,1218.49 C727.31,1218.71 726.815,1218.875 726.265,1218.985 C725.715,1219.095 725.201667,1219.15 724.725,1219.15 C723.441667,1219.15 722.506667,1218.81083 721.92,1218.1325 C721.333333,1217.45417 721.04,1216.32667 721.04,1214.75 L721.04,1214.75 L721.04,1201.165 L727.97,1201.165 L727.97,1196.93 L721.04,1196.93 L721.04,1189.45 L715.925,1189.45 L715.925,1196.93 L710.92,1196.93 L710.92,1201.165 L715.925,1201.165 L715.925,1215.3 C715.925,1218.01333 716.575833,1220.04833 717.8775,1221.405 C719.179167,1222.76167 721.058333,1223.44 723.515,1223.44 Z M745.35,1223.715 C747.66,1223.715 749.759167,1223.28417 751.6475,1222.4225 C753.535833,1221.56083 755.176667,1220.21333 756.57,1218.38 L756.57,1218.38 L752.94,1215.465 C752.206667,1216.565 751.198333,1217.5 749.915,1218.27 C748.631667,1219.04 747.11,1219.425 745.35,1219.425 C744.213333,1219.425 743.140833,1219.22333 742.1325,1218.82 C741.124167,1218.41667 740.235,1217.8575 739.465,1217.1425 C738.695,1216.4275 738.080833,1215.58417 737.6225,1214.6125 C737.164167,1213.64083 736.916667,1212.605 736.88,1211.505 L736.88,1211.505 L757.56,1211.505 C757.596667,1211.21167 757.615,1210.91833 757.615,1210.625 L757.615,1210.625 L757.615,1209.745 C757.615,1207.655 757.321667,1205.77583 756.735,1204.1075 C756.148333,1202.43917 755.314167,1201.01833 754.2325,1199.845 C753.150833,1198.67167 751.830833,1197.77333 750.2725,1197.15 C748.714167,1196.52667 746.981667,1196.215 745.075,1196.215 C743.168333,1196.215 741.39,1196.55417 739.74,1197.2325 C738.09,1197.91083 736.66,1198.855 735.45,1200.065 C734.24,1201.275 733.295833,1202.7325 732.6175,1204.4375 C731.939167,1206.1425 731.6,1208.00333 731.6,1210.02 C731.6,1212.07333 731.948333,1213.94333 732.645,1215.63 C733.341667,1217.31667 734.295,1218.75583 735.505,1219.9475 C736.715,1221.13917 738.163333,1222.065 739.85,1222.725 C741.536667,1223.385 743.37,1223.715 745.35,1223.715 Z M752.39,1207.655 L736.88,1207.655 C736.953333,1206.62833 737.219167,1205.66583 737.6775,1204.7675 C738.135833,1203.86917 738.7225,1203.09 739.4375,1202.43 C740.1525,1201.77 740.995833,1201.2475 741.9675,1200.8625 C742.939167,1200.4775 743.975,1200.285 745.075,1200.285 C746.285,1200.285 747.339167,1200.4775 748.2375,1200.8625 C749.135833,1201.2475 749.8875,1201.77 750.4925,1202.43 C751.0975,1203.09 751.555833,1203.86917 751.8675,1204.7675 C752.179167,1205.66583 752.353333,1206.62833 752.39,1207.655 L752.39,1207.655 Z M766.965,1223 L774.335,1212.825 L781.595,1223 L788.03,1223 L777.525,1209.25 L786.93,1196.93 L780.88,1196.93 L774.445,1205.895 L768.065,1196.93 L761.685,1196.93 L771.2,1209.305 L760.75,1223 L766.965,1223 Z M801.23,1223.44 C802.036667,1223.44 802.815833,1223.37583 803.5675,1223.2475 C804.319167,1223.11917 805.006667,1222.945 805.63,1222.725 L805.63,1222.725 L805.465,1218.49 C805.025,1218.71 804.53,1218.875 803.98,1218.985 C803.43,1219.095 802.916667,1219.15 802.44,1219.15 C801.156667,1219.15 800.221667,1218.81083 799.635,1218.1325 C799.048333,1217.45417 798.755,1216.32667 798.755,1214.75 L798.755,1214.75 L798.755,1201.165 L805.685,1201.165 L805.685,1196.93 L798.755,1196.93 L798.755,1189.45 L793.64,1189.45 L793.64,1196.93 L788.635,1196.93 L788.635,1201.165 L793.64,1201.165 L793.64,1215.3 C793.64,1218.01333 794.290833,1220.04833 795.5925,1221.405 C796.894167,1222.76167 798.773333,1223.44 801.23,1223.44 Z" id="Bodytext" fill="#111111" fill-rule="nonzero"></path>
        <rect id="Rectangle-Copy-6" fill="#FFB3AF" x="971" y="1174" width="60" height="60"></rect>
        <path d="M1078.155,1223 L1087.615,1191.705 L1087.725,1191.705 L1097.185,1223 L1102.85,1223 L1114.29,1184.06 L1108.515,1184.06 L1099.935,1215.08 L1099.825,1215.08 L1090.75,1184.06 L1084.755,1184.06 L1075.625,1215.08 L1075.515,1215.08 L1066.935,1184.06 L1061.05,1184.06 L1072.49,1223 L1078.155,1223 Z M1121.935,1190.825 C1122.88833,1190.825 1123.70417,1190.51333 1124.3825,1189.89 C1125.06083,1189.26667 1125.4,1188.47833 1125.4,1187.525 C1125.4,1186.57167 1125.06083,1185.77417 1124.3825,1185.1325 C1123.70417,1184.49083 1122.88833,1184.17 1121.935,1184.17 C1120.98167,1184.17 1120.175,1184.49083 1119.515,1185.1325 C1118.855,1185.77417 1118.525,1186.57167 1118.525,1187.525 C1118.525,1188.44167 1118.855,1189.22083 1119.515,1189.8625 C1120.175,1190.50417 1120.98167,1190.825 1121.935,1190.825 Z M1124.52,1223 L1124.52,1196.93 L1119.35,1196.93 L1119.35,1223 L1124.52,1223 Z M1144.925,1223.715 C1146.795,1223.715 1148.5825,1223.3025 1150.2875,1222.4775 C1151.9925,1221.6525 1153.34,1220.45167 1154.33,1218.875 L1154.33,1218.875 L1154.44,1218.875 L1154.44,1223 L1159.445,1223 L1159.445,1181.42 L1154.275,1181.42 L1154.275,1200.835 L1154.165,1200.835 C1153.24833,1199.55167 1152.00167,1198.46083 1150.425,1197.5625 C1148.84833,1196.66417 1146.99667,1196.215 1144.87,1196.215 C1142.92667,1196.215 1141.14833,1196.56333 1139.535,1197.26 C1137.92167,1197.95667 1136.5375,1198.92833 1135.3825,1200.175 C1134.2275,1201.42167 1133.33833,1202.87917 1132.715,1204.5475 C1132.09167,1206.21583 1131.78,1208.00333 1131.78,1209.91 C1131.78,1211.81667 1132.09167,1213.61333 1132.715,1215.3 C1133.33833,1216.98667 1134.21833,1218.45333 1135.355,1219.7 C1136.49167,1220.94667 1137.86667,1221.9275 1139.48,1222.6425 C1141.09333,1223.3575 1142.90833,1223.715 1144.925,1223.715 Z M1145.805,1219.37 C1144.375,1219.37 1143.12833,1219.10417 1142.065,1218.5725 C1141.00167,1218.04083 1140.10333,1217.335 1139.37,1216.455 C1138.63667,1215.575 1138.08667,1214.56667 1137.72,1213.43 C1137.35333,1212.29333 1137.17,1211.12 1137.17,1209.91 C1137.17,1208.7 1137.35333,1207.52667 1137.72,1206.39 C1138.08667,1205.25333 1138.63667,1204.245 1139.37,1203.365 C1140.10333,1202.485 1141.00167,1201.78833 1142.065,1201.275 C1143.12833,1200.76167 1144.375,1200.505 1145.805,1200.505 C1147.125,1200.505 1148.32583,1200.76167 1149.4075,1201.275 C1150.48917,1201.78833 1151.415,1202.485 1152.185,1203.365 C1152.955,1204.245 1153.55083,1205.25333 1153.9725,1206.39 C1154.39417,1207.52667 1154.605,1208.71833 1154.605,1209.965 C1154.605,1211.21167 1154.39417,1212.40333 1153.9725,1213.54 C1153.55083,1214.67667 1152.955,1215.67583 1152.185,1216.5375 C1151.415,1217.39917 1150.48917,1218.08667 1149.4075,1218.6 C1148.32583,1219.11333 1147.125,1219.37 1145.805,1219.37 Z M1180.51,1223.715 C1182.82,1223.715 1184.91917,1223.28417 1186.8075,1222.4225 C1188.69583,1221.56083 1190.33667,1220.21333 1191.73,1218.38 L1191.73,1218.38 L1188.1,1215.465 C1187.36667,1216.565 1186.35833,1217.5 1185.075,1218.27 C1183.79167,1219.04 1182.27,1219.425 1180.51,1219.425 C1179.37333,1219.425 1178.30083,1219.22333 1177.2925,1218.82 C1176.28417,1218.41667 1175.395,1217.8575 1174.625,1217.1425 C1173.855,1216.4275 1173.24083,1215.58417 1172.7825,1214.6125 C1172.32417,1213.64083 1172.07667,1212.605 1172.04,1211.505 L1172.04,1211.505 L1192.72,1211.505 C1192.75667,1211.21167 1192.775,1210.91833 1192.775,1210.625 L1192.775,1210.625 L1192.775,1209.745 C1192.775,1207.655 1192.48167,1205.77583 1191.895,1204.1075 C1191.30833,1202.43917 1190.47417,1201.01833 1189.3925,1199.845 C1188.31083,1198.67167 1186.99083,1197.77333 1185.4325,1197.15 C1183.87417,1196.52667 1182.14167,1196.215 1180.235,1196.215 C1178.32833,1196.215 1176.55,1196.55417 1174.9,1197.2325 C1173.25,1197.91083 1171.82,1198.855 1170.61,1200.065 C1169.4,1201.275 1168.45583,1202.7325 1167.7775,1204.4375 C1167.09917,1206.1425 1166.76,1208.00333 1166.76,1210.02 C1166.76,1212.07333 1167.10833,1213.94333 1167.805,1215.63 C1168.50167,1217.31667 1169.455,1218.75583 1170.665,1219.9475 C1171.875,1221.13917 1173.32333,1222.065 1175.01,1222.725 C1176.69667,1223.385 1178.53,1223.715 1180.51,1223.715 Z M1187.55,1207.655 L1172.04,1207.655 C1172.11333,1206.62833 1172.37917,1205.66583 1172.8375,1204.7675 C1173.29583,1203.86917 1173.8825,1203.09 1174.5975,1202.43 C1175.3125,1201.77 1176.15583,1201.2475 1177.1275,1200.8625 C1178.09917,1200.4775 1179.135,1200.285 1180.235,1200.285 C1181.445,1200.285 1182.49917,1200.4775 1183.3975,1200.8625 C1184.29583,1201.2475 1185.0475,1201.77 1185.6525,1202.43 C1186.2575,1203.09 1186.71583,1203.86917 1187.0275,1204.7675 C1187.33917,1205.66583 1187.51333,1206.62833 1187.55,1207.655 L1187.55,1207.655 Z M1225.775,1223.715 C1228.085,1223.715 1230.18417,1223.28417 1232.0725,1222.4225 C1233.96083,1221.56083 1235.60167,1220.21333 1236.995,1218.38 L1236.995,1218.38 L1233.365,1215.465 C1232.63167,1216.565 1231.62333,1217.5 1230.34,1218.27 C1229.05667,1219.04 1227.535,1219.425 1225.775,1219.425 C1224.63833,1219.425 1223.56583,1219.22333 1222.5575,1218.82 C1221.54917,1218.41667 1220.66,1217.8575 1219.89,1217.1425 C1219.12,1216.4275 1218.50583,1215.58417 1218.0475,1214.6125 C1217.58917,1213.64083 1217.34167,1212.605 1217.305,1211.505 L1217.305,1211.505 L1237.985,1211.505 C1238.02167,1211.21167 1238.04,1210.91833 1238.04,1210.625 L1238.04,1210.625 L1238.04,1209.745 C1238.04,1207.655 1237.74667,1205.77583 1237.16,1204.1075 C1236.57333,1202.43917 1235.73917,1201.01833 1234.6575,1199.845 C1233.57583,1198.67167 1232.25583,1197.77333 1230.6975,1197.15 C1229.13917,1196.52667 1227.40667,1196.215 1225.5,1196.215 C1223.59333,1196.215 1221.815,1196.55417 1220.165,1197.2325 C1218.515,1197.91083 1217.085,1198.855 1215.875,1200.065 C1214.665,1201.275 1213.72083,1202.7325 1213.0425,1204.4375 C1212.36417,1206.1425 1212.025,1208.00333 1212.025,1210.02 C1212.025,1212.07333 1212.37333,1213.94333 1213.07,1215.63 C1213.76667,1217.31667 1214.72,1218.75583 1215.93,1219.9475 C1217.14,1221.13917 1218.58833,1222.065 1220.275,1222.725 C1221.96167,1223.385 1223.795,1223.715 1225.775,1223.715 Z M1232.815,1207.655 L1217.305,1207.655 C1217.37833,1206.62833 1217.64417,1205.66583 1218.1025,1204.7675 C1218.56083,1203.86917 1219.1475,1203.09 1219.8625,1202.43 C1220.5775,1201.77 1221.42083,1201.2475 1222.3925,1200.8625 C1223.36417,1200.4775 1224.4,1200.285 1225.5,1200.285 C1226.71,1200.285 1227.76417,1200.4775 1228.6625,1200.8625 C1229.56083,1201.2475 1230.3125,1201.77 1230.9175,1202.43 C1231.5225,1203.09 1231.98083,1203.86917 1232.2925,1204.7675 C1232.60417,1205.66583 1232.77833,1206.62833 1232.815,1207.655 L1232.815,1207.655 Z M1250.525,1223 L1250.525,1181.42 L1245.355,1181.42 L1245.355,1223 L1250.525,1223 Z M1271.59,1223.715 C1273.9,1223.715 1275.99917,1223.28417 1277.8875,1222.4225 C1279.77583,1221.56083 1281.41667,1220.21333 1282.81,1218.38 L1282.81,1218.38 L1279.18,1215.465 C1278.44667,1216.565 1277.43833,1217.5 1276.155,1218.27 C1274.87167,1219.04 1273.35,1219.425 1271.59,1219.425 C1270.45333,1219.425 1269.38083,1219.22333 1268.3725,1218.82 C1267.36417,1218.41667 1266.475,1217.8575 1265.705,1217.1425 C1264.935,1216.4275 1264.32083,1215.58417 1263.8625,1214.6125 C1263.40417,1213.64083 1263.15667,1212.605 1263.12,1211.505 L1263.12,1211.505 L1283.8,1211.505 C1283.83667,1211.21167 1283.855,1210.91833 1283.855,1210.625 L1283.855,1210.625 L1283.855,1209.745 C1283.855,1207.655 1283.56167,1205.77583 1282.975,1204.1075 C1282.38833,1202.43917 1281.55417,1201.01833 1280.4725,1199.845 C1279.39083,1198.67167 1278.07083,1197.77333 1276.5125,1197.15 C1274.95417,1196.52667 1273.22167,1196.215 1271.315,1196.215 C1269.40833,1196.215 1267.63,1196.55417 1265.98,1197.2325 C1264.33,1197.91083 1262.9,1198.855 1261.69,1200.065 C1260.48,1201.275 1259.53583,1202.7325 1258.8575,1204.4375 C1258.17917,1206.1425 1257.84,1208.00333 1257.84,1210.02 C1257.84,1212.07333 1258.18833,1213.94333 1258.885,1215.63 C1259.58167,1217.31667 1260.535,1218.75583 1261.745,1219.9475 C1262.955,1221.13917 1264.40333,1222.065 1266.09,1222.725 C1267.77667,1223.385 1269.61,1223.715 1271.59,1223.715 Z M1278.63,1207.655 L1263.12,1207.655 C1263.19333,1206.62833 1263.45917,1205.66583 1263.9175,1204.7675 C1264.37583,1203.86917 1264.9625,1203.09 1265.6775,1202.43 C1266.3925,1201.77 1267.23583,1201.2475 1268.2075,1200.8625 C1269.17917,1200.4775 1270.215,1200.285 1271.315,1200.285 C1272.525,1200.285 1273.57917,1200.4775 1274.4775,1200.8625 C1275.37583,1201.2475 1276.1275,1201.77 1276.7325,1202.43 C1277.3375,1203.09 1277.79583,1203.86917 1278.1075,1204.7675 C1278.41917,1205.66583 1278.59333,1206.62833 1278.63,1207.655 L1278.63,1207.655 Z M1296.23,1223 L1296.23,1209.14 C1296.23,1206.53667 1296.8625,1204.45583 1298.1275,1202.8975 C1299.3925,1201.33917 1300.97833,1200.56 1302.885,1200.56 C1303.91167,1200.56 1304.77333,1200.73417 1305.47,1201.0825 C1306.16667,1201.43083 1306.735,1201.9075 1307.175,1202.5125 C1307.615,1203.1175 1307.92667,1203.84167 1308.11,1204.685 C1308.29333,1205.52833 1308.385,1206.46333 1308.385,1207.49 L1308.385,1207.49 L1308.385,1223 L1313.555,1223 L1313.555,1208.92 C1313.555,1207.89333 1313.67417,1206.885 1313.9125,1205.895 C1314.15083,1204.905 1314.53583,1204.01583 1315.0675,1203.2275 C1315.59917,1202.43917 1316.28667,1201.7975 1317.13,1201.3025 C1317.97333,1200.8075 1318.98167,1200.56 1320.155,1200.56 C1321.29167,1200.56 1322.22667,1200.78 1322.96,1201.22 C1323.69333,1201.66 1324.28,1202.24667 1324.72,1202.98 C1325.16,1203.71333 1325.47167,1204.55667 1325.655,1205.51 C1325.83833,1206.46333 1325.93,1207.47167 1325.93,1208.535 L1325.93,1208.535 L1325.93,1223 L1331.1,1223 L1331.1,1206.83 C1331.1,1205.36333 1330.9075,1203.98833 1330.5225,1202.705 C1330.1375,1201.42167 1329.54167,1200.30333 1328.735,1199.35 C1327.92833,1198.39667 1326.92,1197.63583 1325.71,1197.0675 C1324.5,1196.49917 1323.05167,1196.215 1321.365,1196.215 C1319.495,1196.215 1317.77167,1196.66417 1316.195,1197.5625 C1314.61833,1198.46083 1313.39,1199.75333 1312.51,1201.44 C1311.70333,1199.57 1310.59417,1198.23167 1309.1825,1197.425 C1307.77083,1196.61833 1306.185,1196.215 1304.425,1196.215 C1302.445,1196.215 1300.73083,1196.70083 1299.2825,1197.6725 C1297.83417,1198.64417 1296.78,1199.82667 1296.12,1201.22 L1296.12,1201.22 L1295.955,1201.22 C1295.955,1200.67 1295.93667,1199.9825 1295.9,1199.1575 C1295.86333,1198.3325 1295.80833,1197.59 1295.735,1196.93 L1295.735,1196.93 L1290.84,1196.93 C1290.91333,1197.77333 1290.96833,1198.745 1291.005,1199.845 C1291.04167,1200.945 1291.06,1201.84333 1291.06,1202.54 L1291.06,1202.54 L1291.06,1223 L1296.23,1223 Z M1351.89,1223.715 C1354.2,1223.715 1356.29917,1223.28417 1358.1875,1222.4225 C1360.07583,1221.56083 1361.71667,1220.21333 1363.11,1218.38 L1363.11,1218.38 L1359.48,1215.465 C1358.74667,1216.565 1357.73833,1217.5 1356.455,1218.27 C1355.17167,1219.04 1353.65,1219.425 1351.89,1219.425 C1350.75333,1219.425 1349.68083,1219.22333 1348.6725,1218.82 C1347.66417,1218.41667 1346.775,1217.8575 1346.005,1217.1425 C1345.235,1216.4275 1344.62083,1215.58417 1344.1625,1214.6125 C1343.70417,1213.64083 1343.45667,1212.605 1343.42,1211.505 L1343.42,1211.505 L1364.1,1211.505 C1364.13667,1211.21167 1364.155,1210.91833 1364.155,1210.625 L1364.155,1210.625 L1364.155,1209.745 C1364.155,1207.655 1363.86167,1205.77583 1363.275,1204.1075 C1362.68833,1202.43917 1361.85417,1201.01833 1360.7725,1199.845 C1359.69083,1198.67167 1358.37083,1197.77333 1356.8125,1197.15 C1355.25417,1196.52667 1353.52167,1196.215 1351.615,1196.215 C1349.70833,1196.215 1347.93,1196.55417 1346.28,1197.2325 C1344.63,1197.91083 1343.2,1198.855 1341.99,1200.065 C1340.78,1201.275 1339.83583,1202.7325 1339.1575,1204.4375 C1338.47917,1206.1425 1338.14,1208.00333 1338.14,1210.02 C1338.14,1212.07333 1338.48833,1213.94333 1339.185,1215.63 C1339.88167,1217.31667 1340.835,1218.75583 1342.045,1219.9475 C1343.255,1221.13917 1344.70333,1222.065 1346.39,1222.725 C1348.07667,1223.385 1349.91,1223.715 1351.89,1223.715 Z M1358.93,1207.655 L1343.42,1207.655 C1343.49333,1206.62833 1343.75917,1205.66583 1344.2175,1204.7675 C1344.67583,1203.86917 1345.2625,1203.09 1345.9775,1202.43 C1346.6925,1201.77 1347.53583,1201.2475 1348.5075,1200.8625 C1349.47917,1200.4775 1350.515,1200.285 1351.615,1200.285 C1352.825,1200.285 1353.87917,1200.4775 1354.7775,1200.8625 C1355.67583,1201.2475 1356.4275,1201.77 1357.0325,1202.43 C1357.6375,1203.09 1358.09583,1203.86917 1358.4075,1204.7675 C1358.71917,1205.66583 1358.89333,1206.62833 1358.93,1207.655 L1358.93,1207.655 Z M1376.53,1223 L1376.53,1209.14 C1376.53,1206.53667 1377.18083,1204.45583 1378.4825,1202.8975 C1379.78417,1201.33917 1381.46167,1200.56 1383.515,1200.56 C1384.725,1200.56 1385.715,1200.78 1386.485,1201.22 C1387.255,1201.66 1387.86,1202.24667 1388.3,1202.98 C1388.74,1203.71333 1389.0425,1204.55667 1389.2075,1205.51 C1389.3725,1206.46333 1389.455,1207.47167 1389.455,1208.535 L1389.455,1208.535 L1389.455,1223 L1394.625,1223 L1394.625,1206.83 C1394.625,1205.36333 1394.4325,1203.98833 1394.0475,1202.705 C1393.6625,1201.42167 1393.06667,1200.30333 1392.26,1199.35 C1391.45333,1198.39667 1390.445,1197.63583 1389.235,1197.0675 C1388.025,1196.49917 1386.57667,1196.215 1384.89,1196.215 C1383.93667,1196.215 1383.02,1196.34333 1382.14,1196.6 C1381.26,1196.85667 1380.45333,1197.21417 1379.72,1197.6725 C1378.98667,1198.13083 1378.33583,1198.6625 1377.7675,1199.2675 C1377.19917,1199.8725 1376.75,1200.52333 1376.42,1201.22 L1376.42,1201.22 L1376.255,1201.22 C1376.255,1200.67 1376.23667,1199.9825 1376.2,1199.1575 C1376.16333,1198.3325 1376.10833,1197.59 1376.035,1196.93 L1376.035,1196.93 L1371.14,1196.93 C1371.21333,1197.77333 1371.26833,1198.745 1371.305,1199.845 C1371.34167,1200.945 1371.36,1201.84333 1371.36,1202.54 L1371.36,1202.54 L1371.36,1223 L1376.53,1223 Z M1411.675,1223.44 C1412.48167,1223.44 1413.26083,1223.37583 1414.0125,1223.2475 C1414.76417,1223.11917 1415.45167,1222.945 1416.075,1222.725 L1416.075,1222.725 L1415.91,1218.49 C1415.47,1218.71 1414.975,1218.875 1414.425,1218.985 C1413.875,1219.095 1413.36167,1219.15 1412.885,1219.15 C1411.60167,1219.15 1410.66667,1218.81083 1410.08,1218.1325 C1409.49333,1217.45417 1409.2,1216.32667 1409.2,1214.75 L1409.2,1214.75 L1409.2,1201.165 L1416.13,1201.165 L1416.13,1196.93 L1409.2,1196.93 L1409.2,1189.45 L1404.085,1189.45 L1404.085,1196.93 L1399.08,1196.93 L1399.08,1201.165 L1404.085,1201.165 L1404.085,1215.3 C1404.085,1218.01333 1404.73583,1220.04833 1406.0375,1221.405 C1407.33917,1222.76167 1409.21833,1223.44 1411.675,1223.44 Z M1428.945,1223.715 C1430.265,1223.715 1431.54833,1223.56833 1432.795,1223.275 C1434.04167,1222.98167 1435.15083,1222.49583 1436.1225,1221.8175 C1437.09417,1221.13917 1437.87333,1220.26833 1438.46,1219.205 C1439.04667,1218.14167 1439.34,1216.84 1439.34,1215.3 C1439.34,1214.16333 1439.12,1213.17333 1438.68,1212.33 C1438.24,1211.48667 1437.62583,1210.7625 1436.8375,1210.1575 C1436.04917,1209.5525 1435.12333,1209.04833 1434.06,1208.645 C1432.99667,1208.24167 1431.84167,1207.89333 1430.595,1207.6 C1428.615,1207.16 1427.13,1206.67417 1426.14,1206.1425 C1425.15,1205.61083 1424.655,1204.795 1424.655,1203.695 C1424.655,1203.07167 1424.7925,1202.54917 1425.0675,1202.1275 C1425.3425,1201.70583 1425.70917,1201.3575 1426.1675,1201.0825 C1426.62583,1200.8075 1427.14833,1200.60583 1427.735,1200.4775 C1428.32167,1200.34917 1428.90833,1200.285 1429.495,1200.285 C1430.815,1200.285 1432.00667,1200.5875 1433.07,1201.1925 C1434.13333,1201.7975 1434.95833,1202.57667 1435.545,1203.53 L1435.545,1203.53 L1439.12,1200.505 C1438.16667,1199.11167 1436.81917,1198.04833 1435.0775,1197.315 C1433.33583,1196.58167 1431.53,1196.215 1429.66,1196.215 C1428.41333,1196.215 1427.20333,1196.37083 1426.03,1196.6825 C1424.85667,1196.99417 1423.81167,1197.47083 1422.895,1198.1125 C1421.97833,1198.75417 1421.23583,1199.57917 1420.6675,1200.5875 C1420.09917,1201.59583 1419.815,1202.79667 1419.815,1204.19 C1419.815,1205.4 1420.04417,1206.4175 1420.5025,1207.2425 C1420.96083,1208.0675 1421.55667,1208.755 1422.29,1209.305 C1423.02333,1209.855 1423.83917,1210.28583 1424.7375,1210.5975 C1425.63583,1210.90917 1426.525,1211.175 1427.405,1211.395 C1429.64167,1211.90833 1431.3375,1212.45833 1432.4925,1213.045 C1433.6475,1213.63167 1434.225,1214.53 1434.225,1215.74 C1434.225,1216.47333 1434.07833,1217.07833 1433.785,1217.555 C1433.49167,1218.03167 1433.0975,1218.41667 1432.6025,1218.71 C1432.1075,1219.00333 1431.5575,1219.21417 1430.9525,1219.3425 C1430.3475,1219.47083 1429.715,1219.535 1429.055,1219.535 C1427.58833,1219.535 1426.24083,1219.18667 1425.0125,1218.49 C1423.78417,1217.79333 1422.82167,1216.93167 1422.125,1215.905 L1422.125,1215.905 L1418.44,1219.04 C1419.68667,1220.61667 1421.25417,1221.79 1423.1425,1222.56 C1425.03083,1223.33 1426.965,1223.715 1428.945,1223.715 Z" id="Wideelements" fill="#111111" fill-rule="nonzero"></path>
        <path d="M397.42907,149.000883 C426.386549,149.059149 437.077839,152.001151 447.814781,157.743331 C458.351841,163.378612 466.621388,171.648159 472.256669,182.185219 C478.056851,193.030615 481,203.829432 481,233.454039 L481,233.454039 L481,874.545961 C481,904.170568 478.056851,914.969385 472.256669,925.814781 C466.621388,936.351841 458.351841,944.621388 447.814781,950.256669 C436.969385,956.056851 426.170568,959 396.545961,959 L396.545961,959 L198.454039,959 C168.829432,959 158.030615,956.056851 147.185219,950.256669 C136.648159,944.621388 128.378612,936.351841 122.743331,925.814781 C117.003933,915.083039 114.06196,904.397434 114.00096,875.462815 L114.00096,875.462815 L114.000883,232.57093 C114.059149,203.613451 117.001151,192.922161 122.743331,182.185219 C128.378612,171.648159 136.648159,163.378612 147.185219,157.743331 C157.916961,152.003933 168.602566,149.06196 197.537198,149.00096 L197.537198,149.00096 Z" id="Rectangle" stroke="#5B5B5B" stroke-width="8"></path>
        <path d="M1121.85254,148.000884 C1134.37473,148.038593 1139.04686,149.283399 1143.72631,151.785997 C1148.24763,154.204021 1151.79598,157.752375 1154.214,162.273688 C1156.7557,167.026254 1158,171.771272 1158,184.740221 L1158,184.740221 L1158,923.259779 C1158,936.228728 1156.7557,940.973746 1154.214,945.726312 C1151.79598,950.247625 1148.24763,953.795979 1143.72631,956.214003 C1138.97375,958.755704 1134.22873,960 1121.25978,960 L1121.25978,960 L585.740221,960 C572.771272,960 568.026254,958.755704 563.273688,956.214003 C558.752375,953.795979 555.204021,950.247625 552.785997,945.726312 C550.284148,941.048262 549.039387,936.378067 549.000906,923.855059 L549.000906,923.855059 L549.000884,184.147463 C549.038593,171.625269 550.283399,166.953138 552.785997,162.273688 C555.204021,157.752375 558.752375,154.204021 563.273688,151.785997 C567.951738,149.284148 572.621933,148.039387 585.144942,148.000906 L585.144942,148.000906 Z" id="Rectangle" stroke="#5B5B5B" stroke-width="6"></path>
        <path d="M1797.85254,148.000884 C1810.37473,148.038593 1815.04686,149.283399 1819.72631,151.785997 C1824.24763,154.204021 1827.79598,157.752375 1830.214,162.273688 C1832.7557,167.026254 1834,171.771272 1834,184.740221 L1834,184.740221 L1834,923.259779 C1834,936.228728 1832.7557,940.973746 1830.214,945.726312 C1827.79598,950.247625 1824.24763,953.795979 1819.72631,956.214003 C1814.97375,958.755704 1810.22873,960 1797.25978,960 L1797.25978,960 L1261.74022,960 C1248.77127,960 1244.02625,958.755704 1239.27369,956.214003 C1234.75237,953.795979 1231.20402,950.247625 1228.786,945.726312 C1226.28415,941.048262 1225.03939,936.378067 1225.00091,923.855059 L1225.00091,923.855059 L1225.00088,184.147463 C1225.03859,171.625269 1226.2834,166.953138 1228.786,162.273688 C1231.20402,157.752375 1234.75237,154.204021 1239.27369,151.785997 C1243.95174,149.284148 1248.62193,148.039387 1261.14494,148.000906 L1261.14494,148.000906 Z" id="Rectangle-Copy" stroke="#5B5B5B" stroke-width="6"></path>
    </g>
</svg>