<?xml version="1.0" encoding="UTF-8"?>
<svg width="1200px" height="675px" viewBox="0 0 1200 675" version="1.1" xmlns="http://www.w3.org/2000/svg" xmlns:xlink="http://www.w3.org/1999/xlink">
    <title>header-page</title>
    <g id="header-page" stroke="none" stroke-width="1" fill="none" fill-rule="evenodd">
        <polygon id="Rectangle" fill-opacity="0.4" fill="#FFD700" transform="translate(600.000000, 184.000000) rotate(-270.000000) translate(-600.000000, -184.000000) " points="467.5 -416.5 732.5 -416.5 732.5 784.5 467.5 784.5"></polygon>
        <polygon id="Rectangle-Copy-2" fill-opacity="0.4" fill="#FF4136" transform="translate(549.500000, 227.000000) rotate(-270.000000) translate(-549.500000, -227.000000) " points="296 143 803 143 803 311 296 311"></polygon>
        <polygon id="Rectangle-Copy-2" fill-opacity="0.4" fill="#FF4136" transform="translate(285.500000, 198.000000) rotate(-270.000000) translate(-285.500000, -198.000000) " points="87 163 484 163 484 233 87 233"></polygon>
        <path d="M479.907982,-118.053476 C496.159808,-118.053476 502.109331,-116.502711 508.065839,-113.317135 C513.71401,-110.29646 518.146728,-105.863743 521.167403,-100.215572 C524.352978,-94.2590639 525.903743,-88.3095411 525.903743,-72.0577145 L525.903743,-72.0577145 L525.903743,440.057715 C525.903743,456.309541 524.352978,462.259064 521.167403,468.215572 C518.146728,473.863743 513.71401,478.29646 508.065839,481.317135 C502.109331,484.502711 496.159808,486.053476 479.907982,486.053476 L479.907982,486.053476 L298.899505,486.053476 C284.553931,486.053476 278.214467,484.860913 272.83727,482.367516 C271.841166,481.892614 271.291663,481.611287 270.741648,481.317135 C265.096164,478.297898 260.664977,473.86796 257.644396,468.223633 C254.375493,461.970192 252.903743,455.918645 252.903743,440.057715 L252.903743,440.057715 L252.903743,-72.0577145 C252.903743,-87.0838596 254.224649,-93.3060142 256.946804,-98.865159 L257.176895,-99.3270608 C257.254675,-99.4806328 257.333538,-99.6338678 257.413485,-99.7869401 C260.664977,-105.86796 265.096164,-110.297898 270.741648,-113.317135 C271.291663,-113.611287 271.841166,-113.892614 272.398962,-114.160582 C278.214467,-116.860913 284.553931,-118.053476 298.899505,-118.053476 L298.899505,-118.053476 Z" id="phone-top" stroke="#5B5B5B" stroke-width="8" transform="translate(389.403743, 184.000000) rotate(-270.000000) translate(-389.403743, -184.000000) "></path>
        <polygon id="Rectangle" fill-opacity="0.4" fill="#FFD700" transform="translate(600.000000, 491.000000) rotate(-270.000000) translate(-600.000000, -491.000000) " points="467.5 -109 732.5 -109 732.5 1091 467.5 1091"></polygon>
        <path d="M915.407982,188.946524 C931.659808,188.946524 937.609331,190.497289 943.565839,193.682865 C949.21401,196.70354 953.646728,201.136257 956.667403,206.784428 C959.852978,212.740936 961.403743,218.690459 961.403743,234.942285 L961.403743,234.942285 L961.403743,747.057715 C961.403743,763.309541 959.852978,769.259064 956.667403,775.215572 C953.646728,780.863743 949.21401,785.29646 943.565839,788.317135 C937.609331,791.502711 931.659808,793.053476 915.407982,793.053476 L915.407982,793.053476 L734.399505,793.053476 C720.053931,793.053476 713.714467,791.860913 708.33727,789.367516 C707.341166,788.892614 706.791663,788.611287 706.241648,788.317135 C700.596164,785.297898 696.164977,780.86796 693.144396,775.223633 C689.875493,768.970192 688.403743,762.918645 688.403743,747.057715 L688.403743,747.057715 L688.403743,234.942285 C688.403743,219.91614 689.724649,213.693986 692.446804,208.134841 L692.676895,207.672939 C692.754675,207.519367 692.833538,207.366132 692.913485,207.21306 C696.164977,201.13204 700.596164,196.702102 706.241648,193.682865 C706.791663,193.388713 707.341166,193.107386 707.898962,192.839418 C713.714467,190.139087 720.053931,188.946524 734.399505,188.946524 L734.399505,188.946524 Z" id="phone-bottom" stroke="#5B5B5B" stroke-width="8" transform="translate(824.903743, 491.000000) rotate(-270.000000) translate(-824.903743, -491.000000) "></path>
        <polygon id="Rectangle-Copy-2" fill-opacity="0.4" fill="#FF4136" transform="translate(985.000000, 491.000000) rotate(-270.000000) translate(-985.000000, -491.000000) " points="852.5 407 1117.5 407 1117.5 575 852.5 575"></polygon>
        <polygon id="Rectangle-Copy-2" fill-opacity="0.4" fill="#FF4136" transform="translate(721.000000, 491.000000) rotate(-270.000000) translate(-721.000000, -491.000000) " points="588.5 456 853.5 456 853.5 526 588.5 526"></polygon>
    </g>
</svg>