<?xml version="1.0" encoding="utf-8" standalone="no"?>
<!DOCTYPE svg PUBLIC "-//W3C//DTD SVG 1.1//EN"
  "http://www.w3.org/Graphics/SVG/1.1/DTD/svg11.dtd">
<!-- Created with matplotlib (https://matplotlib.org/) -->
<svg height="216pt" version="1.1" viewBox="0 0 432 216" width="432pt" xmlns="http://www.w3.org/2000/svg" xmlns:xlink="http://www.w3.org/1999/xlink">
 <defs>
  <style type="text/css">
*{stroke-linecap:butt;stroke-linejoin:round;}
  </style>
 </defs>
 <g id="figure_1">
  <g id="patch_1">
   <path d="M 0 216 
L 432 216 
L 432 0 
L 0 0 
z
" style="fill:#ffffff;"/>
  </g>
  <g id="axes_1">
   <g id="patch_2">
    <path d="M 12.96 167.076675 
L 419.04 167.076675 
L 419.04 25.14435 
L 12.96 25.14435 
z
" style="fill:#eaeaf2;"/>
   </g>
   <g id="matplotlib.axis_1">
    <g id="xtick_1">
     <g id="line2d_1">
      <path clip-path="url(#p380a8c50d3)" d="M 80.64 167.076675 
L 80.64 25.14435 
" style="fill:none;stroke:#ffffff;stroke-linecap:round;"/>
     </g>
     <g id="text_1">
      <!-- Strongly -->
      <defs>
       <path d="M 4.5 23 
L 13.421875 23.78125 
Q 14.0625 18.40625 16.375 14.96875 
Q 18.703125 11.53125 23.578125 9.40625 
Q 28.46875 7.28125 34.578125 7.28125 
Q 39.984375 7.28125 44.140625 8.890625 
Q 48.296875 10.5 50.3125 13.296875 
Q 52.34375 16.109375 52.34375 19.4375 
Q 52.34375 22.796875 50.390625 25.3125 
Q 48.4375 27.828125 43.953125 29.546875 
Q 41.0625 30.671875 31.203125 33.03125 
Q 21.34375 35.40625 17.390625 37.5 
Q 12.25 40.1875 9.734375 44.15625 
Q 7.234375 48.140625 7.234375 53.078125 
Q 7.234375 58.5 10.296875 63.203125 
Q 13.375 67.921875 19.28125 70.359375 
Q 25.203125 72.796875 32.421875 72.796875 
Q 40.375 72.796875 46.453125 70.234375 
Q 52.546875 67.671875 55.8125 62.6875 
Q 59.078125 57.71875 59.328125 51.421875 
L 50.25 50.734375 
Q 49.515625 57.515625 45.28125 60.984375 
Q 41.0625 64.453125 32.8125 64.453125 
Q 24.21875 64.453125 20.28125 61.296875 
Q 16.359375 58.15625 16.359375 53.71875 
Q 16.359375 49.859375 19.140625 47.359375 
Q 21.875 44.875 33.421875 42.265625 
Q 44.96875 39.65625 49.265625 37.703125 
Q 55.515625 34.8125 58.484375 30.390625 
Q 61.46875 25.984375 61.46875 20.21875 
Q 61.46875 14.5 58.203125 9.4375 
Q 54.9375 4.390625 48.796875 1.578125 
Q 42.671875 -1.21875 35.015625 -1.21875 
Q 25.296875 -1.21875 18.71875 1.609375 
Q 12.15625 4.4375 8.421875 10.125 
Q 4.6875 15.828125 4.5 23 
z
" id="ArialMT-83"/>
       <path d="M 25.78125 7.859375 
L 27.046875 0.09375 
Q 23.34375 -0.6875 20.40625 -0.6875 
Q 15.625 -0.6875 12.984375 0.828125 
Q 10.359375 2.34375 9.28125 4.8125 
Q 8.203125 7.28125 8.203125 15.1875 
L 8.203125 45.015625 
L 1.765625 45.015625 
L 1.765625 51.859375 
L 8.203125 51.859375 
L 8.203125 64.703125 
L 16.9375 69.96875 
L 16.9375 51.859375 
L 25.78125 51.859375 
L 25.78125 45.015625 
L 16.9375 45.015625 
L 16.9375 14.703125 
Q 16.9375 10.9375 17.40625 9.859375 
Q 17.875 8.796875 18.921875 8.15625 
Q 19.96875 7.515625 21.921875 7.515625 
Q 23.390625 7.515625 25.78125 7.859375 
z
" id="ArialMT-116"/>
       <path d="M 6.5 0 
L 6.5 51.859375 
L 14.40625 51.859375 
L 14.40625 44 
Q 17.4375 49.515625 20 51.265625 
Q 22.5625 53.03125 25.640625 53.03125 
Q 30.078125 53.03125 34.671875 50.203125 
L 31.640625 42.046875 
Q 28.421875 43.953125 25.203125 43.953125 
Q 22.3125 43.953125 20.015625 42.21875 
Q 17.71875 40.484375 16.75 37.40625 
Q 15.28125 32.71875 15.28125 27.15625 
L 15.28125 0 
z
" id="ArialMT-114"/>
       <path d="M 3.328125 25.921875 
Q 3.328125 40.328125 11.328125 47.265625 
Q 18.015625 53.03125 27.640625 53.03125 
Q 38.328125 53.03125 45.109375 46.015625 
Q 51.90625 39.015625 51.90625 26.65625 
Q 51.90625 16.65625 48.90625 10.90625 
Q 45.90625 5.171875 40.15625 2 
Q 34.421875 -1.171875 27.640625 -1.171875 
Q 16.75 -1.171875 10.03125 5.8125 
Q 3.328125 12.796875 3.328125 25.921875 
z
M 12.359375 25.921875 
Q 12.359375 15.96875 16.703125 11.015625 
Q 21.046875 6.0625 27.640625 6.0625 
Q 34.1875 6.0625 38.53125 11.03125 
Q 42.875 16.015625 42.875 26.21875 
Q 42.875 35.84375 38.5 40.796875 
Q 34.125 45.75 27.640625 45.75 
Q 21.046875 45.75 16.703125 40.8125 
Q 12.359375 35.890625 12.359375 25.921875 
z
" id="ArialMT-111"/>
       <path d="M 6.59375 0 
L 6.59375 51.859375 
L 14.5 51.859375 
L 14.5 44.484375 
Q 20.21875 53.03125 31 53.03125 
Q 35.6875 53.03125 39.625 51.34375 
Q 43.5625 49.65625 45.515625 46.921875 
Q 47.46875 44.1875 48.25 40.4375 
Q 48.734375 37.984375 48.734375 31.890625 
L 48.734375 0 
L 39.9375 0 
L 39.9375 31.546875 
Q 39.9375 36.921875 38.90625 39.578125 
Q 37.890625 42.234375 35.28125 43.8125 
Q 32.671875 45.40625 29.15625 45.40625 
Q 23.53125 45.40625 19.453125 41.84375 
Q 15.375 38.28125 15.375 28.328125 
L 15.375 0 
z
" id="ArialMT-110"/>
       <path d="M 4.984375 -4.296875 
L 13.53125 -5.5625 
Q 14.0625 -9.515625 16.5 -11.328125 
Q 19.78125 -13.765625 25.4375 -13.765625 
Q 31.546875 -13.765625 34.859375 -11.328125 
Q 38.1875 -8.890625 39.359375 -4.5 
Q 40.046875 -1.8125 39.984375 6.78125 
Q 34.234375 0 25.640625 0 
Q 14.9375 0 9.078125 7.71875 
Q 3.21875 15.4375 3.21875 26.21875 
Q 3.21875 33.640625 5.90625 39.90625 
Q 8.59375 46.1875 13.6875 49.609375 
Q 18.796875 53.03125 25.6875 53.03125 
Q 34.859375 53.03125 40.828125 45.609375 
L 40.828125 51.859375 
L 48.921875 51.859375 
L 48.921875 7.03125 
Q 48.921875 -5.078125 46.453125 -10.125 
Q 44 -15.1875 38.640625 -18.109375 
Q 33.296875 -21.046875 25.484375 -21.046875 
Q 16.21875 -21.046875 10.5 -16.875 
Q 4.78125 -12.703125 4.984375 -4.296875 
z
M 12.25 26.859375 
Q 12.25 16.65625 16.296875 11.96875 
Q 20.359375 7.28125 26.46875 7.28125 
Q 32.515625 7.28125 36.609375 11.9375 
Q 40.71875 16.609375 40.71875 26.5625 
Q 40.71875 36.078125 36.5 40.90625 
Q 32.28125 45.75 26.3125 45.75 
Q 20.453125 45.75 16.34375 40.984375 
Q 12.25 36.234375 12.25 26.859375 
z
" id="ArialMT-103"/>
       <path d="M 6.390625 0 
L 6.390625 71.578125 
L 15.1875 71.578125 
L 15.1875 0 
z
" id="ArialMT-108"/>
       <path d="M 6.203125 -19.96875 
L 5.21875 -11.71875 
Q 8.109375 -12.5 10.25 -12.5 
Q 13.1875 -12.5 14.9375 -11.515625 
Q 16.703125 -10.546875 17.828125 -8.796875 
Q 18.65625 -7.46875 20.515625 -2.25 
Q 20.75 -1.515625 21.296875 -0.09375 
L 1.609375 51.859375 
L 11.078125 51.859375 
L 21.875 21.828125 
Q 23.96875 16.109375 25.640625 9.8125 
Q 27.15625 15.875 29.25 21.625 
L 40.328125 51.859375 
L 49.125 51.859375 
L 29.390625 -0.875 
Q 26.21875 -9.421875 24.46875 -12.640625 
Q 22.125 -17 19.09375 -19.015625 
Q 16.0625 -21.046875 11.859375 -21.046875 
Q 9.328125 -21.046875 6.203125 -19.96875 
z
" id="ArialMT-121"/>
      </defs>
      <g style="fill:#262626;" transform="translate(62.298594 183.856362)scale(0.1 -0.1)">
       <use xlink:href="#ArialMT-83"/>
       <use x="66.699219" xlink:href="#ArialMT-116"/>
       <use x="94.482422" xlink:href="#ArialMT-114"/>
       <use x="127.783203" xlink:href="#ArialMT-111"/>
       <use x="183.398438" xlink:href="#ArialMT-110"/>
       <use x="239.013672" xlink:href="#ArialMT-103"/>
       <use x="294.628906" xlink:href="#ArialMT-108"/>
       <use x="316.845703" xlink:href="#ArialMT-121"/>
      </g>
      <!-- against -->
      <defs>
       <path d="M 40.4375 6.390625 
Q 35.546875 2.25 31.03125 0.53125 
Q 26.515625 -1.171875 21.34375 -1.171875 
Q 12.796875 -1.171875 8.203125 3 
Q 3.609375 7.171875 3.609375 13.671875 
Q 3.609375 17.484375 5.34375 20.625 
Q 7.078125 23.78125 9.890625 25.6875 
Q 12.703125 27.59375 16.21875 28.5625 
Q 18.796875 29.25 24.03125 29.890625 
Q 34.671875 31.15625 39.703125 32.90625 
Q 39.75 34.71875 39.75 35.203125 
Q 39.75 40.578125 37.25 42.78125 
Q 33.890625 45.75 27.25 45.75 
Q 21.046875 45.75 18.09375 43.578125 
Q 15.140625 41.40625 13.71875 35.890625 
L 5.125 37.0625 
Q 6.296875 42.578125 8.984375 45.96875 
Q 11.671875 49.359375 16.75 51.1875 
Q 21.828125 53.03125 28.515625 53.03125 
Q 35.15625 53.03125 39.296875 51.46875 
Q 43.453125 49.90625 45.40625 47.53125 
Q 47.359375 45.171875 48.140625 41.546875 
Q 48.578125 39.3125 48.578125 33.453125 
L 48.578125 21.734375 
Q 48.578125 9.46875 49.140625 6.21875 
Q 49.703125 2.984375 51.375 0 
L 42.1875 0 
Q 40.828125 2.734375 40.4375 6.390625 
z
M 39.703125 26.03125 
Q 34.90625 24.078125 25.34375 22.703125 
Q 19.921875 21.921875 17.671875 20.9375 
Q 15.4375 19.96875 14.203125 18.09375 
Q 12.984375 16.21875 12.984375 13.921875 
Q 12.984375 10.40625 15.640625 8.0625 
Q 18.3125 5.71875 23.4375 5.71875 
Q 28.515625 5.71875 32.46875 7.9375 
Q 36.421875 10.15625 38.28125 14.015625 
Q 39.703125 17 39.703125 22.796875 
z
" id="ArialMT-97"/>
       <path d="M 6.640625 61.46875 
L 6.640625 71.578125 
L 15.4375 71.578125 
L 15.4375 61.46875 
z
M 6.640625 0 
L 6.640625 51.859375 
L 15.4375 51.859375 
L 15.4375 0 
z
" id="ArialMT-105"/>
       <path d="M 3.078125 15.484375 
L 11.765625 16.84375 
Q 12.5 11.625 15.84375 8.84375 
Q 19.1875 6.0625 25.203125 6.0625 
Q 31.25 6.0625 34.171875 8.515625 
Q 37.109375 10.984375 37.109375 14.3125 
Q 37.109375 17.28125 34.515625 19 
Q 32.71875 20.171875 25.53125 21.96875 
Q 15.875 24.421875 12.140625 26.203125 
Q 8.40625 27.984375 6.46875 31.125 
Q 4.546875 34.28125 4.546875 38.09375 
Q 4.546875 41.546875 6.125 44.5 
Q 7.71875 47.46875 10.453125 49.421875 
Q 12.5 50.921875 16.03125 51.96875 
Q 19.578125 53.03125 23.640625 53.03125 
Q 29.734375 53.03125 34.34375 51.265625 
Q 38.96875 49.515625 41.15625 46.5 
Q 43.359375 43.5 44.1875 38.484375 
L 35.59375 37.3125 
Q 35.015625 41.3125 32.203125 43.546875 
Q 29.390625 45.796875 24.265625 45.796875 
Q 18.21875 45.796875 15.625 43.796875 
Q 13.03125 41.796875 13.03125 39.109375 
Q 13.03125 37.40625 14.109375 36.03125 
Q 15.1875 34.625 17.484375 33.6875 
Q 18.796875 33.203125 25.25 31.453125 
Q 34.578125 28.953125 38.25 27.359375 
Q 41.9375 25.78125 44.03125 22.75 
Q 46.140625 19.734375 46.140625 15.234375 
Q 46.140625 10.84375 43.578125 6.953125 
Q 41.015625 3.078125 36.171875 0.953125 
Q 31.34375 -1.171875 25.25 -1.171875 
Q 15.140625 -1.171875 9.84375 3.03125 
Q 4.546875 7.234375 3.078125 15.484375 
z
" id="ArialMT-115"/>
      </defs>
      <g style="fill:#262626;" transform="translate(64.518125 194.550425)scale(0.1 -0.1)">
       <use xlink:href="#ArialMT-97"/>
       <use x="55.615234" xlink:href="#ArialMT-103"/>
       <use x="111.230469" xlink:href="#ArialMT-97"/>
       <use x="166.845703" xlink:href="#ArialMT-105"/>
       <use x="189.0625" xlink:href="#ArialMT-110"/>
       <use x="244.677734" xlink:href="#ArialMT-115"/>
       <use x="294.677734" xlink:href="#ArialMT-116"/>
      </g>
     </g>
    </g>
    <g id="xtick_2">
     <g id="line2d_2">
      <path clip-path="url(#p380a8c50d3)" d="M 148.32 167.076675 
L 148.32 25.14435 
" style="fill:none;stroke:#ffffff;stroke-linecap:round;"/>
     </g>
     <g id="text_2">
      <!-- Against -->
      <defs>
       <path d="M -0.140625 0 
L 27.34375 71.578125 
L 37.546875 71.578125 
L 66.84375 0 
L 56.0625 0 
L 47.703125 21.6875 
L 17.78125 21.6875 
L 9.90625 0 
z
M 20.515625 29.390625 
L 44.78125 29.390625 
L 37.3125 49.21875 
Q 33.890625 58.25 32.234375 64.0625 
Q 30.859375 57.171875 28.375 50.390625 
z
" id="ArialMT-65"/>
      </defs>
      <g style="fill:#262626;" transform="translate(131.643438 183.734488)scale(0.1 -0.1)">
       <use xlink:href="#ArialMT-65"/>
       <use x="66.699219" xlink:href="#ArialMT-103"/>
       <use x="122.314453" xlink:href="#ArialMT-97"/>
       <use x="177.929688" xlink:href="#ArialMT-105"/>
       <use x="200.146484" xlink:href="#ArialMT-110"/>
       <use x="255.761719" xlink:href="#ArialMT-115"/>
       <use x="305.761719" xlink:href="#ArialMT-116"/>
      </g>
     </g>
    </g>
    <g id="xtick_3">
     <g id="line2d_3">
      <path clip-path="url(#p380a8c50d3)" d="M 216 167.076675 
L 216 25.14435 
" style="fill:none;stroke:#ffffff;stroke-linecap:round;"/>
     </g>
     <g id="text_3">
      <!-- Discretionary -->
      <defs>
       <path d="M 7.71875 0 
L 7.71875 71.578125 
L 32.375 71.578125 
Q 40.71875 71.578125 45.125 70.5625 
Q 51.265625 69.140625 55.609375 65.4375 
Q 61.28125 60.640625 64.078125 53.1875 
Q 66.890625 45.75 66.890625 36.1875 
Q 66.890625 28.03125 64.984375 21.734375 
Q 63.09375 15.4375 60.109375 11.296875 
Q 57.125 7.171875 53.578125 4.796875 
Q 50.046875 2.4375 45.046875 1.21875 
Q 40.046875 0 33.546875 0 
z
M 17.1875 8.453125 
L 32.46875 8.453125 
Q 39.546875 8.453125 43.578125 9.765625 
Q 47.609375 11.078125 50 13.484375 
Q 53.375 16.84375 55.25 22.53125 
Q 57.125 28.21875 57.125 36.328125 
Q 57.125 47.5625 53.4375 53.59375 
Q 49.75 59.625 44.484375 61.671875 
Q 40.671875 63.140625 32.234375 63.140625 
L 17.1875 63.140625 
z
" id="ArialMT-68"/>
       <path d="M 40.4375 19 
L 49.078125 17.875 
Q 47.65625 8.9375 41.8125 3.875 
Q 35.984375 -1.171875 27.484375 -1.171875 
Q 16.84375 -1.171875 10.375 5.78125 
Q 3.90625 12.75 3.90625 25.734375 
Q 3.90625 34.125 6.6875 40.421875 
Q 9.46875 46.734375 15.15625 49.875 
Q 20.84375 53.03125 27.546875 53.03125 
Q 35.984375 53.03125 41.359375 48.75 
Q 46.734375 44.484375 48.25 36.625 
L 39.703125 35.296875 
Q 38.484375 40.53125 35.375 43.15625 
Q 32.28125 45.796875 27.875 45.796875 
Q 21.234375 45.796875 17.078125 41.03125 
Q 12.9375 36.28125 12.9375 25.984375 
Q 12.9375 15.53125 16.9375 10.796875 
Q 20.953125 6.0625 27.390625 6.0625 
Q 32.5625 6.0625 36.03125 9.234375 
Q 39.5 12.40625 40.4375 19 
z
" id="ArialMT-99"/>
       <path d="M 42.09375 16.703125 
L 51.171875 15.578125 
Q 49.03125 7.625 43.21875 3.21875 
Q 37.40625 -1.171875 28.375 -1.171875 
Q 17 -1.171875 10.328125 5.828125 
Q 3.65625 12.84375 3.65625 25.484375 
Q 3.65625 38.578125 10.390625 45.796875 
Q 17.140625 53.03125 27.875 53.03125 
Q 38.28125 53.03125 44.875 45.953125 
Q 51.46875 38.875 51.46875 26.03125 
Q 51.46875 25.25 51.421875 23.6875 
L 12.75 23.6875 
Q 13.234375 15.140625 17.578125 10.59375 
Q 21.921875 6.0625 28.421875 6.0625 
Q 33.25 6.0625 36.671875 8.59375 
Q 40.09375 11.140625 42.09375 16.703125 
z
M 13.234375 30.90625 
L 42.1875 30.90625 
Q 41.609375 37.453125 38.875 40.71875 
Q 34.671875 45.796875 27.984375 45.796875 
Q 21.921875 45.796875 17.796875 41.75 
Q 13.671875 37.703125 13.234375 30.90625 
z
" id="ArialMT-101"/>
      </defs>
      <g style="fill:#262626;" transform="translate(186.826562 183.734488)scale(0.1 -0.1)">
       <use xlink:href="#ArialMT-68"/>
       <use x="72.216797" xlink:href="#ArialMT-105"/>
       <use x="94.433594" xlink:href="#ArialMT-115"/>
       <use x="144.433594" xlink:href="#ArialMT-99"/>
       <use x="194.433594" xlink:href="#ArialMT-114"/>
       <use x="227.734375" xlink:href="#ArialMT-101"/>
       <use x="283.349609" xlink:href="#ArialMT-116"/>
       <use x="311.132812" xlink:href="#ArialMT-105"/>
       <use x="333.349609" xlink:href="#ArialMT-111"/>
       <use x="388.964844" xlink:href="#ArialMT-110"/>
       <use x="444.580078" xlink:href="#ArialMT-97"/>
       <use x="500.195312" xlink:href="#ArialMT-114"/>
       <use x="533.496094" xlink:href="#ArialMT-121"/>
      </g>
     </g>
    </g>
    <g id="xtick_4">
     <g id="line2d_4">
      <path clip-path="url(#p380a8c50d3)" d="M 283.68 167.076675 
L 283.68 25.14435 
" style="fill:none;stroke:#ffffff;stroke-linecap:round;"/>
     </g>
     <g id="text_4">
      <!-- For -->
      <defs>
       <path d="M 8.203125 0 
L 8.203125 71.578125 
L 56.5 71.578125 
L 56.5 63.140625 
L 17.671875 63.140625 
L 17.671875 40.96875 
L 51.265625 40.96875 
L 51.265625 32.515625 
L 17.671875 32.515625 
L 17.671875 0 
z
" id="ArialMT-70"/>
      </defs>
      <g style="fill:#262626;" transform="translate(276.180781 183.734488)scale(0.1 -0.1)">
       <use xlink:href="#ArialMT-70"/>
       <use x="61.083984" xlink:href="#ArialMT-111"/>
       <use x="116.699219" xlink:href="#ArialMT-114"/>
      </g>
     </g>
    </g>
    <g id="xtick_5">
     <g id="line2d_5">
      <path clip-path="url(#p380a8c50d3)" d="M 351.36 167.076675 
L 351.36 25.14435 
" style="fill:none;stroke:#ffffff;stroke-linecap:round;"/>
     </g>
     <g id="text_5">
      <!-- Strongly for -->
      <defs>
       <path id="ArialMT-32"/>
       <path d="M 8.6875 0 
L 8.6875 45.015625 
L 0.921875 45.015625 
L 0.921875 51.859375 
L 8.6875 51.859375 
L 8.6875 57.375 
Q 8.6875 62.59375 9.625 65.140625 
Q 10.890625 68.5625 14.078125 70.671875 
Q 17.28125 72.796875 23.046875 72.796875 
Q 26.765625 72.796875 31.25 71.921875 
L 29.9375 64.265625 
Q 27.203125 64.75 24.75 64.75 
Q 20.75 64.75 19.09375 63.03125 
Q 17.4375 61.328125 17.4375 56.640625 
L 17.4375 51.859375 
L 27.546875 51.859375 
L 27.546875 45.015625 
L 17.4375 45.015625 
L 17.4375 0 
z
" id="ArialMT-102"/>
      </defs>
      <g style="fill:#262626;" transform="translate(325.795156 183.856362)scale(0.1 -0.1)">
       <use xlink:href="#ArialMT-83"/>
       <use x="66.699219" xlink:href="#ArialMT-116"/>
       <use x="94.482422" xlink:href="#ArialMT-114"/>
       <use x="127.783203" xlink:href="#ArialMT-111"/>
       <use x="183.398438" xlink:href="#ArialMT-110"/>
       <use x="239.013672" xlink:href="#ArialMT-103"/>
       <use x="294.628906" xlink:href="#ArialMT-108"/>
       <use x="316.845703" xlink:href="#ArialMT-121"/>
       <use x="366.845703" xlink:href="#ArialMT-32"/>
       <use x="394.628906" xlink:href="#ArialMT-102"/>
       <use x="422.412109" xlink:href="#ArialMT-111"/>
       <use x="478.027344" xlink:href="#ArialMT-114"/>
      </g>
     </g>
    </g>
    <g id="text_6">
     <!-- Cultural pressure -->
     <defs>
      <path d="M 58.796875 25.09375 
L 68.265625 22.703125 
Q 65.28125 11.03125 57.546875 4.90625 
Q 49.8125 -1.21875 38.625 -1.21875 
Q 27.046875 -1.21875 19.796875 3.484375 
Q 12.546875 8.203125 8.765625 17.140625 
Q 4.984375 26.078125 4.984375 36.328125 
Q 4.984375 47.515625 9.25 55.828125 
Q 13.53125 64.15625 21.40625 68.46875 
Q 29.296875 72.796875 38.765625 72.796875 
Q 49.515625 72.796875 56.828125 67.328125 
Q 64.15625 61.859375 67.046875 51.953125 
L 57.71875 49.75 
Q 55.21875 57.5625 50.484375 61.125 
Q 45.75 64.703125 38.578125 64.703125 
Q 30.328125 64.703125 24.78125 60.734375 
Q 19.234375 56.78125 16.984375 50.109375 
Q 14.75 43.453125 14.75 36.375 
Q 14.75 27.25 17.40625 20.4375 
Q 20.0625 13.625 25.671875 10.25 
Q 31.296875 6.890625 37.84375 6.890625 
Q 45.796875 6.890625 51.3125 11.46875 
Q 56.84375 16.0625 58.796875 25.09375 
z
" id="ArialMT-67"/>
      <path d="M 40.578125 0 
L 40.578125 7.625 
Q 34.515625 -1.171875 24.125 -1.171875 
Q 19.53125 -1.171875 15.546875 0.578125 
Q 11.578125 2.34375 9.640625 5 
Q 7.71875 7.671875 6.9375 11.53125 
Q 6.390625 14.109375 6.390625 19.734375 
L 6.390625 51.859375 
L 15.1875 51.859375 
L 15.1875 23.09375 
Q 15.1875 16.21875 15.71875 13.8125 
Q 16.546875 10.359375 19.234375 8.375 
Q 21.921875 6.390625 25.875 6.390625 
Q 29.828125 6.390625 33.296875 8.421875 
Q 36.765625 10.453125 38.203125 13.9375 
Q 39.65625 17.4375 39.65625 24.078125 
L 39.65625 51.859375 
L 48.4375 51.859375 
L 48.4375 0 
z
" id="ArialMT-117"/>
      <path d="M 6.59375 -19.875 
L 6.59375 51.859375 
L 14.59375 51.859375 
L 14.59375 45.125 
Q 17.4375 49.078125 21 51.046875 
Q 24.5625 53.03125 29.640625 53.03125 
Q 36.28125 53.03125 41.359375 49.609375 
Q 46.4375 46.1875 49.015625 39.953125 
Q 51.609375 33.734375 51.609375 26.3125 
Q 51.609375 18.359375 48.75 11.984375 
Q 45.90625 5.609375 40.453125 2.21875 
Q 35.015625 -1.171875 29 -1.171875 
Q 24.609375 -1.171875 21.109375 0.6875 
Q 17.625 2.546875 15.375 5.375 
L 15.375 -19.875 
z
M 14.546875 25.640625 
Q 14.546875 15.625 18.59375 10.84375 
Q 22.65625 6.0625 28.421875 6.0625 
Q 34.28125 6.0625 38.453125 11.015625 
Q 42.625 15.96875 42.625 26.375 
Q 42.625 36.28125 38.546875 41.203125 
Q 34.46875 46.140625 28.8125 46.140625 
Q 23.1875 46.140625 18.859375 40.890625 
Q 14.546875 35.640625 14.546875 25.640625 
z
" id="ArialMT-112"/>
     </defs>
     <g style="fill:#262626;" transform="translate(170.3175 209.390738)scale(0.12 -0.12)">
      <use xlink:href="#ArialMT-67"/>
      <use x="72.216797" xlink:href="#ArialMT-117"/>
      <use x="127.832031" xlink:href="#ArialMT-108"/>
      <use x="150.048828" xlink:href="#ArialMT-116"/>
      <use x="177.832031" xlink:href="#ArialMT-117"/>
      <use x="233.447266" xlink:href="#ArialMT-114"/>
      <use x="266.748047" xlink:href="#ArialMT-97"/>
      <use x="322.363281" xlink:href="#ArialMT-108"/>
      <use x="344.580078" xlink:href="#ArialMT-32"/>
      <use x="372.363281" xlink:href="#ArialMT-112"/>
      <use x="427.978516" xlink:href="#ArialMT-114"/>
      <use x="461.279297" xlink:href="#ArialMT-101"/>
      <use x="516.894531" xlink:href="#ArialMT-115"/>
      <use x="566.894531" xlink:href="#ArialMT-115"/>
      <use x="616.894531" xlink:href="#ArialMT-117"/>
      <use x="672.509766" xlink:href="#ArialMT-114"/>
      <use x="705.810547" xlink:href="#ArialMT-101"/>
     </g>
    </g>
   </g>
   <g id="matplotlib.axis_2">
    <g id="ytick_1"/>
   </g>
   <g id="PolyCollection_1">
    <defs>
     <path d="M 19.514647 -119.555305 
L 19.514647 -120.22367 
L 23.484048 -120.320031 
L 27.45345 -120.435266 
L 31.422851 -120.570379 
L 35.392252 -120.72572 
L 39.361653 -120.900899 
L 43.331054 -121.094785 
L 47.300455 -121.305622 
L 51.269856 -121.53126 
L 55.239257 -121.769535 
L 59.208658 -122.018755 
L 63.178059 -122.278267 
L 67.14746 -122.549031 
L 71.116861 -122.834134 
L 75.086262 -123.139143 
L 79.055663 -123.472208 
L 83.025064 -123.843837 
L 86.994465 -124.266315 
L 90.963867 -124.752754 
L 94.933268 -125.315845 
L 98.902669 -125.966426 
L 102.87207 -126.712053 
L 106.841471 -127.555776 
L 110.810872 -128.495358 
L 114.780273 -129.523156 
L 118.749674 -130.626803 
L 122.719075 -131.790777 
L 126.688476 -132.998794 
L 130.657877 -134.236829 
L 134.627278 -135.49644 
L 138.596679 -136.777958 
L 142.56608 -138.093021 
L 146.535481 -139.465936 
L 150.504882 -140.933428 
L 154.474284 -142.54247 
L 158.443685 -144.346111 
L 162.413086 -146.397488 
L 166.382487 -148.742497 
L 170.351888 -151.411845 
L 174.321289 -154.413415 
L 178.29069 -157.725984 
L 182.260091 -161.295256 
L 186.229492 -165.033051 
L 190.198893 -168.820131 
L 194.168294 -172.512752 
L 198.137695 -175.952558 
L 202.107096 -178.978949 
L 206.076497 -181.442705 
L 210.045898 -183.219382 
L 214.015299 -184.220932 
L 217.984701 -184.404181 
L 221.954102 -183.7751 
L 225.923503 -182.388328 
L 229.892904 -180.341969 
L 233.862305 -177.768267 
L 237.831706 -174.821262 
L 241.801107 -171.662878 
L 245.770508 -168.449054 
L 249.739909 -165.31744 
L 253.70931 -162.377965 
L 257.678711 -159.707116 
L 261.648112 -157.346313 
L 265.617513 -155.304202 
L 269.586914 -153.562241 
L 273.556315 -152.082596 
L 277.525716 -150.817135 
L 281.495118 -149.716295 
L 285.464519 -148.736689 
L 289.43392 -147.846604 
L 293.403321 -147.028853 
L 297.372722 -146.280857 
L 301.342123 -145.612204 
L 305.311524 -145.040229 
L 309.280925 -144.584429 
L 313.250326 -144.260596 
L 317.219727 -144.075548 
L 321.189128 -144.023229 
L 325.158529 -144.082697 
L 329.12793 -144.218272 
L 333.097331 -144.381778 
L 337.066732 -144.516574 
L 341.036133 -144.562819 
L 345.005535 -144.463278 
L 348.974936 -144.168943 
L 352.944337 -143.643785 
L 356.913738 -142.8681 
L 360.883139 -141.840127 
L 364.85254 -140.575819 
L 368.821941 -139.106915 
L 372.791342 -137.477633 
L 376.760743 -135.740449 
L 380.730144 -133.951485 
L 384.699545 -132.166036 
L 388.668946 -130.434666 
L 392.638347 -128.800195 
L 396.607748 -127.295764 
L 400.577149 -125.943991 
L 404.54655 -124.757135 
L 408.515952 -123.738061 
L 412.485353 -122.88178 
L 412.485353 -116.897195 
L 412.485353 -116.897195 
L 408.515952 -116.040914 
L 404.54655 -115.02184 
L 400.577149 -113.834984 
L 396.607748 -112.483211 
L 392.638347 -110.97878 
L 388.668946 -109.344309 
L 384.699545 -107.612939 
L 380.730144 -105.82749 
L 376.760743 -104.038526 
L 372.791342 -102.301342 
L 368.821941 -100.67206 
L 364.85254 -99.203156 
L 360.883139 -97.938848 
L 356.913738 -96.910875 
L 352.944337 -96.13519 
L 348.974936 -95.610032 
L 345.005535 -95.315697 
L 341.036133 -95.216156 
L 337.066732 -95.262401 
L 333.097331 -95.397197 
L 329.12793 -95.560703 
L 325.158529 -95.696278 
L 321.189128 -95.755746 
L 317.219727 -95.703427 
L 313.250326 -95.518379 
L 309.280925 -95.194546 
L 305.311524 -94.738746 
L 301.342123 -94.166771 
L 297.372722 -93.498118 
L 293.403321 -92.750122 
L 289.43392 -91.932371 
L 285.464519 -91.042286 
L 281.495118 -90.06268 
L 277.525716 -88.96184 
L 273.556315 -87.696379 
L 269.586914 -86.216734 
L 265.617513 -84.474773 
L 261.648112 -82.432662 
L 257.678711 -80.071859 
L 253.70931 -77.40101 
L 249.739909 -74.461535 
L 245.770508 -71.329921 
L 241.801107 -68.116097 
L 237.831706 -64.957713 
L 233.862305 -62.010708 
L 229.892904 -59.437006 
L 225.923503 -57.390647 
L 221.954102 -56.003875 
L 217.984701 -55.374794 
L 214.015299 -55.558043 
L 210.045898 -56.559593 
L 206.076497 -58.33627 
L 202.107096 -60.800026 
L 198.137695 -63.826417 
L 194.168294 -67.266223 
L 190.198893 -70.958844 
L 186.229492 -74.745924 
L 182.260091 -78.483719 
L 178.29069 -82.052991 
L 174.321289 -85.36556 
L 170.351888 -88.36713 
L 166.382487 -91.036478 
L 162.413086 -93.381487 
L 158.443685 -95.432864 
L 154.474284 -97.236505 
L 150.504882 -98.845547 
L 146.535481 -100.313039 
L 142.56608 -101.685954 
L 138.596679 -103.001017 
L 134.627278 -104.282535 
L 130.657877 -105.542146 
L 126.688476 -106.780181 
L 122.719075 -107.988198 
L 118.749674 -109.152172 
L 114.780273 -110.255819 
L 110.810872 -111.283617 
L 106.841471 -112.223199 
L 102.87207 -113.066922 
L 98.902669 -113.812549 
L 94.933268 -114.46313 
L 90.963867 -115.026221 
L 86.994465 -115.51266 
L 83.025064 -115.935138 
L 79.055663 -116.306767 
L 75.086262 -116.639832 
L 71.116861 -116.944841 
L 67.14746 -117.229944 
L 63.178059 -117.500708 
L 59.208658 -117.76022 
L 55.239257 -118.00944 
L 51.269856 -118.247715 
L 47.300455 -118.473353 
L 43.331054 -118.68419 
L 39.361653 -118.878076 
L 35.392252 -119.053255 
L 31.422851 -119.208596 
L 27.45345 -119.343709 
L 23.484048 -119.458944 
L 19.514647 -119.555305 
z
" id="m0ab66257f0" style="stroke:#6d6d6d;stroke-width:1.5;"/>
    </defs>
    <g clip-path="url(#p380a8c50d3)">
     <use style="fill:#86e5c1;stroke:#6d6d6d;stroke-width:1.5;" x="0" xlink:href="#m0ab66257f0" y="216"/>
    </g>
   </g>
   <g id="line2d_6">
    <path clip-path="url(#p380a8c50d3)" d="M 148.32 96.110512 
L 351.36 96.110512 
" style="fill:none;stroke:#6d6d6d;stroke-linecap:round;stroke-width:1.5;"/>
   </g>
   <g id="line2d_7">
    <path clip-path="url(#p380a8c50d3)" d="M 216 96.110512 
L 283.68 96.110512 
" style="fill:none;stroke:#6d6d6d;stroke-linecap:round;stroke-width:4.5;"/>
   </g>
   <g id="patch_3">
    <path d="M 12.96 167.076675 
L 12.96 25.14435 
" style="fill:none;stroke:#ffffff;stroke-linecap:square;stroke-linejoin:miter;stroke-width:1.25;"/>
   </g>
   <g id="patch_4">
    <path d="M 419.04 167.076675 
L 419.04 25.14435 
" style="fill:none;stroke:#ffffff;stroke-linecap:square;stroke-linejoin:miter;stroke-width:1.25;"/>
   </g>
   <g id="patch_5">
    <path d="M 12.96 167.076675 
L 419.04 167.076675 
" style="fill:none;stroke:#ffffff;stroke-linecap:square;stroke-linejoin:miter;stroke-width:1.25;"/>
   </g>
   <g id="patch_6">
    <path d="M 12.96 25.14435 
L 419.04 25.14435 
" style="fill:none;stroke:#ffffff;stroke-linecap:square;stroke-linejoin:miter;stroke-width:1.25;"/>
   </g>
   <g id="PathCollection_1">
    <defs>
     <path d="M 0 1.5 
C 0.397805 1.5 0.77937 1.341951 1.06066 1.06066 
C 1.341951 0.77937 1.5 0.397805 1.5 0 
C 1.5 -0.397805 1.341951 -0.77937 1.06066 -1.06066 
C 0.77937 -1.341951 0.397805 -1.5 0 -1.5 
C -0.397805 -1.5 -0.77937 -1.341951 -1.06066 -1.06066 
C -1.341951 -0.77937 -1.5 -0.397805 -1.5 0 
C -1.5 0.397805 -1.341951 0.77937 -1.06066 1.06066 
C -0.77937 1.341951 -0.397805 1.5 0 1.5 
z
" id="m8582ba8a98" style="stroke:#6d6d6d;"/>
    </defs>
    <g clip-path="url(#p380a8c50d3)">
     <use style="fill:#ffffff;stroke:#6d6d6d;" x="216" xlink:href="#m8582ba8a98" y="96.110512"/>
    </g>
   </g>
   <g id="PathCollection_2">
    <defs>
     <path d="M 0 2.5 
C 0.663008 2.5 1.29895 2.236584 1.767767 1.767767 
C 2.236584 1.29895 2.5 0.663008 2.5 0 
C 2.5 -0.663008 2.236584 -1.29895 1.767767 -1.767767 
C 1.29895 -2.236584 0.663008 -2.5 0 -2.5 
C -0.663008 -2.5 -1.29895 -2.236584 -1.767767 -1.767767 
C -2.236584 -1.29895 -2.5 -0.663008 -2.5 0 
C -2.5 0.663008 -2.236584 1.29895 -1.767767 1.767767 
C -1.29895 2.236584 -0.663008 2.5 0 2.5 
z
" id="C0_0_b191a8a516"/>
    </defs>
    <g clip-path="url(#p380a8c50d3)">
     <use style="fill:#333333;" x="154.92199" xlink:href="#C0_0_b191a8a516" y="107.23192"/>
    </g>
    <g clip-path="url(#p380a8c50d3)">
     <use style="fill:#333333;" x="210.908394" xlink:href="#C0_0_b191a8a516" y="103.164935"/>
    </g>
    <g clip-path="url(#p380a8c50d3)">
     <use style="fill:#333333;" x="211.07809" xlink:href="#C0_0_b191a8a516" y="93.15909"/>
    </g>
    <g clip-path="url(#p380a8c50d3)">
     <use style="fill:#333333;" x="215.185279" xlink:href="#C0_0_b191a8a516" y="82.851787"/>
    </g>
    <g clip-path="url(#p380a8c50d3)">
     <use style="fill:#333333;" x="362.74764" xlink:href="#C0_0_b191a8a516" y="105.583981"/>
    </g>
    <g clip-path="url(#p380a8c50d3)">
     <use style="fill:#333333;" x="282.103572" xlink:href="#C0_0_b191a8a516" y="105.299742"/>
    </g>
    <g clip-path="url(#p380a8c50d3)">
     <use style="fill:#333333;" x="228.78854" xlink:href="#C0_0_b191a8a516" y="100.959003"/>
    </g>
    <g clip-path="url(#p380a8c50d3)">
     <use style="fill:#333333;" x="280.945711" xlink:href="#C0_0_b191a8a516" y="91.391526"/>
    </g>
    <g clip-path="url(#p380a8c50d3)">
     <use style="fill:#333333;" x="216.864886" xlink:href="#C0_0_b191a8a516" y="92.922286"/>
    </g>
    <g clip-path="url(#p380a8c50d3)">
     <use style="fill:#333333;" x="205.216493" xlink:href="#C0_0_b191a8a516" y="108.115672"/>
    </g>
    <g clip-path="url(#p380a8c50d3)">
     <use style="fill:#333333;" x="349.140327" xlink:href="#C0_0_b191a8a516" y="104.991968"/>
    </g>
    <g clip-path="url(#p380a8c50d3)">
     <use style="fill:#333333;" x="343.114169" xlink:href="#C0_0_b191a8a516" y="82.061978"/>
    </g>
    <g clip-path="url(#p380a8c50d3)">
     <use style="fill:#333333;" x="203.82574" xlink:href="#C0_0_b191a8a516" y="89.620216"/>
    </g>
    <g clip-path="url(#p380a8c50d3)">
     <use style="fill:#333333;" x="271.416344" xlink:href="#C0_0_b191a8a516" y="95.233939"/>
    </g>
    <g clip-path="url(#p380a8c50d3)">
     <use style="fill:#333333;" x="219.951727" xlink:href="#C0_0_b191a8a516" y="96.345245"/>
    </g>
    <g clip-path="url(#p380a8c50d3)">
     <use style="fill:#333333;" x="143.661955" xlink:href="#C0_0_b191a8a516" y="98.029972"/>
    </g>
    <g clip-path="url(#p380a8c50d3)">
     <use style="fill:#333333;" x="204.31427" xlink:href="#C0_0_b191a8a516" y="97.36496"/>
    </g>
    <g clip-path="url(#p380a8c50d3)">
     <use style="fill:#333333;" x="213.467455" xlink:href="#C0_0_b191a8a516" y="82.293181"/>
    </g>
    <g clip-path="url(#p380a8c50d3)">
     <use style="fill:#333333;" x="223.744617" xlink:href="#C0_0_b191a8a516" y="84.781455"/>
    </g>
    <g clip-path="url(#p380a8c50d3)">
     <use style="fill:#333333;" x="214.767206" xlink:href="#C0_0_b191a8a516" y="98.597952"/>
    </g>
    <g clip-path="url(#p380a8c50d3)">
     <use style="fill:#333333;" x="224.292538" xlink:href="#C0_0_b191a8a516" y="95.611295"/>
    </g>
    <g clip-path="url(#p380a8c50d3)">
     <use style="fill:#333333;" x="213.30477" xlink:href="#C0_0_b191a8a516" y="98.791737"/>
    </g>
    <g clip-path="url(#p380a8c50d3)">
     <use style="fill:#333333;" x="356.491774" xlink:href="#C0_0_b191a8a516" y="102.131998"/>
    </g>
    <g clip-path="url(#p380a8c50d3)">
     <use style="fill:#333333;" x="80.855448" xlink:href="#C0_0_b191a8a516" y="105.972292"/>
    </g>
    <g clip-path="url(#p380a8c50d3)">
     <use style="fill:#333333;" x="147.310398" xlink:href="#C0_0_b191a8a516" y="97.642863"/>
    </g>
    <g clip-path="url(#p380a8c50d3)">
     <use style="fill:#333333;" x="202.638227" xlink:href="#C0_0_b191a8a516" y="81.579306"/>
    </g>
    <g clip-path="url(#p380a8c50d3)">
     <use style="fill:#333333;" x="212.707877" xlink:href="#C0_0_b191a8a516" y="90.487215"/>
    </g>
    <g clip-path="url(#p380a8c50d3)">
     <use style="fill:#333333;" x="221.230679" xlink:href="#C0_0_b191a8a516" y="95.559577"/>
    </g>
    <g clip-path="url(#p380a8c50d3)">
     <use style="fill:#333333;" x="349.033726" xlink:href="#C0_0_b191a8a516" y="105.197729"/>
    </g>
    <g clip-path="url(#p380a8c50d3)">
     <use style="fill:#333333;" x="216.73823" xlink:href="#C0_0_b191a8a516" y="108.860827"/>
    </g>
    <g clip-path="url(#p380a8c50d3)">
     <use style="fill:#333333;" x="202.473264" xlink:href="#C0_0_b191a8a516" y="101.824363"/>
    </g>
    <g clip-path="url(#p380a8c50d3)">
     <use style="fill:#333333;" x="274.388065" xlink:href="#C0_0_b191a8a516" y="99.818313"/>
    </g>
    <g clip-path="url(#p380a8c50d3)">
     <use style="fill:#333333;" x="353.780959" xlink:href="#C0_0_b191a8a516" y="105.642899"/>
    </g>
    <g clip-path="url(#p380a8c50d3)">
     <use style="fill:#333333;" x="148.08842" xlink:href="#C0_0_b191a8a516" y="80.799002"/>
    </g>
    <g clip-path="url(#p380a8c50d3)">
     <use style="fill:#333333;" x="277.875209" xlink:href="#C0_0_b191a8a516" y="97.234998"/>
    </g>
    <g clip-path="url(#p380a8c50d3)">
     <use style="fill:#333333;" x="359.475721" xlink:href="#C0_0_b191a8a516" y="104.132219"/>
    </g>
    <g clip-path="url(#p380a8c50d3)">
     <use style="fill:#333333;" x="148.732984" xlink:href="#C0_0_b191a8a516" y="85.338781"/>
    </g>
    <g clip-path="url(#p380a8c50d3)">
     <use style="fill:#333333;" x="295.327321" xlink:href="#C0_0_b191a8a516" y="96.384358"/>
    </g>
    <g clip-path="url(#p380a8c50d3)">
     <use style="fill:#333333;" x="205.017736" xlink:href="#C0_0_b191a8a516" y="85.757862"/>
    </g>
    <g clip-path="url(#p380a8c50d3)">
     <use style="fill:#333333;" x="208.376467" xlink:href="#C0_0_b191a8a516" y="91.978932"/>
    </g>
    <g clip-path="url(#p380a8c50d3)">
     <use style="fill:#333333;" x="271.114422" xlink:href="#C0_0_b191a8a516" y="102.799874"/>
    </g>
    <g clip-path="url(#p380a8c50d3)">
     <use style="fill:#333333;" x="339.024473" xlink:href="#C0_0_b191a8a516" y="90.876641"/>
    </g>
    <g clip-path="url(#p380a8c50d3)">
     <use style="fill:#333333;" x="205.305519" xlink:href="#C0_0_b191a8a516" y="102.468689"/>
    </g>
    <g clip-path="url(#p380a8c50d3)">
     <use style="fill:#333333;" x="348.434428" xlink:href="#C0_0_b191a8a516" y="89.349644"/>
    </g>
    <g clip-path="url(#p380a8c50d3)">
     <use style="fill:#333333;" x="206.008871" xlink:href="#C0_0_b191a8a516" y="108.898665"/>
    </g>
    <g clip-path="url(#p380a8c50d3)">
     <use style="fill:#333333;" x="220.600094" xlink:href="#C0_0_b191a8a516" y="92.300211"/>
    </g>
    <g clip-path="url(#p380a8c50d3)">
     <use style="fill:#333333;" x="291.852682" xlink:href="#C0_0_b191a8a516" y="110.343896"/>
    </g>
    <g clip-path="url(#p380a8c50d3)">
     <use style="fill:#333333;" x="148.777394" xlink:href="#C0_0_b191a8a516" y="110.418587"/>
    </g>
    <g clip-path="url(#p380a8c50d3)">
     <use style="fill:#333333;" x="290.570296" xlink:href="#C0_0_b191a8a516" y="89.482935"/>
    </g>
    <g clip-path="url(#p380a8c50d3)">
     <use style="fill:#333333;" x="208.623654" xlink:href="#C0_0_b191a8a516" y="84.066787"/>
    </g>
   </g>
   <g id="text_7">
    <!-- Action: canceling last minute on people due to an illness. -->
    <defs>
     <path d="M 9.03125 41.84375 
L 9.03125 51.859375 
L 19.046875 51.859375 
L 19.046875 41.84375 
z
M 9.03125 0 
L 9.03125 10.015625 
L 19.046875 10.015625 
L 19.046875 0 
z
" id="ArialMT-58"/>
     <path d="M 6.59375 0 
L 6.59375 51.859375 
L 14.453125 51.859375 
L 14.453125 44.578125 
Q 16.890625 48.390625 20.9375 50.703125 
Q 25 53.03125 30.171875 53.03125 
Q 35.9375 53.03125 39.625 50.640625 
Q 43.3125 48.25 44.828125 43.953125 
Q 50.984375 53.03125 60.84375 53.03125 
Q 68.5625 53.03125 72.703125 48.75 
Q 76.859375 44.484375 76.859375 35.59375 
L 76.859375 0 
L 68.109375 0 
L 68.109375 32.671875 
Q 68.109375 37.9375 67.25 40.25 
Q 66.40625 42.578125 64.15625 43.984375 
Q 61.921875 45.40625 58.890625 45.40625 
Q 53.421875 45.40625 49.796875 41.765625 
Q 46.1875 38.140625 46.1875 30.125 
L 46.1875 0 
L 37.40625 0 
L 37.40625 33.6875 
Q 37.40625 39.546875 35.25 42.46875 
Q 33.109375 45.40625 28.21875 45.40625 
Q 24.515625 45.40625 21.359375 43.453125 
Q 18.21875 41.5 16.796875 37.734375 
Q 15.375 33.984375 15.375 26.90625 
L 15.375 0 
z
" id="ArialMT-109"/>
     <path d="M 40.234375 0 
L 40.234375 6.546875 
Q 35.296875 -1.171875 25.734375 -1.171875 
Q 19.53125 -1.171875 14.328125 2.25 
Q 9.125 5.671875 6.265625 11.796875 
Q 3.421875 17.921875 3.421875 25.875 
Q 3.421875 33.640625 6 39.96875 
Q 8.59375 46.296875 13.765625 49.65625 
Q 18.953125 53.03125 25.34375 53.03125 
Q 30.03125 53.03125 33.6875 51.046875 
Q 37.359375 49.078125 39.65625 45.90625 
L 39.65625 71.578125 
L 48.390625 71.578125 
L 48.390625 0 
z
M 12.453125 25.875 
Q 12.453125 15.921875 16.640625 10.984375 
Q 20.84375 6.0625 26.5625 6.0625 
Q 32.328125 6.0625 36.34375 10.765625 
Q 40.375 15.484375 40.375 25.140625 
Q 40.375 35.796875 36.265625 40.765625 
Q 32.171875 45.75 26.171875 45.75 
Q 20.3125 45.75 16.375 40.96875 
Q 12.453125 36.1875 12.453125 25.875 
z
" id="ArialMT-100"/>
     <path d="M 9.078125 0 
L 9.078125 10.015625 
L 19.09375 10.015625 
L 19.09375 0 
z
" id="ArialMT-46"/>
    </defs>
    <g style="fill:#262626;" transform="translate(65.248125 19.14435)scale(0.12 -0.12)">
     <use xlink:href="#ArialMT-65"/>
     <use x="66.699219" xlink:href="#ArialMT-99"/>
     <use x="116.699219" xlink:href="#ArialMT-116"/>
     <use x="144.482422" xlink:href="#ArialMT-105"/>
     <use x="166.699219" xlink:href="#ArialMT-111"/>
     <use x="222.314453" xlink:href="#ArialMT-110"/>
     <use x="277.929688" xlink:href="#ArialMT-58"/>
     <use x="305.712891" xlink:href="#ArialMT-32"/>
     <use x="333.496094" xlink:href="#ArialMT-99"/>
     <use x="383.496094" xlink:href="#ArialMT-97"/>
     <use x="439.111328" xlink:href="#ArialMT-110"/>
     <use x="494.726562" xlink:href="#ArialMT-99"/>
     <use x="544.726562" xlink:href="#ArialMT-101"/>
     <use x="600.341797" xlink:href="#ArialMT-108"/>
     <use x="622.558594" xlink:href="#ArialMT-105"/>
     <use x="644.775391" xlink:href="#ArialMT-110"/>
     <use x="700.390625" xlink:href="#ArialMT-103"/>
     <use x="756.005859" xlink:href="#ArialMT-32"/>
     <use x="783.789062" xlink:href="#ArialMT-108"/>
     <use x="806.005859" xlink:href="#ArialMT-97"/>
     <use x="861.621094" xlink:href="#ArialMT-115"/>
     <use x="911.621094" xlink:href="#ArialMT-116"/>
     <use x="939.404297" xlink:href="#ArialMT-32"/>
     <use x="967.1875" xlink:href="#ArialMT-109"/>
     <use x="1050.488281" xlink:href="#ArialMT-105"/>
     <use x="1072.705078" xlink:href="#ArialMT-110"/>
     <use x="1128.320312" xlink:href="#ArialMT-117"/>
     <use x="1183.935547" xlink:href="#ArialMT-116"/>
     <use x="1211.71875" xlink:href="#ArialMT-101"/>
     <use x="1267.333984" xlink:href="#ArialMT-32"/>
     <use x="1295.117188" xlink:href="#ArialMT-111"/>
     <use x="1350.732422" xlink:href="#ArialMT-110"/>
     <use x="1406.347656" xlink:href="#ArialMT-32"/>
     <use x="1434.130859" xlink:href="#ArialMT-112"/>
     <use x="1489.746094" xlink:href="#ArialMT-101"/>
     <use x="1545.361328" xlink:href="#ArialMT-111"/>
     <use x="1600.976562" xlink:href="#ArialMT-112"/>
     <use x="1656.591797" xlink:href="#ArialMT-108"/>
     <use x="1678.808594" xlink:href="#ArialMT-101"/>
     <use x="1734.423828" xlink:href="#ArialMT-32"/>
     <use x="1762.207031" xlink:href="#ArialMT-100"/>
     <use x="1817.822266" xlink:href="#ArialMT-117"/>
     <use x="1873.4375" xlink:href="#ArialMT-101"/>
     <use x="1929.052734" xlink:href="#ArialMT-32"/>
     <use x="1956.835938" xlink:href="#ArialMT-116"/>
     <use x="1984.619141" xlink:href="#ArialMT-111"/>
     <use x="2040.234375" xlink:href="#ArialMT-32"/>
     <use x="2068.017578" xlink:href="#ArialMT-97"/>
     <use x="2123.632812" xlink:href="#ArialMT-110"/>
     <use x="2179.248047" xlink:href="#ArialMT-32"/>
     <use x="2207.03125" xlink:href="#ArialMT-105"/>
     <use x="2229.248047" xlink:href="#ArialMT-108"/>
     <use x="2251.464844" xlink:href="#ArialMT-108"/>
     <use x="2273.681641" xlink:href="#ArialMT-110"/>
     <use x="2329.296875" xlink:href="#ArialMT-101"/>
     <use x="2384.912109" xlink:href="#ArialMT-115"/>
     <use x="2434.912109" xlink:href="#ArialMT-115"/>
     <use x="2484.912109" xlink:href="#ArialMT-46"/>
    </g>
   </g>
  </g>
 </g>
 <defs>
  <clipPath id="p380a8c50d3">
   <rect height="141.932325" width="406.08" x="12.96" y="25.14435"/>
  </clipPath>
 </defs>
</svg>
