<?xml version="1.0" encoding="utf-8" standalone="no"?>
<!DOCTYPE svg PUBLIC "-//W3C//DTD SVG 1.1//EN"
  "http://www.w3.org/Graphics/SVG/1.1/DTD/svg11.dtd">
<!-- Created with matplotlib (https://matplotlib.org/) -->
<svg height="216pt" version="1.1" viewBox="0 0 432 216" width="432pt" xmlns="http://www.w3.org/2000/svg" xmlns:xlink="http://www.w3.org/1999/xlink">
 <defs>
  <style type="text/css">
*{stroke-linecap:butt;stroke-linejoin:round;}
  </style>
 </defs>
 <g id="figure_1">
  <g id="patch_1">
   <path d="M 0 216 
L 432 216 
L 432 0 
L 0 0 
z
" style="fill:#ffffff;"/>
  </g>
  <g id="axes_1">
   <g id="patch_2">
    <path d="M 12.96 167.076675 
L 419.04 167.076675 
L 419.04 25.24965 
L 12.96 25.24965 
z
" style="fill:#eaeaf2;"/>
   </g>
   <g id="matplotlib.axis_1">
    <g id="xtick_1">
     <g id="line2d_1">
      <path clip-path="url(#p706b90c5e0)" d="M 80.64 167.076675 
L 80.64 25.24965 
" style="fill:none;stroke:#ffffff;stroke-linecap:round;"/>
     </g>
     <g id="text_1">
      <!-- Strongly -->
      <defs>
       <path d="M 4.5 23 
L 13.421875 23.78125 
Q 14.0625 18.40625 16.375 14.96875 
Q 18.703125 11.53125 23.578125 9.40625 
Q 28.46875 7.28125 34.578125 7.28125 
Q 39.984375 7.28125 44.140625 8.890625 
Q 48.296875 10.5 50.3125 13.296875 
Q 52.34375 16.109375 52.34375 19.4375 
Q 52.34375 22.796875 50.390625 25.3125 
Q 48.4375 27.828125 43.953125 29.546875 
Q 41.0625 30.671875 31.203125 33.03125 
Q 21.34375 35.40625 17.390625 37.5 
Q 12.25 40.1875 9.734375 44.15625 
Q 7.234375 48.140625 7.234375 53.078125 
Q 7.234375 58.5 10.296875 63.203125 
Q 13.375 67.921875 19.28125 70.359375 
Q 25.203125 72.796875 32.421875 72.796875 
Q 40.375 72.796875 46.453125 70.234375 
Q 52.546875 67.671875 55.8125 62.6875 
Q 59.078125 57.71875 59.328125 51.421875 
L 50.25 50.734375 
Q 49.515625 57.515625 45.28125 60.984375 
Q 41.0625 64.453125 32.8125 64.453125 
Q 24.21875 64.453125 20.28125 61.296875 
Q 16.359375 58.15625 16.359375 53.71875 
Q 16.359375 49.859375 19.140625 47.359375 
Q 21.875 44.875 33.421875 42.265625 
Q 44.96875 39.65625 49.265625 37.703125 
Q 55.515625 34.8125 58.484375 30.390625 
Q 61.46875 25.984375 61.46875 20.21875 
Q 61.46875 14.5 58.203125 9.4375 
Q 54.9375 4.390625 48.796875 1.578125 
Q 42.671875 -1.21875 35.015625 -1.21875 
Q 25.296875 -1.21875 18.71875 1.609375 
Q 12.15625 4.4375 8.421875 10.125 
Q 4.6875 15.828125 4.5 23 
z
" id="ArialMT-83"/>
       <path d="M 25.78125 7.859375 
L 27.046875 0.09375 
Q 23.34375 -0.6875 20.40625 -0.6875 
Q 15.625 -0.6875 12.984375 0.828125 
Q 10.359375 2.34375 9.28125 4.8125 
Q 8.203125 7.28125 8.203125 15.1875 
L 8.203125 45.015625 
L 1.765625 45.015625 
L 1.765625 51.859375 
L 8.203125 51.859375 
L 8.203125 64.703125 
L 16.9375 69.96875 
L 16.9375 51.859375 
L 25.78125 51.859375 
L 25.78125 45.015625 
L 16.9375 45.015625 
L 16.9375 14.703125 
Q 16.9375 10.9375 17.40625 9.859375 
Q 17.875 8.796875 18.921875 8.15625 
Q 19.96875 7.515625 21.921875 7.515625 
Q 23.390625 7.515625 25.78125 7.859375 
z
" id="ArialMT-116"/>
       <path d="M 6.5 0 
L 6.5 51.859375 
L 14.40625 51.859375 
L 14.40625 44 
Q 17.4375 49.515625 20 51.265625 
Q 22.5625 53.03125 25.640625 53.03125 
Q 30.078125 53.03125 34.671875 50.203125 
L 31.640625 42.046875 
Q 28.421875 43.953125 25.203125 43.953125 
Q 22.3125 43.953125 20.015625 42.21875 
Q 17.71875 40.484375 16.75 37.40625 
Q 15.28125 32.71875 15.28125 27.15625 
L 15.28125 0 
z
" id="ArialMT-114"/>
       <path d="M 3.328125 25.921875 
Q 3.328125 40.328125 11.328125 47.265625 
Q 18.015625 53.03125 27.640625 53.03125 
Q 38.328125 53.03125 45.109375 46.015625 
Q 51.90625 39.015625 51.90625 26.65625 
Q 51.90625 16.65625 48.90625 10.90625 
Q 45.90625 5.171875 40.15625 2 
Q 34.421875 -1.171875 27.640625 -1.171875 
Q 16.75 -1.171875 10.03125 5.8125 
Q 3.328125 12.796875 3.328125 25.921875 
z
M 12.359375 25.921875 
Q 12.359375 15.96875 16.703125 11.015625 
Q 21.046875 6.0625 27.640625 6.0625 
Q 34.1875 6.0625 38.53125 11.03125 
Q 42.875 16.015625 42.875 26.21875 
Q 42.875 35.84375 38.5 40.796875 
Q 34.125 45.75 27.640625 45.75 
Q 21.046875 45.75 16.703125 40.8125 
Q 12.359375 35.890625 12.359375 25.921875 
z
" id="ArialMT-111"/>
       <path d="M 6.59375 0 
L 6.59375 51.859375 
L 14.5 51.859375 
L 14.5 44.484375 
Q 20.21875 53.03125 31 53.03125 
Q 35.6875 53.03125 39.625 51.34375 
Q 43.5625 49.65625 45.515625 46.921875 
Q 47.46875 44.1875 48.25 40.4375 
Q 48.734375 37.984375 48.734375 31.890625 
L 48.734375 0 
L 39.9375 0 
L 39.9375 31.546875 
Q 39.9375 36.921875 38.90625 39.578125 
Q 37.890625 42.234375 35.28125 43.8125 
Q 32.671875 45.40625 29.15625 45.40625 
Q 23.53125 45.40625 19.453125 41.84375 
Q 15.375 38.28125 15.375 28.328125 
L 15.375 0 
z
" id="ArialMT-110"/>
       <path d="M 4.984375 -4.296875 
L 13.53125 -5.5625 
Q 14.0625 -9.515625 16.5 -11.328125 
Q 19.78125 -13.765625 25.4375 -13.765625 
Q 31.546875 -13.765625 34.859375 -11.328125 
Q 38.1875 -8.890625 39.359375 -4.5 
Q 40.046875 -1.8125 39.984375 6.78125 
Q 34.234375 0 25.640625 0 
Q 14.9375 0 9.078125 7.71875 
Q 3.21875 15.4375 3.21875 26.21875 
Q 3.21875 33.640625 5.90625 39.90625 
Q 8.59375 46.1875 13.6875 49.609375 
Q 18.796875 53.03125 25.6875 53.03125 
Q 34.859375 53.03125 40.828125 45.609375 
L 40.828125 51.859375 
L 48.921875 51.859375 
L 48.921875 7.03125 
Q 48.921875 -5.078125 46.453125 -10.125 
Q 44 -15.1875 38.640625 -18.109375 
Q 33.296875 -21.046875 25.484375 -21.046875 
Q 16.21875 -21.046875 10.5 -16.875 
Q 4.78125 -12.703125 4.984375 -4.296875 
z
M 12.25 26.859375 
Q 12.25 16.65625 16.296875 11.96875 
Q 20.359375 7.28125 26.46875 7.28125 
Q 32.515625 7.28125 36.609375 11.9375 
Q 40.71875 16.609375 40.71875 26.5625 
Q 40.71875 36.078125 36.5 40.90625 
Q 32.28125 45.75 26.3125 45.75 
Q 20.453125 45.75 16.34375 40.984375 
Q 12.25 36.234375 12.25 26.859375 
z
" id="ArialMT-103"/>
       <path d="M 6.390625 0 
L 6.390625 71.578125 
L 15.1875 71.578125 
L 15.1875 0 
z
" id="ArialMT-108"/>
       <path d="M 6.203125 -19.96875 
L 5.21875 -11.71875 
Q 8.109375 -12.5 10.25 -12.5 
Q 13.1875 -12.5 14.9375 -11.515625 
Q 16.703125 -10.546875 17.828125 -8.796875 
Q 18.65625 -7.46875 20.515625 -2.25 
Q 20.75 -1.515625 21.296875 -0.09375 
L 1.609375 51.859375 
L 11.078125 51.859375 
L 21.875 21.828125 
Q 23.96875 16.109375 25.640625 9.8125 
Q 27.15625 15.875 29.25 21.625 
L 40.328125 51.859375 
L 49.125 51.859375 
L 29.390625 -0.875 
Q 26.21875 -9.421875 24.46875 -12.640625 
Q 22.125 -17 19.09375 -19.015625 
Q 16.0625 -21.046875 11.859375 -21.046875 
Q 9.328125 -21.046875 6.203125 -19.96875 
z
" id="ArialMT-121"/>
      </defs>
      <g style="fill:#262626;" transform="translate(62.298594 183.856362)scale(0.1 -0.1)">
       <use xlink:href="#ArialMT-83"/>
       <use x="66.699219" xlink:href="#ArialMT-116"/>
       <use x="94.482422" xlink:href="#ArialMT-114"/>
       <use x="127.783203" xlink:href="#ArialMT-111"/>
       <use x="183.398438" xlink:href="#ArialMT-110"/>
       <use x="239.013672" xlink:href="#ArialMT-103"/>
       <use x="294.628906" xlink:href="#ArialMT-108"/>
       <use x="316.845703" xlink:href="#ArialMT-121"/>
      </g>
      <!-- against -->
      <defs>
       <path d="M 40.4375 6.390625 
Q 35.546875 2.25 31.03125 0.53125 
Q 26.515625 -1.171875 21.34375 -1.171875 
Q 12.796875 -1.171875 8.203125 3 
Q 3.609375 7.171875 3.609375 13.671875 
Q 3.609375 17.484375 5.34375 20.625 
Q 7.078125 23.78125 9.890625 25.6875 
Q 12.703125 27.59375 16.21875 28.5625 
Q 18.796875 29.25 24.03125 29.890625 
Q 34.671875 31.15625 39.703125 32.90625 
Q 39.75 34.71875 39.75 35.203125 
Q 39.75 40.578125 37.25 42.78125 
Q 33.890625 45.75 27.25 45.75 
Q 21.046875 45.75 18.09375 43.578125 
Q 15.140625 41.40625 13.71875 35.890625 
L 5.125 37.0625 
Q 6.296875 42.578125 8.984375 45.96875 
Q 11.671875 49.359375 16.75 51.1875 
Q 21.828125 53.03125 28.515625 53.03125 
Q 35.15625 53.03125 39.296875 51.46875 
Q 43.453125 49.90625 45.40625 47.53125 
Q 47.359375 45.171875 48.140625 41.546875 
Q 48.578125 39.3125 48.578125 33.453125 
L 48.578125 21.734375 
Q 48.578125 9.46875 49.140625 6.21875 
Q 49.703125 2.984375 51.375 0 
L 42.1875 0 
Q 40.828125 2.734375 40.4375 6.390625 
z
M 39.703125 26.03125 
Q 34.90625 24.078125 25.34375 22.703125 
Q 19.921875 21.921875 17.671875 20.9375 
Q 15.4375 19.96875 14.203125 18.09375 
Q 12.984375 16.21875 12.984375 13.921875 
Q 12.984375 10.40625 15.640625 8.0625 
Q 18.3125 5.71875 23.4375 5.71875 
Q 28.515625 5.71875 32.46875 7.9375 
Q 36.421875 10.15625 38.28125 14.015625 
Q 39.703125 17 39.703125 22.796875 
z
" id="ArialMT-97"/>
       <path d="M 6.640625 61.46875 
L 6.640625 71.578125 
L 15.4375 71.578125 
L 15.4375 61.46875 
z
M 6.640625 0 
L 6.640625 51.859375 
L 15.4375 51.859375 
L 15.4375 0 
z
" id="ArialMT-105"/>
       <path d="M 3.078125 15.484375 
L 11.765625 16.84375 
Q 12.5 11.625 15.84375 8.84375 
Q 19.1875 6.0625 25.203125 6.0625 
Q 31.25 6.0625 34.171875 8.515625 
Q 37.109375 10.984375 37.109375 14.3125 
Q 37.109375 17.28125 34.515625 19 
Q 32.71875 20.171875 25.53125 21.96875 
Q 15.875 24.421875 12.140625 26.203125 
Q 8.40625 27.984375 6.46875 31.125 
Q 4.546875 34.28125 4.546875 38.09375 
Q 4.546875 41.546875 6.125 44.5 
Q 7.71875 47.46875 10.453125 49.421875 
Q 12.5 50.921875 16.03125 51.96875 
Q 19.578125 53.03125 23.640625 53.03125 
Q 29.734375 53.03125 34.34375 51.265625 
Q 38.96875 49.515625 41.15625 46.5 
Q 43.359375 43.5 44.1875 38.484375 
L 35.59375 37.3125 
Q 35.015625 41.3125 32.203125 43.546875 
Q 29.390625 45.796875 24.265625 45.796875 
Q 18.21875 45.796875 15.625 43.796875 
Q 13.03125 41.796875 13.03125 39.109375 
Q 13.03125 37.40625 14.109375 36.03125 
Q 15.1875 34.625 17.484375 33.6875 
Q 18.796875 33.203125 25.25 31.453125 
Q 34.578125 28.953125 38.25 27.359375 
Q 41.9375 25.78125 44.03125 22.75 
Q 46.140625 19.734375 46.140625 15.234375 
Q 46.140625 10.84375 43.578125 6.953125 
Q 41.015625 3.078125 36.171875 0.953125 
Q 31.34375 -1.171875 25.25 -1.171875 
Q 15.140625 -1.171875 9.84375 3.03125 
Q 4.546875 7.234375 3.078125 15.484375 
z
" id="ArialMT-115"/>
      </defs>
      <g style="fill:#262626;" transform="translate(64.518125 194.550425)scale(0.1 -0.1)">
       <use xlink:href="#ArialMT-97"/>
       <use x="55.615234" xlink:href="#ArialMT-103"/>
       <use x="111.230469" xlink:href="#ArialMT-97"/>
       <use x="166.845703" xlink:href="#ArialMT-105"/>
       <use x="189.0625" xlink:href="#ArialMT-110"/>
       <use x="244.677734" xlink:href="#ArialMT-115"/>
       <use x="294.677734" xlink:href="#ArialMT-116"/>
      </g>
     </g>
    </g>
    <g id="xtick_2">
     <g id="line2d_2">
      <path clip-path="url(#p706b90c5e0)" d="M 148.32 167.076675 
L 148.32 25.24965 
" style="fill:none;stroke:#ffffff;stroke-linecap:round;"/>
     </g>
     <g id="text_2">
      <!-- Against -->
      <defs>
       <path d="M -0.140625 0 
L 27.34375 71.578125 
L 37.546875 71.578125 
L 66.84375 0 
L 56.0625 0 
L 47.703125 21.6875 
L 17.78125 21.6875 
L 9.90625 0 
z
M 20.515625 29.390625 
L 44.78125 29.390625 
L 37.3125 49.21875 
Q 33.890625 58.25 32.234375 64.0625 
Q 30.859375 57.171875 28.375 50.390625 
z
" id="ArialMT-65"/>
      </defs>
      <g style="fill:#262626;" transform="translate(131.643438 183.734488)scale(0.1 -0.1)">
       <use xlink:href="#ArialMT-65"/>
       <use x="66.699219" xlink:href="#ArialMT-103"/>
       <use x="122.314453" xlink:href="#ArialMT-97"/>
       <use x="177.929688" xlink:href="#ArialMT-105"/>
       <use x="200.146484" xlink:href="#ArialMT-110"/>
       <use x="255.761719" xlink:href="#ArialMT-115"/>
       <use x="305.761719" xlink:href="#ArialMT-116"/>
      </g>
     </g>
    </g>
    <g id="xtick_3">
     <g id="line2d_3">
      <path clip-path="url(#p706b90c5e0)" d="M 216 167.076675 
L 216 25.24965 
" style="fill:none;stroke:#ffffff;stroke-linecap:round;"/>
     </g>
     <g id="text_3">
      <!-- Discretionary -->
      <defs>
       <path d="M 7.71875 0 
L 7.71875 71.578125 
L 32.375 71.578125 
Q 40.71875 71.578125 45.125 70.5625 
Q 51.265625 69.140625 55.609375 65.4375 
Q 61.28125 60.640625 64.078125 53.1875 
Q 66.890625 45.75 66.890625 36.1875 
Q 66.890625 28.03125 64.984375 21.734375 
Q 63.09375 15.4375 60.109375 11.296875 
Q 57.125 7.171875 53.578125 4.796875 
Q 50.046875 2.4375 45.046875 1.21875 
Q 40.046875 0 33.546875 0 
z
M 17.1875 8.453125 
L 32.46875 8.453125 
Q 39.546875 8.453125 43.578125 9.765625 
Q 47.609375 11.078125 50 13.484375 
Q 53.375 16.84375 55.25 22.53125 
Q 57.125 28.21875 57.125 36.328125 
Q 57.125 47.5625 53.4375 53.59375 
Q 49.75 59.625 44.484375 61.671875 
Q 40.671875 63.140625 32.234375 63.140625 
L 17.1875 63.140625 
z
" id="ArialMT-68"/>
       <path d="M 40.4375 19 
L 49.078125 17.875 
Q 47.65625 8.9375 41.8125 3.875 
Q 35.984375 -1.171875 27.484375 -1.171875 
Q 16.84375 -1.171875 10.375 5.78125 
Q 3.90625 12.75 3.90625 25.734375 
Q 3.90625 34.125 6.6875 40.421875 
Q 9.46875 46.734375 15.15625 49.875 
Q 20.84375 53.03125 27.546875 53.03125 
Q 35.984375 53.03125 41.359375 48.75 
Q 46.734375 44.484375 48.25 36.625 
L 39.703125 35.296875 
Q 38.484375 40.53125 35.375 43.15625 
Q 32.28125 45.796875 27.875 45.796875 
Q 21.234375 45.796875 17.078125 41.03125 
Q 12.9375 36.28125 12.9375 25.984375 
Q 12.9375 15.53125 16.9375 10.796875 
Q 20.953125 6.0625 27.390625 6.0625 
Q 32.5625 6.0625 36.03125 9.234375 
Q 39.5 12.40625 40.4375 19 
z
" id="ArialMT-99"/>
       <path d="M 42.09375 16.703125 
L 51.171875 15.578125 
Q 49.03125 7.625 43.21875 3.21875 
Q 37.40625 -1.171875 28.375 -1.171875 
Q 17 -1.171875 10.328125 5.828125 
Q 3.65625 12.84375 3.65625 25.484375 
Q 3.65625 38.578125 10.390625 45.796875 
Q 17.140625 53.03125 27.875 53.03125 
Q 38.28125 53.03125 44.875 45.953125 
Q 51.46875 38.875 51.46875 26.03125 
Q 51.46875 25.25 51.421875 23.6875 
L 12.75 23.6875 
Q 13.234375 15.140625 17.578125 10.59375 
Q 21.921875 6.0625 28.421875 6.0625 
Q 33.25 6.0625 36.671875 8.59375 
Q 40.09375 11.140625 42.09375 16.703125 
z
M 13.234375 30.90625 
L 42.1875 30.90625 
Q 41.609375 37.453125 38.875 40.71875 
Q 34.671875 45.796875 27.984375 45.796875 
Q 21.921875 45.796875 17.796875 41.75 
Q 13.671875 37.703125 13.234375 30.90625 
z
" id="ArialMT-101"/>
      </defs>
      <g style="fill:#262626;" transform="translate(186.826562 183.734488)scale(0.1 -0.1)">
       <use xlink:href="#ArialMT-68"/>
       <use x="72.216797" xlink:href="#ArialMT-105"/>
       <use x="94.433594" xlink:href="#ArialMT-115"/>
       <use x="144.433594" xlink:href="#ArialMT-99"/>
       <use x="194.433594" xlink:href="#ArialMT-114"/>
       <use x="227.734375" xlink:href="#ArialMT-101"/>
       <use x="283.349609" xlink:href="#ArialMT-116"/>
       <use x="311.132812" xlink:href="#ArialMT-105"/>
       <use x="333.349609" xlink:href="#ArialMT-111"/>
       <use x="388.964844" xlink:href="#ArialMT-110"/>
       <use x="444.580078" xlink:href="#ArialMT-97"/>
       <use x="500.195312" xlink:href="#ArialMT-114"/>
       <use x="533.496094" xlink:href="#ArialMT-121"/>
      </g>
     </g>
    </g>
    <g id="xtick_4">
     <g id="line2d_4">
      <path clip-path="url(#p706b90c5e0)" d="M 283.68 167.076675 
L 283.68 25.24965 
" style="fill:none;stroke:#ffffff;stroke-linecap:round;"/>
     </g>
     <g id="text_4">
      <!-- For -->
      <defs>
       <path d="M 8.203125 0 
L 8.203125 71.578125 
L 56.5 71.578125 
L 56.5 63.140625 
L 17.671875 63.140625 
L 17.671875 40.96875 
L 51.265625 40.96875 
L 51.265625 32.515625 
L 17.671875 32.515625 
L 17.671875 0 
z
" id="ArialMT-70"/>
      </defs>
      <g style="fill:#262626;" transform="translate(276.180781 183.734488)scale(0.1 -0.1)">
       <use xlink:href="#ArialMT-70"/>
       <use x="61.083984" xlink:href="#ArialMT-111"/>
       <use x="116.699219" xlink:href="#ArialMT-114"/>
      </g>
     </g>
    </g>
    <g id="xtick_5">
     <g id="line2d_5">
      <path clip-path="url(#p706b90c5e0)" d="M 351.36 167.076675 
L 351.36 25.24965 
" style="fill:none;stroke:#ffffff;stroke-linecap:round;"/>
     </g>
     <g id="text_5">
      <!-- Strongly for -->
      <defs>
       <path id="ArialMT-32"/>
       <path d="M 8.6875 0 
L 8.6875 45.015625 
L 0.921875 45.015625 
L 0.921875 51.859375 
L 8.6875 51.859375 
L 8.6875 57.375 
Q 8.6875 62.59375 9.625 65.140625 
Q 10.890625 68.5625 14.078125 70.671875 
Q 17.28125 72.796875 23.046875 72.796875 
Q 26.765625 72.796875 31.25 71.921875 
L 29.9375 64.265625 
Q 27.203125 64.75 24.75 64.75 
Q 20.75 64.75 19.09375 63.03125 
Q 17.4375 61.328125 17.4375 56.640625 
L 17.4375 51.859375 
L 27.546875 51.859375 
L 27.546875 45.015625 
L 17.4375 45.015625 
L 17.4375 0 
z
" id="ArialMT-102"/>
      </defs>
      <g style="fill:#262626;" transform="translate(325.795156 183.856362)scale(0.1 -0.1)">
       <use xlink:href="#ArialMT-83"/>
       <use x="66.699219" xlink:href="#ArialMT-116"/>
       <use x="94.482422" xlink:href="#ArialMT-114"/>
       <use x="127.783203" xlink:href="#ArialMT-111"/>
       <use x="183.398438" xlink:href="#ArialMT-110"/>
       <use x="239.013672" xlink:href="#ArialMT-103"/>
       <use x="294.628906" xlink:href="#ArialMT-108"/>
       <use x="316.845703" xlink:href="#ArialMT-121"/>
       <use x="366.845703" xlink:href="#ArialMT-32"/>
       <use x="394.628906" xlink:href="#ArialMT-102"/>
       <use x="422.412109" xlink:href="#ArialMT-111"/>
       <use x="478.027344" xlink:href="#ArialMT-114"/>
      </g>
     </g>
    </g>
    <g id="text_6">
     <!-- Cultural pressure -->
     <defs>
      <path d="M 58.796875 25.09375 
L 68.265625 22.703125 
Q 65.28125 11.03125 57.546875 4.90625 
Q 49.8125 -1.21875 38.625 -1.21875 
Q 27.046875 -1.21875 19.796875 3.484375 
Q 12.546875 8.203125 8.765625 17.140625 
Q 4.984375 26.078125 4.984375 36.328125 
Q 4.984375 47.515625 9.25 55.828125 
Q 13.53125 64.15625 21.40625 68.46875 
Q 29.296875 72.796875 38.765625 72.796875 
Q 49.515625 72.796875 56.828125 67.328125 
Q 64.15625 61.859375 67.046875 51.953125 
L 57.71875 49.75 
Q 55.21875 57.5625 50.484375 61.125 
Q 45.75 64.703125 38.578125 64.703125 
Q 30.328125 64.703125 24.78125 60.734375 
Q 19.234375 56.78125 16.984375 50.109375 
Q 14.75 43.453125 14.75 36.375 
Q 14.75 27.25 17.40625 20.4375 
Q 20.0625 13.625 25.671875 10.25 
Q 31.296875 6.890625 37.84375 6.890625 
Q 45.796875 6.890625 51.3125 11.46875 
Q 56.84375 16.0625 58.796875 25.09375 
z
" id="ArialMT-67"/>
      <path d="M 40.578125 0 
L 40.578125 7.625 
Q 34.515625 -1.171875 24.125 -1.171875 
Q 19.53125 -1.171875 15.546875 0.578125 
Q 11.578125 2.34375 9.640625 5 
Q 7.71875 7.671875 6.9375 11.53125 
Q 6.390625 14.109375 6.390625 19.734375 
L 6.390625 51.859375 
L 15.1875 51.859375 
L 15.1875 23.09375 
Q 15.1875 16.21875 15.71875 13.8125 
Q 16.546875 10.359375 19.234375 8.375 
Q 21.921875 6.390625 25.875 6.390625 
Q 29.828125 6.390625 33.296875 8.421875 
Q 36.765625 10.453125 38.203125 13.9375 
Q 39.65625 17.4375 39.65625 24.078125 
L 39.65625 51.859375 
L 48.4375 51.859375 
L 48.4375 0 
z
" id="ArialMT-117"/>
      <path d="M 6.59375 -19.875 
L 6.59375 51.859375 
L 14.59375 51.859375 
L 14.59375 45.125 
Q 17.4375 49.078125 21 51.046875 
Q 24.5625 53.03125 29.640625 53.03125 
Q 36.28125 53.03125 41.359375 49.609375 
Q 46.4375 46.1875 49.015625 39.953125 
Q 51.609375 33.734375 51.609375 26.3125 
Q 51.609375 18.359375 48.75 11.984375 
Q 45.90625 5.609375 40.453125 2.21875 
Q 35.015625 -1.171875 29 -1.171875 
Q 24.609375 -1.171875 21.109375 0.6875 
Q 17.625 2.546875 15.375 5.375 
L 15.375 -19.875 
z
M 14.546875 25.640625 
Q 14.546875 15.625 18.59375 10.84375 
Q 22.65625 6.0625 28.421875 6.0625 
Q 34.28125 6.0625 38.453125 11.015625 
Q 42.625 15.96875 42.625 26.375 
Q 42.625 36.28125 38.546875 41.203125 
Q 34.46875 46.140625 28.8125 46.140625 
Q 23.1875 46.140625 18.859375 40.890625 
Q 14.546875 35.640625 14.546875 25.640625 
z
" id="ArialMT-112"/>
     </defs>
     <g style="fill:#262626;" transform="translate(170.3175 209.390738)scale(0.12 -0.12)">
      <use xlink:href="#ArialMT-67"/>
      <use x="72.216797" xlink:href="#ArialMT-117"/>
      <use x="127.832031" xlink:href="#ArialMT-108"/>
      <use x="150.048828" xlink:href="#ArialMT-116"/>
      <use x="177.832031" xlink:href="#ArialMT-117"/>
      <use x="233.447266" xlink:href="#ArialMT-114"/>
      <use x="266.748047" xlink:href="#ArialMT-97"/>
      <use x="322.363281" xlink:href="#ArialMT-108"/>
      <use x="344.580078" xlink:href="#ArialMT-32"/>
      <use x="372.363281" xlink:href="#ArialMT-112"/>
      <use x="427.978516" xlink:href="#ArialMT-114"/>
      <use x="461.279297" xlink:href="#ArialMT-101"/>
      <use x="516.894531" xlink:href="#ArialMT-115"/>
      <use x="566.894531" xlink:href="#ArialMT-115"/>
      <use x="616.894531" xlink:href="#ArialMT-117"/>
      <use x="672.509766" xlink:href="#ArialMT-114"/>
      <use x="705.810547" xlink:href="#ArialMT-101"/>
     </g>
    </g>
   </g>
   <g id="matplotlib.axis_2">
    <g id="ytick_1"/>
   </g>
   <g id="PolyCollection_1">
    <defs>
     <path d="M 15.643565 -119.395448 
L 15.643565 -120.278227 
L 19.69117 -120.401894 
L 23.738775 -120.550235 
L 27.786379 -120.725502 
L 31.833984 -120.929673 
L 35.881589 -121.164501 
L 39.929194 -121.43165 
L 43.976798 -121.732969 
L 48.024403 -122.070895 
L 52.072008 -122.448971 
L 56.119613 -122.872457 
L 60.167217 -123.34895 
L 64.214822 -123.888937 
L 68.262427 -124.506157 
L 72.310032 -125.217656 
L 76.357636 -126.043418 
L 80.405241 -127.005469 
L 84.452846 -128.126433 
L 88.500451 -129.427536 
L 92.548055 -130.92618 
L 96.59566 -132.63327 
L 100.643265 -134.550564 
L 104.69087 -136.668367 
L 108.738474 -138.96393 
L 112.786079 -141.400872 
L 116.833684 -143.929888 
L 120.881289 -146.490869 
L 124.928893 -149.016419 
L 128.976498 -151.436553 
L 133.024103 -153.684183 
L 137.071708 -155.700862 
L 141.119312 -157.442143 
L 145.166917 -158.881909 
L 149.214522 -160.015082 
L 153.262126 -160.858295 
L 157.309731 -161.448322 
L 161.357336 -161.838341 
L 165.404941 -162.092399 
L 169.452545 -162.278675 
L 173.50015 -162.462345 
L 177.547755 -162.698917 
L 181.59536 -163.028888 
L 185.642964 -163.474413 
L 189.690569 -164.038427 
L 193.738174 -164.706345 
L 197.785779 -165.450113 
L 201.833383 -166.23404 
L 205.880988 -167.021608 
L 209.928593 -167.782267 
L 213.976198 -168.497227 
L 218.023802 -169.163364 
L 222.071407 -169.794583 
L 226.119012 -170.420366 
L 230.166617 -171.08157 
L 234.214221 -171.823992 
L 238.261826 -172.690501 
L 242.309431 -173.712814 
L 246.357036 -174.904061 
L 250.40464 -176.25322 
L 254.452245 -177.722311 
L 258.49985 -179.246862 
L 262.547455 -180.739773 
L 266.595059 -182.09822 
L 270.642664 -183.212872 
L 274.690269 -183.978346 
L 278.737874 -184.303667 
L 282.785478 -184.121486 
L 286.833083 -183.394948 
L 290.880688 -182.121423 
L 294.928292 -180.332684 
L 298.975897 -178.091576 
L 303.023502 -175.485648 
L 307.071107 -172.618552 
L 311.118711 -169.600281 
L 315.166316 -166.537374 
L 319.213921 -163.524183 
L 323.261526 -160.636089 
L 327.30913 -157.925259 
L 331.356735 -155.4192 
L 335.40434 -153.122005 
L 339.451945 -151.017887 
L 343.499549 -149.076359 
L 347.547154 -147.258293 
L 351.594759 -145.522078 
L 355.642364 -143.829169 
L 359.689968 -142.148482 
L 363.737573 -140.459293 
L 367.785178 -138.752515 
L 371.832783 -137.030454 
L 375.880387 -135.305286 
L 379.927992 -133.596627 
L 383.975597 -131.928612 
L 388.023202 -130.326888 
L 392.070806 -128.815866 
L 396.118411 -127.416498 
L 400.166016 -126.144723 
L 404.213621 -125.010636 
L 408.261225 -124.018329 
L 412.30883 -123.166301 
L 416.356435 -122.448279 
L 416.356435 -117.225396 
L 416.356435 -117.225396 
L 412.30883 -116.507374 
L 408.261225 -115.655346 
L 404.213621 -114.663039 
L 400.166016 -113.528952 
L 396.118411 -112.257177 
L 392.070806 -110.857809 
L 388.023202 -109.346787 
L 383.975597 -107.745063 
L 379.927992 -106.077048 
L 375.880387 -104.368389 
L 371.832783 -102.643221 
L 367.785178 -100.92116 
L 363.737573 -99.214382 
L 359.689968 -97.525193 
L 355.642364 -95.844506 
L 351.594759 -94.151597 
L 347.547154 -92.415382 
L 343.499549 -90.597316 
L 339.451945 -88.655788 
L 335.40434 -86.55167 
L 331.356735 -84.254475 
L 327.30913 -81.748416 
L 323.261526 -79.037586 
L 319.213921 -76.149492 
L 315.166316 -73.136301 
L 311.118711 -70.073394 
L 307.071107 -67.055123 
L 303.023502 -64.188027 
L 298.975897 -61.582099 
L 294.928292 -59.340991 
L 290.880688 -57.552252 
L 286.833083 -56.278727 
L 282.785478 -55.552189 
L 278.737874 -55.370008 
L 274.690269 -55.695329 
L 270.642664 -56.460803 
L 266.595059 -57.575455 
L 262.547455 -58.933902 
L 258.49985 -60.426813 
L 254.452245 -61.951364 
L 250.40464 -63.420455 
L 246.357036 -64.769614 
L 242.309431 -65.960861 
L 238.261826 -66.983174 
L 234.214221 -67.849683 
L 230.166617 -68.592105 
L 226.119012 -69.253309 
L 222.071407 -69.879092 
L 218.023802 -70.510311 
L 213.976198 -71.176448 
L 209.928593 -71.891408 
L 205.880988 -72.652067 
L 201.833383 -73.439635 
L 197.785779 -74.223562 
L 193.738174 -74.96733 
L 189.690569 -75.635248 
L 185.642964 -76.199262 
L 181.59536 -76.644787 
L 177.547755 -76.974758 
L 173.50015 -77.21133 
L 169.452545 -77.395 
L 165.404941 -77.581276 
L 161.357336 -77.835334 
L 157.309731 -78.225353 
L 153.262126 -78.81538 
L 149.214522 -79.658593 
L 145.166917 -80.791766 
L 141.119312 -82.231532 
L 137.071708 -83.972813 
L 133.024103 -85.989492 
L 128.976498 -88.237122 
L 124.928893 -90.657256 
L 120.881289 -93.182806 
L 116.833684 -95.743787 
L 112.786079 -98.272803 
L 108.738474 -100.709745 
L 104.69087 -103.005308 
L 100.643265 -105.123111 
L 96.59566 -107.040405 
L 92.548055 -108.747495 
L 88.500451 -110.246139 
L 84.452846 -111.547242 
L 80.405241 -112.668206 
L 76.357636 -113.630257 
L 72.310032 -114.456019 
L 68.262427 -115.167518 
L 64.214822 -115.784738 
L 60.167217 -116.324725 
L 56.119613 -116.801218 
L 52.072008 -117.224704 
L 48.024403 -117.60278 
L 43.976798 -117.940706 
L 39.929194 -118.242025 
L 35.881589 -118.509174 
L 31.833984 -118.744002 
L 27.786379 -118.948173 
L 23.738775 -119.12344 
L 19.69117 -119.271781 
L 15.643565 -119.395448 
z
" id="maac1758773" style="stroke:#6d6d6d;stroke-width:1.5;"/>
    </defs>
    <g clip-path="url(#p706b90c5e0)">
     <use style="fill:#86e5c1;stroke:#6d6d6d;stroke-width:1.5;" x="0" xlink:href="#maac1758773" y="216"/>
    </g>
   </g>
   <g id="line2d_6">
    <path clip-path="url(#p706b90c5e0)" d="M 80.64 96.163163 
L 351.36 96.163163 
" style="fill:none;stroke:#6d6d6d;stroke-linecap:round;stroke-width:1.5;"/>
   </g>
   <g id="line2d_7">
    <path clip-path="url(#p706b90c5e0)" d="M 199.08 96.163163 
L 283.68 96.163163 
" style="fill:none;stroke:#6d6d6d;stroke-linecap:round;stroke-width:4.5;"/>
   </g>
   <g id="patch_3">
    <path d="M 12.96 167.076675 
L 12.96 25.24965 
" style="fill:none;stroke:#ffffff;stroke-linecap:square;stroke-linejoin:miter;stroke-width:1.25;"/>
   </g>
   <g id="patch_4">
    <path d="M 419.04 167.076675 
L 419.04 25.24965 
" style="fill:none;stroke:#ffffff;stroke-linecap:square;stroke-linejoin:miter;stroke-width:1.25;"/>
   </g>
   <g id="patch_5">
    <path d="M 12.96 167.076675 
L 419.04 167.076675 
" style="fill:none;stroke:#ffffff;stroke-linecap:square;stroke-linejoin:miter;stroke-width:1.25;"/>
   </g>
   <g id="patch_6">
    <path d="M 12.96 25.24965 
L 419.04 25.24965 
" style="fill:none;stroke:#ffffff;stroke-linecap:square;stroke-linejoin:miter;stroke-width:1.25;"/>
   </g>
   <g id="PathCollection_1">
    <defs>
     <path d="M 0 1.5 
C 0.397805 1.5 0.77937 1.341951 1.06066 1.06066 
C 1.341951 0.77937 1.5 0.397805 1.5 0 
C 1.5 -0.397805 1.341951 -0.77937 1.06066 -1.06066 
C 0.77937 -1.341951 0.397805 -1.5 0 -1.5 
C -0.397805 -1.5 -0.77937 -1.341951 -1.06066 -1.06066 
C -1.341951 -0.77937 -1.5 -0.397805 -1.5 0 
C -1.5 0.397805 -1.341951 0.77937 -1.06066 1.06066 
C -0.77937 1.341951 -0.397805 1.5 0 1.5 
z
" id="mc166e90653" style="stroke:#6d6d6d;"/>
    </defs>
    <g clip-path="url(#p706b90c5e0)">
     <use style="fill:#ffffff;stroke:#6d6d6d;" x="249.84" xlink:href="#mc166e90653" y="96.163163"/>
    </g>
   </g>
   <g id="PathCollection_2">
    <defs>
     <path d="M 0 2.5 
C 0.663008 2.5 1.29895 2.236584 1.767767 1.767767 
C 2.236584 1.29895 2.5 0.663008 2.5 0 
C 2.5 -0.663008 2.236584 -1.29895 1.767767 -1.767767 
C 1.29895 -2.236584 0.663008 -2.5 0 -2.5 
C -0.663008 -2.5 -1.29895 -2.236584 -1.767767 -1.767767 
C -2.236584 -1.29895 -2.5 -0.663008 -2.5 0 
C -2.5 0.663008 -2.236584 1.29895 -1.767767 1.767767 
C -1.29895 2.236584 -0.663008 2.5 0 2.5 
z
" id="C0_0_3aa73f3a9c"/>
    </defs>
    <g clip-path="url(#p706b90c5e0)">
     <use style="fill:#333333;" x="274.667806" xlink:href="#C0_0_3aa73f3a9c" y="89.34879"/>
    </g>
    <g clip-path="url(#p706b90c5e0)">
     <use style="fill:#333333;" x="144.533948" xlink:href="#C0_0_3aa73f3a9c" y="89.539881"/>
    </g>
    <g clip-path="url(#p706b90c5e0)">
     <use style="fill:#333333;" x="216.737186" xlink:href="#C0_0_3aa73f3a9c" y="100.154041"/>
    </g>
    <g clip-path="url(#p706b90c5e0)">
     <use style="fill:#333333;" x="206.623393" xlink:href="#C0_0_3aa73f3a9c" y="80.740402"/>
    </g>
    <g clip-path="url(#p706b90c5e0)">
     <use style="fill:#333333;" x="271.100932" xlink:href="#C0_0_3aa73f3a9c" y="110.620851"/>
    </g>
    <g clip-path="url(#p706b90c5e0)">
     <use style="fill:#333333;" x="210.201768" xlink:href="#C0_0_3aa73f3a9c" y="92.655391"/>
    </g>
    <g clip-path="url(#p706b90c5e0)">
     <use style="fill:#333333;" x="205.682866" xlink:href="#C0_0_3aa73f3a9c" y="94.037124"/>
    </g>
    <g clip-path="url(#p706b90c5e0)">
     <use style="fill:#333333;" x="213.270967" xlink:href="#C0_0_3aa73f3a9c" y="81.827853"/>
    </g>
    <g clip-path="url(#p706b90c5e0)">
     <use style="fill:#333333;" x="292.536434" xlink:href="#C0_0_3aa73f3a9c" y="102.965046"/>
    </g>
    <g clip-path="url(#p706b90c5e0)">
     <use style="fill:#333333;" x="161.591631" xlink:href="#C0_0_3aa73f3a9c" y="80.244936"/>
    </g>
    <g clip-path="url(#p706b90c5e0)">
     <use style="fill:#333333;" x="281.460803" xlink:href="#C0_0_3aa73f3a9c" y="83.911544"/>
    </g>
    <g clip-path="url(#p706b90c5e0)">
     <use style="fill:#333333;" x="281.207848" xlink:href="#C0_0_3aa73f3a9c" y="93.988677"/>
    </g>
    <g clip-path="url(#p706b90c5e0)">
     <use style="fill:#333333;" x="288.339746" xlink:href="#C0_0_3aa73f3a9c" y="91.714232"/>
    </g>
    <g clip-path="url(#p706b90c5e0)">
     <use style="fill:#333333;" x="227.97128" xlink:href="#C0_0_3aa73f3a9c" y="96.95199"/>
    </g>
    <g clip-path="url(#p706b90c5e0)">
     <use style="fill:#333333;" x="223.346816" xlink:href="#C0_0_3aa73f3a9c" y="80.089867"/>
    </g>
    <g clip-path="url(#p706b90c5e0)">
     <use style="fill:#333333;" x="357.072416" xlink:href="#C0_0_3aa73f3a9c" y="111.694544"/>
    </g>
    <g clip-path="url(#p706b90c5e0)">
     <use style="fill:#333333;" x="294.106879" xlink:href="#C0_0_3aa73f3a9c" y="84.538236"/>
    </g>
    <g clip-path="url(#p706b90c5e0)">
     <use style="fill:#333333;" x="289.040757" xlink:href="#C0_0_3aa73f3a9c" y="103.668009"/>
    </g>
    <g clip-path="url(#p706b90c5e0)">
     <use style="fill:#333333;" x="146.914671" xlink:href="#C0_0_3aa73f3a9c" y="96.002613"/>
    </g>
    <g clip-path="url(#p706b90c5e0)">
     <use style="fill:#333333;" x="291.971021" xlink:href="#C0_0_3aa73f3a9c" y="91.119151"/>
    </g>
    <g clip-path="url(#p706b90c5e0)">
     <use style="fill:#333333;" x="203.617994" xlink:href="#C0_0_3aa73f3a9c" y="100.077713"/>
    </g>
    <g clip-path="url(#p706b90c5e0)">
     <use style="fill:#333333;" x="287.908271" xlink:href="#C0_0_3aa73f3a9c" y="88.420372"/>
    </g>
    <g clip-path="url(#p706b90c5e0)">
     <use style="fill:#333333;" x="271.979868" xlink:href="#C0_0_3aa73f3a9c" y="90.630927"/>
    </g>
    <g clip-path="url(#p706b90c5e0)">
     <use style="fill:#333333;" x="145.26093" xlink:href="#C0_0_3aa73f3a9c" y="88.756649"/>
    </g>
    <g clip-path="url(#p706b90c5e0)">
     <use style="fill:#333333;" x="292.495593" xlink:href="#C0_0_3aa73f3a9c" y="109.345865"/>
    </g>
    <g clip-path="url(#p706b90c5e0)">
     <use style="fill:#333333;" x="219.945832" xlink:href="#C0_0_3aa73f3a9c" y="92.5884"/>
    </g>
    <g clip-path="url(#p706b90c5e0)">
     <use style="fill:#333333;" x="150.139318" xlink:href="#C0_0_3aa73f3a9c" y="110.034721"/>
    </g>
    <g clip-path="url(#p706b90c5e0)">
     <use style="fill:#333333;" x="290.792949" xlink:href="#C0_0_3aa73f3a9c" y="89.361247"/>
    </g>
    <g clip-path="url(#p706b90c5e0)">
     <use style="fill:#333333;" x="289.538256" xlink:href="#C0_0_3aa73f3a9c" y="93.656174"/>
    </g>
    <g clip-path="url(#p706b90c5e0)">
     <use style="fill:#333333;" x="272.170478" xlink:href="#C0_0_3aa73f3a9c" y="107.646834"/>
    </g>
    <g clip-path="url(#p706b90c5e0)">
     <use style="fill:#333333;" x="218.409474" xlink:href="#C0_0_3aa73f3a9c" y="92.355094"/>
    </g>
    <g clip-path="url(#p706b90c5e0)">
     <use style="fill:#333333;" x="152.6019" xlink:href="#C0_0_3aa73f3a9c" y="83.195571"/>
    </g>
    <g clip-path="url(#p706b90c5e0)">
     <use style="fill:#333333;" x="144.354626" xlink:href="#C0_0_3aa73f3a9c" y="81.395295"/>
    </g>
    <g clip-path="url(#p706b90c5e0)">
     <use style="fill:#333333;" x="355.920368" xlink:href="#C0_0_3aa73f3a9c" y="97.417757"/>
    </g>
    <g clip-path="url(#p706b90c5e0)">
     <use style="fill:#333333;" x="276.769091" xlink:href="#C0_0_3aa73f3a9c" y="111.898029"/>
    </g>
    <g clip-path="url(#p706b90c5e0)">
     <use style="fill:#333333;" x="213.607949" xlink:href="#C0_0_3aa73f3a9c" y="96.409166"/>
    </g>
    <g clip-path="url(#p706b90c5e0)">
     <use style="fill:#333333;" x="147.415782" xlink:href="#C0_0_3aa73f3a9c" y="80.389586"/>
    </g>
    <g clip-path="url(#p706b90c5e0)">
     <use style="fill:#333333;" x="353.075818" xlink:href="#C0_0_3aa73f3a9c" y="106.902467"/>
    </g>
    <g clip-path="url(#p706b90c5e0)">
     <use style="fill:#333333;" x="289.007952" xlink:href="#C0_0_3aa73f3a9c" y="80.472073"/>
    </g>
    <g clip-path="url(#p706b90c5e0)">
     <use style="fill:#333333;" x="227.385611" xlink:href="#C0_0_3aa73f3a9c" y="101.445038"/>
    </g>
    <g clip-path="url(#p706b90c5e0)">
     <use style="fill:#333333;" x="364.457108" xlink:href="#C0_0_3aa73f3a9c" y="97.646536"/>
    </g>
    <g clip-path="url(#p706b90c5e0)">
     <use style="fill:#333333;" x="342.9158" xlink:href="#C0_0_3aa73f3a9c" y="83.895532"/>
    </g>
    <g clip-path="url(#p706b90c5e0)">
     <use style="fill:#333333;" x="144.95317" xlink:href="#C0_0_3aa73f3a9c" y="83.913701"/>
    </g>
    <g clip-path="url(#p706b90c5e0)">
     <use style="fill:#333333;" x="348.691915" xlink:href="#C0_0_3aa73f3a9c" y="97.815606"/>
    </g>
    <g clip-path="url(#p706b90c5e0)">
     <use style="fill:#333333;" x="150.141374" xlink:href="#C0_0_3aa73f3a9c" y="96.344223"/>
    </g>
    <g clip-path="url(#p706b90c5e0)">
     <use style="fill:#333333;" x="271.737471" xlink:href="#C0_0_3aa73f3a9c" y="82.468421"/>
    </g>
    <g clip-path="url(#p706b90c5e0)">
     <use style="fill:#333333;" x="72.809985" xlink:href="#C0_0_3aa73f3a9c" y="107.59798"/>
    </g>
    <g clip-path="url(#p706b90c5e0)">
     <use style="fill:#333333;" x="145.205833" xlink:href="#C0_0_3aa73f3a9c" y="102.24697"/>
    </g>
   </g>
   <g id="text_7">
    <!-- Action: helping out your parents if you don't feel like it. -->
    <defs>
     <path d="M 9.03125 41.84375 
L 9.03125 51.859375 
L 19.046875 51.859375 
L 19.046875 41.84375 
z
M 9.03125 0 
L 9.03125 10.015625 
L 19.046875 10.015625 
L 19.046875 0 
z
" id="ArialMT-58"/>
     <path d="M 6.59375 0 
L 6.59375 71.578125 
L 15.375 71.578125 
L 15.375 45.90625 
Q 21.53125 53.03125 30.90625 53.03125 
Q 36.671875 53.03125 40.921875 50.75 
Q 45.171875 48.484375 47 44.484375 
Q 48.828125 40.484375 48.828125 32.859375 
L 48.828125 0 
L 40.046875 0 
L 40.046875 32.859375 
Q 40.046875 39.453125 37.1875 42.453125 
Q 34.328125 45.453125 29.109375 45.453125 
Q 25.203125 45.453125 21.75 43.421875 
Q 18.3125 41.40625 16.84375 37.9375 
Q 15.375 34.46875 15.375 28.375 
L 15.375 0 
z
" id="ArialMT-104"/>
     <path d="M 40.234375 0 
L 40.234375 6.546875 
Q 35.296875 -1.171875 25.734375 -1.171875 
Q 19.53125 -1.171875 14.328125 2.25 
Q 9.125 5.671875 6.265625 11.796875 
Q 3.421875 17.921875 3.421875 25.875 
Q 3.421875 33.640625 6 39.96875 
Q 8.59375 46.296875 13.765625 49.65625 
Q 18.953125 53.03125 25.34375 53.03125 
Q 30.03125 53.03125 33.6875 51.046875 
Q 37.359375 49.078125 39.65625 45.90625 
L 39.65625 71.578125 
L 48.390625 71.578125 
L 48.390625 0 
z
M 12.453125 25.875 
Q 12.453125 15.921875 16.640625 10.984375 
Q 20.84375 6.0625 26.5625 6.0625 
Q 32.328125 6.0625 36.34375 10.765625 
Q 40.375 15.484375 40.375 25.140625 
Q 40.375 35.796875 36.265625 40.765625 
Q 32.171875 45.75 26.171875 45.75 
Q 20.3125 45.75 16.375 40.96875 
Q 12.453125 36.1875 12.453125 25.875 
z
" id="ArialMT-100"/>
     <path d="M 6.640625 46.234375 
L 4.390625 59.625 
L 4.390625 71.578125 
L 14.40625 71.578125 
L 14.40625 59.625 
L 12.0625 46.234375 
z
" id="ArialMT-39"/>
     <path d="M 6.640625 0 
L 6.640625 71.578125 
L 15.4375 71.578125 
L 15.4375 30.765625 
L 36.234375 51.859375 
L 47.609375 51.859375 
L 27.78125 32.625 
L 49.609375 0 
L 38.765625 0 
L 21.625 26.515625 
L 15.4375 20.5625 
L 15.4375 0 
z
" id="ArialMT-107"/>
     <path d="M 9.078125 0 
L 9.078125 10.015625 
L 19.09375 10.015625 
L 19.09375 0 
z
" id="ArialMT-46"/>
    </defs>
    <g style="fill:#262626;" transform="translate(72.78 19.24965)scale(0.12 -0.12)">
     <use xlink:href="#ArialMT-65"/>
     <use x="66.699219" xlink:href="#ArialMT-99"/>
     <use x="116.699219" xlink:href="#ArialMT-116"/>
     <use x="144.482422" xlink:href="#ArialMT-105"/>
     <use x="166.699219" xlink:href="#ArialMT-111"/>
     <use x="222.314453" xlink:href="#ArialMT-110"/>
     <use x="277.929688" xlink:href="#ArialMT-58"/>
     <use x="305.712891" xlink:href="#ArialMT-32"/>
     <use x="333.496094" xlink:href="#ArialMT-104"/>
     <use x="389.111328" xlink:href="#ArialMT-101"/>
     <use x="444.726562" xlink:href="#ArialMT-108"/>
     <use x="466.943359" xlink:href="#ArialMT-112"/>
     <use x="522.558594" xlink:href="#ArialMT-105"/>
     <use x="544.775391" xlink:href="#ArialMT-110"/>
     <use x="600.390625" xlink:href="#ArialMT-103"/>
     <use x="656.005859" xlink:href="#ArialMT-32"/>
     <use x="683.789062" xlink:href="#ArialMT-111"/>
     <use x="739.404297" xlink:href="#ArialMT-117"/>
     <use x="795.019531" xlink:href="#ArialMT-116"/>
     <use x="822.802734" xlink:href="#ArialMT-32"/>
     <use x="850.585938" xlink:href="#ArialMT-121"/>
     <use x="900.585938" xlink:href="#ArialMT-111"/>
     <use x="956.201172" xlink:href="#ArialMT-117"/>
     <use x="1011.816406" xlink:href="#ArialMT-114"/>
     <use x="1045.117188" xlink:href="#ArialMT-32"/>
     <use x="1072.900391" xlink:href="#ArialMT-112"/>
     <use x="1128.515625" xlink:href="#ArialMT-97"/>
     <use x="1184.130859" xlink:href="#ArialMT-114"/>
     <use x="1217.431641" xlink:href="#ArialMT-101"/>
     <use x="1273.046875" xlink:href="#ArialMT-110"/>
     <use x="1328.662109" xlink:href="#ArialMT-116"/>
     <use x="1356.445312" xlink:href="#ArialMT-115"/>
     <use x="1406.445312" xlink:href="#ArialMT-32"/>
     <use x="1434.228516" xlink:href="#ArialMT-105"/>
     <use x="1456.445312" xlink:href="#ArialMT-102"/>
     <use x="1484.228516" xlink:href="#ArialMT-32"/>
     <use x="1512.011719" xlink:href="#ArialMT-121"/>
     <use x="1562.011719" xlink:href="#ArialMT-111"/>
     <use x="1617.626953" xlink:href="#ArialMT-117"/>
     <use x="1673.242188" xlink:href="#ArialMT-32"/>
     <use x="1701.025391" xlink:href="#ArialMT-100"/>
     <use x="1756.640625" xlink:href="#ArialMT-111"/>
     <use x="1812.255859" xlink:href="#ArialMT-110"/>
     <use x="1867.871094" xlink:href="#ArialMT-39"/>
     <use x="1886.962891" xlink:href="#ArialMT-116"/>
     <use x="1914.746094" xlink:href="#ArialMT-32"/>
     <use x="1942.529297" xlink:href="#ArialMT-102"/>
     <use x="1970.3125" xlink:href="#ArialMT-101"/>
     <use x="2025.927734" xlink:href="#ArialMT-101"/>
     <use x="2081.542969" xlink:href="#ArialMT-108"/>
     <use x="2103.759766" xlink:href="#ArialMT-32"/>
     <use x="2131.542969" xlink:href="#ArialMT-108"/>
     <use x="2153.759766" xlink:href="#ArialMT-105"/>
     <use x="2175.976562" xlink:href="#ArialMT-107"/>
     <use x="2225.976562" xlink:href="#ArialMT-101"/>
     <use x="2281.591797" xlink:href="#ArialMT-32"/>
     <use x="2309.375" xlink:href="#ArialMT-105"/>
     <use x="2331.591797" xlink:href="#ArialMT-116"/>
     <use x="2359.375" xlink:href="#ArialMT-46"/>
    </g>
   </g>
  </g>
 </g>
 <defs>
  <clipPath id="p706b90c5e0">
   <rect height="141.827025" width="406.08" x="12.96" y="25.24965"/>
  </clipPath>
 </defs>
</svg>
