<?xml version="1.0" encoding="utf-8" standalone="no"?>
<!DOCTYPE svg PUBLIC "-//W3C//DTD SVG 1.1//EN"
  "http://www.w3.org/Graphics/SVG/1.1/DTD/svg11.dtd">
<!-- Created with matplotlib (https://matplotlib.org/) -->
<svg height="216pt" version="1.1" viewBox="0 0 432 216" width="432pt" xmlns="http://www.w3.org/2000/svg" xmlns:xlink="http://www.w3.org/1999/xlink">
 <defs>
  <style type="text/css">
*{stroke-linecap:butt;stroke-linejoin:round;}
  </style>
 </defs>
 <g id="figure_1">
  <g id="patch_1">
   <path d="M 0 216 
L 432 216 
L 432 0 
L 0 0 
z
" style="fill:#ffffff;"/>
  </g>
  <g id="axes_1">
   <g id="patch_2">
    <path d="M 12.96 167.076675 
L 419.04 167.076675 
L 419.04 25.14435 
L 12.96 25.14435 
z
" style="fill:#eaeaf2;"/>
   </g>
   <g id="matplotlib.axis_1">
    <g id="xtick_1">
     <g id="line2d_1">
      <path clip-path="url(#pdfc5d3d286)" d="M 80.64 167.076675 
L 80.64 25.14435 
" style="fill:none;stroke:#ffffff;stroke-linecap:round;"/>
     </g>
     <g id="text_1">
      <!-- Strongly -->
      <defs>
       <path d="M 4.5 23 
L 13.421875 23.78125 
Q 14.0625 18.40625 16.375 14.96875 
Q 18.703125 11.53125 23.578125 9.40625 
Q 28.46875 7.28125 34.578125 7.28125 
Q 39.984375 7.28125 44.140625 8.890625 
Q 48.296875 10.5 50.3125 13.296875 
Q 52.34375 16.109375 52.34375 19.4375 
Q 52.34375 22.796875 50.390625 25.3125 
Q 48.4375 27.828125 43.953125 29.546875 
Q 41.0625 30.671875 31.203125 33.03125 
Q 21.34375 35.40625 17.390625 37.5 
Q 12.25 40.1875 9.734375 44.15625 
Q 7.234375 48.140625 7.234375 53.078125 
Q 7.234375 58.5 10.296875 63.203125 
Q 13.375 67.921875 19.28125 70.359375 
Q 25.203125 72.796875 32.421875 72.796875 
Q 40.375 72.796875 46.453125 70.234375 
Q 52.546875 67.671875 55.8125 62.6875 
Q 59.078125 57.71875 59.328125 51.421875 
L 50.25 50.734375 
Q 49.515625 57.515625 45.28125 60.984375 
Q 41.0625 64.453125 32.8125 64.453125 
Q 24.21875 64.453125 20.28125 61.296875 
Q 16.359375 58.15625 16.359375 53.71875 
Q 16.359375 49.859375 19.140625 47.359375 
Q 21.875 44.875 33.421875 42.265625 
Q 44.96875 39.65625 49.265625 37.703125 
Q 55.515625 34.8125 58.484375 30.390625 
Q 61.46875 25.984375 61.46875 20.21875 
Q 61.46875 14.5 58.203125 9.4375 
Q 54.9375 4.390625 48.796875 1.578125 
Q 42.671875 -1.21875 35.015625 -1.21875 
Q 25.296875 -1.21875 18.71875 1.609375 
Q 12.15625 4.4375 8.421875 10.125 
Q 4.6875 15.828125 4.5 23 
z
" id="ArialMT-83"/>
       <path d="M 25.78125 7.859375 
L 27.046875 0.09375 
Q 23.34375 -0.6875 20.40625 -0.6875 
Q 15.625 -0.6875 12.984375 0.828125 
Q 10.359375 2.34375 9.28125 4.8125 
Q 8.203125 7.28125 8.203125 15.1875 
L 8.203125 45.015625 
L 1.765625 45.015625 
L 1.765625 51.859375 
L 8.203125 51.859375 
L 8.203125 64.703125 
L 16.9375 69.96875 
L 16.9375 51.859375 
L 25.78125 51.859375 
L 25.78125 45.015625 
L 16.9375 45.015625 
L 16.9375 14.703125 
Q 16.9375 10.9375 17.40625 9.859375 
Q 17.875 8.796875 18.921875 8.15625 
Q 19.96875 7.515625 21.921875 7.515625 
Q 23.390625 7.515625 25.78125 7.859375 
z
" id="ArialMT-116"/>
       <path d="M 6.5 0 
L 6.5 51.859375 
L 14.40625 51.859375 
L 14.40625 44 
Q 17.4375 49.515625 20 51.265625 
Q 22.5625 53.03125 25.640625 53.03125 
Q 30.078125 53.03125 34.671875 50.203125 
L 31.640625 42.046875 
Q 28.421875 43.953125 25.203125 43.953125 
Q 22.3125 43.953125 20.015625 42.21875 
Q 17.71875 40.484375 16.75 37.40625 
Q 15.28125 32.71875 15.28125 27.15625 
L 15.28125 0 
z
" id="ArialMT-114"/>
       <path d="M 3.328125 25.921875 
Q 3.328125 40.328125 11.328125 47.265625 
Q 18.015625 53.03125 27.640625 53.03125 
Q 38.328125 53.03125 45.109375 46.015625 
Q 51.90625 39.015625 51.90625 26.65625 
Q 51.90625 16.65625 48.90625 10.90625 
Q 45.90625 5.171875 40.15625 2 
Q 34.421875 -1.171875 27.640625 -1.171875 
Q 16.75 -1.171875 10.03125 5.8125 
Q 3.328125 12.796875 3.328125 25.921875 
z
M 12.359375 25.921875 
Q 12.359375 15.96875 16.703125 11.015625 
Q 21.046875 6.0625 27.640625 6.0625 
Q 34.1875 6.0625 38.53125 11.03125 
Q 42.875 16.015625 42.875 26.21875 
Q 42.875 35.84375 38.5 40.796875 
Q 34.125 45.75 27.640625 45.75 
Q 21.046875 45.75 16.703125 40.8125 
Q 12.359375 35.890625 12.359375 25.921875 
z
" id="ArialMT-111"/>
       <path d="M 6.59375 0 
L 6.59375 51.859375 
L 14.5 51.859375 
L 14.5 44.484375 
Q 20.21875 53.03125 31 53.03125 
Q 35.6875 53.03125 39.625 51.34375 
Q 43.5625 49.65625 45.515625 46.921875 
Q 47.46875 44.1875 48.25 40.4375 
Q 48.734375 37.984375 48.734375 31.890625 
L 48.734375 0 
L 39.9375 0 
L 39.9375 31.546875 
Q 39.9375 36.921875 38.90625 39.578125 
Q 37.890625 42.234375 35.28125 43.8125 
Q 32.671875 45.40625 29.15625 45.40625 
Q 23.53125 45.40625 19.453125 41.84375 
Q 15.375 38.28125 15.375 28.328125 
L 15.375 0 
z
" id="ArialMT-110"/>
       <path d="M 4.984375 -4.296875 
L 13.53125 -5.5625 
Q 14.0625 -9.515625 16.5 -11.328125 
Q 19.78125 -13.765625 25.4375 -13.765625 
Q 31.546875 -13.765625 34.859375 -11.328125 
Q 38.1875 -8.890625 39.359375 -4.5 
Q 40.046875 -1.8125 39.984375 6.78125 
Q 34.234375 0 25.640625 0 
Q 14.9375 0 9.078125 7.71875 
Q 3.21875 15.4375 3.21875 26.21875 
Q 3.21875 33.640625 5.90625 39.90625 
Q 8.59375 46.1875 13.6875 49.609375 
Q 18.796875 53.03125 25.6875 53.03125 
Q 34.859375 53.03125 40.828125 45.609375 
L 40.828125 51.859375 
L 48.921875 51.859375 
L 48.921875 7.03125 
Q 48.921875 -5.078125 46.453125 -10.125 
Q 44 -15.1875 38.640625 -18.109375 
Q 33.296875 -21.046875 25.484375 -21.046875 
Q 16.21875 -21.046875 10.5 -16.875 
Q 4.78125 -12.703125 4.984375 -4.296875 
z
M 12.25 26.859375 
Q 12.25 16.65625 16.296875 11.96875 
Q 20.359375 7.28125 26.46875 7.28125 
Q 32.515625 7.28125 36.609375 11.9375 
Q 40.71875 16.609375 40.71875 26.5625 
Q 40.71875 36.078125 36.5 40.90625 
Q 32.28125 45.75 26.3125 45.75 
Q 20.453125 45.75 16.34375 40.984375 
Q 12.25 36.234375 12.25 26.859375 
z
" id="ArialMT-103"/>
       <path d="M 6.390625 0 
L 6.390625 71.578125 
L 15.1875 71.578125 
L 15.1875 0 
z
" id="ArialMT-108"/>
       <path d="M 6.203125 -19.96875 
L 5.21875 -11.71875 
Q 8.109375 -12.5 10.25 -12.5 
Q 13.1875 -12.5 14.9375 -11.515625 
Q 16.703125 -10.546875 17.828125 -8.796875 
Q 18.65625 -7.46875 20.515625 -2.25 
Q 20.75 -1.515625 21.296875 -0.09375 
L 1.609375 51.859375 
L 11.078125 51.859375 
L 21.875 21.828125 
Q 23.96875 16.109375 25.640625 9.8125 
Q 27.15625 15.875 29.25 21.625 
L 40.328125 51.859375 
L 49.125 51.859375 
L 29.390625 -0.875 
Q 26.21875 -9.421875 24.46875 -12.640625 
Q 22.125 -17 19.09375 -19.015625 
Q 16.0625 -21.046875 11.859375 -21.046875 
Q 9.328125 -21.046875 6.203125 -19.96875 
z
" id="ArialMT-121"/>
      </defs>
      <g style="fill:#262626;" transform="translate(62.298594 183.856362)scale(0.1 -0.1)">
       <use xlink:href="#ArialMT-83"/>
       <use x="66.699219" xlink:href="#ArialMT-116"/>
       <use x="94.482422" xlink:href="#ArialMT-114"/>
       <use x="127.783203" xlink:href="#ArialMT-111"/>
       <use x="183.398438" xlink:href="#ArialMT-110"/>
       <use x="239.013672" xlink:href="#ArialMT-103"/>
       <use x="294.628906" xlink:href="#ArialMT-108"/>
       <use x="316.845703" xlink:href="#ArialMT-121"/>
      </g>
      <!-- against -->
      <defs>
       <path d="M 40.4375 6.390625 
Q 35.546875 2.25 31.03125 0.53125 
Q 26.515625 -1.171875 21.34375 -1.171875 
Q 12.796875 -1.171875 8.203125 3 
Q 3.609375 7.171875 3.609375 13.671875 
Q 3.609375 17.484375 5.34375 20.625 
Q 7.078125 23.78125 9.890625 25.6875 
Q 12.703125 27.59375 16.21875 28.5625 
Q 18.796875 29.25 24.03125 29.890625 
Q 34.671875 31.15625 39.703125 32.90625 
Q 39.75 34.71875 39.75 35.203125 
Q 39.75 40.578125 37.25 42.78125 
Q 33.890625 45.75 27.25 45.75 
Q 21.046875 45.75 18.09375 43.578125 
Q 15.140625 41.40625 13.71875 35.890625 
L 5.125 37.0625 
Q 6.296875 42.578125 8.984375 45.96875 
Q 11.671875 49.359375 16.75 51.1875 
Q 21.828125 53.03125 28.515625 53.03125 
Q 35.15625 53.03125 39.296875 51.46875 
Q 43.453125 49.90625 45.40625 47.53125 
Q 47.359375 45.171875 48.140625 41.546875 
Q 48.578125 39.3125 48.578125 33.453125 
L 48.578125 21.734375 
Q 48.578125 9.46875 49.140625 6.21875 
Q 49.703125 2.984375 51.375 0 
L 42.1875 0 
Q 40.828125 2.734375 40.4375 6.390625 
z
M 39.703125 26.03125 
Q 34.90625 24.078125 25.34375 22.703125 
Q 19.921875 21.921875 17.671875 20.9375 
Q 15.4375 19.96875 14.203125 18.09375 
Q 12.984375 16.21875 12.984375 13.921875 
Q 12.984375 10.40625 15.640625 8.0625 
Q 18.3125 5.71875 23.4375 5.71875 
Q 28.515625 5.71875 32.46875 7.9375 
Q 36.421875 10.15625 38.28125 14.015625 
Q 39.703125 17 39.703125 22.796875 
z
" id="ArialMT-97"/>
       <path d="M 6.640625 61.46875 
L 6.640625 71.578125 
L 15.4375 71.578125 
L 15.4375 61.46875 
z
M 6.640625 0 
L 6.640625 51.859375 
L 15.4375 51.859375 
L 15.4375 0 
z
" id="ArialMT-105"/>
       <path d="M 3.078125 15.484375 
L 11.765625 16.84375 
Q 12.5 11.625 15.84375 8.84375 
Q 19.1875 6.0625 25.203125 6.0625 
Q 31.25 6.0625 34.171875 8.515625 
Q 37.109375 10.984375 37.109375 14.3125 
Q 37.109375 17.28125 34.515625 19 
Q 32.71875 20.171875 25.53125 21.96875 
Q 15.875 24.421875 12.140625 26.203125 
Q 8.40625 27.984375 6.46875 31.125 
Q 4.546875 34.28125 4.546875 38.09375 
Q 4.546875 41.546875 6.125 44.5 
Q 7.71875 47.46875 10.453125 49.421875 
Q 12.5 50.921875 16.03125 51.96875 
Q 19.578125 53.03125 23.640625 53.03125 
Q 29.734375 53.03125 34.34375 51.265625 
Q 38.96875 49.515625 41.15625 46.5 
Q 43.359375 43.5 44.1875 38.484375 
L 35.59375 37.3125 
Q 35.015625 41.3125 32.203125 43.546875 
Q 29.390625 45.796875 24.265625 45.796875 
Q 18.21875 45.796875 15.625 43.796875 
Q 13.03125 41.796875 13.03125 39.109375 
Q 13.03125 37.40625 14.109375 36.03125 
Q 15.1875 34.625 17.484375 33.6875 
Q 18.796875 33.203125 25.25 31.453125 
Q 34.578125 28.953125 38.25 27.359375 
Q 41.9375 25.78125 44.03125 22.75 
Q 46.140625 19.734375 46.140625 15.234375 
Q 46.140625 10.84375 43.578125 6.953125 
Q 41.015625 3.078125 36.171875 0.953125 
Q 31.34375 -1.171875 25.25 -1.171875 
Q 15.140625 -1.171875 9.84375 3.03125 
Q 4.546875 7.234375 3.078125 15.484375 
z
" id="ArialMT-115"/>
      </defs>
      <g style="fill:#262626;" transform="translate(64.518125 194.550425)scale(0.1 -0.1)">
       <use xlink:href="#ArialMT-97"/>
       <use x="55.615234" xlink:href="#ArialMT-103"/>
       <use x="111.230469" xlink:href="#ArialMT-97"/>
       <use x="166.845703" xlink:href="#ArialMT-105"/>
       <use x="189.0625" xlink:href="#ArialMT-110"/>
       <use x="244.677734" xlink:href="#ArialMT-115"/>
       <use x="294.677734" xlink:href="#ArialMT-116"/>
      </g>
     </g>
    </g>
    <g id="xtick_2">
     <g id="line2d_2">
      <path clip-path="url(#pdfc5d3d286)" d="M 148.32 167.076675 
L 148.32 25.14435 
" style="fill:none;stroke:#ffffff;stroke-linecap:round;"/>
     </g>
     <g id="text_2">
      <!-- Against -->
      <defs>
       <path d="M -0.140625 0 
L 27.34375 71.578125 
L 37.546875 71.578125 
L 66.84375 0 
L 56.0625 0 
L 47.703125 21.6875 
L 17.78125 21.6875 
L 9.90625 0 
z
M 20.515625 29.390625 
L 44.78125 29.390625 
L 37.3125 49.21875 
Q 33.890625 58.25 32.234375 64.0625 
Q 30.859375 57.171875 28.375 50.390625 
z
" id="ArialMT-65"/>
      </defs>
      <g style="fill:#262626;" transform="translate(131.643438 183.734488)scale(0.1 -0.1)">
       <use xlink:href="#ArialMT-65"/>
       <use x="66.699219" xlink:href="#ArialMT-103"/>
       <use x="122.314453" xlink:href="#ArialMT-97"/>
       <use x="177.929688" xlink:href="#ArialMT-105"/>
       <use x="200.146484" xlink:href="#ArialMT-110"/>
       <use x="255.761719" xlink:href="#ArialMT-115"/>
       <use x="305.761719" xlink:href="#ArialMT-116"/>
      </g>
     </g>
    </g>
    <g id="xtick_3">
     <g id="line2d_3">
      <path clip-path="url(#pdfc5d3d286)" d="M 216 167.076675 
L 216 25.14435 
" style="fill:none;stroke:#ffffff;stroke-linecap:round;"/>
     </g>
     <g id="text_3">
      <!-- Discretionary -->
      <defs>
       <path d="M 7.71875 0 
L 7.71875 71.578125 
L 32.375 71.578125 
Q 40.71875 71.578125 45.125 70.5625 
Q 51.265625 69.140625 55.609375 65.4375 
Q 61.28125 60.640625 64.078125 53.1875 
Q 66.890625 45.75 66.890625 36.1875 
Q 66.890625 28.03125 64.984375 21.734375 
Q 63.09375 15.4375 60.109375 11.296875 
Q 57.125 7.171875 53.578125 4.796875 
Q 50.046875 2.4375 45.046875 1.21875 
Q 40.046875 0 33.546875 0 
z
M 17.1875 8.453125 
L 32.46875 8.453125 
Q 39.546875 8.453125 43.578125 9.765625 
Q 47.609375 11.078125 50 13.484375 
Q 53.375 16.84375 55.25 22.53125 
Q 57.125 28.21875 57.125 36.328125 
Q 57.125 47.5625 53.4375 53.59375 
Q 49.75 59.625 44.484375 61.671875 
Q 40.671875 63.140625 32.234375 63.140625 
L 17.1875 63.140625 
z
" id="ArialMT-68"/>
       <path d="M 40.4375 19 
L 49.078125 17.875 
Q 47.65625 8.9375 41.8125 3.875 
Q 35.984375 -1.171875 27.484375 -1.171875 
Q 16.84375 -1.171875 10.375 5.78125 
Q 3.90625 12.75 3.90625 25.734375 
Q 3.90625 34.125 6.6875 40.421875 
Q 9.46875 46.734375 15.15625 49.875 
Q 20.84375 53.03125 27.546875 53.03125 
Q 35.984375 53.03125 41.359375 48.75 
Q 46.734375 44.484375 48.25 36.625 
L 39.703125 35.296875 
Q 38.484375 40.53125 35.375 43.15625 
Q 32.28125 45.796875 27.875 45.796875 
Q 21.234375 45.796875 17.078125 41.03125 
Q 12.9375 36.28125 12.9375 25.984375 
Q 12.9375 15.53125 16.9375 10.796875 
Q 20.953125 6.0625 27.390625 6.0625 
Q 32.5625 6.0625 36.03125 9.234375 
Q 39.5 12.40625 40.4375 19 
z
" id="ArialMT-99"/>
       <path d="M 42.09375 16.703125 
L 51.171875 15.578125 
Q 49.03125 7.625 43.21875 3.21875 
Q 37.40625 -1.171875 28.375 -1.171875 
Q 17 -1.171875 10.328125 5.828125 
Q 3.65625 12.84375 3.65625 25.484375 
Q 3.65625 38.578125 10.390625 45.796875 
Q 17.140625 53.03125 27.875 53.03125 
Q 38.28125 53.03125 44.875 45.953125 
Q 51.46875 38.875 51.46875 26.03125 
Q 51.46875 25.25 51.421875 23.6875 
L 12.75 23.6875 
Q 13.234375 15.140625 17.578125 10.59375 
Q 21.921875 6.0625 28.421875 6.0625 
Q 33.25 6.0625 36.671875 8.59375 
Q 40.09375 11.140625 42.09375 16.703125 
z
M 13.234375 30.90625 
L 42.1875 30.90625 
Q 41.609375 37.453125 38.875 40.71875 
Q 34.671875 45.796875 27.984375 45.796875 
Q 21.921875 45.796875 17.796875 41.75 
Q 13.671875 37.703125 13.234375 30.90625 
z
" id="ArialMT-101"/>
      </defs>
      <g style="fill:#262626;" transform="translate(186.826562 183.734488)scale(0.1 -0.1)">
       <use xlink:href="#ArialMT-68"/>
       <use x="72.216797" xlink:href="#ArialMT-105"/>
       <use x="94.433594" xlink:href="#ArialMT-115"/>
       <use x="144.433594" xlink:href="#ArialMT-99"/>
       <use x="194.433594" xlink:href="#ArialMT-114"/>
       <use x="227.734375" xlink:href="#ArialMT-101"/>
       <use x="283.349609" xlink:href="#ArialMT-116"/>
       <use x="311.132812" xlink:href="#ArialMT-105"/>
       <use x="333.349609" xlink:href="#ArialMT-111"/>
       <use x="388.964844" xlink:href="#ArialMT-110"/>
       <use x="444.580078" xlink:href="#ArialMT-97"/>
       <use x="500.195312" xlink:href="#ArialMT-114"/>
       <use x="533.496094" xlink:href="#ArialMT-121"/>
      </g>
     </g>
    </g>
    <g id="xtick_4">
     <g id="line2d_4">
      <path clip-path="url(#pdfc5d3d286)" d="M 283.68 167.076675 
L 283.68 25.14435 
" style="fill:none;stroke:#ffffff;stroke-linecap:round;"/>
     </g>
     <g id="text_4">
      <!-- For -->
      <defs>
       <path d="M 8.203125 0 
L 8.203125 71.578125 
L 56.5 71.578125 
L 56.5 63.140625 
L 17.671875 63.140625 
L 17.671875 40.96875 
L 51.265625 40.96875 
L 51.265625 32.515625 
L 17.671875 32.515625 
L 17.671875 0 
z
" id="ArialMT-70"/>
      </defs>
      <g style="fill:#262626;" transform="translate(276.180781 183.734488)scale(0.1 -0.1)">
       <use xlink:href="#ArialMT-70"/>
       <use x="61.083984" xlink:href="#ArialMT-111"/>
       <use x="116.699219" xlink:href="#ArialMT-114"/>
      </g>
     </g>
    </g>
    <g id="xtick_5">
     <g id="line2d_5">
      <path clip-path="url(#pdfc5d3d286)" d="M 351.36 167.076675 
L 351.36 25.14435 
" style="fill:none;stroke:#ffffff;stroke-linecap:round;"/>
     </g>
     <g id="text_5">
      <!-- Strongly for -->
      <defs>
       <path id="ArialMT-32"/>
       <path d="M 8.6875 0 
L 8.6875 45.015625 
L 0.921875 45.015625 
L 0.921875 51.859375 
L 8.6875 51.859375 
L 8.6875 57.375 
Q 8.6875 62.59375 9.625 65.140625 
Q 10.890625 68.5625 14.078125 70.671875 
Q 17.28125 72.796875 23.046875 72.796875 
Q 26.765625 72.796875 31.25 71.921875 
L 29.9375 64.265625 
Q 27.203125 64.75 24.75 64.75 
Q 20.75 64.75 19.09375 63.03125 
Q 17.4375 61.328125 17.4375 56.640625 
L 17.4375 51.859375 
L 27.546875 51.859375 
L 27.546875 45.015625 
L 17.4375 45.015625 
L 17.4375 0 
z
" id="ArialMT-102"/>
      </defs>
      <g style="fill:#262626;" transform="translate(325.795156 183.856362)scale(0.1 -0.1)">
       <use xlink:href="#ArialMT-83"/>
       <use x="66.699219" xlink:href="#ArialMT-116"/>
       <use x="94.482422" xlink:href="#ArialMT-114"/>
       <use x="127.783203" xlink:href="#ArialMT-111"/>
       <use x="183.398438" xlink:href="#ArialMT-110"/>
       <use x="239.013672" xlink:href="#ArialMT-103"/>
       <use x="294.628906" xlink:href="#ArialMT-108"/>
       <use x="316.845703" xlink:href="#ArialMT-121"/>
       <use x="366.845703" xlink:href="#ArialMT-32"/>
       <use x="394.628906" xlink:href="#ArialMT-102"/>
       <use x="422.412109" xlink:href="#ArialMT-111"/>
       <use x="478.027344" xlink:href="#ArialMT-114"/>
      </g>
     </g>
    </g>
    <g id="text_6">
     <!-- Cultural pressure -->
     <defs>
      <path d="M 58.796875 25.09375 
L 68.265625 22.703125 
Q 65.28125 11.03125 57.546875 4.90625 
Q 49.8125 -1.21875 38.625 -1.21875 
Q 27.046875 -1.21875 19.796875 3.484375 
Q 12.546875 8.203125 8.765625 17.140625 
Q 4.984375 26.078125 4.984375 36.328125 
Q 4.984375 47.515625 9.25 55.828125 
Q 13.53125 64.15625 21.40625 68.46875 
Q 29.296875 72.796875 38.765625 72.796875 
Q 49.515625 72.796875 56.828125 67.328125 
Q 64.15625 61.859375 67.046875 51.953125 
L 57.71875 49.75 
Q 55.21875 57.5625 50.484375 61.125 
Q 45.75 64.703125 38.578125 64.703125 
Q 30.328125 64.703125 24.78125 60.734375 
Q 19.234375 56.78125 16.984375 50.109375 
Q 14.75 43.453125 14.75 36.375 
Q 14.75 27.25 17.40625 20.4375 
Q 20.0625 13.625 25.671875 10.25 
Q 31.296875 6.890625 37.84375 6.890625 
Q 45.796875 6.890625 51.3125 11.46875 
Q 56.84375 16.0625 58.796875 25.09375 
z
" id="ArialMT-67"/>
      <path d="M 40.578125 0 
L 40.578125 7.625 
Q 34.515625 -1.171875 24.125 -1.171875 
Q 19.53125 -1.171875 15.546875 0.578125 
Q 11.578125 2.34375 9.640625 5 
Q 7.71875 7.671875 6.9375 11.53125 
Q 6.390625 14.109375 6.390625 19.734375 
L 6.390625 51.859375 
L 15.1875 51.859375 
L 15.1875 23.09375 
Q 15.1875 16.21875 15.71875 13.8125 
Q 16.546875 10.359375 19.234375 8.375 
Q 21.921875 6.390625 25.875 6.390625 
Q 29.828125 6.390625 33.296875 8.421875 
Q 36.765625 10.453125 38.203125 13.9375 
Q 39.65625 17.4375 39.65625 24.078125 
L 39.65625 51.859375 
L 48.4375 51.859375 
L 48.4375 0 
z
" id="ArialMT-117"/>
      <path d="M 6.59375 -19.875 
L 6.59375 51.859375 
L 14.59375 51.859375 
L 14.59375 45.125 
Q 17.4375 49.078125 21 51.046875 
Q 24.5625 53.03125 29.640625 53.03125 
Q 36.28125 53.03125 41.359375 49.609375 
Q 46.4375 46.1875 49.015625 39.953125 
Q 51.609375 33.734375 51.609375 26.3125 
Q 51.609375 18.359375 48.75 11.984375 
Q 45.90625 5.609375 40.453125 2.21875 
Q 35.015625 -1.171875 29 -1.171875 
Q 24.609375 -1.171875 21.109375 0.6875 
Q 17.625 2.546875 15.375 5.375 
L 15.375 -19.875 
z
M 14.546875 25.640625 
Q 14.546875 15.625 18.59375 10.84375 
Q 22.65625 6.0625 28.421875 6.0625 
Q 34.28125 6.0625 38.453125 11.015625 
Q 42.625 15.96875 42.625 26.375 
Q 42.625 36.28125 38.546875 41.203125 
Q 34.46875 46.140625 28.8125 46.140625 
Q 23.1875 46.140625 18.859375 40.890625 
Q 14.546875 35.640625 14.546875 25.640625 
z
" id="ArialMT-112"/>
     </defs>
     <g style="fill:#262626;" transform="translate(170.3175 209.390738)scale(0.12 -0.12)">
      <use xlink:href="#ArialMT-67"/>
      <use x="72.216797" xlink:href="#ArialMT-117"/>
      <use x="127.832031" xlink:href="#ArialMT-108"/>
      <use x="150.048828" xlink:href="#ArialMT-116"/>
      <use x="177.832031" xlink:href="#ArialMT-117"/>
      <use x="233.447266" xlink:href="#ArialMT-114"/>
      <use x="266.748047" xlink:href="#ArialMT-97"/>
      <use x="322.363281" xlink:href="#ArialMT-108"/>
      <use x="344.580078" xlink:href="#ArialMT-32"/>
      <use x="372.363281" xlink:href="#ArialMT-112"/>
      <use x="427.978516" xlink:href="#ArialMT-114"/>
      <use x="461.279297" xlink:href="#ArialMT-101"/>
      <use x="516.894531" xlink:href="#ArialMT-115"/>
      <use x="566.894531" xlink:href="#ArialMT-115"/>
      <use x="616.894531" xlink:href="#ArialMT-117"/>
      <use x="672.509766" xlink:href="#ArialMT-114"/>
      <use x="705.810547" xlink:href="#ArialMT-101"/>
     </g>
    </g>
   </g>
   <g id="matplotlib.axis_2">
    <g id="ytick_1"/>
   </g>
   <g id="PolyCollection_1">
    <defs>
     <path d="M 133.470123 -119.332136 
L 133.470123 -120.446839 
L 134.453757 -120.609576 
L 135.437391 -120.803645 
L 136.421025 -121.029828 
L 137.404658 -121.287225 
L 138.388292 -121.572918 
L 139.371926 -121.881732 
L 140.35556 -122.206178 
L 141.339194 -122.536595 
L 142.322828 -122.861517 
L 143.306462 -123.168272 
L 144.290096 -123.443759 
L 145.273729 -123.675363 
L 146.257363 -123.851904 
L 147.240997 -123.964529 
L 148.224631 -124.007447 
L 149.208265 -123.978421 
L 150.191899 -123.878966 
L 151.175533 -123.714213 
L 152.159167 -123.492473 
L 153.142801 -123.22454 
L 154.126434 -122.922827 
L 155.110068 -122.600412 
L 156.093702 -122.270117 
L 157.077336 -121.943695 
L 158.06097 -121.631194 
L 159.044604 -121.340541 
L 160.028238 -121.077361 
L 161.011872 -120.844997 
L 161.995505 -120.644715 
L 162.979139 -120.476029 
L 163.962773 -120.337095 
L 164.946407 -120.225128 
L 165.930041 -120.136791 
L 166.913675 -120.068533 
L 167.897309 -120.016859 
L 168.880943 -119.978523 
L 169.864576 -119.950643 
L 170.84821 -119.930762 
L 171.831844 -119.91686 
L 172.815478 -119.907327 
L 173.799112 -119.900914 
L 174.782746 -119.896686 
L 175.76638 -119.893957 
L 176.750014 -119.892241 
L 177.733648 -119.891208 
L 178.717281 -119.890648 
L 179.700915 -119.890449 
L 180.684549 -119.890585 
L 181.668183 -119.891128 
L 182.651817 -119.892268 
L 183.635451 -119.894367 
L 184.619085 -119.898043 
L 185.602719 -119.9043 
L 186.586352 -119.914727 
L 187.569986 -119.931764 
L 188.55362 -119.95908 
L 189.537254 -120.002056 
L 190.520888 -120.068407 
L 191.504522 -120.16892 
L 192.488156 -120.318308 
L 193.47179 -120.536112 
L 194.455424 -120.847579 
L 195.439057 -121.284376 
L 196.422691 -121.884981 
L 197.406325 -122.694529 
L 198.389959 -123.763902 
L 199.373593 -125.147857 
L 200.357227 -126.902008 
L 201.340861 -129.078635 
L 202.324495 -131.721384 
L 203.308128 -134.859134 
L 204.291762 -138.499507 
L 205.275396 -142.622665 
L 206.25903 -147.176219 
L 207.242664 -152.072076 
L 208.226298 -157.186021 
L 209.209932 -162.360638 
L 210.193566 -167.411809 
L 211.177199 -172.13865 
L 212.160833 -176.336255 
L 213.144467 -179.810187 
L 214.128101 -182.391318 
L 215.111735 -183.949446 
L 216.095369 -184.404181 
L 217.079003 -183.73181 
L 218.062637 -181.967353 
L 219.046271 -179.201537 
L 220.029904 -175.573068 
L 221.013538 -171.257106 
L 221.997172 -166.451288 
L 222.980806 -161.360837 
L 223.96444 -156.184306 
L 224.948074 -151.101311 
L 225.931708 -146.263227 
L 226.915342 -141.787382 
L 227.898975 -137.754818 
L 228.882609 -134.211294 
L 229.866243 -131.170878 
L 230.849877 -128.621322 
L 230.849877 -111.157653 
L 230.849877 -111.157653 
L 229.866243 -108.608097 
L 228.882609 -105.567681 
L 227.898975 -102.024157 
L 226.915342 -97.991593 
L 225.931708 -93.515748 
L 224.948074 -88.677664 
L 223.96444 -83.594669 
L 222.980806 -78.418138 
L 221.997172 -73.327687 
L 221.013538 -68.521869 
L 220.029904 -64.205907 
L 219.046271 -60.577438 
L 218.062637 -57.811622 
L 217.079003 -56.047165 
L 216.095369 -55.374794 
L 215.111735 -55.829529 
L 214.128101 -57.387657 
L 213.144467 -59.968788 
L 212.160833 -63.44272 
L 211.177199 -67.640325 
L 210.193566 -72.367166 
L 209.209932 -77.418337 
L 208.226298 -82.592954 
L 207.242664 -87.706899 
L 206.25903 -92.602756 
L 205.275396 -97.15631 
L 204.291762 -101.279468 
L 203.308128 -104.919841 
L 202.324495 -108.057591 
L 201.340861 -110.70034 
L 200.357227 -112.876967 
L 199.373593 -114.631118 
L 198.389959 -116.015073 
L 197.406325 -117.084446 
L 196.422691 -117.893994 
L 195.439057 -118.494599 
L 194.455424 -118.931396 
L 193.47179 -119.242863 
L 192.488156 -119.460667 
L 191.504522 -119.610055 
L 190.520888 -119.710568 
L 189.537254 -119.776919 
L 188.55362 -119.819895 
L 187.569986 -119.847211 
L 186.586352 -119.864248 
L 185.602719 -119.874675 
L 184.619085 -119.880932 
L 183.635451 -119.884608 
L 182.651817 -119.886707 
L 181.668183 -119.887847 
L 180.684549 -119.88839 
L 179.700915 -119.888526 
L 178.717281 -119.888327 
L 177.733648 -119.887767 
L 176.750014 -119.886734 
L 175.76638 -119.885018 
L 174.782746 -119.882289 
L 173.799112 -119.878061 
L 172.815478 -119.871648 
L 171.831844 -119.862115 
L 170.84821 -119.848213 
L 169.864576 -119.828332 
L 168.880943 -119.800452 
L 167.897309 -119.762116 
L 166.913675 -119.710442 
L 165.930041 -119.642184 
L 164.946407 -119.553847 
L 163.962773 -119.44188 
L 162.979139 -119.302946 
L 161.995505 -119.13426 
L 161.011872 -118.933978 
L 160.028238 -118.701614 
L 159.044604 -118.438434 
L 158.06097 -118.147781 
L 157.077336 -117.83528 
L 156.093702 -117.508858 
L 155.110068 -117.178563 
L 154.126434 -116.856148 
L 153.142801 -116.554435 
L 152.159167 -116.286502 
L 151.175533 -116.064762 
L 150.191899 -115.900009 
L 149.208265 -115.800554 
L 148.224631 -115.771528 
L 147.240997 -115.814446 
L 146.257363 -115.927071 
L 145.273729 -116.103612 
L 144.290096 -116.335216 
L 143.306462 -116.610703 
L 142.322828 -116.917458 
L 141.339194 -117.24238 
L 140.35556 -117.572797 
L 139.371926 -117.897243 
L 138.388292 -118.206057 
L 137.404658 -118.49175 
L 136.421025 -118.749147 
L 135.437391 -118.97533 
L 134.453757 -119.169399 
L 133.470123 -119.332136 
z
" id="mfb5ea21aac" style="stroke:#6d6d6d;stroke-width:1.5;"/>
    </defs>
    <g clip-path="url(#pdfc5d3d286)">
     <use style="fill:#86e5c1;stroke:#6d6d6d;stroke-width:1.5;" x="0" xlink:href="#mfb5ea21aac" y="216"/>
    </g>
   </g>
   <g id="line2d_6">
    <path clip-path="url(#pdfc5d3d286)" d="M 216 96.110512 
L 216 96.110512 
" style="fill:none;stroke:#6d6d6d;stroke-linecap:round;stroke-width:1.5;"/>
   </g>
   <g id="line2d_7">
    <path clip-path="url(#pdfc5d3d286)" d="M 216 96.110512 
L 216 96.110512 
" style="fill:none;stroke:#6d6d6d;stroke-linecap:round;stroke-width:4.5;"/>
   </g>
   <g id="patch_3">
    <path d="M 12.96 167.076675 
L 12.96 25.14435 
" style="fill:none;stroke:#ffffff;stroke-linecap:square;stroke-linejoin:miter;stroke-width:1.25;"/>
   </g>
   <g id="patch_4">
    <path d="M 419.04 167.076675 
L 419.04 25.14435 
" style="fill:none;stroke:#ffffff;stroke-linecap:square;stroke-linejoin:miter;stroke-width:1.25;"/>
   </g>
   <g id="patch_5">
    <path d="M 12.96 167.076675 
L 419.04 167.076675 
" style="fill:none;stroke:#ffffff;stroke-linecap:square;stroke-linejoin:miter;stroke-width:1.25;"/>
   </g>
   <g id="patch_6">
    <path d="M 12.96 25.14435 
L 419.04 25.14435 
" style="fill:none;stroke:#ffffff;stroke-linecap:square;stroke-linejoin:miter;stroke-width:1.25;"/>
   </g>
   <g id="PathCollection_1">
    <defs>
     <path d="M 0 1.5 
C 0.397805 1.5 0.77937 1.341951 1.06066 1.06066 
C 1.341951 0.77937 1.5 0.397805 1.5 0 
C 1.5 -0.397805 1.341951 -0.77937 1.06066 -1.06066 
C 0.77937 -1.341951 0.397805 -1.5 0 -1.5 
C -0.397805 -1.5 -0.77937 -1.341951 -1.06066 -1.06066 
C -1.341951 -0.77937 -1.5 -0.397805 -1.5 0 
C -1.5 0.397805 -1.341951 0.77937 -1.06066 1.06066 
C -0.77937 1.341951 -0.397805 1.5 0 1.5 
z
" id="m5fceeb10cf" style="stroke:#6d6d6d;"/>
    </defs>
    <g clip-path="url(#pdfc5d3d286)">
     <use style="fill:#ffffff;stroke:#6d6d6d;" x="216" xlink:href="#m5fceeb10cf" y="96.110512"/>
    </g>
   </g>
   <g id="PathCollection_2">
    <defs>
     <path d="M 0 2.5 
C 0.663008 2.5 1.29895 2.236584 1.767767 1.767767 
C 2.236584 1.29895 2.5 0.663008 2.5 0 
C 2.5 -0.663008 2.236584 -1.29895 1.767767 -1.767767 
C 1.29895 -2.236584 0.663008 -2.5 0 -2.5 
C -0.663008 -2.5 -1.29895 -2.236584 -1.767767 -1.767767 
C -2.236584 -1.29895 -2.5 -0.663008 -2.5 0 
C -2.5 0.663008 -2.236584 1.29895 -1.767767 1.767767 
C -1.29895 2.236584 -0.663008 2.5 0 2.5 
z
" id="C0_0_4af1d18eaf"/>
    </defs>
    <g clip-path="url(#pdfc5d3d286)">
     <use style="fill:#333333;" x="228.901262" xlink:href="#C0_0_4af1d18eaf" y="100.42339"/>
    </g>
    <g clip-path="url(#pdfc5d3d286)">
     <use style="fill:#333333;" x="215.555409" xlink:href="#C0_0_4af1d18eaf" y="94.757376"/>
    </g>
    <g clip-path="url(#pdfc5d3d286)">
     <use style="fill:#333333;" x="205.64883" xlink:href="#C0_0_4af1d18eaf" y="87.750795"/>
    </g>
    <g clip-path="url(#pdfc5d3d286)">
     <use style="fill:#333333;" x="142.535025" xlink:href="#C0_0_4af1d18eaf" y="103.661755"/>
    </g>
    <g clip-path="url(#pdfc5d3d286)">
     <use style="fill:#333333;" x="221.398265" xlink:href="#C0_0_4af1d18eaf" y="104.817567"/>
    </g>
    <g clip-path="url(#pdfc5d3d286)">
     <use style="fill:#333333;" x="225.580885" xlink:href="#C0_0_4af1d18eaf" y="106.171032"/>
    </g>
    <g clip-path="url(#pdfc5d3d286)">
     <use style="fill:#333333;" x="226.428684" xlink:href="#C0_0_4af1d18eaf" y="111.142204"/>
    </g>
    <g clip-path="url(#pdfc5d3d286)">
     <use style="fill:#333333;" x="221.69705" xlink:href="#C0_0_4af1d18eaf" y="90.098027"/>
    </g>
    <g clip-path="url(#pdfc5d3d286)">
     <use style="fill:#333333;" x="227.510919" xlink:href="#C0_0_4af1d18eaf" y="104.600577"/>
    </g>
    <g clip-path="url(#pdfc5d3d286)">
     <use style="fill:#333333;" x="225.290164" xlink:href="#C0_0_4af1d18eaf" y="88.905707"/>
    </g>
    <g clip-path="url(#pdfc5d3d286)">
     <use style="fill:#333333;" x="214.804921" xlink:href="#C0_0_4af1d18eaf" y="102.1729"/>
    </g>
    <g clip-path="url(#pdfc5d3d286)">
     <use style="fill:#333333;" x="221.777326" xlink:href="#C0_0_4af1d18eaf" y="83.114677"/>
    </g>
    <g clip-path="url(#pdfc5d3d286)">
     <use style="fill:#333333;" x="222.100409" xlink:href="#C0_0_4af1d18eaf" y="85.326833"/>
    </g>
    <g clip-path="url(#pdfc5d3d286)">
     <use style="fill:#333333;" x="214.298288" xlink:href="#C0_0_4af1d18eaf" y="97.758095"/>
    </g>
    <g clip-path="url(#pdfc5d3d286)">
     <use style="fill:#333333;" x="208.072939" xlink:href="#C0_0_4af1d18eaf" y="99.5038"/>
    </g>
    <g clip-path="url(#pdfc5d3d286)">
     <use style="fill:#333333;" x="223.354839" xlink:href="#C0_0_4af1d18eaf" y="89.03339"/>
    </g>
    <g clip-path="url(#pdfc5d3d286)">
     <use style="fill:#333333;" x="214.181676" xlink:href="#C0_0_4af1d18eaf" y="98.901935"/>
    </g>
    <g clip-path="url(#pdfc5d3d286)">
     <use style="fill:#333333;" x="203.229736" xlink:href="#C0_0_4af1d18eaf" y="104.075883"/>
    </g>
    <g clip-path="url(#pdfc5d3d286)">
     <use style="fill:#333333;" x="220.23133" xlink:href="#C0_0_4af1d18eaf" y="93.86813"/>
    </g>
    <g clip-path="url(#pdfc5d3d286)">
     <use style="fill:#333333;" x="217.302917" xlink:href="#C0_0_4af1d18eaf" y="88.327642"/>
    </g>
    <g clip-path="url(#pdfc5d3d286)">
     <use style="fill:#333333;" x="229.495116" xlink:href="#C0_0_4af1d18eaf" y="99.976379"/>
    </g>
    <g clip-path="url(#pdfc5d3d286)">
     <use style="fill:#333333;" x="226.183028" xlink:href="#C0_0_4af1d18eaf" y="101.564069"/>
    </g>
    <g clip-path="url(#pdfc5d3d286)">
     <use style="fill:#333333;" x="208.887668" xlink:href="#C0_0_4af1d18eaf" y="105.881202"/>
    </g>
    <g clip-path="url(#pdfc5d3d286)">
     <use style="fill:#333333;" x="225.339901" xlink:href="#C0_0_4af1d18eaf" y="91.156639"/>
    </g>
    <g clip-path="url(#pdfc5d3d286)">
     <use style="fill:#333333;" x="206.968301" xlink:href="#C0_0_4af1d18eaf" y="83.69894"/>
    </g>
    <g clip-path="url(#pdfc5d3d286)">
     <use style="fill:#333333;" x="208.237949" xlink:href="#C0_0_4af1d18eaf" y="109.84106"/>
    </g>
    <g clip-path="url(#pdfc5d3d286)">
     <use style="fill:#333333;" x="222.536755" xlink:href="#C0_0_4af1d18eaf" y="99.948429"/>
    </g>
    <g clip-path="url(#pdfc5d3d286)">
     <use style="fill:#333333;" x="136.572555" xlink:href="#C0_0_4af1d18eaf" y="103.661052"/>
    </g>
    <g clip-path="url(#pdfc5d3d286)">
     <use style="fill:#333333;" x="224.834445" xlink:href="#C0_0_4af1d18eaf" y="97.736624"/>
    </g>
    <g clip-path="url(#pdfc5d3d286)">
     <use style="fill:#333333;" x="209.435312" xlink:href="#C0_0_4af1d18eaf" y="104.310982"/>
    </g>
    <g clip-path="url(#pdfc5d3d286)">
     <use style="fill:#333333;" x="226.861866" xlink:href="#C0_0_4af1d18eaf" y="108.531536"/>
    </g>
    <g clip-path="url(#pdfc5d3d286)">
     <use style="fill:#333333;" x="214.033301" xlink:href="#C0_0_4af1d18eaf" y="83.479665"/>
    </g>
    <g clip-path="url(#pdfc5d3d286)">
     <use style="fill:#333333;" x="227.309352" xlink:href="#C0_0_4af1d18eaf" y="105.820054"/>
    </g>
    <g clip-path="url(#pdfc5d3d286)">
     <use style="fill:#333333;" x="207.827413" xlink:href="#C0_0_4af1d18eaf" y="87.99728"/>
    </g>
    <g clip-path="url(#pdfc5d3d286)">
     <use style="fill:#333333;" x="224.887904" xlink:href="#C0_0_4af1d18eaf" y="105.451383"/>
    </g>
    <g clip-path="url(#pdfc5d3d286)">
     <use style="fill:#333333;" x="214.524438" xlink:href="#C0_0_4af1d18eaf" y="92.805595"/>
    </g>
    <g clip-path="url(#pdfc5d3d286)">
     <use style="fill:#333333;" x="206.939519" xlink:href="#C0_0_4af1d18eaf" y="86.244946"/>
    </g>
    <g clip-path="url(#pdfc5d3d286)">
     <use style="fill:#333333;" x="210.701406" xlink:href="#C0_0_4af1d18eaf" y="110.259994"/>
    </g>
    <g clip-path="url(#pdfc5d3d286)">
     <use style="fill:#333333;" x="215.607598" xlink:href="#C0_0_4af1d18eaf" y="111.294767"/>
    </g>
    <g clip-path="url(#pdfc5d3d286)">
     <use style="fill:#333333;" x="204.979688" xlink:href="#C0_0_4af1d18eaf" y="85.681981"/>
    </g>
    <g clip-path="url(#pdfc5d3d286)">
     <use style="fill:#333333;" x="205.241711" xlink:href="#C0_0_4af1d18eaf" y="91.841236"/>
    </g>
    <g clip-path="url(#pdfc5d3d286)">
     <use style="fill:#333333;" x="210.713888" xlink:href="#C0_0_4af1d18eaf" y="97.478935"/>
    </g>
    <g clip-path="url(#pdfc5d3d286)">
     <use style="fill:#333333;" x="227.095348" xlink:href="#C0_0_4af1d18eaf" y="88.777743"/>
    </g>
    <g clip-path="url(#pdfc5d3d286)">
     <use style="fill:#333333;" x="151.071809" xlink:href="#C0_0_4af1d18eaf" y="96.336682"/>
    </g>
    <g clip-path="url(#pdfc5d3d286)">
     <use style="fill:#333333;" x="209.331969" xlink:href="#C0_0_4af1d18eaf" y="96.202474"/>
    </g>
    <g clip-path="url(#pdfc5d3d286)">
     <use style="fill:#333333;" x="224.213946" xlink:href="#C0_0_4af1d18eaf" y="100.028686"/>
    </g>
    <g clip-path="url(#pdfc5d3d286)">
     <use style="fill:#333333;" x="210.265685" xlink:href="#C0_0_4af1d18eaf" y="82.048757"/>
    </g>
    <g clip-path="url(#pdfc5d3d286)">
     <use style="fill:#333333;" x="204.562354" xlink:href="#C0_0_4af1d18eaf" y="85.001551"/>
    </g>
    <g clip-path="url(#pdfc5d3d286)">
     <use style="fill:#333333;" x="208.538088" xlink:href="#C0_0_4af1d18eaf" y="83.402651"/>
    </g>
    <g clip-path="url(#pdfc5d3d286)">
     <use style="fill:#333333;" x="228.503535" xlink:href="#C0_0_4af1d18eaf" y="101.305385"/>
    </g>
   </g>
   <g id="text_7">
    <!-- Action: not sharing something that you did a long time ago. -->
    <defs>
     <path d="M 9.03125 41.84375 
L 9.03125 51.859375 
L 19.046875 51.859375 
L 19.046875 41.84375 
z
M 9.03125 0 
L 9.03125 10.015625 
L 19.046875 10.015625 
L 19.046875 0 
z
" id="ArialMT-58"/>
     <path d="M 6.59375 0 
L 6.59375 71.578125 
L 15.375 71.578125 
L 15.375 45.90625 
Q 21.53125 53.03125 30.90625 53.03125 
Q 36.671875 53.03125 40.921875 50.75 
Q 45.171875 48.484375 47 44.484375 
Q 48.828125 40.484375 48.828125 32.859375 
L 48.828125 0 
L 40.046875 0 
L 40.046875 32.859375 
Q 40.046875 39.453125 37.1875 42.453125 
Q 34.328125 45.453125 29.109375 45.453125 
Q 25.203125 45.453125 21.75 43.421875 
Q 18.3125 41.40625 16.84375 37.9375 
Q 15.375 34.46875 15.375 28.375 
L 15.375 0 
z
" id="ArialMT-104"/>
     <path d="M 6.59375 0 
L 6.59375 51.859375 
L 14.453125 51.859375 
L 14.453125 44.578125 
Q 16.890625 48.390625 20.9375 50.703125 
Q 25 53.03125 30.171875 53.03125 
Q 35.9375 53.03125 39.625 50.640625 
Q 43.3125 48.25 44.828125 43.953125 
Q 50.984375 53.03125 60.84375 53.03125 
Q 68.5625 53.03125 72.703125 48.75 
Q 76.859375 44.484375 76.859375 35.59375 
L 76.859375 0 
L 68.109375 0 
L 68.109375 32.671875 
Q 68.109375 37.9375 67.25 40.25 
Q 66.40625 42.578125 64.15625 43.984375 
Q 61.921875 45.40625 58.890625 45.40625 
Q 53.421875 45.40625 49.796875 41.765625 
Q 46.1875 38.140625 46.1875 30.125 
L 46.1875 0 
L 37.40625 0 
L 37.40625 33.6875 
Q 37.40625 39.546875 35.25 42.46875 
Q 33.109375 45.40625 28.21875 45.40625 
Q 24.515625 45.40625 21.359375 43.453125 
Q 18.21875 41.5 16.796875 37.734375 
Q 15.375 33.984375 15.375 26.90625 
L 15.375 0 
z
" id="ArialMT-109"/>
     <path d="M 40.234375 0 
L 40.234375 6.546875 
Q 35.296875 -1.171875 25.734375 -1.171875 
Q 19.53125 -1.171875 14.328125 2.25 
Q 9.125 5.671875 6.265625 11.796875 
Q 3.421875 17.921875 3.421875 25.875 
Q 3.421875 33.640625 6 39.96875 
Q 8.59375 46.296875 13.765625 49.65625 
Q 18.953125 53.03125 25.34375 53.03125 
Q 30.03125 53.03125 33.6875 51.046875 
Q 37.359375 49.078125 39.65625 45.90625 
L 39.65625 71.578125 
L 48.390625 71.578125 
L 48.390625 0 
z
M 12.453125 25.875 
Q 12.453125 15.921875 16.640625 10.984375 
Q 20.84375 6.0625 26.5625 6.0625 
Q 32.328125 6.0625 36.34375 10.765625 
Q 40.375 15.484375 40.375 25.140625 
Q 40.375 35.796875 36.265625 40.765625 
Q 32.171875 45.75 26.171875 45.75 
Q 20.3125 45.75 16.375 40.96875 
Q 12.453125 36.1875 12.453125 25.875 
z
" id="ArialMT-100"/>
     <path d="M 9.078125 0 
L 9.078125 10.015625 
L 19.09375 10.015625 
L 19.09375 0 
z
" id="ArialMT-46"/>
    </defs>
    <g style="fill:#262626;" transform="translate(59.914688 19.14435)scale(0.12 -0.12)">
     <use xlink:href="#ArialMT-65"/>
     <use x="66.699219" xlink:href="#ArialMT-99"/>
     <use x="116.699219" xlink:href="#ArialMT-116"/>
     <use x="144.482422" xlink:href="#ArialMT-105"/>
     <use x="166.699219" xlink:href="#ArialMT-111"/>
     <use x="222.314453" xlink:href="#ArialMT-110"/>
     <use x="277.929688" xlink:href="#ArialMT-58"/>
     <use x="305.712891" xlink:href="#ArialMT-32"/>
     <use x="333.496094" xlink:href="#ArialMT-110"/>
     <use x="389.111328" xlink:href="#ArialMT-111"/>
     <use x="444.726562" xlink:href="#ArialMT-116"/>
     <use x="472.509766" xlink:href="#ArialMT-32"/>
     <use x="500.292969" xlink:href="#ArialMT-115"/>
     <use x="550.292969" xlink:href="#ArialMT-104"/>
     <use x="605.908203" xlink:href="#ArialMT-97"/>
     <use x="661.523438" xlink:href="#ArialMT-114"/>
     <use x="694.824219" xlink:href="#ArialMT-105"/>
     <use x="717.041016" xlink:href="#ArialMT-110"/>
     <use x="772.65625" xlink:href="#ArialMT-103"/>
     <use x="828.271484" xlink:href="#ArialMT-32"/>
     <use x="856.054688" xlink:href="#ArialMT-115"/>
     <use x="906.054688" xlink:href="#ArialMT-111"/>
     <use x="961.669922" xlink:href="#ArialMT-109"/>
     <use x="1044.970703" xlink:href="#ArialMT-101"/>
     <use x="1100.585938" xlink:href="#ArialMT-116"/>
     <use x="1128.369141" xlink:href="#ArialMT-104"/>
     <use x="1183.984375" xlink:href="#ArialMT-105"/>
     <use x="1206.201172" xlink:href="#ArialMT-110"/>
     <use x="1261.816406" xlink:href="#ArialMT-103"/>
     <use x="1317.431641" xlink:href="#ArialMT-32"/>
     <use x="1345.214844" xlink:href="#ArialMT-116"/>
     <use x="1372.998047" xlink:href="#ArialMT-104"/>
     <use x="1428.613281" xlink:href="#ArialMT-97"/>
     <use x="1484.228516" xlink:href="#ArialMT-116"/>
     <use x="1512.011719" xlink:href="#ArialMT-32"/>
     <use x="1539.794922" xlink:href="#ArialMT-121"/>
     <use x="1589.794922" xlink:href="#ArialMT-111"/>
     <use x="1645.410156" xlink:href="#ArialMT-117"/>
     <use x="1701.025391" xlink:href="#ArialMT-32"/>
     <use x="1728.808594" xlink:href="#ArialMT-100"/>
     <use x="1784.423828" xlink:href="#ArialMT-105"/>
     <use x="1806.640625" xlink:href="#ArialMT-100"/>
     <use x="1862.255859" xlink:href="#ArialMT-32"/>
     <use x="1890.039062" xlink:href="#ArialMT-97"/>
     <use x="1945.654297" xlink:href="#ArialMT-32"/>
     <use x="1973.4375" xlink:href="#ArialMT-108"/>
     <use x="1995.654297" xlink:href="#ArialMT-111"/>
     <use x="2051.269531" xlink:href="#ArialMT-110"/>
     <use x="2106.884766" xlink:href="#ArialMT-103"/>
     <use x="2162.5" xlink:href="#ArialMT-32"/>
     <use x="2190.283203" xlink:href="#ArialMT-116"/>
     <use x="2218.066406" xlink:href="#ArialMT-105"/>
     <use x="2240.283203" xlink:href="#ArialMT-109"/>
     <use x="2323.583984" xlink:href="#ArialMT-101"/>
     <use x="2379.199219" xlink:href="#ArialMT-32"/>
     <use x="2406.982422" xlink:href="#ArialMT-97"/>
     <use x="2462.597656" xlink:href="#ArialMT-103"/>
     <use x="2518.212891" xlink:href="#ArialMT-111"/>
     <use x="2573.828125" xlink:href="#ArialMT-46"/>
    </g>
   </g>
  </g>
 </g>
 <defs>
  <clipPath id="pdfc5d3d286">
   <rect height="141.932325" width="406.08" x="12.96" y="25.14435"/>
  </clipPath>
 </defs>
</svg>
