<svg xmlns="http://www.w3.org/2000/svg" width="1141" height="639" viewBox="0 0 1141 639">
  <defs>
    <linearGradient id="linearGradient-1" x1=".397%" x2="100%" y1="50.158%" y2="50%">
      <stop offset="0%" stop-color="#ABAFB4"/>
      <stop offset="100%" stop-color="#EEF1F8"/>
    </linearGradient>
    <linearGradient id="linearGradient-2" x1="50%" x2="50%" y1="50%" y2="100%">
      <stop offset="0%" stop-color="#FFF"/>
      <stop offset="100%" stop-color="#FFF" stop-opacity="0"/>
    </linearGradient>
    <linearGradient id="linearGradient-3" x1="50%" x2="50%" y1="50%" y2="100%">
      <stop offset="0%" stop-color="#FFF"/>
      <stop offset="100%" stop-color="#FFF" stop-opacity="0"/>
    </linearGradient>
  </defs>
  <g id="force-click-diagram" fill="none" fill-rule="evenodd" stroke="none" stroke-width="1">
    <path id="Path" fill="url(#linearGradient-1)" stroke="#111" stroke-linejoin="round" stroke-width="3" d="M2 269.787c-.03.749.037 1.22.201 1.414.164.194.579.294 1.245.299h1127.041c.967.065 1.564-.034 1.793-.299.228-.264.304-.943.225-2.035l.247-75.81a2 2 0 0 0-2.11-2.004L4.068 253.466a2 2 0 0 0-1.89 1.972L2 269.788h0zm0 340c-.03.749.037 1.22.201 1.414.164.194.579.294 1.245.299h1127.041c.967.065 1.564-.034 1.793-.299.228-.264.304-.943.225-2.035l.247-75.81a2 2 0 0 0-2.11-2.004L4.068 593.466a2 2 0 0 0-1.89 1.972L2 609.788h0z"/>
    <path id="Line-2" fill="gold" fill-rule="nonzero" d="M684 67v47h12l-14.5 29-14.5-29h12V67h5z"/>
    <path id="Line-2-Copy" fill="#ED213A" fill-rule="nonzero" d="M681 416v47h12l-14.5 29-14.5-29h12v-47h5z"/>
    <g id="top-fx" stroke="gold" stroke-linecap="square" stroke-width="3" transform="translate(492.5 170.287)">
      <path id="Line-3" d="M0 27.213c1.333-5.3 3.25-9.31 5.75-12.032 2.5-2.72 6.917-4.377 13.25-4.968"/>
      <path id="Line-3-Copy" d="M137 19.213c1.333-5.3 3.25-9.31 5.75-12.032 2.5-2.72 6.917-4.377 13.25-4.968" transform="rotate(81 146.5 10.713)"/>
    </g>
    <g id="bottom-fx-light" stroke="gold" stroke-linecap="square" stroke-opacity="0" stroke-width="3" transform="rotate(-1 29734.638 -28147.735)">
      <path id="Line-3" d="M0 27.213c1.333-5.3 3.25-9.31 5.75-12.032 2.5-2.72 6.917-4.377 13.25-4.968"/>
      <path id="Line-3-Copy" d="M137 19.213c1.333-5.3 3.25-9.31 5.75-12.032 2.5-2.72 6.917-4.377 13.25-4.968" transform="rotate(81 146.5 10.713)"/>
    </g>
    <g id="bottom-fx" stroke="#ED213A" stroke-linecap="square" stroke-width="3" transform="translate(482.5 501.247)">
      <path id="Line-3-Copy-2" d="M15 42.04c1.404-7.555 3.423-13.271 6.058-17.15 2.634-3.879 7.288-6.24 13.96-7.083"/>
      <path id="Line-3-Copy-4" d="M0 40.04c2.104-10.288 5.13-18.073 9.078-23.355C13.026 11.403 20 8.19 30 7.04"/>
      <path id="Line-3-Copy-3" d="M146.177 10.04c5.735.695 10.225 2.499 13.469 5.412C162.889 18.366 165.34 24.215 167 33"/>
      <path id="Line-3-Copy-5" d="M150 0c8.263.998 14.73 3.591 19.404 7.779C174.077 11.966 177.61 20.373 180 33"/>
    </g>
    <g id="top-move-group" stroke="#111" stroke-width="3" transform="translate(1.988 -.254)">
      <path id="Path-2" fill="#F0F1F5" d="M0 240.64v6.692a2 2 0 0 0 2.11 1.997l1126.77-61.561a2 2 0 0 0 1.89-1.997v-6.354a2 2 0 0 0-2.108-1.997L1.892 238.642A2 2 0 0 0 0 240.64z"/>
      <path id="Path-4" d="M494.835.254c-.097-.007-.136-.007-.116 0 .03.01.293-.576.293 0 0 5.72.757 42.839 2.272 111.355a18 18 0 0 0 2.563 8.867l45.05 75.042a18 18 0 0 0 15.433 8.736h24.725c9.008 0 16.63-6.66 17.837-15.586 3.562-26.318 5.576-48.178 6.042-65.58.832-31.092-4.41-23.2-4.41-62.523V.254"/>
      <path id="Path-5" d="M605.012 91.254c-11.41 29.219-17.395 50.372-17.954 63.46-.559 13.088 3.917 24.268 13.427 33.54"/>
    </g>
    <g id="bottom-move-group" stroke="#111" stroke-width="3" transform="translate(1.988 319)">
      <path id="Path-4" d="M495.194 8.815c-.243-8.385-.243-5.469 0 8.749.238 13.866.94 52.119 2.106 114.757a18 18 0 0 0 2.564 8.93l45.033 75.014A18 18 0 0 0 560.33 225h24.725c9.008 0 16.63-6.66 17.837-15.586 3.562-26.318 5.576-48.178 6.042-65.579.832-31.093-5.272-22.429-4.41-62.523.574-26.73.574-53.834 0-81.312"/>
      <path id="Path-5" d="M605.012 112c-11.41 29.219-17.395 50.372-17.954 63.46-.559 13.089 3.917 24.268 13.427 33.54"/>
      <path id="Path-2" fill="#F0F1F5" d="M0 261.386v6.693a2 2 0 0 0 2.11 1.997l1126.77-61.562a2 2 0 0 0 1.89-1.997v-6.353a2 2 0 0 0-2.108-1.997L1.892 259.389A2 2 0 0 0 0 261.386z"/>
    </g>
    <path id="Combined-Shape" fill="#111" d="M928.965 464.6c2.585 0 2.585 0 5.252 1.127 2.49 1.053 2.49 1.053 4.093 3.04l.225.288-2.915 2.09-.162-.244c-.922-1.321-.922-1.321-2.56-2.204-1.788-.962-1.788-.962-3.878-.962-2.255 0-2.255 0-4.07.798-1.815.797-1.815.797-3.108 2.2-1.292 1.402-1.292 1.402-1.98 3.3-.687 1.897-.687 1.897-.687 4.097s0 2.2.688 4.07c.687 1.87.687 1.87 1.952 3.273 1.265 1.402 1.265 1.402 3.08 2.2 1.815.797 1.815.797 4.07.797 2.475 0 2.475 0 4.18-.935 1.534-.842 1.534-.842 2.579-2.129l.226-.291 2.805 2.09-.28.333c-1.57 1.803-1.57 1.803-3.763 2.912-2.392 1.21-2.392 1.21-5.747 1.21-3.135 0-3.135 0-5.665-1.018-2.53-1.017-2.53-1.017-4.317-2.832-1.788-1.815-1.788-1.815-2.778-4.29s-.99-2.475-.99-5.39c0-2.915 0-2.915.99-5.39.99-2.475.99-2.475 2.777-4.29 1.788-1.815 1.788-1.815 4.318-2.832 2.53-1.018 2.53-1.018 5.665-1.018zm-55.11 0c2.585 0 2.585 0 5.252 1.127 2.49 1.053 2.49 1.053 4.093 3.04l.225.288-2.915 2.09-.162-.244c-.922-1.321-.922-1.321-2.56-2.204-1.788-.962-1.788-.962-3.878-.962-2.255 0-2.255 0-4.07.798-1.815.797-1.815.797-3.108 2.2-1.292 1.402-1.292 1.402-1.98 3.3-.687 1.897-.687 1.897-.687 4.097s0 2.2.688 4.07c.687 1.87.687 1.87 1.952 3.273 1.265 1.402 1.265 1.402 3.08 2.2 1.815.797 1.815.797 4.07.797 2.475 0 2.475 0 4.18-.935 1.534-.842 1.534-.842 2.579-2.129l.226-.291 2.805 2.09-.28.333c-1.57 1.803-1.57 1.803-3.763 2.912-2.392 1.21-2.392 1.21-5.747 1.21-3.135 0-3.135 0-5.665-1.018-2.53-1.017-2.53-1.017-4.318-2.832-1.787-1.815-1.787-1.815-2.777-4.29-.99-2.475-.99-2.475-.99-5.39 0-2.915 0-2.915.99-5.39.99-2.475.99-2.475 2.777-4.29 1.788-1.815 1.788-1.815 4.318-2.832 2.53-1.018 2.53-1.018 5.665-1.018zm-45.98 0c3.025 0 3.025 0 5.335 1.017 2.31 1.018 2.31 1.018 3.85 2.75 1.54 1.733 1.54 1.733 2.338 4.043.717 2.079.717 2.079.789 4.425l.008.525v.825l-.006.3c-.008.203-.008.203-.027.418l-.022.217H818.8l.02.425c.114 1.69.114 1.69.75 3.205.715 1.705.715 1.705 1.98 2.97 1.265 1.265 1.265 1.265 2.97 2.007 1.705.743 1.705.743 3.685.743 2.915 0 2.915 0 5.032-1.348 1.942-1.235 1.942-1.235 3.028-2.817l.19-.29 2.805 2.2-.29.358c-2.194 2.636-2.194 2.636-4.798 3.822-2.777 1.265-2.777 1.265-5.967 1.265-2.86 0-2.86 0-5.308-1.018-2.447-1.017-2.447-1.017-4.207-2.832-1.76-1.815-1.76-1.815-2.778-4.29-1.017-2.475-1.017-2.475-1.017-5.39 0-2.915 0-2.915.99-5.39.99-2.475.99-2.475 2.75-4.29s1.76-1.815 4.125-2.832c2.365-1.018 2.365-1.018 5.115-1.018zm-26.73 0c2.585 0 2.585 0 5.253 1.127 2.49 1.053 2.49 1.053 4.092 3.04l.225.288-2.915 2.09-.162-.244c-.922-1.321-.922-1.321-2.56-2.204-1.788-.962-1.788-.962-3.878-.962-2.255 0-2.255 0-4.07.798-1.815.797-1.815.797-3.107 2.2-1.293 1.402-1.293 1.402-1.98 3.3-.688 1.897-.688 1.897-.688 4.097s0 2.2.688 4.07c.687 1.87.687 1.87 1.952 3.273 1.265 1.402 1.265 1.402 3.08 2.2 1.815.797 1.815.797 4.07.797 2.475 0 2.475 0 4.18-.935 1.534-.842 1.534-.842 2.579-2.129l.226-.291 2.805 2.09-.28.333c-1.57 1.803-1.57 1.803-3.762 2.912-2.393 1.21-2.393 1.21-5.748 1.21-3.135 0-3.135 0-5.665-1.018-2.53-1.017-2.53-1.017-4.317-2.832-1.788-1.815-1.788-1.815-2.778-4.29s-.99-2.475-.99-5.39c0-2.915 0-2.915.99-5.39.99-2.475.99-2.475 2.778-4.29 1.787-1.815 1.787-1.815 4.317-2.832 2.53-1.018 2.53-1.018 5.665-1.018zm-53.46 0c3.025 0 3.025 0 5.555 1.017 2.53 1.018 2.53 1.018 4.345 2.833 1.815 1.815 1.815 1.815 2.832 4.29 1.018 2.475 1.018 2.475 1.018 5.39 0 2.915 0 2.915-1.017 5.39-1.018 2.475-1.018 2.475-2.833 4.29-1.815 1.815-1.815 1.815-4.345 2.832-2.53 1.018-2.53 1.018-5.555 1.018-2.97 0-2.97 0-5.5-1.018-2.53-1.017-2.53-1.017-4.345-2.832s-1.815-1.815-2.832-4.29c-1.018-2.475-1.018-2.475-1.018-5.39 0-2.915 0-2.915 1.018-5.39 1.017-2.475 1.017-2.475 2.832-4.29s1.815-1.815 4.345-2.832c2.53-1.018 2.53-1.018 5.5-1.018zm-19.03-12.54v3.52H709.13v13.53h18.15v3.465h-18.15V491h-3.96v-38.94h23.485zm219.78-2.64v27.445h.165l11.88-11.605h5.39l-12.98 11.77 14.3 13.97h-5.5l-13.09-13.53h-.165V491h-3.74v-41.58h3.74zm-41.305 15.84V491h-3.74v-25.74h3.74zm-13.805-15.84V491h-3.74v-41.58h3.74zM781.4 464.6c.715 0 .715 0 1.293.055.433.041.433.041.881.144l.301.076-.495 3.52-.103-.031c-.337-.095-.337-.095-.997-.189-.77-.11-.77-.11-1.54-.11-1.485 0-1.485 0-2.86.55-1.375.55-1.375.55-2.393 1.733-1.017 1.182-1.017 1.182-1.65 3.024-.58 1.69-.58 1.69-.628 4.002l-.004.426V491h-3.74v-20.315c-.006-.988-.006-.988-.055-2.455-.046-1.375-.046-1.375-.13-2.52l-.035-.45h3.575l.042.427c.079.871.079.871.123 1.883.047 1.084.047 1.084.054 1.845l.001.245h.11l.163-.318c1.094-2.037 1.094-2.037 3.137-3.34 2.2-1.402 2.2-1.402 4.95-1.402zm-33.715 3.135c-2.255 0-2.255 0-4.042.825-1.788.825-1.788.825-3.053 2.228-1.265 1.402-1.265 1.402-1.952 3.3-.688 1.897-.688 1.897-.688 4.042 0 2.145 0 2.145.688 4.043.687 1.897.687 1.897 1.952 3.3 1.265 1.402 1.265 1.402 3.053 2.2 1.787.797 1.787.797 4.042.797s2.255 0 4.07-.798c1.815-.797 1.815-.797 3.08-2.2 1.265-1.402 1.265-1.402 1.952-3.3.688-1.897.688-1.897.688-4.042 0-2.145 0-2.145-.688-4.043-.687-1.897-.687-1.897-1.952-3.3-1.265-1.402-1.265-1.402-3.08-2.227-1.815-.825-1.815-.825-4.07-.825zm80.19 0c-1.87 0-1.87 0-3.465.688-1.595.687-1.595.687-2.805 1.87-1.21 1.182-1.21 1.182-1.925 2.695-.636 1.344-.636 1.344-.793 2.797l-.032.365H836.4c-.165-3.63-.165-3.63-2.337-6.022-2.173-2.393-2.173-2.393-6.188-2.393zm77.385-15.015c.99 0 .99 0 1.815.742.825.743.825.743.825 1.898 0 1.155 0 1.155-.825 1.897-.825.743-.825.743-1.815.743s-.99 0-1.815-.743c-.825-.742-.825-.742-.825-1.897s0-1.155.825-1.898c.825-.742.825-.742 1.815-.742zm28.232-37.252v12.383l.009.333c.034.659.034.659.209 1.262.217.754.217.754.666 1.349.45.594.45.594 1.19.942.739.348.739.348 1.783.348s1.044 0 1.784-.348c.739-.348.739-.348 1.203-.942.464-.595.464-.595.667-1.349.162-.603.162-.603.195-1.262l.008-.333v-12.383h4.959v12.789l-.008.408c-.061 1.617-.061 1.617-.615 2.97-.624 1.523-.624 1.523-1.784 2.61-1.16 1.088-1.16 1.088-2.798 1.697-1.639.609-1.639.609-3.64.609-2.03 0-2.03 0-3.654-.609s-1.624-.609-2.755-1.697c-1.131-1.087-1.131-1.087-1.74-2.61-.541-1.353-.541-1.353-.601-2.97l-.008-.408v-12.789h4.93zm-14.587-.522c1.74 0 1.74 0 3.553.638 1.63.574 1.63.574 2.898 1.642l.277.243-3.161 3.335-.166-.198c-.6-.674-.6-.674-1.502-1.092-1.029-.479-1.029-.479-1.986-.479-.493 0-.493 0-1 .087-.508.087-.508.087-.914.333-.406.247-.406.247-.682.639-.275.391-.275.391-.275 1 0 .522 0 .522.217.87.218.348.218.348.639.609.42.261.42.261 1 .478.58.218.58.218 1.305.45 1.044.348 1.044.348 2.175.769 1.131.42 1.131.42 2.059 1.116.928.696.928.696 1.537 1.725.609 1.03.609 1.03.609 2.567 0 1.769 0 1.769-.653 3.06-.652 1.29-.652 1.29-1.754 2.131-1.102.841-1.102.841-2.523 1.247-1.421.406-1.421.406-2.929.406-2.204 0-2.204 0-4.263-.769-1.872-.698-1.872-.698-3.168-1.936l-.254-.253 3.248-3.306.196.227c.712.779.712.779 1.79 1.325 1.233.623 1.233.623 2.451.623.551 0 .551 0 1.073-.116.522-.116.522-.116.913-.377.392-.261.392-.261.624-.696.232-.435.232-.435.232-1.044 0-.58 0-.58-.29-.986s-.29-.406-.827-.74c-.536-.333-.536-.333-1.334-.608-.797-.276-.797-.276-1.812-.595-.986-.319-.986-.319-1.928-.754-.943-.435-.943-.435-1.683-1.116-.739-.682-.739-.682-1.188-1.654-.45-.971-.45-.971-.45-2.363 0-1.711 0-1.711.696-2.929.696-1.218.696-1.218 1.827-2.001 1.131-.783 1.131-.783 2.552-1.146 1.421-.362 1.421-.362 2.871-.362zm-17.139 0c1.74 0 1.74 0 3.553.638 1.63.574 1.63.574 2.898 1.642l.277.243-3.161 3.335-.166-.198c-.6-.674-.6-.674-1.502-1.092-1.029-.479-1.029-.479-1.986-.479-.493 0-.493 0-1 .087-.508.087-.508.087-.914.333-.406.247-.406.247-.682.639-.275.391-.275.391-.275 1 0 .522 0 .522.217.87.218.348.218.348.639.609.42.261.42.261 1 .478.58.218.58.218 1.305.45 1.044.348 1.044.348 2.175.769 1.131.42 1.131.42 2.059 1.116.928.696.928.696 1.537 1.725.609 1.03.609 1.03.609 2.567 0 1.769 0 1.769-.653 3.06-.652 1.29-.652 1.29-1.754 2.131-1.102.841-1.102.841-2.523 1.247-1.421.406-1.421.406-2.929.406-2.204 0-2.204 0-4.263-.769-1.872-.698-1.872-.698-3.168-1.936l-.254-.253 3.248-3.306.196.227c.712.779.712.779 1.79 1.325 1.233.623 1.233.623 2.451.623.551 0 .551 0 1.073-.116.522-.116.522-.116.913-.377.392-.261.392-.261.624-.696.232-.435.232-.435.232-1.044 0-.58 0-.58-.29-.986s-.29-.406-.827-.74c-.536-.333-.536-.333-1.334-.608-.797-.276-.797-.276-1.812-.595-.986-.319-.986-.319-1.928-.754-.943-.435-.943-.435-1.683-1.116-.739-.682-.739-.682-1.188-1.654-.45-.971-.45-.971-.45-2.363 0-1.711 0-1.711.696-2.929.696-1.218.696-1.218 1.827-2.001 1.131-.783 1.131-.783 2.552-1.146 1.421-.362 1.421-.362 2.871-.362zm-160.689.522v4.205h-9.019v3.857h8.526v3.973h-8.526v4.263h9.541V436h-14.326v-20.532h13.804zm14.703 0L764.306 436h-5.51l-1.595-4.031h-7.946L747.747 436h-5.394l8.613-20.532h4.814zm13.253 0l4.756 14.558h.116l4.727-14.558h5.481L776.196 436h-4.959l-7.772-20.532h5.568zm21.75 0V436h-4.988v-20.532h4.988zm192.415 0v4.205h-9.019v3.857h8.526v3.973h-8.526v4.263h9.541V436h-14.326v-20.532h13.804zm-25.201 0l.491.008c1.222.043 1.222.043 2.394.296 1.407.305 1.407.305 2.524 1.03 1.116.725 1.116.725 1.783 1.914.667 1.189.667 1.189.667 2.958 0 2.088 0 2.088-1.131 3.509-1.044 1.312-1.044 1.312-2.83 1.932l-.302.098 5.365 8.787h-5.8l-4.437-8.149h-1.682V436h-4.872v-20.532h7.83zm-149.176 0v4.205h-9.019v3.857h8.526v3.973h-8.526v4.263h9.541V436h-14.326v-20.532h13.804zm-98.745 0v7.772h8.004v-7.772h4.959V436h-4.959v-8.584h-8.004V436h-4.959v-20.532h4.959zm180.612 0v4.205h-9.019v3.857h8.526v3.973h-8.526v4.263h9.541V436h-14.326v-20.532h13.804zm-25.201 0l.491.008c1.222.043 1.222.043 2.394.296 1.407.305 1.407.305 2.524 1.03 1.116.725 1.116.725 1.783 1.914.667 1.189.667 1.189.667 2.958 0 2.088 0 2.088-1.131 3.509-1.044 1.312-1.044 1.312-2.83 1.932l-.302.098 5.365 8.787h-5.8l-4.437-8.149h-1.682V436h-4.872v-20.532h7.83zm-18.85 0l.476.007c1.415.04 1.415.04 2.67.326 1.465.334 1.465.334 2.553 1.074 1.087.739 1.087.739 1.71 1.942.624 1.204.624 1.204.624 2.973 0 1.798 0 1.798-.667 3.03-.667 1.233-.667 1.233-1.798 1.987s-1.131.754-2.61 1.102c-1.268.298-1.268.298-2.62.34l-.454.008h-2.465V436h-4.959v-20.532h7.54zm-26.187 0l.491.008c1.222.043 1.222.043 2.394.296 1.407.305 1.407.305 2.524 1.03 1.116.725 1.116.725 1.783 1.914.667 1.189.667 1.189.667 2.958 0 2.088 0 2.088-1.131 3.509-1.044 1.312-1.044 1.312-2.83 1.932l-.302.098 5.365 8.787h-5.8l-4.437-8.149h-1.682V436h-4.872v-20.532h7.83zm-67.164 5.481l-2.61 7.047h5.162l-2.552-7.047zm92.945-1.479h-2.175v4.843h2.088c.696 0 .696 0 1.334-.116.638-.116.638-.116 1.146-.406.507-.29.507-.29.797-.769.29-.478.29-.478.29-1.203 0-.725 0-.725-.29-1.189-.29-.464-.29-.464-.783-.725-.493-.261-.493-.261-1.117-.348-.623-.087-.623-.087-1.29-.087zm111.418 0h-2.639v4.785h2.349c.609 0 .609 0 1.247-.101.638-.102.638-.102 1.16-.363.522-.261.522-.261.856-.754.333-.493.333-.493.333-1.276 0-.725 0-.725-.305-1.175-.304-.449-.304-.449-.783-.696-.478-.246-.478-.246-1.072-.333-.595-.087-.595-.087-1.146-.087zm-92.51 0H862.5v4.785h2.349c.609 0 .609 0 1.247-.101.638-.102.638-.102 1.16-.363.522-.261.522-.261.856-.754.333-.493.333-.493.333-1.276 0-.725 0-.725-.305-1.175-.304-.449-.304-.449-.783-.696-.478-.246-.478-.246-1.072-.333-.595-.087-.595-.087-1.146-.087zm-45.037 0h-2.639v4.785h2.349c.609 0 .609 0 1.247-.101.638-.102.638-.102 1.16-.363.522-.261.522-.261.855-.754.334-.493.334-.493.334-1.276 0-.725 0-.725-.304-1.175-.305-.449-.305-.449-.784-.696-.478-.246-.478-.246-1.073-.333-.594-.087-.594-.087-1.145-.087zM975.91 115.6c2.585 0 2.585 0 5.253 1.128 2.49 1.052 2.49 1.052 4.092 3.038l.225.289-2.915 2.09-.162-.244c-.922-1.321-.922-1.321-2.56-2.203-1.788-.963-1.788-.963-3.878-.963-2.255 0-2.255 0-4.07.797-1.815.798-1.815.798-3.107 2.2-1.293 1.403-1.293 1.403-1.98 3.3-.688 1.898-.688 1.898-.688 4.098s0 2.2.688 4.07c.687 1.87.687 1.87 1.952 3.273 1.265 1.402 1.265 1.402 3.08 2.2 1.815.797 1.815.797 4.07.797 2.475 0 2.475 0 4.18-.935 1.534-.841 1.534-.841 2.579-2.129l.226-.291 2.805 2.09-.28.333c-1.57 1.803-1.57 1.803-3.762 2.912-2.393 1.21-2.393 1.21-5.748 1.21-3.135 0-3.135 0-5.665-1.017-2.53-1.018-2.53-1.018-4.317-2.833-1.788-1.815-1.788-1.815-2.778-4.29s-.99-2.475-.99-5.39c0-2.915 0-2.915.99-5.39.99-2.475.99-2.475 2.778-4.29 1.787-1.815 1.787-1.815 4.317-2.832 2.53-1.018 2.53-1.018 5.665-1.018zm-214.115 0c3.025 0 3.025 0 5.555 1.018 2.53 1.017 2.53 1.017 4.345 2.832s1.815 1.815 2.832 4.29c1.018 2.475 1.018 2.475 1.018 5.39 0 2.915 0 2.915-1.017 5.39-1.018 2.475-1.018 2.475-2.833 4.29-1.815 1.815-1.815 1.815-4.345 2.833-2.53 1.017-2.53 1.017-5.555 1.017-2.97 0-2.97 0-5.5-1.017-2.53-1.018-2.53-1.018-4.345-2.833-1.815-1.815-1.815-1.815-2.833-4.29-1.017-2.475-1.017-2.475-1.017-5.39 0-2.915 0-2.915 1.017-5.39 1.018-2.475 1.018-2.475 2.833-4.29 1.815-1.815 1.815-1.815 4.345-2.832 2.53-1.018 2.53-1.018 5.5-1.018zm99.88 0c2.09 0 2.09 0 3.905.578 1.815.577 1.815.577 3.19 1.732s1.375 1.155 2.145 2.915c.706 1.613.706 1.613.765 3.735l.005.39v11.275l.007.75c.02 1.134.02 1.134.103 2.33.096 1.396.096 1.396.277 2.412l.053.283h-3.355l-.064-.38c-.123-.775-.123-.775-.211-1.655-.082-.825-.082-.825-.103-1.62l-.007-.525h-.11l-.237.338c-1.672 2.322-1.672 2.322-3.75 3.375-2.228 1.127-2.228 1.127-5.363 1.127-1.485 0-1.485 0-3.053-.412-1.567-.413-1.567-.413-2.86-1.348-1.292-.935-1.292-.935-2.144-2.42-.853-1.485-.853-1.485-.853-3.63 0-2.97 0-2.97 1.513-4.702 1.512-1.733 1.512-1.733 4.042-2.585 2.53-.853 2.53-.853 5.802-1.1 2.806-.213 2.806-.213 5.792-.243l1.001-.005v-.825l-.005-.348c-.088-3.094-.088-3.094-1.755-4.657-1.76-1.65-1.76-1.65-5.115-1.65-2.31 0-2.31 0-4.29.825-1.782.742-1.782.742-3.074 1.93l-.281.27-2.09-2.475.251-.242c1.545-1.433 1.545-1.433 3.957-2.398 2.612-1.045 2.612-1.045 5.912-1.045zm59.125 0c2.585 0 2.585 0 5.253 1.128 2.49 1.052 2.49 1.052 4.092 3.038l.225.289-2.915 2.09-.162-.244c-.922-1.321-.922-1.321-2.56-2.203-1.788-.963-1.788-.963-3.878-.963-2.255 0-2.255 0-4.07.797-1.815.798-1.815.798-3.107 2.2-1.293 1.403-1.293 1.403-1.98 3.3-.688 1.898-.688 1.898-.688 4.098s0 2.2.688 4.07c.687 1.87.687 1.87 1.952 3.273 1.265 1.402 1.265 1.402 3.08 2.2 1.815.797 1.815.797 4.07.797 2.475 0 2.475 0 4.18-.935 1.534-.841 1.534-.841 2.579-2.129l.226-.291 2.805 2.09-.28.333c-1.57 1.803-1.57 1.803-3.762 2.912-2.393 1.21-2.393 1.21-5.748 1.21-3.135 0-3.135 0-5.665-1.017-2.53-1.018-2.53-1.018-4.317-2.833-1.788-1.815-1.788-1.815-2.778-4.29s-.99-2.475-.99-5.39c0-2.915 0-2.915.99-5.39.99-2.475.99-2.475 2.778-4.29 1.787-1.815 1.787-1.815 4.317-2.832 2.53-1.018 2.53-1.018 5.665-1.018zm-88.33 0c4.895 0 4.895 0 7.342 2.915 2.342 2.788 2.342 2.788 2.443 7.287l.005.413V142h-3.74v-14.245l-.005-.447c-.079-3.76-.079-3.76-1.507-6.098-1.513-2.475-1.513-2.475-5.143-2.475-2.035 0-2.035 0-3.438.825-1.402.825-1.402.825-2.255 2.172-.852 1.348-.852 1.348-1.237 3.053-.33 1.461-.33 1.461-.377 3.004l-.008.516V142h-3.74v-15.015l-.006-.528c-.033-1.562-.033-1.562-.269-2.882-.275-1.54-.275-1.54-.962-2.612-.688-1.073-.688-1.073-1.898-1.65-1.21-.578-1.21-.578-3.08-.578-1.32 0-1.32 0-2.668.605-1.347.605-1.347.605-2.42 1.843-1.072 1.237-1.072 1.237-1.732 3.134-.6 1.726-.6 1.726-.655 4.019l-.005.464V142h-3.74v-20.315c-.006-.988-.006-.988-.055-2.455-.046-1.375-.046-1.375-.13-2.52l-.035-.45h3.575l.042.427c.079.871.079.871.123 1.883.047 1.084.047 1.084.054 1.845l.001.245h.11l.152-.297c1.1-2.052 1.1-2.052 3.23-3.36 2.283-1.403 2.283-1.403 5.088-1.403 1.045 0 1.045 0 2.173.22 1.127.22 1.127.22 2.2.853 1.072.632 1.072.632 1.98 1.677.907 1.045.907 1.045 1.567 2.695 1.32-2.64 1.32-2.64 3.602-4.043 2.283-1.402 2.283-1.402 5.418-1.402zm-119.35-12.54l22.66 33.165h.11V103.06h3.96V142h-4.95l-22.66-33.495h-.11V142h-3.96v-38.94h4.95zm282.26-2.64v27.445h.165l11.88-11.605h5.39l-12.98 11.77 14.3 13.97h-5.5l-13.09-13.53h-.165V142h-3.74v-41.58h3.74zm-41.305 15.84V142h-3.74v-25.74h3.74zm-13.805-15.84V142h-3.74v-41.58h3.74zm-55.11 0V142h-3.74v-41.58h3.74zm-89.65 15.18c.715 0 .715 0 1.293.055.433.041.433.041.881.144l.301.076-.495 3.52-.103-.031c-.337-.095-.337-.095-.997-.189-.77-.11-.77-.11-1.54-.11-1.485 0-1.485 0-2.86.55-1.375.55-1.375.55-2.393 1.733-1.017 1.182-1.017 1.182-1.65 3.025-.58 1.688-.58 1.688-.628 4.001l-.004.426V142h-3.74v-20.315c-.006-.988-.006-.988-.055-2.455-.046-1.375-.046-1.375-.13-2.52l-.035-.45h3.575l.042.427c.079.871.079.871.123 1.883.047 1.084.047 1.084.054 1.845l.001.245h.11l.163-.318c1.094-2.037 1.094-2.037 3.137-3.34 2.2-1.402 2.2-1.402 4.95-1.402zm72.655 13.53h-1.1l-.925.008c-1.852.03-1.852.03-3.722.184-2.338.193-2.338.193-4.236.77-1.897.578-1.897.578-3.107 1.678-1.21 1.1-1.21 1.1-1.21 2.915 0 1.375 0 1.375.523 2.31.522.935.522.935 1.402 1.512.88.578.88.578 1.952.826 1.073.247 1.073.247 2.173.247 1.98 0 1.98 0 3.52-.688 1.54-.687 1.54-.687 2.585-1.87 1.045-1.182 1.045-1.182 1.595-2.722.481-1.348.481-1.348.541-2.821l.009-.424v-1.925zm-106.37-10.395c-2.255 0-2.255 0-4.042.825-1.788.825-1.788.825-3.053 2.227-1.265 1.403-1.265 1.403-1.953 3.3-.687 1.898-.687 1.898-.687 4.043 0 2.145 0 2.145.688 4.043.687 1.897.687 1.897 1.952 3.3 1.265 1.402 1.265 1.402 3.053 2.2 1.787.797 1.787.797 4.042.797s2.255 0 4.07-.797c1.815-.798 1.815-.798 3.08-2.2 1.265-1.403 1.265-1.403 1.952-3.3.688-1.898.688-1.898.688-4.043 0-2.145 0-2.145-.688-4.042-.687-1.898-.687-1.898-1.952-3.3-1.265-1.403-1.265-1.403-3.08-2.228-1.815-.825-1.815-.825-4.07-.825zm190.41-15.015c.99 0 .99 0 1.815.743.825.742.825.742.825 1.897s0 1.155-.825 1.897c-.825.743-.825.743-1.815.743s-.99 0-1.815-.743c-.825-.742-.825-.742-.825-1.897s0-1.155.825-1.897c.825-.743.825-.743 1.815-.743zm-19.831-37.252v12.383l.009.333c.034.659.034.659.208 1.262.218.754.218.754.668 1.349.449.594.449.594 1.188.942.74.348.74.348 1.784.348s1.044 0 1.784-.348c.739-.348.739-.348 1.203-.942.464-.595.464-.595.667-1.349.162-.603.162-.603.195-1.262l.008-.333V66.468h4.959v12.789l-.008.408c-.061 1.617-.061 1.617-.615 2.97-.624 1.523-.624 1.523-1.784 2.61-1.16 1.088-1.16 1.088-2.798 1.697-1.639.609-1.639.609-3.64.609-2.03 0-2.03 0-3.654-.609s-1.624-.609-2.755-1.696c-1.131-1.088-1.131-1.088-1.74-2.61-.541-1.354-.541-1.354-.601-2.97l-.008-.409V66.468h4.93zm-14.587-.522c1.74 0 1.74 0 3.553.638 1.63.574 1.63.574 2.898 1.642l.277.243-3.161 3.335-.166-.198c-.6-.674-.6-.674-1.501-1.093-1.03-.478-1.03-.478-1.987-.478-.493 0-.493 0-1 .087-.508.087-.508.087-.914.334-.406.246-.406.246-.681.638-.276.391-.276.391-.276 1 0 .522 0 .522.218.87.217.348.217.348.637.609.421.261.421.261 1.001.479.58.217.58.217 1.305.449 1.044.348 1.044.348 2.175.768 1.131.421 1.131.421 2.059 1.117.928.696.928.696 1.537 1.726.609 1.029.609 1.029.609 2.566 0 1.769 0 1.769-.653 3.06-.652 1.29-.652 1.29-1.754 2.131-1.102.841-1.102.841-2.523 1.247-1.421.406-1.421.406-2.929.406-2.204 0-2.204 0-4.263-.769-1.872-.698-1.872-.698-3.168-1.936l-.254-.253 3.248-3.306.196.227c.712.779.712.779 1.79 1.325 1.233.623 1.233.623 2.451.623.551 0 .551 0 1.073-.116.522-.116.522-.116.913-.377.392-.261.392-.261.624-.696.232-.435.232-.435.232-1.044 0-.58 0-.58-.29-.986s-.29-.406-.827-.74c-.536-.333-.536-.333-1.333-.609-.798-.275-.798-.275-1.813-.594-.986-.319-.986-.319-1.928-.754-.943-.435-.943-.435-1.683-1.117-.739-.681-.739-.681-1.189-1.653-.449-.971-.449-.971-.449-2.363 0-1.711 0-1.711.696-2.929.696-1.218.696-1.218 1.827-2.001 1.131-.783 1.131-.783 2.552-1.145 1.421-.363 1.421-.363 2.871-.363zm-17.139 0c1.74 0 1.74 0 3.553.638 1.63.574 1.63.574 2.898 1.642l.277.243-3.161 3.335-.166-.198c-.6-.674-.6-.674-1.501-1.093-1.03-.478-1.03-.478-1.987-.478-.493 0-.493 0-1 .087-.508.087-.508.087-.914.334-.406.246-.406.246-.682.638-.275.391-.275.391-.275 1 0 .522 0 .522.217.87.218.348.218.348.638.609.421.261.421.261 1.001.479.58.217.58.217 1.305.449 1.044.348 1.044.348 2.175.768 1.131.421 1.131.421 2.059 1.117.928.696.928.696 1.537 1.726.609 1.029.609 1.029.609 2.566 0 1.769 0 1.769-.653 3.06-.652 1.29-.652 1.29-1.754 2.131-1.102.841-1.102.841-2.523 1.247-1.421.406-1.421.406-2.929.406-2.204 0-2.204 0-4.263-.769-1.872-.698-1.872-.698-3.168-1.936l-.254-.253 3.248-3.306.196.227c.712.779.712.779 1.79 1.325 1.233.623 1.233.623 2.451.623.551 0 .551 0 1.073-.116.522-.116.522-.116.913-.377.392-.261.392-.261.624-.696.232-.435.232-.435.232-1.044 0-.58 0-.58-.29-.986s-.29-.406-.827-.74c-.536-.333-.536-.333-1.333-.609-.798-.275-.798-.275-1.813-.594-.986-.319-.986-.319-1.928-.754-.943-.435-.943-.435-1.683-1.117-.739-.681-.739-.681-1.188-1.653-.45-.971-.45-.971-.45-2.363 0-1.711 0-1.711.696-2.929.696-1.218.696-1.218 1.827-2.001 1.131-.783 1.131-.783 2.552-1.145 1.421-.363 1.421-.363 2.871-.363zm-157.876-.029c2.436 0 2.436 0 4.524.74 1.898.672 1.898.672 3.15 1.763l.243.223-3.132 3.567-.188-.205c-.686-.703-.686-.703-1.726-1.172-1.189-.537-1.189-.537-2.697-.537-1.305 0-1.305 0-2.407.478-1.102.479-1.102.479-1.914 1.335-.812.855-.812.855-1.261 2.03-.45 1.174-.45 1.174-.45 2.566 0 1.421 0 1.421.406 2.61.406 1.189.406 1.189 1.203 2.044.798.856.798.856 1.972 1.335 1.175.478 1.175.478 2.683.478.87 0 .87 0 1.653-.13.626-.105.626-.105 1.179-.311l.271-.11V78.88h-3.915v-4.002h8.468v10.875l-.385.191c-1.375.654-1.375.654-3.138 1.085-2.016.493-2.016.493-4.394.493-2.465 0-2.465 0-4.538-.783-2.074-.783-2.074-.783-3.567-2.204-1.494-1.421-1.494-1.421-2.335-3.407-.841-1.987-.841-1.987-.841-4.423 0-2.465 0-2.465.856-4.466.855-2.001.855-2.001 2.363-3.407 1.508-1.407 1.508-1.407 3.538-2.161s2.03-.754 4.379-.754zm17.081.551v7.772h8.004v-7.772h4.959V87h-4.959v-8.584h-8.004V87h-4.959V66.468h4.959zm104.516 0l.491.008c1.222.043 1.222.043 2.394.296 1.407.305 1.407.305 2.524 1.03 1.116.725 1.116.725 1.783 1.914.667 1.189.667 1.189.667 2.958 0 2.088 0 2.088-1.131 3.509-1.044 1.312-1.044 1.312-2.83 1.932l-.302.098L873.33 87h-5.8l-4.437-8.149h-1.682V87h-4.872V66.468h7.83zm-72.732 0v4.234h-5.8V87h-4.959V70.702h-5.8v-4.234h16.559zm16.066 0v4.205h-9.019v3.857h8.526v3.973h-8.526v4.263h9.541V87h-14.326V66.468h13.804zm11.629 0l.491.008c1.222.043 1.222.043 2.394.296 1.407.305 1.407.305 2.524 1.03 1.116.725 1.116.725 1.783 1.914.667 1.189.667 1.189.667 2.958 0 2.088 0 2.088-1.131 3.509-1.044 1.312-1.044 1.312-2.83 1.932l-.302.098L828.293 87h-5.8l-4.437-8.149h-1.682V87h-4.872V66.468h7.83zm162.748 0v4.205h-9.019v3.857h8.526v3.973h-8.526v4.263h9.541V87h-14.326V66.468h13.804zm-25.201 0l.491.008c1.222.043 1.222.043 2.394.296 1.407.305 1.407.305 2.524 1.03 1.116.725 1.116.725 1.783 1.914.667 1.189.667 1.189.667 2.958 0 2.088 0 2.088-1.131 3.509-1.044 1.312-1.044 1.312-2.83 1.932l-.302.098L965.84 87h-5.8l-4.437-8.149h-1.682V87h-4.872V66.468h7.83zm-243.774 0v16.211h7.946V87h-12.934V66.468h4.988zm15.254 0V87h-4.988V66.468h4.988zm161.211 0v4.205h-9.019v3.857h8.526v3.973h-8.526v4.263h9.541V87h-14.326V66.468h13.804zm-44.051 0l.476.007c1.415.04 1.415.04 2.67.327 1.465.333 1.465.333 2.553 1.072 1.087.74 1.087.74 1.71 1.944.624 1.203.624 1.203.624 2.972 0 1.798 0 1.798-.667 3.03-.667 1.233-.667 1.233-1.798 1.987s-1.131.754-2.61 1.102c-1.268.298-1.268.298-2.62.34l-.454.008h-2.465V87h-4.959V66.468h7.54zm-.406 4.002h-2.175v4.843h2.088c.696 0 .696 0 1.334-.116.638-.116.638-.116 1.145-.406.508-.29.508-.29.798-.769.29-.478.29-.478.29-1.203 0-.725 0-.725-.29-1.189-.29-.464-.29-.464-.783-.725-.493-.261-.493-.261-1.116-.348-.624-.087-.624-.087-1.291-.087zm18.908 0h-2.639v4.785h2.349c.609 0 .609 0 1.247-.102.638-.101.638-.101 1.16-.362.522-.261.522-.261.856-.754.333-.493.333-.493.333-1.276 0-.725 0-.725-.304-1.174-.305-.45-.305-.45-.784-.697-.478-.246-.478-.246-1.072-.333-.595-.087-.595-.087-1.146-.087zm-45.037 0h-2.639v4.785h2.349c.609 0 .609 0 1.247-.102.638-.101.638-.101 1.16-.362.522-.261.522-.261.856-.754.333-.493.333-.493.333-1.276 0-.725 0-.725-.304-1.174-.305-.45-.305-.45-.784-.697-.478-.246-.478-.246-1.072-.333-.595-.087-.595-.087-1.146-.087zm137.547 0h-2.639v4.785h2.349c.609 0 .609 0 1.247-.102.638-.101.638-.101 1.16-.362.522-.261.522-.261.856-.754.333-.493.333-.493.333-1.276 0-.725 0-.725-.304-1.174-.305-.45-.305-.45-.784-.697-.478-.246-.478-.246-1.072-.333-.595-.087-.595-.087-1.146-.087z"/>
    <rect id="Rectangle" width="165" height="88" x="462" y="316.5" fill="url(#linearGradient-2)"/>
    <rect id="Rectangle" width="165" height="72" x="470" y="0" fill="url(#linearGradient-3)"/>
  </g>
</svg>
