<svg width="1200" height="630" viewBox="0 0 1200 630" xmlns="http://www.w3.org/2000/svg">
    <defs>
        <linearGradient x1="50%" y1="0%" x2="50%" y2="100%" id="a">
            <stop stop-color="#601F61" offset=".04%"/>
            <stop stop-color="#0A0327" offset="99.95%"/>
        </linearGradient>
    </defs>
    <g fill="none" fill-rule="evenodd">
        <path d="M28.2027372,-1.13942434e-15 L1171.79726,1.13942434e-15 C1181.60397,-6.62038354e-16 1185.16012,1.02108172 1188.7453,2.93845974 C1192.33049,4.85583776 1195.14416,7.66951208 1197.06154,11.2546973 C1198.97892,14.8398824 1200,18.3960311 1200,28.2027372 L1200,601.797263 C1200,611.603969 1198.97892,615.160118 1197.06154,618.745303 C1195.14416,622.330488 1192.33049,625.144162 1188.7453,627.06154 C1185.16012,628.978918 1181.60397,630 1171.79726,630 L28.2027372,630 C18.3960311,630 14.8398824,628.978918 11.2546973,627.06154 C7.66951208,625.144162 4.85583776,622.330488 2.93845974,618.745303 C1.02108172,615.160118 4.41358902e-16,611.603969 -7.59616226e-16,601.797263 L7.59616226e-16,28.2027372 C-4.41358902e-16,18.3960311 1.02108172,14.8398824 2.93845974,11.2546973 C4.85583776,7.66951208 7.66951208,4.85583776 11.2546973,2.93845974 C14.8398824,1.02108172 18.3960311,6.62038354e-16 28.2027372,-1.13942434e-15 Z" fill="url(#a)"/>
        <g transform="translate(36 44)" fill="#FFF" fill-opacity=".1" stroke="#FFF" stroke-width="3" id="g1">
            <path d="M1100.30313,1.50091613 C1109.30366,1.53389586 1112.66483,2.45723775 1116.0379,4.26117954 C1119.35782,6.03669004 1121.96331,8.64217955 1123.73882,11.9620955 C1125.57617,15.3976378 1126.5,18.8208269 1126.5,28.2027372 L1126.5,28.2027372 L1126.5,119.797263 C1126.5,129.179173 1125.57617,132.602362 1123.73882,136.037904 C1121.96331,139.35782 1119.35782,141.96331 1116.0379,143.73882 C1112.60236,145.576169 1109.17917,146.5 1099.79726,146.5 L1099.79726,146.5 L28.2027372,146.5 C18.8208269,146.5 15.3976378,145.576169 11.9620955,143.73882 C8.64217955,141.96331 6.03669004,139.35782 4.26117954,136.037904 C2.45849543,132.667178 1.53515901,129.30869 1.50097609,120.316662 L1.50097609,120.316662 L1.50091613,27.6968702 C1.53389586,18.6963432 2.45723775,15.3351734 4.26117954,11.9620955 C6.03669004,8.64217955 8.64217955,6.03669004 11.9620955,4.26117954 C15.3328218,2.45849543 18.6913103,1.53515901 27.683323,1.50097609 L27.683323,1.50097609 Z"/>
            <circle cx="72.5" cy="74.5" r="57"/>
        </g>
        <g transform="translate(36 226)" fill="#FFF" fill-opacity=".1" stroke="#FFF" stroke-width="3" id="g2">
            <path d="M1100.30313,1.50091613 C1109.30366,1.53389586 1112.66483,2.45723775 1116.0379,4.26117954 C1119.35782,6.03669004 1121.96331,8.64217955 1123.73882,11.9620955 C1125.57617,15.3976378 1126.5,18.8208269 1126.5,28.2027372 L1126.5,28.2027372 L1126.5,119.797263 C1126.5,129.179173 1125.57617,132.602362 1123.73882,136.037904 C1121.96331,139.35782 1119.35782,141.96331 1116.0379,143.73882 C1112.60236,145.576169 1109.17917,146.5 1099.79726,146.5 L1099.79726,146.5 L28.2027372,146.5 C18.8208269,146.5 15.3976378,145.576169 11.9620955,143.73882 C8.64217955,141.96331 6.03669004,139.35782 4.26117954,136.037904 C2.45849543,132.667178 1.53515901,129.30869 1.50097609,120.316662 L1.50097609,120.316662 L1.50091613,27.6968702 C1.53389586,18.6963432 2.45723775,15.3351734 4.26117954,11.9620955 C6.03669004,8.64217955 8.64217955,6.03669004 11.9620955,4.26117954 C15.3328218,2.45849543 18.6913103,1.53515901 27.683323,1.50097609 L27.683323,1.50097609 Z"/>
            <circle cx="72.5" cy="74.5" r="57"/>
        </g>
        <g transform="translate(36 408)" fill="#FFF" fill-opacity=".1" stroke="#FFF" stroke-width="3" id="g3">
            <path d="M1100.30313,1.50091613 C1109.30366,1.53389586 1112.66483,2.45723775 1116.0379,4.26117954 C1119.35782,6.03669004 1121.96331,8.64217955 1123.73882,11.9620955 C1125.57617,15.3976378 1126.5,18.8208269 1126.5,28.2027372 L1126.5,28.2027372 L1126.5,119.797263 C1126.5,129.179173 1125.57617,132.602362 1123.73882,136.037904 C1121.96331,139.35782 1119.35782,141.96331 1116.0379,143.73882 C1112.60236,145.576169 1109.17917,146.5 1099.79726,146.5 L1099.79726,146.5 L28.2027372,146.5 C18.8208269,146.5 15.3976378,145.576169 11.9620955,143.73882 C8.64217955,141.96331 6.03669004,139.35782 4.26117954,136.037904 C2.45849543,132.667178 1.53515901,129.30869 1.50097609,120.316662 L1.50097609,120.316662 L1.50091613,27.6968702 C1.53389586,18.6963432 2.45723775,15.3351734 4.26117954,11.9620955 C6.03669004,8.64217955 8.64217955,6.03669004 11.9620955,4.26117954 C15.3328218,2.45849543 18.6913103,1.53515901 27.683323,1.50097609 L27.683323,1.50097609 Z"/>
            <circle cx="72.5" cy="74.5" r="57"/>
        </g>
    </g>
</svg>
