<?xml version="1.0" encoding="UTF-8"?>
<svg width="606px" height="606px" viewBox="0 0 606 606" version="1.1" xmlns="http://www.w3.org/2000/svg" xmlns:xlink="http://www.w3.org/1999/xlink">
    <title>examples</title>
    <defs>
        <linearGradient x1="100%" y1="50%" x2="0%" y2="50%" id="linearGradient-1">
            <stop stop-color="#FF6A00" offset="0%"></stop>
            <stop stop-color="#EE0979" offset="100%"></stop>
        </linearGradient>
    </defs>
    <g id="examples" stroke="none" stroke-width="1" fill="none" fill-rule="evenodd">
        <rect id="Rectangle" fill="url(#linearGradient-1)" x="0" y="0" width="606" height="606"></rect>
        <line x1="465" y1="409" x2="193" y2="410" id="Line" stroke-opacity="0.24" stroke="#FFFFFF" stroke-width="20" stroke-linecap="square"></line>
        <line x1="472" y1="224" x2="188" y2="379" id="Line" stroke-opacity="0.24" stroke="#FFFFFF" stroke-width="20" stroke-linecap="square"></line>
        <line x1="465" y1="200" x2="193" y2="180" id="Line" stroke-opacity="0.24" stroke="#FFFFFF" stroke-width="20" stroke-linecap="square"></line>
        <line x1="465" y1="104" x2="193" y2="156" id="Line" stroke-opacity="0.24" stroke="#FFFFFF" stroke-width="20" stroke-linecap="square"></line>
        <circle id="Oval" stroke="#FFFFFF" stroke-width="3" cx="121.5" cy="173" r="62"></circle>
        <circle id="Oval" stroke="#FFFFFF" stroke-width="3" fill-opacity="0.242078234" fill="#FFFFFF" cx="515.5" cy="92.5" r="42"></circle>
        <circle id="Oval" stroke="#FFFFFF" stroke-width="3" cx="122.5" cy="409" r="62"></circle>
        <path id="Line" d="M121.518985,22.4812522 L124.518748,22.5189851 L124.499881,24.0188664 L123.732,85.019 L131.731935,85.1209508 L121.993711,103.99996 L112.733437,84.881976 L120.732,84.982 L121.500119,23.9811336 L121.518985,22.4812522 Z" fill="#FFFFFF" fill-rule="nonzero"></path>
        <path d="M91.9825,575.5 L91.9825,555.322 L87.0805,555.322 L87.0805,575.5 L91.9825,575.5 Z M101.929,575.899 C102.879,575.899 103.77675,575.70425 104.62225,575.31475 C105.46775,574.92525 106.1185,574.3695 106.5745,573.6475 L106.5745,573.6475 L106.6315,573.6475 L106.6315,575.5 L110.935,575.5 L110.935,553.954 L106.261,553.954 L106.261,562.8175 L106.204,562.8175 C105.805,562.3425 105.2445,561.9055 104.5225,561.5065 C103.8005,561.1075 102.917,560.908 101.872,560.908 C100.846,560.908 99.91975,561.1075 99.09325,561.5065 C98.26675,561.9055 97.56375,562.447 96.98425,563.131 C96.40475,563.815 95.95825,564.60825 95.64475,565.51075 C95.33125,566.41325 95.1745,567.3585 95.1745,568.3465 C95.1745,569.3345 95.3265,570.2845 95.6305,571.1965 C95.9345,572.1085 96.37625,572.91125 96.95575,573.60475 C97.53525,574.29825 98.243,574.854 99.079,575.272 C99.915,575.69 100.865,575.899 101.929,575.899 Z M103.0405,572.023 C102.4895,572.023 102.005,571.9185 101.587,571.7095 C101.169,571.5005 100.8175,571.225 100.5325,570.883 C100.2475,570.541 100.03375,570.14675 99.89125,569.70025 C99.74875,569.25375 99.6775,568.8025 99.6775,568.3465 C99.6775,567.8905 99.74875,567.444 99.89125,567.007 C100.03375,566.57 100.2475,566.18525 100.5325,565.85275 C100.8175,565.52025 101.169,565.2495 101.587,565.0405 C102.005,564.8315 102.4895,564.727 103.0405,564.727 C103.5725,564.727 104.0475,564.8315 104.4655,565.0405 C104.8835,565.2495 105.23975,565.525 105.53425,565.867 C105.82875,566.209 106.05675,566.5985 106.21825,567.0355 C106.37975,567.4725 106.4605,567.919 106.4605,568.375 C106.4605,568.831 106.37975,569.2775 106.21825,569.7145 C106.05675,570.1515 105.82875,570.541 105.53425,570.883 C105.23975,571.225 104.8835,571.5005 104.4655,571.7095 C104.0475,571.9185 103.5725,572.023 103.0405,572.023 Z M121.7365,575.956 C123.1805,575.956 124.44875,575.69475 125.54125,575.17225 C126.63375,574.64975 127.5125,573.904 128.1775,572.935 L128.1775,572.935 L124.9285,570.883 C124.6055,571.32 124.1875,571.67625 123.6745,571.95175 C123.1615,572.22725 122.5345,572.365 121.7935,572.365 C121.3755,572.365 120.97175,572.2985 120.58225,572.1655 C120.19275,572.0325 119.84125,571.84725 119.52775,571.60975 C119.21425,571.37225 118.95775,571.092 118.75825,570.769 C118.55875,570.446 118.44,570.085 118.402,569.686 L118.402,569.686 L128.6905,569.686 C128.7095,569.515 128.719,569.3345 128.719,569.1445 L128.719,569.1445 L128.719,568.5745 C128.719,567.3585 128.54325,566.2755 128.19175,565.3255 C127.84025,564.3755 127.351,563.568 126.724,562.903 C126.097,562.238 125.3465,561.72975 124.4725,561.37825 C123.5985,561.02675 122.639,560.851 121.594,560.851 C120.511,560.851 119.504,561.0315 118.573,561.3925 C117.642,561.7535 116.8345,562.26175 116.1505,562.91725 C115.4665,563.57275 114.925,564.37075 114.526,565.31125 C114.127,566.25175 113.9275,567.3015 113.9275,568.4605 C113.9275,569.6575 114.13175,570.7215 114.54025,571.6525 C114.94875,572.5835 115.50925,573.36725 116.22175,574.00375 C116.93425,574.64025 117.7655,575.12475 118.7155,575.45725 C119.6655,575.78975 120.6725,575.956 121.7365,575.956 Z M124.4155,566.779 L118.402,566.779 C118.421,566.418 118.516,566.07125 118.687,565.73875 C118.858,565.40625 119.086,565.1165 119.371,564.8695 C119.656,564.6225 119.9885,564.42775 120.3685,564.28525 C120.7485,564.14275 121.1665,564.0715 121.6225,564.0715 C122.5535,564.0715 123.25175,564.3375 123.71725,564.8695 C124.18275,565.4015 124.4155,566.038 124.4155,566.779 L124.4155,566.779 Z M135.73,575.842 C136.585,575.842 137.37825,575.6805 138.10975,575.3575 C138.84125,575.0345 139.3875,574.5785 139.7485,573.9895 L139.7485,573.9895 L139.834,573.9895 L139.834,575.5 L144.109,575.5 L144.109,568.3465 C144.109,567.0545 143.99025,565.93825 143.75275,564.99775 C143.51525,564.05725 143.14,563.27825 142.627,562.66075 C142.114,562.04325 141.44425,561.58725 140.61775,561.29275 C139.79125,560.99825 138.7795,560.851 137.5825,560.851 C136.4235,560.851 135.28825,561.0505 134.17675,561.4495 C133.06525,561.8485 132.0915,562.447 131.2555,563.245 L131.2555,563.245 L133.621,565.7815 C134.058,565.3825 134.58525,565.0405 135.20275,564.7555 C135.82025,564.4705 136.4615,564.328 137.1265,564.328 C137.8485,564.328 138.4565,564.49425 138.9505,564.82675 C139.4445,565.15925 139.6915,565.677 139.6915,566.38 L139.6915,566.38 L139.6915,566.608 C138.6655,566.608 137.611,566.665 136.528,566.779 C135.445,566.893 134.46175,567.121 133.57825,567.463 C132.69475,567.805 131.97275,568.2895 131.41225,568.9165 C130.85175,569.5435 130.5715,570.37 130.5715,571.396 C130.5715,572.232 130.733,572.935 131.056,573.505 C131.379,574.075 131.79225,574.531 132.29575,574.873 C132.79925,575.215 133.355,575.462 133.963,575.614 C134.571,575.766 135.16,575.842 135.73,575.842 Z M136.8985,572.707 C136.6705,572.707 136.433,572.68325 136.186,572.63575 C135.939,572.58825 135.7205,572.5075 135.5305,572.3935 C135.3405,572.2795 135.18375,572.1275 135.06025,571.9375 C134.93675,571.7475 134.875,571.5195 134.875,571.2535 C134.875,570.8355 135.008,570.49825 135.274,570.24175 C135.54,569.98525 135.87725,569.7905 136.28575,569.6575 C136.69425,569.5245 137.15975,569.43425 137.68225,569.38675 C138.20475,569.33925 138.7225,569.3155 139.2355,569.3155 L139.2355,569.3155 L139.834,569.3155 L139.834,569.8 C139.834,570.693 139.58225,571.40075 139.07875,571.92325 C138.57525,572.44575 137.8485,572.707 136.8985,572.707 Z M152.26,575.956 C152.982,575.956 153.704,575.8705 154.426,575.6995 C155.148,575.5285 155.79875,575.253 156.37825,574.873 C156.95775,574.493 157.428,573.99425 157.789,573.37675 C158.15,572.75925 158.3305,572.004 158.3305,571.111 C158.3305,570.427 158.1975,569.838 157.9315,569.344 C157.6655,568.85 157.314,568.432 156.877,568.09 C156.44,567.748 155.95075,567.4725 155.40925,567.2635 C154.86775,567.0545 154.331,566.893 153.799,566.779 C152.887,566.57 152.22675,566.38 151.81825,566.209 C151.40975,566.038 151.2055,565.753 151.2055,565.354 C151.2055,564.936 151.39075,564.6415 151.76125,564.4705 C152.13175,564.2995 152.5355,564.214 152.9725,564.214 C153.5425,564.214 154.084,564.3375 154.597,564.5845 C155.11,564.8315 155.5565,565.1355 155.9365,565.4965 L155.9365,565.4965 L158.5015,562.846 C157.7985,562.181 156.93875,561.68225 155.92225,561.34975 C154.90575,561.01725 153.8655,560.851 152.8015,560.851 C152.1175,560.851 151.42875,560.94125 150.73525,561.12175 C150.04175,561.30225 149.41,561.5825 148.84,561.9625 C148.27,562.3425 147.8045,562.83175 147.4435,563.43025 C147.0825,564.02875 146.902,564.7555 146.902,565.6105 C146.902,566.2755 147.0255,566.8455 147.2725,567.3205 C147.5195,567.7955 147.83775,568.1945 148.22725,568.5175 C148.61675,568.8405 149.0585,569.097 149.5525,569.287 C150.0465,569.477 150.5405,569.629 151.0345,569.743 C152.0035,569.971 152.716,570.1895 153.172,570.3985 C153.628,570.6075 153.856,570.9305 153.856,571.3675 C153.856,571.8235 153.67075,572.14175 153.30025,572.32225 C152.92975,572.50275 152.5545,572.593 152.1745,572.593 C151.4905,572.593 150.8445,572.441 150.2365,572.137 C149.6285,571.833 149.1155,571.453 148.6975,570.997 L148.6975,570.997 L146.0755,573.7615 C146.8165,574.4835 147.74275,575.02975 148.85425,575.40025 C149.96575,575.77075 151.101,575.956 152.26,575.956 Z" id="Ideas" fill="#FFFFFF" fill-rule="nonzero"></path>
        <path id="Line" d="M124.5,242 L124.5,321 L132.5,321 L123,340 L113.5,321 L121.5,321 L121.5,242 L124.5,242 Z" fill="#FFFFFF" fill-rule="nonzero"></path>
        <path id="Line" d="M124.5,481 L124.5,519 L132.5,519 L123,538 L113.5,519 L121.5,519 L121.5,481 L124.5,481 Z" fill="#FFFFFF" fill-rule="nonzero"></path>
        <circle id="Oval" stroke="#FFFFFF" stroke-width="3" fill-opacity="0.242078234" fill="#FFFFFF" cx="515.5" cy="199.5" r="42"></circle>
        <circle id="Oval" stroke="#FFFFFF" stroke-width="3" fill-opacity="0.24" fill="#FFFFFF" cx="515.5" cy="408.5" r="42"></circle>
        <path d="M464.1595,576 L464.1595,571.839 L454.783,571.839 L454.783,567.6495 L463.162,567.6495 L463.162,563.745 L454.783,563.745 L454.783,559.9545 L463.6465,559.9545 L463.6465,555.822 L450.0805,555.822 L450.0805,576 L464.1595,576 Z M470.629,576 L473.764,571.6395 L476.8135,576 L482.314,576 L476.6995,568.5615 L481.801,561.807 L476.5285,561.807 L473.8495,565.5975 L471.199,561.807 L465.7555,561.807 L470.8855,568.5615 L465.214,576 L470.629,576 Z M488.3275,576.342 C489.1825,576.342 489.97575,576.1805 490.70725,575.8575 C491.43875,575.5345 491.985,575.0785 492.346,574.4895 L492.346,574.4895 L492.4315,574.4895 L492.4315,576 L496.7065,576 L496.7065,568.8465 C496.7065,567.5545 496.58775,566.43825 496.35025,565.49775 C496.11275,564.55725 495.7375,563.77825 495.2245,563.16075 C494.7115,562.54325 494.04175,562.08725 493.21525,561.79275 C492.38875,561.49825 491.377,561.351 490.18,561.351 C489.021,561.351 487.88575,561.5505 486.77425,561.9495 C485.66275,562.3485 484.689,562.947 483.853,563.745 L483.853,563.745 L486.2185,566.2815 C486.6555,565.8825 487.18275,565.5405 487.80025,565.2555 C488.41775,564.9705 489.059,564.828 489.724,564.828 C490.446,564.828 491.054,564.99425 491.548,565.32675 C492.042,565.65925 492.289,566.177 492.289,566.88 L492.289,566.88 L492.289,567.108 C491.263,567.108 490.2085,567.165 489.1255,567.279 C488.0425,567.393 487.05925,567.621 486.17575,567.963 C485.29225,568.305 484.57025,568.7895 484.00975,569.4165 C483.44925,570.0435 483.169,570.87 483.169,571.896 C483.169,572.732 483.3305,573.435 483.6535,574.005 C483.9765,574.575 484.38975,575.031 484.89325,575.373 C485.39675,575.715 485.9525,575.962 486.5605,576.114 C487.1685,576.266 487.7575,576.342 488.3275,576.342 Z M489.496,573.207 C489.268,573.207 489.0305,573.18325 488.7835,573.13575 C488.5365,573.08825 488.318,573.0075 488.128,572.8935 C487.938,572.7795 487.78125,572.6275 487.65775,572.4375 C487.53425,572.2475 487.4725,572.0195 487.4725,571.7535 C487.4725,571.3355 487.6055,570.99825 487.8715,570.74175 C488.1375,570.48525 488.47475,570.2905 488.88325,570.1575 C489.29175,570.0245 489.75725,569.93425 490.27975,569.88675 C490.80225,569.83925 491.32,569.8155 491.833,569.8155 L491.833,569.8155 L492.4315,569.8155 L492.4315,570.3 C492.4315,571.193 492.17975,571.90075 491.67625,572.42325 C491.17275,572.94575 490.446,573.207 489.496,573.207 Z M504.886,576 L504.886,568.305 C504.886,567.45 505.09025,566.728 505.49875,566.139 C505.90725,565.55 506.482,565.2555 507.223,565.2555 C507.926,565.2555 508.439,565.493 508.762,565.968 C509.085,566.443 509.2465,567.089 509.2465,567.906 L509.2465,567.906 L509.2465,576 L513.9205,576 L513.9205,568.3335 C513.9205,567.9345 513.968,567.54975 514.063,567.17925 C514.158,566.80875 514.30525,566.481 514.50475,566.196 C514.70425,565.911 514.95125,565.683 515.24575,565.512 C515.54025,565.341 515.887,565.2555 516.286,565.2555 C516.704,565.2555 517.04125,565.33625 517.29775,565.49775 C517.55425,565.65925 517.7585,565.873 517.9105,566.139 C518.0625,566.405 518.167,566.72325 518.224,567.09375 C518.281,567.46425 518.3095,567.849 518.3095,568.248 L518.3095,568.248 L518.3095,576 L522.9835,576 L522.9835,567.222 C522.9835,566.557 522.89325,565.87775 522.71275,565.18425 C522.53225,564.49075 522.2425,563.86375 521.8435,563.30325 C521.4445,562.74275 520.91725,562.28675 520.26175,561.93525 C519.60625,561.58375 518.794,561.408 517.825,561.408 C516.761,561.408 515.8585,561.6265 515.1175,562.0635 C514.3765,562.5005 513.7685,563.0895 513.2935,563.8305 C512.8945,563.0515 512.33875,562.453 511.62625,562.035 C510.91375,561.617 510.0445,561.408 509.0185,561.408 C508.4865,561.408 507.99725,561.4745 507.55075,561.6075 C507.10425,561.7405 506.7005,561.91625 506.3395,562.13475 C505.9785,562.35325 505.66975,562.605 505.41325,562.89 C505.15675,563.175 504.943,563.4695 504.772,563.7735 L504.772,563.7735 L504.715,563.7735 L504.715,561.807 L500.1835,561.807 L500.1835,576 L504.886,576 Z M531.1915,582.84 L531.1915,574.4325 L531.2485,574.4325 C531.6855,575.0405 532.2935,575.52025 533.0725,575.87175 C533.8515,576.22325 534.678,576.399 535.552,576.399 C536.616,576.399 537.566,576.19 538.402,575.772 C539.238,575.354 539.94575,574.79825 540.52525,574.10475 C541.10475,573.41125 541.5465,572.6085 541.8505,571.6965 C542.1545,570.7845 542.3065,569.8345 542.3065,568.8465 C542.3065,567.8585 542.14975,566.91325 541.83625,566.01075 C541.52275,565.10825 541.07625,564.315 540.49675,563.631 C539.91725,562.947 539.2095,562.4055 538.3735,562.0065 C537.5375,561.6075 536.6065,561.408 535.5805,561.408 C534.5355,561.408 533.62825,561.62175 532.85875,562.04925 C532.08925,562.47675 531.486,562.9755 531.049,563.5455 L531.049,563.5455 L530.9635,563.5455 L530.9635,561.807 L526.5175,561.807 L526.5175,582.84 L531.1915,582.84 Z M534.4405,572.523 C533.9085,572.523 533.4335,572.4185 533.0155,572.2095 C532.5975,572.0005 532.24125,571.725 531.94675,571.383 C531.65225,571.041 531.42425,570.6515 531.26275,570.2145 C531.10125,569.7775 531.0205,569.331 531.0205,568.875 C531.0205,568.419 531.10125,567.9725 531.26275,567.5355 C531.42425,567.0985 531.65225,566.709 531.94675,566.367 C532.24125,566.025 532.5975,565.7495 533.0155,565.5405 C533.4335,565.3315 533.9085,565.227 534.4405,565.227 C534.9915,565.227 535.476,565.3315 535.894,565.5405 C536.312,565.7495 536.65875,566.02025 536.93425,566.35275 C537.20975,566.68525 537.41875,567.07 537.56125,567.507 C537.70375,567.944 537.775,568.3905 537.775,568.8465 C537.775,569.3025 537.70375,569.75375 537.56125,570.20025 C537.41875,570.64675 537.20975,571.041 536.93425,571.383 C536.65875,571.725 536.312,572.0005 535.894,572.2095 C535.476,572.4185 534.9915,572.523 534.4405,572.523 Z M550.03,576 L550.03,554.454 L545.299,554.454 L545.299,576 L550.03,576 Z M560.8315,576.456 C562.2755,576.456 563.54375,576.19475 564.63625,575.67225 C565.72875,575.14975 566.6075,574.404 567.2725,573.435 L567.2725,573.435 L564.0235,571.383 C563.7005,571.82 563.2825,572.17625 562.7695,572.45175 C562.2565,572.72725 561.6295,572.865 560.8885,572.865 C560.4705,572.865 560.06675,572.7985 559.67725,572.6655 C559.28775,572.5325 558.93625,572.34725 558.62275,572.10975 C558.30925,571.87225 558.05275,571.592 557.85325,571.269 C557.65375,570.946 557.535,570.585 557.497,570.186 L557.497,570.186 L567.7855,570.186 C567.8045,570.015 567.814,569.8345 567.814,569.6445 L567.814,569.6445 L567.814,569.0745 C567.814,567.8585 567.63825,566.7755 567.28675,565.8255 C566.93525,564.8755 566.446,564.068 565.819,563.403 C565.192,562.738 564.4415,562.22975 563.5675,561.87825 C562.6935,561.52675 561.734,561.351 560.689,561.351 C559.606,561.351 558.599,561.5315 557.668,561.8925 C556.737,562.2535 555.9295,562.76175 555.2455,563.41725 C554.5615,564.07275 554.02,564.87075 553.621,565.81125 C553.222,566.75175 553.0225,567.8015 553.0225,568.9605 C553.0225,570.1575 553.22675,571.2215 553.63525,572.1525 C554.04375,573.0835 554.60425,573.86725 555.31675,574.50375 C556.02925,575.14025 556.8605,575.62475 557.8105,575.95725 C558.7605,576.28975 559.7675,576.456 560.8315,576.456 Z M563.5105,567.279 L557.497,567.279 C557.516,566.918 557.611,566.57125 557.782,566.23875 C557.953,565.90625 558.181,565.6165 558.466,565.3695 C558.751,565.1225 559.0835,564.92775 559.4635,564.78525 C559.8435,564.64275 560.2615,564.5715 560.7175,564.5715 C561.6485,564.5715 562.34675,564.8375 562.81225,565.3695 C563.27775,565.9015 563.5105,566.538 563.5105,567.279 L563.5105,567.279 Z M575.395,576.456 C576.117,576.456 576.839,576.3705 577.561,576.1995 C578.283,576.0285 578.93375,575.753 579.51325,575.373 C580.09275,574.993 580.563,574.49425 580.924,573.87675 C581.285,573.25925 581.4655,572.504 581.4655,571.611 C581.4655,570.927 581.3325,570.338 581.0665,569.844 C580.8005,569.35 580.449,568.932 580.012,568.59 C579.575,568.248 579.08575,567.9725 578.54425,567.7635 C578.00275,567.5545 577.466,567.393 576.934,567.279 C576.022,567.07 575.36175,566.88 574.95325,566.709 C574.54475,566.538 574.3405,566.253 574.3405,565.854 C574.3405,565.436 574.52575,565.1415 574.89625,564.9705 C575.26675,564.7995 575.6705,564.714 576.1075,564.714 C576.6775,564.714 577.219,564.8375 577.732,565.0845 C578.245,565.3315 578.6915,565.6355 579.0715,565.9965 L579.0715,565.9965 L581.6365,563.346 C580.9335,562.681 580.07375,562.18225 579.05725,561.84975 C578.04075,561.51725 577.0005,561.351 575.9365,561.351 C575.2525,561.351 574.56375,561.44125 573.87025,561.62175 C573.17675,561.80225 572.545,562.0825 571.975,562.4625 C571.405,562.8425 570.9395,563.33175 570.5785,563.93025 C570.2175,564.52875 570.037,565.2555 570.037,566.1105 C570.037,566.7755 570.1605,567.3455 570.4075,567.8205 C570.6545,568.2955 570.97275,568.6945 571.36225,569.0175 C571.75175,569.3405 572.1935,569.597 572.6875,569.787 C573.1815,569.977 573.6755,570.129 574.1695,570.243 C575.1385,570.471 575.851,570.6895 576.307,570.8985 C576.763,571.1075 576.991,571.4305 576.991,571.8675 C576.991,572.3235 576.80575,572.64175 576.43525,572.82225 C576.06475,573.00275 575.6895,573.093 575.3095,573.093 C574.6255,573.093 573.9795,572.941 573.3715,572.637 C572.7635,572.333 572.2505,571.953 571.8325,571.497 L571.8325,571.497 L569.2105,574.2615 C569.9515,574.9835 570.87775,575.52975 571.98925,575.90025 C573.10075,576.27075 574.236,576.456 575.395,576.456 Z" id="Examples" fill="#FFFFFF" fill-rule="nonzero"></path>
        <path d="M327,24 L367.00585,37.2023491 C416.189167,57.3796845 440.780826,73.7817342 440.780826,86.4084983 C440.780826,99.0352624 404.048158,107.893893 330.582822,112.984391 C255.940695,117.510428 218.619632,126.239212 218.619632,139.170745 C218.619632,152.102278 255.940695,160.545749 330.582822,164.501158 C404.048158,169.784073 440.780826,181.86941 440.780826,200.757169 C440.780826,219.644929 404.048158,231.444952 330.582822,236.15724 C230.860941,242.703243 181,255.169902 181,273.557218 C181,291.944534 230.860941,303.920418 330.582822,309.48487 C425.527607,310.386184 473,319.242338 473,336.05333 C473,352.864323 425.527607,361.269819 330.582822,361.269819 C245.192229,361.916396 202.496933,376.141082 202.496933,403.943877 C202.496933,431.746672 247.879346,440.172168 338.644172,429.220364 C428.214724,422.391311 473,427.867213 473,445.64807 C473,501.415305 348.911943,448.717577 304.664613,474.744019 C288.38002,484.322676 288.38002,500.07467 304.664613,522" id="Path" stroke="#FFFFFF" stroke-width="15" stroke-dasharray="3,1"></path>
        <rect id="Rectangle" x="0" y="0" width="606" height="606"></rect>
        <path id="Line" d="M316.820092,537.884111 L311.954691,517.206155 L297.358486,529.369658 L316.820092,537.884111 Z" fill="#FFFFFF" fill-rule="nonzero"></path>
        <path d="M250.134,566 L251.46,562.4555 L258.447,562.4555 L259.8495,566 L264.6945,566 L257.1975,547.946 L252.9645,547.946 L245.391,566 L250.134,566 Z M257.2485,558.962 L252.7095,558.962 L255.0045,552.7655 L257.2485,558.962 Z M270.4575,566.357 C270.8995,566.357 271.32025,566.2975 271.71975,566.1785 C272.11925,566.0595 272.48475,565.9065 272.81625,565.7195 C273.14775,565.5325 273.43675,565.3115 273.68325,565.0565 C273.92975,564.8015 274.1295,564.5295 274.2825,564.2405 L274.2825,564.2405 L274.3335,564.2405 L274.3335,566 L278.3625,566 L278.3625,553.301 L274.1805,553.301 L274.1805,560.1605 C274.1805,560.8915 273.98925,561.529 273.60675,562.073 C273.22425,562.617 272.6675,562.889 271.9365,562.889 C271.5455,562.889 271.231,562.81675 270.993,562.67225 C270.755,562.52775 270.56375,562.328 270.41925,562.073 C270.27475,561.818 270.177,561.529 270.126,561.206 C270.075,560.883 270.0495,560.543 270.0495,560.186 L270.0495,560.186 L270.0495,553.301 L265.842,553.301 L265.842,561.155 C265.842,561.801 265.92275,562.43425 266.08425,563.05475 C266.24575,563.67525 266.50925,564.22775 266.87475,564.71225 C267.24025,565.19675 267.71625,565.592 268.30275,565.898 C268.88925,566.204 269.6075,566.357 270.4575,566.357 Z M287.0325,566.357 C287.8825,566.357 288.68575,566.18275 289.44225,565.83425 C290.19875,565.48575 290.781,564.9885 291.189,564.3425 L291.189,564.3425 L291.24,564.3425 L291.24,566 L295.0905,566 L295.0905,546.722 L290.9085,546.722 L290.9085,554.6525 L290.8575,554.6525 C290.5005,554.2275 289.999,553.8365 289.353,553.4795 C288.707,553.1225 287.9165,552.944 286.9815,552.944 C286.0635,552.944 285.23475,553.1225 284.49525,553.4795 C283.75575,553.8365 283.12675,554.321 282.60825,554.933 C282.08975,555.545 281.69025,556.25475 281.40975,557.06225 C281.12925,557.86975 280.989,558.7155 280.989,559.5995 C280.989,560.4835 281.125,561.3335 281.397,562.1495 C281.669,562.9655 282.06425,563.68375 282.58275,564.30425 C283.10125,564.92475 283.7345,565.422 284.4825,565.796 C285.2305,566.17 286.0805,566.357 287.0325,566.357 Z M288.027,562.889 C287.534,562.889 287.1005,562.7955 286.7265,562.6085 C286.3525,562.4215 286.038,562.175 285.783,561.869 C285.528,561.563 285.33675,561.21025 285.20925,560.81075 C285.08175,560.41125 285.018,560.0075 285.018,559.5995 C285.018,559.1915 285.08175,558.792 285.20925,558.401 C285.33675,558.01 285.528,557.66575 285.783,557.36825 C286.038,557.07075 286.3525,556.8285 286.7265,556.6415 C287.1005,556.4545 287.534,556.361 288.027,556.361 C288.503,556.361 288.928,556.4545 289.302,556.6415 C289.676,556.8285 289.99475,557.075 290.25825,557.381 C290.52175,557.687 290.72575,558.0355 290.87025,558.4265 C291.01475,558.8175 291.087,559.217 291.087,559.625 C291.087,560.033 291.01475,560.4325 290.87025,560.8235 C290.72575,561.2145 290.52175,561.563 290.25825,561.869 C289.99475,562.175 289.676,562.4215 289.302,562.6085 C288.928,562.7955 288.503,562.889 288.027,562.889 Z M300.5475,551.5415 C300.8705,551.5415 301.18075,551.482 301.47825,551.363 C301.77575,551.244 302.03075,551.0825 302.24325,550.8785 C302.45575,550.6745 302.62575,550.43225 302.75325,550.15175 C302.88075,549.87125 302.9445,549.5695 302.9445,549.2465 C302.9445,548.9235 302.88075,548.62175 302.75325,548.34125 C302.62575,548.06075 302.45575,547.8185 302.24325,547.6145 C302.03075,547.4105 301.77575,547.249 301.47825,547.13 C301.18075,547.011 300.8705,546.9515 300.5475,546.9515 C300.2075,546.9515 299.893,547.01525 299.604,547.14275 C299.315,547.27025 299.06,547.436 298.839,547.64 C298.618,547.844 298.448,548.08625 298.329,548.36675 C298.21,548.64725 298.1505,548.9405 298.1505,549.2465 C298.1505,549.8755 298.38,550.41525 298.839,550.86575 C299.298,551.31625 299.8675,551.5415 300.5475,551.5415 Z M302.6385,566 L302.6385,553.301 L298.4565,553.301 L298.4565,566 L302.6385,566 Z M312.303,566.408 C313.595,566.408 314.72975,566.17425 315.70725,565.70675 C316.68475,565.23925 317.471,564.572 318.066,563.705 L318.066,563.705 L315.159,561.869 C314.87,562.26 314.496,562.57875 314.037,562.82525 C313.578,563.07175 313.017,563.195 312.354,563.195 C311.98,563.195 311.61875,563.1355 311.27025,563.0165 C310.92175,562.8975 310.60725,562.73175 310.32675,562.51925 C310.04625,562.30675 309.81675,562.056 309.63825,561.767 C309.45975,561.478 309.3535,561.155 309.3195,560.798 L309.3195,560.798 L318.525,560.798 C318.542,560.645 318.5505,560.4835 318.5505,560.3135 L318.5505,560.3135 L318.5505,559.8035 C318.5505,558.7155 318.39325,557.7465 318.07875,556.8965 C317.76425,556.0465 317.3265,555.324 316.7655,554.729 C316.2045,554.134 315.533,553.67925 314.751,553.36475 C313.969,553.05025 313.1105,552.893 312.1755,552.893 C311.2065,552.893 310.3055,553.0545 309.4725,553.3775 C308.6395,553.7005 307.917,554.15525 307.305,554.74175 C306.693,555.32825 306.2085,556.04225 305.8515,556.88375 C305.4945,557.72525 305.316,558.6645 305.316,559.7015 C305.316,560.7725 305.49875,561.7245 305.86425,562.5575 C306.22975,563.3905 306.73125,564.09175 307.36875,564.66125 C308.00625,565.23075 308.75,565.66425 309.6,565.96175 C310.45,566.25925 311.351,566.408 312.303,566.408 Z M314.7,558.197 L309.3195,558.197 C309.3365,557.874 309.4215,557.56375 309.5745,557.26625 C309.7275,556.96875 309.9315,556.7095 310.1865,556.4885 C310.4415,556.2675 310.739,556.09325 311.079,555.96575 C311.419,555.83825 311.793,555.7745 312.201,555.7745 C313.034,555.7745 313.65875,556.0125 314.07525,556.4885 C314.49175,556.9645 314.7,557.534 314.7,558.197 L314.7,558.197 Z M325.359,566 L325.359,559.115 C325.359,558.758 325.40575,558.41375 325.49925,558.08225 C325.59275,557.75075 325.733,557.4575 325.92,557.2025 C326.107,556.9475 326.34075,556.74775 326.62125,556.60325 C326.90175,556.45875 327.229,556.3865 327.603,556.3865 C327.977,556.3865 328.28725,556.45875 328.53375,556.60325 C328.78025,556.74775 328.9715,556.94325 329.1075,557.18975 C329.2435,557.43625 329.34125,557.721 329.40075,558.044 C329.46025,558.367 329.49,558.707 329.49,559.064 L329.49,559.064 L329.49,566 L333.6975,566 L333.6975,558.146 C333.6975,557.517 333.61675,556.888 333.45525,556.259 C333.29375,555.63 333.03025,555.07325 332.66475,554.58875 C332.29925,554.10425 331.819,553.709 331.224,553.403 C330.629,553.097 329.9065,552.944 329.0565,552.944 C328.6145,552.944 328.198,553.0035 327.807,553.1225 C327.416,553.2415 327.05475,553.3945 326.72325,553.5815 C326.39175,553.7685 326.10275,553.99375 325.85625,554.25725 C325.60975,554.52075 325.41,554.7885 325.257,555.0605 L325.257,555.0605 L325.206,555.0605 L325.206,553.301 L321.1515,553.301 L321.1515,566 L325.359,566 Z M343.3365,566.408 C344.2715,566.408 345.1555,566.2635 345.9885,565.9745 C346.8215,565.6855 347.5015,565.286 348.0285,564.776 L348.0285,564.776 L345.708,561.9455 C345.453,562.2515 345.11725,562.48525 344.70075,562.64675 C344.28425,562.80825 343.8635,562.889 343.4385,562.889 C342.9795,562.889 342.56725,562.804 342.20175,562.634 C341.83625,562.464 341.52175,562.23025 341.25825,561.93275 C340.99475,561.63525 340.795,561.291 340.659,560.9 C340.523,560.509 340.455,560.0925 340.455,559.6505 C340.455,559.2085 340.52725,558.792 340.67175,558.401 C340.81625,558.01 341.016,557.66575 341.271,557.36825 C341.526,557.07075 341.832,556.83275 342.189,556.65425 C342.546,556.47575 342.9455,556.3865 343.3875,556.3865 C343.8125,556.3865 344.229,556.48 344.637,556.667 C345.045,556.854 345.368,557.1005 345.606,557.4065 L345.606,557.4065 L348.0285,554.6015 C347.7735,554.3465 347.47175,554.11275 347.12325,553.90025 C346.77475,553.68775 346.39225,553.50925 345.97575,553.36475 C345.55925,553.22025 345.12575,553.1055 344.67525,553.0205 C344.22475,552.9355 343.77,552.893 343.311,552.893 C342.325,552.893 341.3985,553.05025 340.5315,553.36475 C339.6645,553.67925 338.91225,554.12975 338.27475,554.71625 C337.63725,555.30275 337.13575,556.0125 336.77025,556.8455 C336.40475,557.6785 336.222,558.6135 336.222,559.6505 C336.222,560.7045 336.40475,561.648 336.77025,562.481 C337.13575,563.314 337.63725,564.02375 338.27475,564.61025 C338.91225,565.19675 339.6645,565.643 340.5315,565.949 C341.3985,566.255 342.3335,566.408 343.3365,566.408 Z M356.0355,566.408 C357.3275,566.408 358.46225,566.17425 359.43975,565.70675 C360.41725,565.23925 361.2035,564.572 361.7985,563.705 L361.7985,563.705 L358.8915,561.869 C358.6025,562.26 358.2285,562.57875 357.7695,562.82525 C357.3105,563.07175 356.7495,563.195 356.0865,563.195 C355.7125,563.195 355.35125,563.1355 355.00275,563.0165 C354.65425,562.8975 354.33975,562.73175 354.05925,562.51925 C353.77875,562.30675 353.54925,562.056 353.37075,561.767 C353.19225,561.478 353.086,561.155 353.052,560.798 L353.052,560.798 L362.2575,560.798 C362.2745,560.645 362.283,560.4835 362.283,560.3135 L362.283,560.3135 L362.283,559.8035 C362.283,558.7155 362.12575,557.7465 361.81125,556.8965 C361.49675,556.0465 361.059,555.324 360.498,554.729 C359.937,554.134 359.2655,553.67925 358.4835,553.36475 C357.7015,553.05025 356.843,552.893 355.908,552.893 C354.939,552.893 354.038,553.0545 353.205,553.3775 C352.372,553.7005 351.6495,554.15525 351.0375,554.74175 C350.4255,555.32825 349.941,556.04225 349.584,556.88375 C349.227,557.72525 349.0485,558.6645 349.0485,559.7015 C349.0485,560.7725 349.23125,561.7245 349.59675,562.5575 C349.96225,563.3905 350.46375,564.09175 351.10125,564.66125 C351.73875,565.23075 352.4825,565.66425 353.3325,565.96175 C354.1825,566.25925 355.0835,566.408 356.0355,566.408 Z M358.4325,558.197 L353.052,558.197 C353.069,557.874 353.154,557.56375 353.307,557.26625 C353.46,556.96875 353.664,556.7095 353.919,556.4885 C354.174,556.2675 354.4715,556.09325 354.8115,555.96575 C355.1515,555.83825 355.5255,555.7745 355.9335,555.7745 C356.7665,555.7745 357.39125,556.0125 357.80775,556.4885 C358.22425,556.9645 358.4325,557.534 358.4325,558.197 L358.4325,558.197 Z M243.3255,587.408 C244.6175,587.408 245.75225,587.17425 246.72975,586.70675 C247.70725,586.23925 248.4935,585.572 249.0885,584.705 L249.0885,584.705 L246.1815,582.869 C245.8925,583.26 245.5185,583.57875 245.0595,583.82525 C244.6005,584.07175 244.0395,584.195 243.3765,584.195 C243.0025,584.195 242.64125,584.1355 242.29275,584.0165 C241.94425,583.8975 241.62975,583.73175 241.34925,583.51925 C241.06875,583.30675 240.83925,583.056 240.66075,582.767 C240.48225,582.478 240.376,582.155 240.342,581.798 L240.342,581.798 L249.5475,581.798 C249.5645,581.645 249.573,581.4835 249.573,581.3135 L249.573,581.3135 L249.573,580.8035 C249.573,579.7155 249.41575,578.7465 249.10125,577.8965 C248.78675,577.0465 248.349,576.324 247.788,575.729 C247.227,575.134 246.5555,574.67925 245.7735,574.36475 C244.9915,574.05025 244.133,573.893 243.198,573.893 C242.229,573.893 241.328,574.0545 240.495,574.3775 C239.662,574.7005 238.9395,575.15525 238.3275,575.74175 C237.7155,576.32825 237.231,577.04225 236.874,577.88375 C236.517,578.72525 236.3385,579.6645 236.3385,580.7015 C236.3385,581.7725 236.52125,582.7245 236.88675,583.5575 C237.25225,584.3905 237.75375,585.09175 238.39125,585.66125 C239.02875,586.23075 239.7725,586.66425 240.6225,586.96175 C241.4725,587.25925 242.3735,587.408 243.3255,587.408 Z M245.7225,579.197 L240.342,579.197 C240.359,578.874 240.444,578.56375 240.597,578.26625 C240.75,577.96875 240.954,577.7095 241.209,577.4885 C241.464,577.2675 241.7615,577.09325 242.1015,576.96575 C242.4415,576.83825 242.8155,576.7745 243.2235,576.7745 C244.0565,576.7745 244.68125,577.0125 245.09775,577.4885 C245.51425,577.9645 245.7225,578.534 245.7225,579.197 L245.7225,579.197 Z M254.7495,587 L257.5545,583.0985 L260.283,587 L265.2045,587 L260.181,580.3445 L264.7455,574.301 L260.028,574.301 L257.631,577.6925 L255.2595,574.301 L250.389,574.301 L254.979,580.3445 L249.9045,587 L254.7495,587 Z M270.942,593.12 L270.942,585.5975 L270.993,585.5975 C271.384,586.1415 271.928,586.57075 272.625,586.88525 C273.322,587.19975 274.0615,587.357 274.8435,587.357 C275.7955,587.357 276.6455,587.17 277.3935,586.796 C278.1415,586.422 278.77475,585.92475 279.29325,585.30425 C279.81175,584.68375 280.207,583.9655 280.479,583.1495 C280.751,582.3335 280.887,581.4835 280.887,580.5995 C280.887,579.7155 280.74675,578.86975 280.46625,578.06225 C280.18575,577.25475 279.78625,576.545 279.26775,575.933 C278.74925,575.321 278.116,574.8365 277.368,574.4795 C276.62,574.1225 275.787,573.944 274.869,573.944 C273.934,573.944 273.12225,574.13525 272.43375,574.51775 C271.74525,574.90025 271.2055,575.3465 270.8145,575.8565 L270.8145,575.8565 L270.738,575.8565 L270.738,574.301 L266.76,574.301 L266.76,593.12 L270.942,593.12 Z M273.849,583.889 C273.373,583.889 272.948,583.7955 272.574,583.6085 C272.2,583.4215 271.88125,583.175 271.61775,582.869 C271.35425,582.563 271.15025,582.2145 271.00575,581.8235 C270.86125,581.4325 270.789,581.033 270.789,580.625 C270.789,580.217 270.86125,579.8175 271.00575,579.4265 C271.15025,579.0355 271.35425,578.687 271.61775,578.381 C271.88125,578.075 272.2,577.8285 272.574,577.6415 C272.948,577.4545 273.373,577.361 273.849,577.361 C274.342,577.361 274.7755,577.4545 275.1495,577.6415 C275.5235,577.8285 275.83375,578.07075 276.08025,578.36825 C276.32675,578.66575 276.51375,579.01 276.64125,579.401 C276.76875,579.792 276.8325,580.1915 276.8325,580.5995 C276.8325,581.0075 276.76875,581.41125 276.64125,581.81075 C276.51375,582.21025 276.32675,582.563 276.08025,582.869 C275.83375,583.175 275.5235,583.4215 275.1495,583.6085 C274.7755,583.7955 274.342,583.889 273.849,583.889 Z M289.863,587.408 C291.155,587.408 292.28975,587.17425 293.26725,586.70675 C294.24475,586.23925 295.031,585.572 295.626,584.705 L295.626,584.705 L292.719,582.869 C292.43,583.26 292.056,583.57875 291.597,583.82525 C291.138,584.07175 290.577,584.195 289.914,584.195 C289.54,584.195 289.17875,584.1355 288.83025,584.0165 C288.48175,583.8975 288.16725,583.73175 287.88675,583.51925 C287.60625,583.30675 287.37675,583.056 287.19825,582.767 C287.01975,582.478 286.9135,582.155 286.8795,581.798 L286.8795,581.798 L296.085,581.798 C296.102,581.645 296.1105,581.4835 296.1105,581.3135 L296.1105,581.3135 L296.1105,580.8035 C296.1105,579.7155 295.95325,578.7465 295.63875,577.8965 C295.32425,577.0465 294.8865,576.324 294.3255,575.729 C293.7645,575.134 293.093,574.67925 292.311,574.36475 C291.529,574.05025 290.6705,573.893 289.7355,573.893 C288.7665,573.893 287.8655,574.0545 287.0325,574.3775 C286.1995,574.7005 285.477,575.15525 284.865,575.74175 C284.253,576.32825 283.7685,577.04225 283.4115,577.88375 C283.0545,578.72525 282.876,579.6645 282.876,580.7015 C282.876,581.7725 283.05875,582.7245 283.42425,583.5575 C283.78975,584.3905 284.29125,585.09175 284.92875,585.66125 C285.56625,586.23075 286.31,586.66425 287.16,586.96175 C288.01,587.25925 288.911,587.408 289.863,587.408 Z M292.26,579.197 L286.8795,579.197 C286.8965,578.874 286.9815,578.56375 287.1345,578.26625 C287.2875,577.96875 287.4915,577.7095 287.7465,577.4885 C288.0015,577.2675 288.299,577.09325 288.639,576.96575 C288.979,576.83825 289.353,576.7745 289.761,576.7745 C290.594,576.7745 291.21875,577.0125 291.63525,577.4885 C292.05175,577.9645 292.26,578.534 292.26,579.197 L292.26,579.197 Z M302.8935,587 L302.8935,580.472 C302.8935,580.217 302.9445,579.9195 303.0465,579.5795 C303.1485,579.2395 303.31425,578.925 303.54375,578.636 C303.77325,578.347 304.07925,578.1005 304.46175,577.8965 C304.84425,577.6925 305.316,577.5905 305.877,577.5905 C306.047,577.5905 306.22125,577.599 306.39975,577.616 C306.57825,577.633 306.761,577.667 306.948,577.718 L306.948,577.718 L307.1265,574.046 C307.0245,574.012 306.89275,573.9865 306.73125,573.9695 C306.56975,573.9525 306.404,573.944 306.234,573.944 C305.452,573.944 304.7635,574.148 304.1685,574.556 C303.5735,574.964 303.1145,575.491 302.7915,576.137 L302.7915,576.137 L302.7405,576.137 L302.7405,574.301 L298.7115,574.301 L298.7115,587 L302.8935,587 Z M310.9515,572.5415 C311.2745,572.5415 311.58475,572.482 311.88225,572.363 C312.17975,572.244 312.43475,572.0825 312.64725,571.8785 C312.85975,571.6745 313.02975,571.43225 313.15725,571.15175 C313.28475,570.87125 313.3485,570.5695 313.3485,570.2465 C313.3485,569.9235 313.28475,569.62175 313.15725,569.34125 C313.02975,569.06075 312.85975,568.8185 312.64725,568.6145 C312.43475,568.4105 312.17975,568.249 311.88225,568.13 C311.58475,568.011 311.2745,567.9515 310.9515,567.9515 C310.6115,567.9515 310.297,568.01525 310.008,568.14275 C309.719,568.27025 309.464,568.436 309.243,568.64 C309.022,568.844 308.852,569.08625 308.733,569.36675 C308.614,569.64725 308.5545,569.9405 308.5545,570.2465 C308.5545,570.8755 308.784,571.41525 309.243,571.86575 C309.702,572.31625 310.2715,572.5415 310.9515,572.5415 Z M313.0425,587 L313.0425,574.301 L308.8605,574.301 L308.8605,587 L313.0425,587 Z M322.707,587.408 C323.999,587.408 325.13375,587.17425 326.11125,586.70675 C327.08875,586.23925 327.875,585.572 328.47,584.705 L328.47,584.705 L325.563,582.869 C325.274,583.26 324.9,583.57875 324.441,583.82525 C323.982,584.07175 323.421,584.195 322.758,584.195 C322.384,584.195 322.02275,584.1355 321.67425,584.0165 C321.32575,583.8975 321.01125,583.73175 320.73075,583.51925 C320.45025,583.30675 320.22075,583.056 320.04225,582.767 C319.86375,582.478 319.7575,582.155 319.7235,581.798 L319.7235,581.798 L328.929,581.798 C328.946,581.645 328.9545,581.4835 328.9545,581.3135 L328.9545,581.3135 L328.9545,580.8035 C328.9545,579.7155 328.79725,578.7465 328.48275,577.8965 C328.16825,577.0465 327.7305,576.324 327.1695,575.729 C326.6085,575.134 325.937,574.67925 325.155,574.36475 C324.373,574.05025 323.5145,573.893 322.5795,573.893 C321.6105,573.893 320.7095,574.0545 319.8765,574.3775 C319.0435,574.7005 318.321,575.15525 317.709,575.74175 C317.097,576.32825 316.6125,577.04225 316.2555,577.88375 C315.8985,578.72525 315.72,579.6645 315.72,580.7015 C315.72,581.7725 315.90275,582.7245 316.26825,583.5575 C316.63375,584.3905 317.13525,585.09175 317.77275,585.66125 C318.41025,586.23075 319.154,586.66425 320.004,586.96175 C320.854,587.25925 321.755,587.408 322.707,587.408 Z M325.104,579.197 L319.7235,579.197 C319.7405,578.874 319.8255,578.56375 319.9785,578.26625 C320.1315,577.96875 320.3355,577.7095 320.5905,577.4885 C320.8455,577.2675 321.143,577.09325 321.483,576.96575 C321.823,576.83825 322.197,576.7745 322.605,576.7745 C323.438,576.7745 324.06275,577.0125 324.47925,577.4885 C324.89575,577.9645 325.104,578.534 325.104,579.197 L325.104,579.197 Z M335.763,587 L335.763,580.115 C335.763,579.758 335.80975,579.41375 335.90325,579.08225 C335.99675,578.75075 336.137,578.4575 336.324,578.2025 C336.511,577.9475 336.74475,577.74775 337.02525,577.60325 C337.30575,577.45875 337.633,577.3865 338.007,577.3865 C338.381,577.3865 338.69125,577.45875 338.93775,577.60325 C339.18425,577.74775 339.3755,577.94325 339.5115,578.18975 C339.6475,578.43625 339.74525,578.721 339.80475,579.044 C339.86425,579.367 339.894,579.707 339.894,580.064 L339.894,580.064 L339.894,587 L344.1015,587 L344.1015,579.146 C344.1015,578.517 344.02075,577.888 343.85925,577.259 C343.69775,576.63 343.43425,576.07325 343.06875,575.58875 C342.70325,575.10425 342.223,574.709 341.628,574.403 C341.033,574.097 340.3105,573.944 339.4605,573.944 C339.0185,573.944 338.602,574.0035 338.211,574.1225 C337.82,574.2415 337.45875,574.3945 337.12725,574.5815 C336.79575,574.7685 336.50675,574.99375 336.26025,575.25725 C336.01375,575.52075 335.814,575.7885 335.661,576.0605 L335.661,576.0605 L335.61,576.0605 L335.61,574.301 L331.5555,574.301 L331.5555,587 L335.763,587 Z M353.7405,587.408 C354.6755,587.408 355.5595,587.2635 356.3925,586.9745 C357.2255,586.6855 357.9055,586.286 358.4325,585.776 L358.4325,585.776 L356.112,582.9455 C355.857,583.2515 355.52125,583.48525 355.10475,583.64675 C354.68825,583.80825 354.2675,583.889 353.8425,583.889 C353.3835,583.889 352.97125,583.804 352.60575,583.634 C352.24025,583.464 351.92575,583.23025 351.66225,582.93275 C351.39875,582.63525 351.199,582.291 351.063,581.9 C350.927,581.509 350.859,581.0925 350.859,580.6505 C350.859,580.2085 350.93125,579.792 351.07575,579.401 C351.22025,579.01 351.42,578.66575 351.675,578.36825 C351.93,578.07075 352.236,577.83275 352.593,577.65425 C352.95,577.47575 353.3495,577.3865 353.7915,577.3865 C354.2165,577.3865 354.633,577.48 355.041,577.667 C355.449,577.854 355.772,578.1005 356.01,578.4065 L356.01,578.4065 L358.4325,575.6015 C358.1775,575.3465 357.87575,575.11275 357.52725,574.90025 C357.17875,574.68775 356.79625,574.50925 356.37975,574.36475 C355.96325,574.22025 355.52975,574.1055 355.07925,574.0205 C354.62875,573.9355 354.174,573.893 353.715,573.893 C352.729,573.893 351.8025,574.05025 350.9355,574.36475 C350.0685,574.67925 349.31625,575.12975 348.67875,575.71625 C348.04125,576.30275 347.53975,577.0125 347.17425,577.8455 C346.80875,578.6785 346.626,579.6135 346.626,580.6505 C346.626,581.7045 346.80875,582.648 347.17425,583.481 C347.53975,584.314 348.04125,585.02375 348.67875,585.61025 C349.31625,586.19675 350.0685,586.643 350.9355,586.949 C351.8025,587.255 352.7375,587.408 353.7405,587.408 Z M366.4395,587.408 C367.7315,587.408 368.86625,587.17425 369.84375,586.70675 C370.82125,586.23925 371.6075,585.572 372.2025,584.705 L372.2025,584.705 L369.2955,582.869 C369.0065,583.26 368.6325,583.57875 368.1735,583.82525 C367.7145,584.07175 367.1535,584.195 366.4905,584.195 C366.1165,584.195 365.75525,584.1355 365.40675,584.0165 C365.05825,583.8975 364.74375,583.73175 364.46325,583.51925 C364.18275,583.30675 363.95325,583.056 363.77475,582.767 C363.59625,582.478 363.49,582.155 363.456,581.798 L363.456,581.798 L372.6615,581.798 C372.6785,581.645 372.687,581.4835 372.687,581.3135 L372.687,581.3135 L372.687,580.8035 C372.687,579.7155 372.52975,578.7465 372.21525,577.8965 C371.90075,577.0465 371.463,576.324 370.902,575.729 C370.341,575.134 369.6695,574.67925 368.8875,574.36475 C368.1055,574.05025 367.247,573.893 366.312,573.893 C365.343,573.893 364.442,574.0545 363.609,574.3775 C362.776,574.7005 362.0535,575.15525 361.4415,575.74175 C360.8295,576.32825 360.345,577.04225 359.988,577.88375 C359.631,578.72525 359.4525,579.6645 359.4525,580.7015 C359.4525,581.7725 359.63525,582.7245 360.00075,583.5575 C360.36625,584.3905 360.86775,585.09175 361.50525,585.66125 C362.14275,586.23075 362.8865,586.66425 363.7365,586.96175 C364.5865,587.25925 365.4875,587.408 366.4395,587.408 Z M368.8365,579.197 L363.456,579.197 C363.473,578.874 363.558,578.56375 363.711,578.26625 C363.864,577.96875 364.068,577.7095 364.323,577.4885 C364.578,577.2675 364.8755,577.09325 365.2155,576.96575 C365.5555,576.83825 365.9295,576.7745 366.3375,576.7745 C367.1705,576.7745 367.79525,577.0125 368.21175,577.4885 C368.62825,577.9645 368.8365,578.534 368.8365,579.197 L368.8365,579.197 Z" id="Audienceexperience" fill="#FFFFFF" fill-rule="nonzero"></path>
    </g>
</svg>