<?xml version="1.0" encoding="UTF-8"?>
<svg width="50px" height="50px" viewBox="0 0 50 50" version="1.1" xmlns="http://www.w3.org/2000/svg" xmlns:xlink="http://www.w3.org/1999/xlink">
    <title>beach</title>
    <g id="beach" stroke="none" stroke-width="1" fill="none" fill-rule="evenodd">
        <g id="ðŸ" class="lightest-text-color-fill" transform="translate(4.345703, 1.068359)" fill-rule="nonzero">
            <path d="M20.6772461,47.734375 C16.5463867,47.734375 12.9280599,47.3327637 9.82226562,46.529541 C6.71647135,45.7263184 4.30297852,44.6324056 2.58178711,43.2478027 C0.860595703,41.8631999 0,40.2911784 0,38.5317383 C0,37.1853841 0.627278646,35.9384766 1.88183594,34.7910156 C3.13639323,33.6435547 4.83081055,32.6796875 6.96508789,31.8994141 C9.09936523,31.1191406 11.4746094,30.6219076 14.0908203,30.4077148 L12.4155273,32.4731445 C10.4265951,32.6720378 8.63273112,33.0889486 7.03393555,33.723877 C5.43513997,34.3588053 4.16910807,35.1008301 3.23583984,35.9499512 C2.30257161,36.7990723 1.8359375,37.659668 1.8359375,38.5317383 C1.8359375,39.5415039 2.29874674,40.4938965 3.22436523,41.388916 C4.14998372,42.2839355 5.45808919,43.0680339 7.14868164,43.7412109 C8.83927409,44.414388 10.8320313,44.9422201 13.1269531,45.324707 C15.421875,45.707194 17.9386393,45.8984375 20.6772461,45.8984375 C23.4311523,45.8984375 25.9555664,45.7110189 28.2504883,45.3361816 C30.5454102,44.9613444 32.5305176,44.4373372 34.2058105,43.7641602 C35.8811035,43.0909831 37.1777344,42.3068848 38.0957031,41.4118652 C39.0136719,40.5168457 39.4726562,39.5568034 39.4726562,38.5317383 C39.4726562,37.6902669 38.9601237,36.8411458 37.9350586,35.984375 C36.9099935,35.1276042 35.5177409,34.3702799 33.7583008,33.7124023 C31.9988607,33.0545247 30.0175781,32.6031901 27.8144531,32.3583984 L27.8833008,30.6142578 C30.5148112,30.8896484 32.8365072,31.4251302 34.8483887,32.2207031 C36.8602702,33.016276 38.4399414,33.9610189 39.5874023,35.0549316 C40.7348633,36.1488444 41.3085938,37.3077799 41.3085938,38.5317383 C41.3085938,40.3370768 40.4365234,41.9320475 38.6923828,43.3166504 C36.9482422,44.7012533 34.5270996,45.7836914 31.4289551,46.5639648 C28.3308105,47.3442383 24.7469076,47.734375 20.6772461,47.734375 Z M10.7172852,42.9838867 C9.89111328,42.6778971 8.92724609,41.9358724 7.82568359,40.7578125 C7.3819987,40.2682292 7.03776042,39.9316406 6.79296875,39.7480469 C6.54817708,39.5644531 6.24983724,39.3732096 5.89794922,39.1743164 C5.57666016,38.9907227 5.35099284,38.8453776 5.22094727,38.7382812 C5.09090169,38.6311849 4.97233073,38.5011393 4.86523438,38.3481445 L5.94384766,37.6137695 C6.2804362,37.9044596 6.65527344,38.1377767 7.06835938,38.3137207 C7.48144531,38.4896647 8.0398763,38.9754232 8.74365234,39.7709961 C9.66162109,40.7960612 10.457194,41.4386393 11.1303711,41.6987305 L10.7172852,42.9838867 Z M17.8085938,26.3227539 C16.7070312,26.0167643 15.8311361,25.4200846 15.1809082,24.5327148 C14.5306803,23.6453451 14.2055664,22.5284831 14.2055664,21.1821289 C14.2055664,21.0138346 14.2055664,20.8531901 14.2055664,20.7001953 C14.2055664,20.5472005 14.2132161,20.3942057 14.2285156,20.2412109 L9.84521484,24.6245117 C8.98844401,23.293457 8.56005859,21.8017578 8.56005859,20.1494141 C8.56005859,18.7724609 8.85457357,17.5217285 9.44360352,16.3972168 C10.0326335,15.2727051 10.8626302,14.3203125 11.9335938,13.5400391 L7.06835938,13.4711914 C7.00716146,13.2263997 6.9765625,12.9586589 6.9765625,12.6679688 C6.9765625,11.4440104 7.3055013,10.3730469 7.96337891,9.45507812 C8.62125651,8.53710938 9.48185221,7.82568359 10.545166,7.32080078 C11.6084798,6.81591797 12.7291667,6.56347656 13.9072266,6.56347656 C14.7945964,6.56347656 15.6513672,6.70117188 16.4775391,6.9765625 C16.4622396,6.88476562 16.4545898,6.78914388 16.4545898,6.68969727 C16.4545898,6.59025065 16.4545898,6.49462891 16.4545898,6.40283203 C16.4545898,4.47509766 17.0550944,2.92602539 18.2561035,1.75561523 C19.4571126,0.585205078 21.0597331,0 23.0639648,0 C23.4464518,0 23.7753906,0.0229492188 24.0507812,0.0688476562 L23.5458984,4.93408203 C24.3108724,4.30680339 25.1140951,3.82869466 25.9555664,3.49975586 C26.7970378,3.17081706 27.6461589,3.00634766 28.5029297,3.00634766 C29.6809896,3.00634766 30.7481283,3.3046875 31.7043457,3.90136719 C32.6605632,4.49804688 33.3528646,5.29361979 33.78125,6.28808594 L28.8012695,9.84521484 C30.8513997,9.92171224 32.4501953,10.5375163 33.5976562,11.692627 C34.7451172,12.8477376 35.3188477,14.3585612 35.3188477,16.2250977 C35.3188477,17.4643555 35.1276042,18.4129232 34.7451172,19.0708008 L23.1098633,15.7202148 L17.8085938,26.3227539 Z M25.2441406,43.8789062 L25.175293,42.4790039 C25.4047852,42.4025065 25.6610514,42.3527832 25.9440918,42.329834 C26.2271322,42.3068848 26.4910482,42.2954102 26.7358398,42.2954102 C28.1892904,42.2954102 29.2908529,42.1959635 30.0405273,41.9970703 C30.7902018,41.7981771 31.3639323,41.5304362 31.7617188,41.1938477 C32.1595052,40.8572591 32.5458171,40.4824219 32.9206543,40.0693359 C33.2954915,39.65625 33.8347982,39.2355143 34.5385742,38.8071289 L35.2729492,40.0234375 C34.7068685,40.3294271 34.2249349,40.6889648 33.8271484,41.1020508 C33.429362,41.5151367 32.9780273,41.916748 32.4731445,42.3068848 C31.9682617,42.6970215 31.2721354,43.0221354 30.3847656,43.2822266 C29.4973958,43.5423177 28.2810872,43.6723633 26.7358398,43.6723633 C26.5369466,43.6723633 26.2921549,43.6876628 26.0014648,43.7182617 C25.7107747,43.7488607 25.4583333,43.8024089 25.2441406,43.8789062 Z M26.2998047,29.6044922 C25.733724,29.6044922 25.1944173,29.5624186 24.6818848,29.4782715 C24.1693522,29.3941243 23.675944,29.2679036 23.2016602,29.0996094 L23.706543,27.8144531 C24.5174154,28.0898438 25.3665365,28.2275391 26.2539062,28.2275391 C26.8658854,28.2275391 27.4855143,28.1739909 28.112793,28.0668945 L28.3193359,29.4438477 C27.9827474,29.4897461 27.642334,29.5279948 27.2980957,29.5585938 C26.9538574,29.5891927 26.6210938,29.6044922 26.2998047,29.6044922 Z M24.0048828,25.8637695 L24.0048828,24.4868164 C24.8310547,24.4868164 25.5386556,24.4485677 26.1276855,24.3720703 C26.7167155,24.2955729 27.141276,24.1961263 27.4013672,24.0737305 L28.112793,25.2900391 C27.6079102,25.5348307 26.9423828,25.6916504 26.1162109,25.760498 C25.2900391,25.8293457 24.586263,25.8637695 24.0048828,25.8637695 Z M23.8442383,22.2607422 L23.8442383,20.8837891 C24.8846029,20.8837891 25.733724,20.6542969 26.3916016,20.1953125 L27.3095703,21.2739258 C26.3610026,21.9318034 25.2058919,22.2607422 23.8442383,22.2607422 Z M25.6342773,33.0927734 C24.2726237,33.0927734 23.2819824,32.9359538 22.6623535,32.6223145 C22.0427246,32.3086751 21.7329102,31.6928711 21.7329102,30.7749023 C21.7329102,30.3771159 21.7864583,29.9869792 21.8935547,29.6044922 C22.000651,29.2220052 22.1230469,28.847168 22.2607422,28.4799805 C22.4749349,27.9291992 22.6661784,27.3172201 22.8344727,26.644043 C23.0027669,25.9708659 23.0869141,25.144694 23.0869141,24.1655273 C23.0869141,23.0333659 22.9377441,21.9509277 22.6394043,20.9182129 C22.3410645,19.885498 21.8400065,18.7648112 21.1362305,17.5561523 L22.5361328,16.7529297 C23.2858073,18.0533854 23.8327637,19.2964681 24.177002,20.4821777 C24.5212402,21.6678874 24.6933594,22.8956706 24.6933594,24.1655273 C24.6933594,25.2823893 24.5939128,26.230957 24.3950195,27.0112305 C24.1961263,27.7915039 23.9895833,28.4723307 23.7753906,29.0537109 C23.6223958,29.4667969 23.5114746,29.8033854 23.442627,30.0634766 C23.3737793,30.3235677 23.3393555,30.5607096 23.3393555,30.7749023 C23.3393555,31.050293 23.442627,31.2377116 23.6491699,31.3371582 C23.8557129,31.4366048 24.5174154,31.4863281 25.6342773,31.4863281 C26.6287435,31.4863281 27.229248,31.4519043 27.435791,31.3830566 C27.642334,31.314209 27.7456055,31.2415365 27.7456055,31.1650391 C27.7456055,24.8310547 26.5598958,19.7516276 24.1884766,15.9267578 L25.5654297,15.0776367 C28.0898438,19.1778971 29.3520508,24.5403646 29.3520508,31.1650391 C29.3520508,31.9453125 29.0384115,32.4616699 28.4111328,32.7141113 C27.7838542,32.9665527 26.8582357,33.0927734 25.6342773,33.0927734 Z M22.7885742,19.1396484 L22.7885742,17.7626953 C23.7983398,17.7626953 24.6321615,17.5255534 25.2900391,17.0512695 L26.2080078,18.1298828 C25.7796224,18.4205729 25.2517904,18.6615397 24.6245117,18.8527832 C23.9972331,19.0440267 23.3852539,19.1396484 22.7885742,19.1396484 Z M22.0541992,15.3759766 L19.1166992,14.3891602 C18.7954102,14.2667643 18.6347656,14.0602214 18.6347656,13.7695312 C18.6347656,13.4176432 18.8183594,13.2416992 19.1855469,13.2416992 C19.3538411,13.2416992 19.5221354,13.2722982 19.6904297,13.3334961 L21.5263672,13.9990234 L20.4248047,12.0024414 C20.3177083,11.8341471 20.2641602,11.6658529 20.2641602,11.4975586 C20.2641602,11.1456706 20.4401042,10.9697266 20.7919922,10.9697266 C21.0367839,10.9697266 21.2433268,11.1150716 21.4116211,11.4057617 L22.6508789,13.5400391 L22.9492188,12.0024414 C23.0410156,11.5128581 23.2552083,11.2680664 23.5917969,11.2680664 C23.7600911,11.2680664 23.8939616,11.3522135 23.9934082,11.5205078 C24.0928548,11.6888021 24.1119792,11.9029948 24.0507812,12.1630859 L23.5458984,14.7104492 L22.0541992,15.3759766 Z M19.4838867,36.0532227 C18.917806,36.0532227 18.4435221,35.8619792 18.0610352,35.4794922 C17.6785482,35.0970052 17.4873047,34.6303711 17.4873047,34.0795898 C17.4873047,33.5288086 17.6785482,33.0621745 18.0610352,32.6796875 C18.4435221,32.2972005 18.917806,32.105957 19.4838867,32.105957 C20.034668,32.105957 20.5013021,32.2972005 20.8837891,32.6796875 C21.266276,33.0621745 21.4575195,33.5288086 21.4575195,34.0795898 C21.4575195,34.6303711 21.266276,35.0970052 20.8837891,35.4794922 C20.5013021,35.8619792 20.034668,36.0532227 19.4838867,36.0532227 Z M20.4018555,40.9414062 C19.7745768,40.9414062 19.2084961,40.8190104 18.7036133,40.5742188 C18.1987305,40.3294271 17.6900228,40.0846354 17.1774902,39.8398438 C16.6649577,39.5950521 16.0797526,39.4726562 15.421875,39.4726562 C14.9169922,39.4726562 14.335612,39.5032552 13.6777344,39.5644531 C12.7444661,39.65625 12.0062663,39.6141764 11.4631348,39.4382324 C10.9200033,39.2622884 10.4036458,38.891276 9.9140625,38.3251953 C9.73046875,38.1110026 9.55452474,37.923584 9.38623047,37.7629395 C9.2179362,37.6022949 8.9387207,37.3575033 8.54858398,37.0285645 C8.15844727,36.6996257 7.52734375,36.190918 6.65527344,35.5024414 C7.66503906,34.1407878 8.92342122,32.9550781 10.4304199,31.9453125 C11.9374186,30.9355469 13.570638,30.1514486 15.3300781,29.5930176 C17.0895182,29.0345866 18.8489583,28.7553711 20.6083984,28.7553711 C21.1132812,28.7553711 21.6258138,28.7706706 22.1459961,28.8012695 C22.6661784,28.8318685 23.1940104,28.8854167 23.7294922,28.9619141 L22.765625,30.6601562 C22.1077474,30.6142578 21.3886719,30.5913086 20.6083984,30.5913086 C18.9254557,30.5913086 17.4031576,30.7825521 16.0415039,31.1650391 C14.6798503,31.547526 13.4482422,32.0906576 12.3466797,32.7944336 C11.2451172,33.4982096 10.2200521,34.3243815 9.27148438,35.2729492 C9.86816406,35.7472331 10.2927246,36.0991211 10.545166,36.3286133 C10.7976074,36.5581055 11.046224,36.8181966 11.2910156,37.1088867 C11.5817057,37.4301758 11.8570964,37.6328939 12.1171875,37.717041 C12.3772786,37.8011882 12.836263,37.805013 13.4941406,37.7285156 C13.8919271,37.6826172 14.2361654,37.6558431 14.5268555,37.6481934 C14.8175456,37.6405436 15.1158854,37.6367188 15.421875,37.6367188 C16.125651,37.6367188 16.7758789,37.7591146 17.3725586,38.0039062 C17.9692383,38.2486979 18.5238444,38.4934896 19.036377,38.7382812 C19.5489095,38.9830729 20.004069,39.1054688 20.4018555,39.1054688 C20.8455404,39.1054688 21.2854004,38.9754232 21.7214355,38.715332 C22.1574707,38.4552409 22.6508789,38.1989746 23.2016602,37.9465332 C23.7524414,37.6940918 24.410319,37.5678711 25.175293,37.5678711 C25.4047852,37.5678711 25.7757975,37.5984701 26.2883301,37.659668 C26.8008626,37.7208659 27.3210449,37.7667643 27.848877,37.7973633 C28.376709,37.8279622 28.7630208,37.8126628 29.0078125,37.7514648 C29.6044922,37.5831706 30.139974,37.2389323 30.6142578,36.71875 C31.0885417,36.1985677 31.5704753,35.7625326 32.0600586,35.4106445 C31.6316732,34.9210612 31.1114909,34.3855794 30.4995117,33.8041992 C29.8875326,33.222819 29.1761068,32.6873372 28.3652344,32.1977539 L31.4404297,32.7485352 C32.1442057,33.2840169 32.7600098,33.8271484 33.2878418,34.3779297 C33.8156738,34.9287109 34.2249349,35.5330404 34.515625,36.190918 C33.7353516,36.4357096 33.1233724,36.7684733 32.6796875,37.189209 C32.2360026,37.6099447 31.7999674,38.0345052 31.371582,38.4628906 C30.9431966,38.891276 30.3541667,39.2355143 29.6044922,39.4956055 C29.2373047,39.6180013 28.7553711,39.6677246 28.1586914,39.6447754 C27.5620117,39.6218262 26.9844564,39.5759277 26.4260254,39.5070801 C25.8675944,39.4382324 25.4506836,39.4038086 25.175293,39.4038086 C24.5174154,39.4038086 23.9551595,39.5300293 23.4885254,39.7824707 C23.0218913,40.0349121 22.5552572,40.2911784 22.088623,40.5512695 C21.6219889,40.8113607 21.0597331,40.9414062 20.4018555,40.9414062 Z M17.0053711,23.8442383 L22.1459961,13.5400391 L33.4599609,16.7988281 C33.4752604,16.6764323 33.4829102,16.4851888 33.4829102,16.2250977 C33.4829102,14.7716471 33.0736491,13.6280111 32.255127,12.7941895 C31.4366048,11.9603678 30.2317708,11.543457 28.640625,11.543457 C28.3499349,11.543457 28.0592448,11.5587565 27.7685547,11.5893555 C27.4778646,11.6199544 27.1871745,11.6811523 26.8964844,11.7729492 L25.7260742,9.77636719 L31.2568359,5.82910156 C30.5071615,5.17122396 29.5891927,4.84228516 28.5029297,4.84228516 C28.0286458,4.84228516 27.4013672,4.96085612 26.6210938,5.19799805 C25.8408203,5.43513997 25.0146484,6.00504557 24.1425781,6.90771484 L21.5493164,6.26513672 L22.0541992,1.60644531 L23.0639648,1.74414062 C21.5799154,1.74414062 20.4133301,2.1648763 19.564209,3.00634766 C18.7150879,3.84781901 18.2905273,4.97998047 18.2905273,6.40283203 C18.2905273,6.67822266 18.2981771,6.90771484 18.3134766,7.09130859 C18.328776,7.27490234 18.3670247,7.51204427 18.4282227,7.80273438 L16.7988281,9.11083984 C16.2633464,8.8507487 15.7546387,8.66715495 15.2727051,8.56005859 C14.7907715,8.45296224 14.335612,8.39941406 13.9072266,8.39941406 C12.484375,8.39941406 11.279541,8.78190104 10.2927246,9.546875 C9.3059082,10.311849 8.8125,11.3522135 8.8125,12.6679688 L8.51416016,11.7041016 L15.1694336,11.7041016 L15.1694336,13.953125 C13.3334961,14.5957031 12.0789388,15.5021973 11.4057617,16.6726074 C10.7325846,17.8430176 10.3959961,19.0019531 10.3959961,20.1494141 C10.3959961,20.531901 10.4342448,20.9373372 10.5107422,21.3657227 L15.3759766,16.5004883 L16.8676758,17.7626953 C16.5769857,18.2828776 16.3666178,18.8145345 16.2365723,19.357666 C16.1065267,19.9007975 16.0415039,20.5089518 16.0415039,21.1821289 C16.0415039,22.3295898 16.362793,23.2169596 17.0053711,23.8442383 Z" id="Shape"></path>
        </g>
    </g>
</svg>
