<?xml version="1.0" encoding="UTF-8"?>
<svg width="70px" height="70px" viewBox="0 0 70 70" version="1.1" xmlns="http://www.w3.org/2000/svg" xmlns:xlink="http://www.w3.org/1999/xlink">
    <title>favicon</title>
    <defs>
        <linearGradient x1="86.9619244%" y1="16.4904395%" x2="-31.445624%" y2="133.867638%" id="linearGradient-1">
            <stop stop-color="#F00414" offset="0%"></stop>
            <stop stop-color="#FAC212" offset="100%"></stop>
        </linearGradient>
    </defs>
    <g id="favicon" stroke="none" stroke-width="1" fill="none" fill-rule="evenodd">
        <circle id="Oval" fill="url(#linearGradient-1)" cx="35" cy="35" r="35"></circle>
        <g id="🦒" transform="translate(10.373770, 71.643555) scale(-1, 1) translate(-10.373770, -71.643555) translate(-38.888925, 12.361328)" fill="#FFFFFF" fill-rule="nonzero">
            <path d="M47.5927734,118.564453 C45.7373047,118.564453 43.9560547,118.174805 42.2490234,117.395508 C40.5419922,116.616211 39.3544922,115.317383 38.6865234,113.499023 C39.0947266,112.051758 39.3916016,110.548828 39.5771484,108.990234 C39.7626953,107.431641 39.8554688,105.928711 39.8554688,104.481445 C39.8554688,103.219727 39.753418,101.80957 39.5493164,100.250977 C39.3452148,98.6923828 39.0947266,97.0874023 38.7978516,95.4360352 C38.5009766,93.784668 38.1855469,92.2167969 37.8515625,90.7324219 C37.5175781,89.2480469 37.2207031,87.9492188 36.9609375,86.8359375 C36.7011719,85.6484375 36.4228516,84.5073242 36.1259766,83.4125977 C35.8291016,82.3178711 35.4951172,81.3808594 35.1240234,80.6015625 C32.3408203,77.7441406 30.309082,75.1650391 29.0288086,72.8642578 C27.7485352,70.5634766 27.1083984,67.8359375 27.1083984,64.6816406 C27.1083984,63.9023438 27.1733398,62.909668 27.3032227,61.7036133 C27.4331055,60.4975586 27.5908203,59.375 27.7763672,58.3359375 L21.4863281,44.4199219 C21.0039062,43.34375 20.4287109,42.0170898 19.7607422,40.4399414 C19.0927734,38.862793 18.4433594,37.2207031 17.8125,35.5136719 L14.9179687,35.7919922 C14.3242188,35.8291016 13.4892578,35.8662109 12.4130859,35.9033203 C11.3369141,35.9404297 10.3720703,35.9589844 9.51855469,35.9589844 C6.80957031,35.9589844 4.54589844,35.2446289 2.72753906,33.815918 C0.909179688,32.387207 0,30.2626953 0,27.4423828 C0,25.0673828 0.834960938,22.9335938 2.50488281,21.0410156 C4.17480469,19.1484375 6.6796875,17.4970703 10.0195312,16.0869141 L10.5205078,15.0849609 C11.8564453,12.5615234 13.6191406,10.4833984 15.8085938,8.85058594 C17.9980469,7.21777344 20.4101562,6.40136719 23.0449219,6.40136719 C24.6035156,6.40136719 26.1806641,6.68896484 27.7763672,7.26416016 C29.3720703,7.83935547 30.8193359,8.59082031 32.1181641,9.51855469 C32.8974609,9.37011719 33.6210938,9.26806641 34.2890625,9.21240234 C34.9570312,9.15673828 35.6435547,9.12890625 36.3486328,9.12890625 C37.9072266,9.12890625 39.5214844,9.37939453 41.1914062,9.88037109 C42.8613281,10.3813477 44.4384766,11.1142578 45.9228516,12.0791016 C47.4072266,13.0439453 48.6318359,14.2685547 49.5966797,15.7529297 C49.4853516,17.9052734 48.5947266,20.1225586 46.9248047,22.4047852 C45.2548828,24.6870117 43.0283203,26.421875 40.2451172,27.609375 C40.8759766,29.2421875 41.7758789,31.1811523 42.9448242,33.4262695 C44.1137695,35.6713867 45.2177734,37.3876953 46.2568359,38.5751953 L55.3300781,44.8095703 C55.9238281,45.5146484 56.4526367,46.2197266 56.9165039,46.9248047 C57.3803711,47.6298828 57.8349609,48.4091797 58.2802734,49.2626953 C58.9111328,49.4111328 59.4863281,49.5317383 60.0058594,49.6245117 C60.5253906,49.7172852 60.9150391,49.7636719 61.1748047,49.7636719 C63.4013672,49.7636719 65.4794922,49.9492188 67.4091797,50.3203125 C69.3388672,50.6914062 70.9160156,51.0253906 72.140625,51.3222656 C74.3671875,51.8789062 76.4174805,53.0200195 78.2915039,54.7456055 C80.1655273,56.4711914 81.668457,58.6049805 82.800293,61.1469727 C83.9321289,63.6889648 84.4980469,66.4814453 84.4980469,69.5244141 C84.4980469,72.0478516 83.9506836,74.4692383 82.855957,76.7885742 C81.7612305,79.1079102 80.2119141,81.34375 78.2080078,83.4960938 C78.0595703,87.3554688 77.4379883,91.0014648 76.3432617,94.434082 C75.2485352,97.8666992 73.7548828,102.013672 71.8623047,106.875 L71.0830078,113.610352 C70.4521484,115.391602 69.3666992,116.662598 67.8266602,117.42334 C66.2866211,118.184082 64.5888672,118.564453 62.7333984,118.564453 C60.9892578,118.564453 59.4863281,118.323242 58.2246094,117.84082 C56.9628906,117.358398 55.9423828,116.597656 55.1630859,115.558594 C54.2353516,116.486328 53.0756836,117.219238 51.684082,117.757324 C50.2924805,118.29541 48.9287109,118.564453 47.5927734,118.564453 Z M29.2792969,115.558594 C28.1660156,115.558594 27.0898438,115.46582 26.0507812,115.280273 C25.0117188,115.094727 24.4921875,114.779297 24.4921875,114.333984 C24.4921875,113.888672 24.7055664,113.165039 25.1323242,112.163086 C25.559082,111.161133 25.9023438,110.456055 26.1621094,110.047852 C26.3847656,109.268555 26.5888672,108.081055 26.7744141,106.485352 C26.9599609,104.889648 27.1083984,103.210449 27.2197266,101.447754 C27.3310547,99.6850586 27.3867188,98.2099609 27.3867188,97.0224609 C27.3867188,94.5361328 27.3496094,92.1425781 27.2753906,89.8417969 C27.2011719,87.5410156 27.1640625,84.7949219 27.1640625,81.6035156 L27.1640625,65.4609375 L36.8496094,78.6533203 L36.2373047,91.4560547 C36.2373047,91.8642578 36.2001953,92.9960938 36.1259766,94.8515625 C36.0517578,96.7070312 35.9868164,98.8686523 35.9311523,101.336426 C35.8754883,103.804199 35.8198242,106.197754 35.7641602,108.51709 C35.7084961,110.836426 35.6806641,112.682617 35.6806641,114.055664 C35.5322266,114.538086 35.0219727,114.90918 34.1499023,115.168945 C33.277832,115.428711 31.6542969,115.558594 29.2792969,115.558594 Z M55.5527344,104.871094 C55.7382812,104.128906 55.9516602,103.358887 56.1928711,102.561035 C56.434082,101.763184 56.6845703,100.993164 56.9443359,100.250977 L59.4492188,92.4580078 C59.3378906,91.1591797 59.1523438,89.7211914 58.8925781,88.144043 C58.6328125,86.5668945 58.2431641,84.5166016 57.7236328,81.9931641 L55.1074219,82.3271484 C54.9960938,83.3662109 54.894043,84.581543 54.8012695,85.9731445 C54.7084961,87.3647461 54.6621094,88.7285156 54.6621094,90.0644531 C54.6621094,92.5507812 54.7084961,94.5546875 54.8012695,96.0761719 C54.894043,97.5976562 54.9589844,98.6367188 54.9960938,99.1933594 L55.5527344,104.871094 Z M46.3681641,84.9433594 C45.9970703,84.9433594 45.6259766,84.7670898 45.2548828,84.4145508 C44.8837891,84.0620117 44.6982422,83.71875 44.6982422,83.3847656 C44.6982422,83.0878906 44.7817383,82.7260742 44.9487305,82.2993164 C45.1157227,81.8725586 45.1992188,81.5107422 45.1992188,81.2138672 C45.1992188,80.6201172 44.828125,80.0078125 44.0859375,79.3769531 C43.34375,78.7460938 42.6015625,78.1152344 41.859375,77.484375 C41.1171875,76.8535156 40.7460938,76.2597656 40.7460938,75.703125 C40.7460938,75.109375 41.1357422,74.8125 41.9150391,74.8125 C43.6591797,74.8125 45.1435547,75.378418 46.3681641,76.5102539 C47.5927734,77.6420898 48.2050781,79.0800781 48.2050781,80.8242188 C48.2050781,81.8261719 48.0195312,82.7631836 47.6484375,83.6352539 C47.2773438,84.5073242 46.8505859,84.9433594 46.3681641,84.9433594 Z M42.9726562,72.3076172 C42.3046875,72.3076172 41.3305664,72.0664062 40.050293,71.5839844 C38.7700195,71.1015625 37.6103516,70.5634766 36.5712891,69.9697266 C35.5322266,69.3759766 35.0126953,68.9306641 35.0126953,68.6337891 C35.0126953,67.2978516 35.2910156,65.9990234 35.8476562,64.7373047 C36.4042969,63.4755859 36.9794922,62.8447266 37.5732422,62.8447266 C37.9072266,62.8447266 38.621582,63.2250977 39.7163086,63.9858398 C40.8110352,64.746582 41.5810547,65.3681641 42.0263672,65.8505859 C42.6201172,65.3310547 43.3623047,64.8579102 44.2529297,64.4311523 C45.1435547,64.0043945 45.7744141,63.7910156 46.1455078,63.7910156 C46.6650391,63.7910156 47.1196289,64.1621094 47.5092773,64.9042969 C47.8989258,65.6464844 48.09375,66.5 48.09375,67.4648438 C48.09375,68.3183594 47.7875977,69.1162109 47.175293,69.8583984 C46.5629883,70.6005859 45.8486328,71.1943359 45.0322266,71.6396484 C44.2158203,72.0849609 43.5292969,72.3076172 42.9726562,72.3076172 Z M47.5927734,114.111328 C48.3349609,114.111328 49.0400391,113.990723 49.7080078,113.749512 C50.3759766,113.508301 51.0253906,113.146484 51.65625,112.664062 L50.7099609,99.9169922 C50.5615234,98.9150391 50.440918,97.4956055 50.3481445,95.6586914 C50.2553711,93.8217773 50.2089844,91.9570312 50.2089844,90.0644531 C50.2089844,87.7265625 50.3203125,85.4628906 50.5429688,83.2734375 C50.765625,81.0839844 51.0253906,79.4511719 51.3222656,78.375 C52.9179688,78.1894531 54.5507812,77.9389648 56.2207031,77.6235352 C57.890625,77.3081055 59.4677734,76.9091797 60.9521484,76.4267578 C61.9169922,80.1748047 62.640625,83.5239258 63.1230469,86.4741211 C63.6054688,89.4243164 63.8466797,91.5859375 63.8466797,92.9589844 C63.5869141,93.8867188 63.2158203,95.1762695 62.7333984,96.8276367 C62.2509766,98.4790039 61.6943359,100.232422 61.0634766,102.087891 C60.6552734,103.349609 60.2563477,104.694824 59.8666992,106.123535 C59.4770508,107.552246 59.1337891,108.869629 58.8369141,110.075684 C58.5400391,111.281738 58.3544922,112.200195 58.2802734,112.831055 C58.7998047,113.239258 59.4399414,113.554688 60.2006836,113.777344 C60.9614258,114 61.8056641,114.111328 62.7333984,114.111328 C63.6982422,114.111328 64.4868164,114 65.0991211,113.777344 C65.7114258,113.554688 66.2402344,113.257812 66.6855469,112.886719 L67.5761719,105.483398 C69.46875,100.881836 70.9902344,96.753418 72.140625,93.0981445 C73.2910156,89.4428711 73.8662109,85.5371094 73.8662109,81.3808594 C75.2763672,80.0078125 76.6586914,78.2729492 78.0131836,76.1762695 C79.3676758,74.0795898 80.0449219,71.8623047 80.0449219,69.5244141 C80.0449219,66.7041016 79.5439453,64.3198242 78.5419922,62.371582 C77.5400391,60.4233398 76.3154297,58.8833008 74.8681641,57.7514648 C73.4208984,56.6196289 72.0478516,55.8867188 70.7490234,55.5527344 C69.5986328,55.2558594 68.1977539,54.9589844 66.5463867,54.6621094 C64.8950195,54.3652344 63.1044922,54.2167969 61.1748047,54.2167969 C60.4697266,54.2167969 59.5419922,54.0961914 58.3916016,53.8549805 C57.2412109,53.6137695 56.1835938,53.3632812 55.21875,53.1035156 C53.8828125,50.3945312 52.8066406,48.6689453 51.9902344,47.9267578 L43.0839844,41.8037109 C41.7851562,40.2080078 40.5512695,38.3525391 39.3823242,36.2373047 C38.2133789,34.1220703 37.2299805,32.0439453 36.4321289,30.0029297 C35.6342773,27.9619141 35.1240234,26.2919922 34.9013672,24.9931641 C36.0888672,24.8076172 37.4155273,24.2973633 38.8813477,23.4624023 C40.347168,22.6274414 41.6645508,21.6347656 42.8334961,20.484375 C44.0024414,19.3339844 44.7167969,18.2021484 44.9765625,17.0888672 C43.7148438,15.8642578 42.3696289,14.9736328 40.940918,14.4169922 C39.512207,13.8603516 37.9814453,13.5820312 36.3486328,13.5820312 C35.3466797,13.5820312 34.409668,13.6933594 33.5375977,13.9160156 C32.6655273,14.1386719 31.9140625,14.4726562 31.2832031,14.9179688 C30.28125,13.6191406 29.0380859,12.6171875 27.5537109,11.9121094 C26.0693359,11.2070312 24.5664062,10.8544922 23.0449219,10.8544922 C21.4863281,10.8544922 19.9555664,11.3833008 18.4526367,12.440918 C16.949707,13.4985352 15.7529297,14.8251953 14.8623047,16.4208984 L13.4150391,18.9814453 C10.6689453,20.1318359 8.48876953,21.4492188 6.87451172,22.9335938 C5.26025391,24.4179688 4.453125,25.9208984 4.453125,27.4423828 C4.453125,28.7041016 4.86132812,29.6967773 5.67773438,30.4204102 C6.49414062,31.144043 7.77441406,31.5058594 9.51855469,31.5058594 C10.1865234,31.5058594 11.0678711,31.4873047 12.1625977,31.4501953 C13.2573242,31.4130859 14.1757812,31.3759766 14.9179688,31.3388672 L20.8183594,30.9492188 C21.1894531,31.9882812 21.6625977,33.25 22.237793,34.734375 C22.8129883,36.21875 23.3881836,37.6289062 23.9633789,38.9648438 C24.5385742,40.3007812 24.9375,41.2470703 25.1601563,41.8037109 L32.3964844,57.8349609 C32.2109375,58.5400391 32.0253906,59.6347656 31.8398438,61.1191406 C31.6542969,62.6035156 31.5615234,63.7910156 31.5615234,64.6816406 C31.5615234,66.1289062 31.7470703,67.4370117 32.1181641,68.605957 C32.4892578,69.7749023 33.1850586,71.0273438 34.2055664,72.3632812 C35.2260742,73.6992188 36.7011719,75.3691406 38.6308594,77.3730469 C39.1503906,78.3378906 39.6328125,79.6088867 40.078125,81.1860352 C40.5234375,82.7631836 40.9316406,84.3125 41.3027344,85.8339844 C41.5996094,87.0214844 41.9985352,88.7841797 42.4995117,91.1220703 C43.0004883,93.4599609 43.3623047,95.4267578 43.5849609,97.0224609 C43.7705078,98.1728516 43.9375,99.4160156 44.0859375,100.751953 C44.234375,102.087891 44.3085938,103.331055 44.3085938,104.481445 C44.3085938,106.188477 44.2158203,107.709961 44.0302734,109.045898 C43.8447266,110.381836 43.6220703,111.625 43.3623047,112.775391 C43.8818359,113.257812 44.4663086,113.601074 45.1157227,113.805176 C45.7651367,114.009277 46.5908203,114.111328 47.5927734,114.111328 Z M68.0214844,89.3964844 C67.5390625,89.3964844 67.1401367,89.1181641 66.824707,88.5615234 C66.5092773,88.0048828 66.3515625,87.4482422 66.3515625,86.8916016 C66.3515625,86.4833984 66.472168,86.1123047 66.7133789,85.7783203 C66.9545898,85.4443359 67.0751953,85.1289062 67.0751953,84.8320312 C67.0751953,84.4609375 66.9174805,84.043457 66.6020508,83.5795898 C66.2866211,83.1157227 66.1289062,82.7539062 66.1289062,82.4941406 C66.1289062,82.1972656 66.3701172,81.8076172 66.8525391,81.3251953 C67.3349609,80.8427734 67.8637695,80.4067383 68.4389648,80.0170898 C69.0141602,79.6274414 69.4316406,79.4326172 69.6914062,79.4326172 C69.9882812,79.4326172 70.1923828,79.6552734 70.3037109,80.1005859 C70.4150391,80.5458984 70.4707031,81.1025391 70.4707031,81.7705078 C70.4707031,84.2568359 70.2387695,86.1494141 69.7749023,87.4482422 C69.3110352,88.7470703 68.7265625,89.3964844 68.0214844,89.3964844 Z M43.6962891,61.9541016 C42.8427734,61.9541016 41.7109375,61.3789062 40.3007812,60.2285156 C39.1503906,60.0058594 38.2133789,59.6254883 37.4897461,59.0874023 C36.7661133,58.5493164 36.4042969,58.0019531 36.4042969,57.4453125 C36.4042969,56.8886719 36.7197266,56.3134766 37.3505859,55.7197266 C37.9814453,55.1259766 38.7236328,54.625 39.5771484,54.2167969 C40.4306641,53.8085938 41.1542969,53.6044922 41.7480469,53.6044922 C42.5273438,53.6044922 43.3344727,53.9291992 44.1694336,54.5786133 C45.0043945,55.2280273 45.7094727,55.9702148 46.284668,56.8051758 C46.8598633,57.6401367 47.1474609,58.3544922 47.1474609,58.9482422 C47.1474609,59.6533203 46.7299805,60.3305664 45.8950195,60.9799805 C45.0600586,61.6293945 44.3271484,61.9541016 43.6962891,61.9541016 Z M52.9921875,75.5361328 C52.3242188,75.5361328 51.7304688,75.1557617 51.2109375,74.3950195 C50.6914062,73.6342773 50.4316406,73.0126953 50.4316406,72.5302734 C50.4316406,71.8994141 50.8769531,71.1479492 51.7675781,70.2758789 C52.6582031,69.4038086 53.3447266,68.7822266 53.8271484,68.4111328 C54.4580078,67.8916016 55.0888672,67.4555664 55.7197266,67.1030273 C56.3505859,66.7504883 57.0927734,66.5742188 57.9462891,66.5742188 C58.9111328,66.5742188 59.7739258,66.8525391 60.534668,67.4091797 C61.2954102,67.9658203 61.6757812,68.4667969 61.6757812,68.9121094 C61.6757812,69.8398438 61.1655273,70.5727539 60.1450195,71.1108398 C59.1245117,71.6489258 58.2246094,72.3076172 57.4453125,73.0869141 C56.9628906,73.5693359 56.3134766,74.0981445 55.4970703,74.6733398 C54.6806641,75.2485352 53.8457031,75.5361328 52.9921875,75.5361328 Z M9.74121094,26.8857422 C9.14746094,26.8857422 8.85058594,26.6074219 8.85058594,26.0507812 C8.85058594,25.6054688 9.11035156,25.1416016 9.62988281,24.6591797 C10.1494141,24.1767578 10.6503906,23.9355469 11.1328125,23.9355469 C11.7265625,23.9355469 12.0234375,24.2138672 12.0234375,24.7705078 C12.0234375,25.2158203 11.7729492,25.6796875 11.2719727,26.1621094 C10.7709961,26.6445312 10.2607422,26.8857422 9.74121094,26.8857422 Z M35.0683594,52.6582031 C34.3632812,52.6582031 33.6674805,52.2128906 32.980957,51.3222656 C32.2944336,50.4316406 31.9511719,49.5410156 31.9511719,48.6503906 C31.9511719,48.1679688 32.4614258,47.6020508 33.4819336,46.9526367 C34.5024414,46.3032227 35.3652344,45.9785156 36.0703125,45.9785156 C36.7011719,45.9785156 37.3505859,46.4980469 38.0185547,47.5371094 C38.6865234,48.5761719 39.0205078,49.578125 39.0205078,50.5429688 C39.0205078,51.0253906 38.59375,51.4985352 37.7402344,51.9624023 C36.8867188,52.4262695 35.9960938,52.6582031 35.0683594,52.6582031 Z M30.3369141,44.0302734 C29.8173828,44.0302734 29.2236328,43.4643555 28.5556641,42.3325195 C27.8876953,41.2006836 27.5166016,40.1523438 27.4423828,39.1875 C27.9619141,38.1855469 28.7783203,37.6845703 29.8916016,37.6845703 C30.1884766,37.6845703 30.5688477,37.9814453 31.0327148,38.5751953 C31.496582,39.1689453 31.9047852,39.8369141 32.2573242,40.5791016 C32.6098633,41.3212891 32.7861328,41.9335938 32.7861328,42.4160156 C32.7861328,42.8984375 32.5541992,43.2880859 32.090332,43.5849609 C31.6264648,43.8818359 31.0419922,44.0302734 30.3369141,44.0302734 Z M81.4921875,114.556641 C80.8984375,114.556641 80.2954102,114.519531 79.6831055,114.445312 C79.0708008,114.371094 78.5605469,114.259766 78.1523438,114.111328 C78.078125,113.814453 78.0039062,113.480469 77.9296875,113.109375 C77.8554688,112.738281 77.8183594,112.330078 77.8183594,111.884766 C77.8183594,111.587891 77.8276367,111.291016 77.8461914,110.994141 C77.8647461,110.697266 77.9111328,110.4375 77.9853516,110.214844 C78.5791016,108.322266 79.0336914,106.652344 79.3491211,105.205078 C79.6645508,103.757812 79.8779297,102.199219 79.9892578,100.529297 C80.1005859,98.859375 80.15625,96.7441406 80.15625,94.1835938 C80.15625,93.4414062 79.8222656,92.3095703 79.1542969,90.7880859 C78.4863281,89.2666016 77.7719727,87.8007812 77.0112305,86.390625 C76.2504883,84.9804688 75.6845703,84.0898438 75.3134766,83.71875 L83.7744141,70.6376953 L83.7744141,79.8779297 C83.7744141,81.2880859 84.1733398,82.7539062 84.9711914,84.2753906 C85.769043,85.796875 86.5668945,87.1977539 87.3647461,88.4780273 C88.1625977,89.7583008 88.5615234,90.7509766 88.5615234,91.4560547 C88.5615234,92.0498047 88.4594727,93.4506836 88.2553711,95.6586914 C88.0512695,97.8666992 87.9121094,99.8798828 87.8378906,101.698242 C87.8007812,102.291992 87.7822266,102.904297 87.7822266,103.535156 C87.7822266,104.166016 87.7822266,104.81543 87.7822266,105.483398 C87.7822266,107.079102 87.7451172,108.637695 87.6708984,110.15918 C87.5966797,111.680664 87.3740234,112.868164 87.0029297,113.72168 C86.6689453,113.944336 85.8989258,114.13916 84.6928711,114.306152 C83.4868164,114.473145 82.4199219,114.556641 81.4921875,114.556641 Z M51.6005859,65.9619141 C51.2666016,65.9619141 50.9418945,65.7021484 50.6264648,65.1826172 C50.3110352,64.6630859 50.0512695,64.1064453 49.847168,63.5126953 C49.6430664,62.9189453 49.5410156,62.5292969 49.5410156,62.34375 C49.5410156,62.046875 49.7358398,61.6108398 50.1254883,61.0356445 C50.5151367,60.4604492 50.7099609,59.9130859 50.7099609,59.3935547 C50.7099609,58.8740234 50.4780273,58.4008789 50.0141602,57.9741211 C49.550293,57.5473633 49.3183594,57.2226562 49.3183594,57 C49.3183594,56.5546875 49.5317383,56.2021484 49.9584961,55.9423828 C50.3852539,55.6826172 50.8398438,55.5527344 51.3222656,55.5527344 C51.8046875,55.5527344 52.3334961,55.5991211 52.9086914,55.6918945 C53.4838867,55.784668 53.9013672,55.9238281 54.1611328,56.109375 C54.3837891,56.4433594 54.597168,56.9814453 54.8012695,57.7236328 C55.0053711,58.4658203 55.1074219,59.3007812 55.1074219,60.2285156 C55.1074219,60.9335938 54.9033203,61.7314453 54.4951172,62.6220703 C54.0869141,63.5126953 53.6044922,64.2919922 53.0478516,64.9599609 C52.4912109,65.6279297 52.0087891,65.9619141 51.6005859,65.9619141 Z M27.8320312,34.9013672 C27.4609375,34.9013672 27.0620117,34.5302734 26.6352539,33.7880859 C26.2084961,33.0458984 25.9951172,32.4707031 25.9951172,32.0625 C25.9951172,31.6171875 26.2363281,31.2646484 26.71875,31.0048828 C27.2011719,30.7451172 27.6650391,30.6152344 28.1103516,30.6152344 C28.5556641,30.6152344 28.9824219,30.9213867 29.390625,31.5336914 C29.7988281,32.1459961 30.0029297,32.8232422 30.0029297,33.5654297 C30.0029297,33.8994141 29.7802734,34.2055664 29.3349609,34.4838867 C28.8896484,34.762207 28.3886719,34.9013672 27.8320312,34.9013672 Z M66.1845703,77.3173828 C65.6650391,77.3173828 65.2382812,76.5473633 64.9042969,75.0073242 C64.5703125,73.4672852 64.4033203,72.0478516 64.4033203,70.7490234 C64.4033203,69.3759766 64.9228516,68.1049805 65.9619141,66.9360352 C67.0009766,65.7670898 68.0771484,65.1826172 69.1904297,65.1826172 C69.5244141,65.1826172 69.8212891,65.7670898 70.0810547,66.9360352 C70.3408203,68.1049805 70.5449219,69.3295898 70.6933594,70.6098633 C70.8417969,71.8901367 70.9160156,72.7158203 70.9160156,73.0869141 C70.9160156,73.4580078 70.6098633,73.9775391 69.9975586,74.6455078 C69.3852539,75.3134766 68.6987305,75.9257812 67.9379883,76.4824219 C67.1772461,77.0390625 66.5927734,77.3173828 66.1845703,77.3173828 Z M36.3486328,41.7480469 C36.0146484,41.7480469 35.5415039,41.3676758 34.9291992,40.6069336 C34.3168945,39.8461914 33.7602539,38.9926758 33.2592773,38.0463867 C32.7583008,37.1000977 32.5078125,36.3671875 32.5078125,35.8476562 C32.5078125,35.5878906 32.6933594,35.3188477 33.0644531,35.0405273 C33.4355469,34.762207 33.7880859,34.6230469 34.1220703,34.6230469 C34.4189453,34.6230469 34.8364258,35.0126953 35.3745117,35.7919922 C35.9125977,36.5712891 36.4042969,37.4248047 36.8496094,38.3525391 C37.2949219,39.2802734 37.5175781,39.9853516 37.5175781,40.4677734 C37.5175781,41.3212891 37.1279297,41.7480469 36.3486328,41.7480469 Z M49.4296875,52.4912109 C49.0585938,52.4912109 48.3164062,52.3891602 47.203125,52.1850586 C46.0898438,51.980957 45.0878906,51.4892578 44.1972656,50.7099609 C43.3066406,49.9306641 42.5180664,49.0029297 41.831543,47.9267578 C41.1450195,46.8505859 40.8017578,46.1083984 40.8017578,45.7001953 C40.8017578,45.1435547 41.0800781,44.8652344 41.6367188,44.8652344 C42.3046875,44.8652344 43.0654297,45.1435547 43.9189453,45.7001953 C44.7724609,46.2568359 45.6630859,46.9619141 46.5908203,47.8154297 C47.2958984,48.4462891 48.0844727,49.0957031 48.956543,49.7636719 C49.8286133,50.4316406 50.2646484,51.0253906 50.2646484,51.5449219 C50.2646484,52.1757812 49.9863281,52.4912109 49.4296875,52.4912109 Z M62.1210938,64.7929688 C61.0449219,64.7929688 60.0151367,64.5332031 59.0317383,64.0136719 C58.0483398,63.4941406 57.5566406,62.9375 57.5566406,62.34375 C57.5566406,61.6757812 57.6958008,60.8964844 57.9741211,60.0058594 C58.2524414,59.1152344 58.5678711,58.3359375 58.9204102,57.6679688 C59.2729492,57 59.5605469,56.6660156 59.7832031,56.6660156 C60.3027344,56.6660156 60.859375,57.027832 61.453125,57.7514648 C62.046875,58.4750977 62.5664062,59.3286133 63.0117188,60.3120117 C63.4570312,61.2954102 63.6796875,62.1953125 63.6796875,63.0117188 C63.6796875,64.1992188 63.1601562,64.7929688 62.1210938,64.7929688 Z M22.9892578,23.6572266 C22.2099609,23.6572266 21.5512695,23.3046875 21.0131836,22.5996094 C20.4750977,21.8945312 20.2060547,21.0966797 20.2060547,20.2060547 C19.7236328,20.2060547 19.3154297,20.0019531 18.9814453,19.59375 C18.6474609,19.1855469 18.4804688,18.6103516 18.4804688,17.8681641 L22.9892578,17.3115234 C23.8056641,17.3115234 24.4921875,17.6176758 25.0488281,18.2299805 C25.6054688,18.8422852 25.8837891,19.59375 25.8837891,20.484375 C25.8837891,21.375 25.6147461,22.1264648 25.0766602,22.7387695 C24.5385742,23.3510742 23.8427734,23.6572266 22.9892578,23.6572266 Z M32.0068359,29.0566406 C31.5615234,29.0566406 31.0883789,28.7875977 30.5874023,28.2495117 C30.0864258,27.7114258 29.8359375,27.2197266 29.8359375,26.7744141 C29.8359375,26.5146484 30.0585938,26.2270508 30.5039062,25.9116211 C30.9492188,25.5961914 31.3388672,25.4384766 31.6728516,25.4384766 C31.9697266,25.4384766 32.2387695,25.7075195 32.4799805,26.2456055 C32.7211914,26.7836914 32.8417969,27.3681641 32.8417969,27.9990234 C32.8417969,28.7041016 32.5634766,29.0566406 32.0068359,29.0566406 Z M95.0185547,97.3007812 C94.3505859,97.3007812 93.9145508,96.5585938 93.7104492,95.0742188 C93.5063477,93.5898438 93.2001953,92.1611328 92.7919922,90.7880859 C92.3466797,89.1552734 91.9106445,87.7451172 91.4838867,86.5576172 C91.0571289,85.3701172 90.7138672,84.1826172 90.4541016,82.9951172 C90.1943359,81.8076172 90.0644531,80.4160156 90.0644531,78.8203125 C92.9589844,78.8203125 95.0927734,79.590332 96.4658203,81.1303711 C97.8388672,82.6704102 98.5253906,84.8134766 98.5253906,87.5595703 C98.5253906,89.0068359 98.3398438,90.4819336 97.96875,91.9848633 C97.5976562,93.487793 97.1430664,94.7495117 96.6049805,95.7700195 C96.0668945,96.7905273 95.5380859,97.3007812 95.0185547,97.3007812 Z M74.4228516,71.4726562 C74.0888672,71.4726562 73.7177734,71.0737305 73.3095703,70.2758789 C72.9013672,69.4780273 72.5488281,68.5317383 72.2519531,67.4370117 C71.9550781,66.3422852 71.8066406,65.3496094 71.8066406,64.4589844 C71.8066406,64.0878906 72.0292969,63.7724609 72.4746094,63.5126953 C72.9199219,63.2529297 73.4394531,63.1230469 74.0332031,63.1230469 C74.6269531,63.1230469 75.2856445,63.6147461 76.0092773,64.5981445 C76.7329102,65.581543 77.0947266,66.4628906 77.0947266,67.2421875 C77.0947266,68.1328125 76.7885742,69.0605469 76.1762695,70.0253906 C75.5639648,70.9902344 74.9794922,71.4726562 74.4228516,71.4726562 Z M68.7451172,61.8984375 C66.7412109,61.8984375 65.7392578,60.8964844 65.7392578,58.8925781 C65.7392578,58.3359375 65.9990234,58.0576172 66.5185547,58.0576172 C67.8916016,58.0576172 69.0048828,58.2802734 69.8583984,58.7255859 C70.7119141,59.1708984 71.1386719,59.7089844 71.1386719,60.3398438 C71.1386719,60.8222656 70.9067383,61.2026367 70.4428711,61.480957 C69.9790039,61.7592773 69.4130859,61.8984375 68.7451172,61.8984375 Z M91.2890625,83.9970703 C88.46875,81.8447266 86.1865234,79.5161133 84.4423828,77.0112305 C82.6982422,74.5063477 81.3994141,72.4003906 80.5458984,70.6933594 L83.4404297,63.6240234 C84.7392578,67.2978516 86.1123047,70.4057617 87.5595703,72.9477539 C89.0068359,75.4897461 90.6396484,77.7255859 92.4580078,79.6552734 L91.2890625,83.9970703 Z M20.0390625,9.01757812 L20.5400391,2.11523438 L22.4882812,2.00390625 L24.2138672,8.40527344 L20.0390625,9.01757812 Z M34.0664062,21.4306641 C32.2109375,21.4306641 31.2832031,20.6884766 31.2832031,19.2041016 C31.2832031,18.2763672 31.8305664,17.5805664 32.925293,17.1166992 C34.0200195,16.652832 35.1425781,16.4208984 36.2929688,16.4208984 C37.9257812,16.4208984 39.5214844,16.9404297 41.0800781,17.9794922 C39.8925781,19.0185547 38.6958008,19.8535156 37.4897461,20.484375 C36.2836914,21.1152344 35.1425781,21.4306641 34.0664062,21.4306641 Z M21.5976562,3.39550781 C21.0039062,3.39550781 20.4936523,3.22851562 20.0668945,2.89453125 C19.6401367,2.56054688 19.4267578,2.15234375 19.4267578,1.66992188 C19.4267578,1.22460938 19.6401367,0.834960938 20.0668945,0.500976562 C20.4936523,0.166992188 21.0039062,0 21.5976562,0 C22.2285156,0 22.7387695,0.166992188 23.128418,0.500976562 C23.5180664,0.834960938 23.7128906,1.22460938 23.7128906,1.66992188 C23.7128906,2.15234375 23.5087891,2.56054688 23.1005859,2.89453125 C22.6923828,3.22851562 22.1914062,3.39550781 21.5976562,3.39550781 Z M34.3447266,10.7988281 L29.1123047,9.07324219 L31.1162109,3.00585938 L33.6767578,3.72949219 L34.3447266,10.7988281 Z M32.5078125,4.28613281 C31.8398438,4.28613281 31.2646484,4.07275391 30.7822266,3.64599609 C30.2998047,3.21923828 30.0585938,2.70898438 30.0585938,2.11523438 C30.0585938,1.52148438 30.2905273,1.02050781 30.7543945,0.612304688 C31.2182617,0.204101563 31.8027344,0 32.5078125,0 C33.1757812,0 33.7509766,0.204101563 34.2333984,0.612304688 C34.7158203,1.02050781 34.9570312,1.52148438 34.9570312,2.11523438 C34.9570312,2.70898438 34.7158203,3.21923828 34.2333984,3.64599609 C33.7509766,4.07275391 33.1757812,4.28613281 32.5078125,4.28613281 Z" id="Shape"></path>
        </g>
    </g>
</svg>