<?xml version="1.0" encoding="UTF-8"?>
<svg width="70px" height="70px" viewBox="0 0 70 70" version="1.1" xmlns="http://www.w3.org/2000/svg" xmlns:xlink="http://www.w3.org/1999/xlink">
    <title>favicon</title>
    <defs>
        <linearGradient x1="50%" y1="0%" x2="50%" y2="100%" id="linearGradient-1">
            <stop stop-color="#F5AF19" offset="0%"></stop>
            <stop stop-color="#F12711" offset="100%"></stop>
        </linearGradient>
    </defs>
    <g id="favicon" stroke="none" stroke-width="1" fill="none" fill-rule="evenodd">
        <circle id="Oval" fill="url(#linearGradient-1)" cx="35" cy="35" r="35"></circle>
        <g id="🦉" transform="translate(7.000000, 23.000000)" fill="#FFFFFF" fill-rule="nonzero">
            <path d="M12.3969466,24.7949922 C10.1170483,24.7949922 8.04198473,24.2363067 6.17175573,23.1189358 C4.30152672,22.0015649 2.80534351,20.5028691 1.68320611,18.6228482 C0.561068702,16.7428273 0,14.66771 0,12.3974961 C0,10.0918101 0.561068702,8.00782473 1.68320611,6.14553991 C2.80534351,4.28325509 4.30152672,2.79342723 6.17175573,1.67605634 C8.04198473,0.558685446 10.1170483,0 12.3969466,0 C14.6768448,0 16.7519084,0.558685446 18.6221374,1.67605634 C20.4923664,2.79342723 21.9796438,4.29212311 23.0839695,6.17214397 C24.1882952,8.05216484 24.740458,10.1272822 24.740458,12.3974961 C24.740458,14.66771 24.1882952,16.7428273 23.0839695,18.6228482 C21.9796438,20.5028691 20.5012723,22.0015649 18.648855,23.1189358 C16.7964377,24.2363067 14.7124682,24.7949922 12.3969466,24.7949922 Z M13.2519084,21.0704225 C15.7455471,21.0704225 17.8295165,20.2545644 19.5038168,18.6228482 C21.178117,16.991132 22.0152672,14.8982786 22.0152672,12.3442879 C22.0152672,9.79029734 21.178117,7.69744392 19.5038168,6.0657277 C17.8295165,4.43401148 15.7455471,3.61815336 13.2519084,3.61815336 C10.7582697,3.61815336 8.67430025,4.43401148 7,6.0657277 C5.32569975,7.69744392 4.48854962,9.79029734 4.48854962,12.3442879 C4.48854962,14.8982786 5.32569975,16.991132 7,18.6228482 C8.67430025,20.2545644 10.7582697,21.0704225 13.2519084,21.0704225 Z M13.2519084,17.1862285 C11.8982188,17.1862285 10.7493639,16.7250913 9.80534351,15.8028169 C8.86132316,14.8805425 8.38931298,13.7276995 8.38931298,12.3442879 C8.38931298,10.9608764 8.86132316,9.80803339 9.80534351,8.885759 C10.7493639,7.96348461 11.8982188,7.50234742 13.2519084,7.50234742 C14.605598,7.50234742 15.7544529,7.96348461 16.6984733,8.885759 C17.6424936,9.80803339 18.1145038,10.9608764 18.1145038,12.3442879 C18.1145038,13.7276995 17.6424936,14.8805425 16.6984733,15.8028169 C15.7544529,16.7250913 14.605598,17.1862285 13.2519084,17.1862285 Z M28,34 C27.2519084,34 26.5394402,33.4501826 25.8625954,32.3505477 C25.1857506,31.2509129 24.6246819,29.9650496 24.1793893,28.4929577 C23.7340967,27.0208659 23.5114504,25.7350026 23.5114504,24.6353678 L23.5114504,18.5164319 L32.4885496,18.5164319 L32.4885496,24.6353678 C32.4885496,25.7350026 32.2659033,27.0208659 31.8206107,28.4929577 C31.3753181,29.9650496 30.8142494,31.2509129 30.1374046,32.3505477 C29.4605598,33.4501826 28.7480916,34 28,34 Z M42.7480916,21.0704225 C45.2417303,21.0704225 47.3256997,20.2545644 49,18.6228482 C50.6743003,16.991132 51.5114504,14.8982786 51.5114504,12.3442879 C51.5114504,9.79029734 50.6743003,7.69744392 49,6.0657277 C47.3256997,4.43401148 45.2417303,3.61815336 42.7480916,3.61815336 C40.2544529,3.61815336 38.1704835,4.43401148 36.4961832,6.0657277 C34.821883,7.69744392 33.9847328,9.79029734 33.9847328,12.3442879 C33.9847328,14.8982786 34.821883,16.991132 36.4961832,18.6228482 C38.1704835,20.2545644 40.2544529,21.0704225 42.7480916,21.0704225 Z M42.7480916,17.1862285 C41.394402,17.1862285 40.2455471,16.7250913 39.3015267,15.8028169 C38.3575064,14.8805425 37.8854962,13.7276995 37.8854962,12.3442879 C37.8854962,10.9608764 38.3575064,9.80803339 39.3015267,8.885759 C40.2455471,7.96348461 41.394402,7.50234742 42.7480916,7.50234742 C44.1017812,7.50234742 45.2506361,7.96348461 46.1946565,8.885759 C47.1386768,9.80803339 47.610687,10.9608764 47.610687,12.3442879 C47.610687,13.7276995 47.1386768,14.8805425 46.1946565,15.8028169 C45.2506361,16.7250913 44.1017812,17.1862285 42.7480916,17.1862285 Z M43.6030534,24.7949922 C41.3231552,24.7949922 39.2480916,24.2363067 37.3778626,23.1189358 C35.5076336,22.0015649 34.0203562,20.5028691 32.9160305,18.6228482 C31.8117048,16.7428273 31.259542,14.66771 31.259542,12.3974961 C31.259542,10.1272822 31.8117048,8.05216484 32.9160305,6.17214397 C34.0203562,4.29212311 35.5076336,2.79342723 37.3778626,1.67605634 C39.2480916,0.558685446 41.3231552,0 43.6030534,0 C45.8829517,0 47.9580153,0.558685446 49.8282443,1.67605634 C51.6984733,2.79342723 53.1946565,4.28325509 54.3167939,6.14553991 C55.4389313,8.00782473 56,10.0918101 56,12.3974961 C56,14.66771 55.4389313,16.7428273 54.3167939,18.6228482 C53.1946565,20.5028691 51.6984733,22.0015649 49.8282443,23.1189358 C47.9580153,24.2363067 45.8829517,24.7949922 43.6030534,24.7949922 Z" id="Shape"></path>
        </g>
    </g>
</svg>