<?xml version="1.0" encoding="UTF-8"?>
<svg viewBox="0 0 50 50" version="1.1" xmlns="http://www.w3.org/2000/svg" xmlns:xlink="http://www.w3.org/1999/xlink">
    <title>moon</title>
    <g id="moon" stroke="none" stroke-width="1" fill="none" fill-rule="evenodd">
        <g id="ðŸŒ" transform="translate(2.000000, 1.000000)" fill-rule="nonzero">
            <path d="M23.5,48 C20.2443902,48 17.195122,47.3769231 14.3521951,46.1307692 C11.5092683,44.8846154 9.0102439,43.1615385 6.85512195,40.9615385 C4.7,38.7615385 3.01869919,36.2115385 1.81121951,33.3115385 C0.603739837,30.4115385 0,27.3076923 0,24 C0,20.6923077 0.603739837,17.5884615 1.81121951,14.6884615 C3.01869919,11.7884615 4.7,9.23846154 6.85512195,7.03846154 C9.0102439,4.83846154 11.5092683,3.11538462 14.3521951,1.86923077 C17.195122,0.623076923 20.2443902,0 23.5,0 C26.7556098,0 29.804878,0.623076923 32.6478049,1.86923077 C35.4907317,3.11538462 37.9897561,4.83846154 40.144878,7.03846154 C42.3,9.23846154 43.9813008,11.7884615 45.1887805,14.6884615 C46.3962602,17.5884615 47,20.6923077 47,24 C47,27.3076923 46.3962602,30.4115385 45.1887805,33.3115385 C43.9813008,36.2115385 42.3,38.7615385 40.144878,40.9615385 C37.9897561,43.1615385 35.4907317,44.8846154 32.6478049,46.1307692 C29.804878,47.3769231 26.7556098,48 23.5,48 Z M23.1560976,36.7846154 L22.9268293,34.9615385 C23.5229268,34.9 24.0960976,34.7615385 24.6463415,34.5461538 C25.1965854,34.3307692 25.6856911,34.0846154 26.1136585,33.8076923 L27.122439,35.2846154 C26.0066667,36.0538462 24.6845528,36.5538462 23.1560976,36.7846154 Z M23.5,32.6769231 C21.039187,32.6769231 18.884065,31.9384615 17.0346341,30.4615385 L18.2497561,28.9846154 C19.7323577,30.2153846 21.482439,30.8307692 23.5,30.8307692 C25.517561,30.8307692 27.2676423,30.2153846 28.7502439,28.9846154 L29.9653659,30.4615385 C28.115935,31.9384615 25.960813,32.6769231 23.5,32.6769231 Z M13.6873171,22.8692308 C13.0912195,22.8692308 12.5639024,22.6730769 12.1053659,22.2807692 C11.6468293,21.8884615 11.417561,21.2923077 11.417561,20.4923077 C11.417561,19.5846154 11.7156098,18.8576923 12.3117073,18.3115385 C12.9078049,17.7653846 13.7026016,17.4923077 14.6960976,17.4923077 C15.7965854,17.4923077 16.8015447,17.8653846 17.7109756,18.6115385 C18.6204065,19.3576923 19.243252,20.4230769 19.5795122,21.8076923 L18.2726829,22.0846154 C17.9364228,21.5923077 17.5810569,21.1884615 17.2065854,20.8730769 C16.8321138,20.5576923 16.4461789,20.4 16.0487805,20.4 C15.9265041,20.4 15.8347967,20.4615385 15.7736585,20.5846154 C15.7125203,20.7076923 15.6819512,20.8307692 15.6819512,20.9538462 C15.6819512,21.3384615 15.5520325,21.7538462 15.2921951,22.2 C15.0323577,22.6461538 14.4973984,22.8692308 13.6873171,22.8692308 Z M23.5,46.1538462 C26.4957724,46.1538462 29.3043089,45.5807692 31.9256098,44.4346154 C34.5469106,43.2884615 36.8472358,41.7 38.8265854,39.6692308 C40.805935,37.6384615 42.3573171,35.2846154 43.4807317,32.6076923 C44.6041463,29.9307692 45.1658537,27.0615385 45.1658537,24 C45.1658537,20.9384615 44.6079675,18.0692308 43.4921951,15.3923077 C42.3764228,12.7153846 40.8250407,10.3615385 38.8380488,8.33076923 C36.8510569,6.3 34.5507317,4.71153846 31.9370732,3.56538462 C29.3234146,2.41923077 26.5110569,1.84615385 23.5,1.84615385 C20.5042276,1.84615385 17.6956911,2.41923077 15.0743902,3.56538462 C12.4530894,4.71153846 10.1489431,6.3 8.16195122,8.33076923 C6.17495935,10.3615385 4.62357724,12.7153846 3.50780488,15.3923077 C2.39203252,18.0692308 1.83414634,20.9384615 1.83414634,24 C1.83414634,27.0615385 2.39203252,29.9307692 3.50780488,32.6076923 C4.62357724,35.2846154 6.17495935,37.6384615 8.16195122,39.6692308 C10.1489431,41.7 12.4530894,43.2884615 15.0743902,44.4346154 C17.6956911,45.5807692 20.5042276,46.1538462 23.5,46.1538462 Z M23.3165854,28.2230769 C22.7357724,28.2230769 22.1014634,28.0923077 21.4136585,27.8307692 L22.0097561,26.1230769 C22.56,26.2923077 22.9956098,26.3769231 23.3165854,26.3769231 C23.6222764,26.3769231 23.8706504,26.2807692 24.0617073,26.0884615 C24.2527642,25.8961538 24.3482927,25.6692308 24.3482927,25.4076923 C24.3482927,24.7461538 24.1725203,24.1153846 23.8209756,23.5153846 C23.4694309,22.9153846 23.1178862,22.2769231 22.7663415,21.6 C22.4147967,20.9230769 22.2390244,20.1538462 22.2390244,19.2923077 C22.2390244,18.6 22.4071545,17.9461538 22.7434146,17.3307692 C23.0796748,16.7153846 23.5152846,16.2461538 24.0502439,15.9230769 L24.8985366,17.5846154 C24.6539837,17.7384615 24.4552846,17.9769231 24.302439,18.3 C24.1495935,18.6230769 24.0731707,18.9538462 24.0731707,19.2923077 C24.0731707,19.8615385 24.2489431,20.4576923 24.6004878,21.0807692 C24.9520325,21.7038462 25.3035772,22.3692308 25.655122,23.0769231 C26.0066667,23.7846154 26.182439,24.5615385 26.182439,25.4076923 C26.182439,26.2538462 25.9187805,26.9346154 25.3914634,27.45 C24.8641463,27.9653846 24.1725203,28.2230769 23.3165854,28.2230769 Z M29.7360976,22.8692308 C29.14,22.8692308 28.6126829,22.6730769 28.1541463,22.2807692 C27.6956098,21.8884615 27.4663415,21.2923077 27.4663415,20.4923077 C27.4663415,19.5846154 27.7643902,18.8576923 28.3604878,18.3115385 C28.9565854,17.7653846 29.7513821,17.4923077 30.744878,17.4923077 C31.8453659,17.4923077 32.8503252,17.8653846 33.7597561,18.6115385 C34.669187,19.3576923 35.2920325,20.4230769 35.6282927,21.8076923 L34.3214634,22.0846154 C33.9852033,21.5923077 33.6298374,21.1884615 33.2553659,20.8730769 C32.8808943,20.5576923 32.4949593,20.4 32.097561,20.4 C31.9752846,20.4 31.8835772,20.4615385 31.822439,20.5846154 C31.7613008,20.7076923 31.7307317,20.8307692 31.7307317,20.9538462 C31.7307317,21.3384615 31.600813,21.7538462 31.3409756,22.2 C31.0811382,22.6461538 30.5461789,22.8692308 29.7360976,22.8692308 Z" id="Shape"></path>
        </g>
    </g>
</svg>
