<svg xmlns="http://www.w3.org/2000/svg" width="115" height="115" viewBox="0 0 115 115">
  <g id="java" fill="none" fill-rule="evenodd" stroke="none" stroke-width="1">
    <g id="Path" fill-rule="nonzero">
      <path fill="#5382A1" d="M27.415 87s-4.305 2.69 3.063 3.6c8.926 1.095 13.488.938 23.324-1.063 0 0 2.586 1.743 6.198 3.252C37.95 102.945 10.095 92.2 27.415 87m-2.4-12s-4.79 3.918 2.526 4.754C37 80.832 44.472 80.92 57.4 78.17c0 0 1.787 2.003 4.599 3.098-26.452 8.547-55.916.674-36.985-6.268" transform="translate(14 1)"/>
      <path fill="#F8981D" d="M46.958 54.042C52.364 60.336 45.538 66 45.538 66s13.726-7.166 7.422-16.139C47.073 41.493 42.558 37.335 67 23c0 0-38.366 9.69-20.042 31.042" transform="translate(14 1)"/>
      <path fill="#5382A1" d="M75.831 96.954s3.18 2.63-3.503 4.664c-12.71 3.862-52.9 5.028-64.064.154-4.013-1.752 3.513-4.183 5.88-4.693 2.47-.537 3.88-.437 3.88-.437-4.463-3.154-28.848 6.194-12.386 8.87 44.894 7.304 81.838-3.288 70.193-8.558M29.923 62.02s-20.621 5.396-7.302 7.355c5.623.83 16.834.642 27.276-.322C58.43 68.26 67 66.574 67 66.574s-3.01 1.42-5.186 3.057C40.874 75.698.42 72.876 12.066 66.67c9.85-5.245 17.857-4.65 17.857-4.65m35.504 20.43c21.25-10.897 11.425-21.37 4.567-19.959-1.68.346-2.43.645-2.43.645s.624-.965 1.815-1.382C82.946 57.046 93.38 75.637 65 83c0 0 .329-.29.427-.55" transform="translate(14 1)"/>
      <path fill="#F8981D" d="M52.898 0s12.09 11.747-11.467 29.81C22.54 44.3 37.123 52.56 41.423 62c-11.027-9.663-19.12-18.169-13.69-26.086C35.7 24.294 57.776 18.66 52.898 0" transform="translate(14 1)"/>
      <path fill="#5382A1" d="M31.136 112.635C51.69 113.973 83.252 111.893 84 102c0 0-1.437 3.75-16.987 6.728-17.543 3.359-39.18 2.966-52.013.814 0 0 2.627 2.212 16.136 3.093" transform="translate(14 1)"/>
    </g>
  </g>
</svg>
