<?xml version="1.0" encoding="utf-8" standalone="no"?>
<!DOCTYPE svg PUBLIC "-//W3C//DTD SVG 1.1//EN"
  "http://www.w3.org/Graphics/SVG/1.1/DTD/svg11.dtd">
<!-- Created with matplotlib (https://matplotlib.org/) -->
<svg height="216pt" version="1.1" viewBox="0 0 432 216" width="432pt" xmlns="http://www.w3.org/2000/svg" xmlns:xlink="http://www.w3.org/1999/xlink">
 <defs>
  <style type="text/css">
*{stroke-linecap:butt;stroke-linejoin:round;}
  </style>
 </defs>
 <g id="figure_1">
  <g id="patch_1">
   <path d="M 0 216 
L 432 216 
L 432 0 
L 0 0 
z
" style="fill:#ffffff;"/>
  </g>
  <g id="axes_1">
   <g id="patch_2">
    <path d="M 12.96 174.755025 
L 419.04 174.755025 
L 419.04 25.24965 
L 12.96 25.24965 
z
" style="fill:#eaeaf2;"/>
   </g>
   <g id="matplotlib.axis_1">
    <g id="xtick_1">
     <g id="line2d_1">
      <path clip-path="url(#p64775de7d5)" d="M 80.64 174.755025 
L 80.64 25.24965 
" style="fill:none;stroke:#ffffff;stroke-linecap:round;"/>
     </g>
     <g id="text_1">
      <!-- Very bad -->
      <defs>
       <path d="M 28.171875 0 
L 0.4375 71.578125 
L 10.6875 71.578125 
L 29.296875 19.578125 
Q 31.546875 13.328125 33.0625 7.859375 
Q 34.71875 13.71875 36.921875 19.578125 
L 56.25 71.578125 
L 65.921875 71.578125 
L 37.890625 0 
z
" id="ArialMT-86"/>
       <path d="M 42.09375 16.703125 
L 51.171875 15.578125 
Q 49.03125 7.625 43.21875 3.21875 
Q 37.40625 -1.171875 28.375 -1.171875 
Q 17 -1.171875 10.328125 5.828125 
Q 3.65625 12.84375 3.65625 25.484375 
Q 3.65625 38.578125 10.390625 45.796875 
Q 17.140625 53.03125 27.875 53.03125 
Q 38.28125 53.03125 44.875 45.953125 
Q 51.46875 38.875 51.46875 26.03125 
Q 51.46875 25.25 51.421875 23.6875 
L 12.75 23.6875 
Q 13.234375 15.140625 17.578125 10.59375 
Q 21.921875 6.0625 28.421875 6.0625 
Q 33.25 6.0625 36.671875 8.59375 
Q 40.09375 11.140625 42.09375 16.703125 
z
M 13.234375 30.90625 
L 42.1875 30.90625 
Q 41.609375 37.453125 38.875 40.71875 
Q 34.671875 45.796875 27.984375 45.796875 
Q 21.921875 45.796875 17.796875 41.75 
Q 13.671875 37.703125 13.234375 30.90625 
z
" id="ArialMT-101"/>
       <path d="M 6.5 0 
L 6.5 51.859375 
L 14.40625 51.859375 
L 14.40625 44 
Q 17.4375 49.515625 20 51.265625 
Q 22.5625 53.03125 25.640625 53.03125 
Q 30.078125 53.03125 34.671875 50.203125 
L 31.640625 42.046875 
Q 28.421875 43.953125 25.203125 43.953125 
Q 22.3125 43.953125 20.015625 42.21875 
Q 17.71875 40.484375 16.75 37.40625 
Q 15.28125 32.71875 15.28125 27.15625 
L 15.28125 0 
z
" id="ArialMT-114"/>
       <path d="M 6.203125 -19.96875 
L 5.21875 -11.71875 
Q 8.109375 -12.5 10.25 -12.5 
Q 13.1875 -12.5 14.9375 -11.515625 
Q 16.703125 -10.546875 17.828125 -8.796875 
Q 18.65625 -7.46875 20.515625 -2.25 
Q 20.75 -1.515625 21.296875 -0.09375 
L 1.609375 51.859375 
L 11.078125 51.859375 
L 21.875 21.828125 
Q 23.96875 16.109375 25.640625 9.8125 
Q 27.15625 15.875 29.25 21.625 
L 40.328125 51.859375 
L 49.125 51.859375 
L 29.390625 -0.875 
Q 26.21875 -9.421875 24.46875 -12.640625 
Q 22.125 -17 19.09375 -19.015625 
Q 16.0625 -21.046875 11.859375 -21.046875 
Q 9.328125 -21.046875 6.203125 -19.96875 
z
" id="ArialMT-121"/>
       <path id="ArialMT-32"/>
       <path d="M 14.703125 0 
L 6.546875 0 
L 6.546875 71.578125 
L 15.328125 71.578125 
L 15.328125 46.046875 
Q 20.90625 53.03125 29.546875 53.03125 
Q 34.328125 53.03125 38.59375 51.09375 
Q 42.875 49.171875 45.625 45.671875 
Q 48.390625 42.1875 49.953125 37.25 
Q 51.515625 32.328125 51.515625 26.703125 
Q 51.515625 13.375 44.921875 6.09375 
Q 38.328125 -1.171875 29.109375 -1.171875 
Q 19.921875 -1.171875 14.703125 6.5 
z
M 14.59375 26.3125 
Q 14.59375 17 17.140625 12.84375 
Q 21.296875 6.0625 28.375 6.0625 
Q 34.125 6.0625 38.328125 11.0625 
Q 42.53125 16.0625 42.53125 25.984375 
Q 42.53125 36.140625 38.5 40.96875 
Q 34.46875 45.796875 28.765625 45.796875 
Q 23 45.796875 18.796875 40.796875 
Q 14.59375 35.796875 14.59375 26.3125 
z
" id="ArialMT-98"/>
       <path d="M 40.4375 6.390625 
Q 35.546875 2.25 31.03125 0.53125 
Q 26.515625 -1.171875 21.34375 -1.171875 
Q 12.796875 -1.171875 8.203125 3 
Q 3.609375 7.171875 3.609375 13.671875 
Q 3.609375 17.484375 5.34375 20.625 
Q 7.078125 23.78125 9.890625 25.6875 
Q 12.703125 27.59375 16.21875 28.5625 
Q 18.796875 29.25 24.03125 29.890625 
Q 34.671875 31.15625 39.703125 32.90625 
Q 39.75 34.71875 39.75 35.203125 
Q 39.75 40.578125 37.25 42.78125 
Q 33.890625 45.75 27.25 45.75 
Q 21.046875 45.75 18.09375 43.578125 
Q 15.140625 41.40625 13.71875 35.890625 
L 5.125 37.0625 
Q 6.296875 42.578125 8.984375 45.96875 
Q 11.671875 49.359375 16.75 51.1875 
Q 21.828125 53.03125 28.515625 53.03125 
Q 35.15625 53.03125 39.296875 51.46875 
Q 43.453125 49.90625 45.40625 47.53125 
Q 47.359375 45.171875 48.140625 41.546875 
Q 48.578125 39.3125 48.578125 33.453125 
L 48.578125 21.734375 
Q 48.578125 9.46875 49.140625 6.21875 
Q 49.703125 2.984375 51.375 0 
L 42.1875 0 
Q 40.828125 2.734375 40.4375 6.390625 
z
M 39.703125 26.03125 
Q 34.90625 24.078125 25.34375 22.703125 
Q 19.921875 21.921875 17.671875 20.9375 
Q 15.4375 19.96875 14.203125 18.09375 
Q 12.984375 16.21875 12.984375 13.921875 
Q 12.984375 10.40625 15.640625 8.0625 
Q 18.3125 5.71875 23.4375 5.71875 
Q 28.515625 5.71875 32.46875 7.9375 
Q 36.421875 10.15625 38.28125 14.015625 
Q 39.703125 17 39.703125 22.796875 
z
" id="ArialMT-97"/>
       <path d="M 40.234375 0 
L 40.234375 6.546875 
Q 35.296875 -1.171875 25.734375 -1.171875 
Q 19.53125 -1.171875 14.328125 2.25 
Q 9.125 5.671875 6.265625 11.796875 
Q 3.421875 17.921875 3.421875 25.875 
Q 3.421875 33.640625 6 39.96875 
Q 8.59375 46.296875 13.765625 49.65625 
Q 18.953125 53.03125 25.34375 53.03125 
Q 30.03125 53.03125 33.6875 51.046875 
Q 37.359375 49.078125 39.65625 45.90625 
L 39.65625 71.578125 
L 48.390625 71.578125 
L 48.390625 0 
z
M 12.453125 25.875 
Q 12.453125 15.921875 16.640625 10.984375 
Q 20.84375 6.0625 26.5625 6.0625 
Q 32.328125 6.0625 36.34375 10.765625 
Q 40.375 15.484375 40.375 25.140625 
Q 40.375 35.796875 36.265625 40.765625 
Q 32.171875 45.75 26.171875 45.75 
Q 20.3125 45.75 16.375 40.96875 
Q 12.453125 36.1875 12.453125 25.875 
z
" id="ArialMT-100"/>
      </defs>
      <g style="fill:#262626;" transform="translate(60.904063 191.412837)scale(0.1 -0.1)">
       <use xlink:href="#ArialMT-86"/>
       <use x="61.199219" xlink:href="#ArialMT-101"/>
       <use x="116.814453" xlink:href="#ArialMT-114"/>
       <use x="150.115234" xlink:href="#ArialMT-121"/>
       <use x="200.115234" xlink:href="#ArialMT-32"/>
       <use x="227.898438" xlink:href="#ArialMT-98"/>
       <use x="283.513672" xlink:href="#ArialMT-97"/>
       <use x="339.128906" xlink:href="#ArialMT-100"/>
      </g>
     </g>
    </g>
    <g id="xtick_2">
     <g id="line2d_2">
      <path clip-path="url(#p64775de7d5)" d="M 148.32 174.755025 
L 148.32 25.24965 
" style="fill:none;stroke:#ffffff;stroke-linecap:round;"/>
     </g>
     <g id="text_2">
      <!-- Bad -->
      <defs>
       <path d="M 7.328125 0 
L 7.328125 71.578125 
L 34.1875 71.578125 
Q 42.390625 71.578125 47.34375 69.40625 
Q 52.296875 67.234375 55.09375 62.71875 
Q 57.90625 58.203125 57.90625 53.265625 
Q 57.90625 48.6875 55.421875 44.625 
Q 52.9375 40.578125 47.90625 38.09375 
Q 54.390625 36.1875 57.875 31.59375 
Q 61.375 27 61.375 20.75 
Q 61.375 15.71875 59.25 11.390625 
Q 57.125 7.078125 54 4.734375 
Q 50.875 2.390625 46.15625 1.1875 
Q 41.453125 0 34.625 0 
z
M 16.796875 41.5 
L 32.28125 41.5 
Q 38.578125 41.5 41.3125 42.328125 
Q 44.921875 43.40625 46.75 45.890625 
Q 48.578125 48.390625 48.578125 52.15625 
Q 48.578125 55.71875 46.875 58.421875 
Q 45.171875 61.140625 41.984375 62.140625 
Q 38.8125 63.140625 31.109375 63.140625 
L 16.796875 63.140625 
z
M 16.796875 8.453125 
L 34.625 8.453125 
Q 39.203125 8.453125 41.0625 8.796875 
Q 44.34375 9.375 46.53125 10.734375 
Q 48.734375 12.109375 50.140625 14.71875 
Q 51.5625 17.328125 51.5625 20.75 
Q 51.5625 24.75 49.515625 27.703125 
Q 47.46875 30.671875 43.828125 31.859375 
Q 40.1875 33.0625 33.34375 33.0625 
L 16.796875 33.0625 
z
" id="ArialMT-66"/>
      </defs>
      <g style="fill:#262626;" transform="translate(139.423906 191.412837)scale(0.1 -0.1)">
       <use xlink:href="#ArialMT-66"/>
       <use x="66.699219" xlink:href="#ArialMT-97"/>
       <use x="122.314453" xlink:href="#ArialMT-100"/>
      </g>
     </g>
    </g>
    <g id="xtick_3">
     <g id="line2d_3">
      <path clip-path="url(#p64775de7d5)" d="M 216 174.755025 
L 216 25.24965 
" style="fill:none;stroke:#ffffff;stroke-linecap:round;"/>
     </g>
     <g id="text_3">
      <!-- Expected/OK -->
      <defs>
       <path d="M 7.90625 0 
L 7.90625 71.578125 
L 59.671875 71.578125 
L 59.671875 63.140625 
L 17.390625 63.140625 
L 17.390625 41.21875 
L 56.984375 41.21875 
L 56.984375 32.8125 
L 17.390625 32.8125 
L 17.390625 8.453125 
L 61.328125 8.453125 
L 61.328125 0 
z
" id="ArialMT-69"/>
       <path d="M 0.734375 0 
L 19.671875 26.953125 
L 2.15625 51.859375 
L 13.140625 51.859375 
L 21.09375 39.703125 
Q 23.34375 36.234375 24.703125 33.890625 
Q 26.859375 37.109375 28.65625 39.59375 
L 37.40625 51.859375 
L 47.90625 51.859375 
L 29.984375 27.4375 
L 49.265625 0 
L 38.484375 0 
L 27.828125 16.109375 
L 25 20.453125 
L 11.375 0 
z
" id="ArialMT-120"/>
       <path d="M 6.59375 -19.875 
L 6.59375 51.859375 
L 14.59375 51.859375 
L 14.59375 45.125 
Q 17.4375 49.078125 21 51.046875 
Q 24.5625 53.03125 29.640625 53.03125 
Q 36.28125 53.03125 41.359375 49.609375 
Q 46.4375 46.1875 49.015625 39.953125 
Q 51.609375 33.734375 51.609375 26.3125 
Q 51.609375 18.359375 48.75 11.984375 
Q 45.90625 5.609375 40.453125 2.21875 
Q 35.015625 -1.171875 29 -1.171875 
Q 24.609375 -1.171875 21.109375 0.6875 
Q 17.625 2.546875 15.375 5.375 
L 15.375 -19.875 
z
M 14.546875 25.640625 
Q 14.546875 15.625 18.59375 10.84375 
Q 22.65625 6.0625 28.421875 6.0625 
Q 34.28125 6.0625 38.453125 11.015625 
Q 42.625 15.96875 42.625 26.375 
Q 42.625 36.28125 38.546875 41.203125 
Q 34.46875 46.140625 28.8125 46.140625 
Q 23.1875 46.140625 18.859375 40.890625 
Q 14.546875 35.640625 14.546875 25.640625 
z
" id="ArialMT-112"/>
       <path d="M 40.4375 19 
L 49.078125 17.875 
Q 47.65625 8.9375 41.8125 3.875 
Q 35.984375 -1.171875 27.484375 -1.171875 
Q 16.84375 -1.171875 10.375 5.78125 
Q 3.90625 12.75 3.90625 25.734375 
Q 3.90625 34.125 6.6875 40.421875 
Q 9.46875 46.734375 15.15625 49.875 
Q 20.84375 53.03125 27.546875 53.03125 
Q 35.984375 53.03125 41.359375 48.75 
Q 46.734375 44.484375 48.25 36.625 
L 39.703125 35.296875 
Q 38.484375 40.53125 35.375 43.15625 
Q 32.28125 45.796875 27.875 45.796875 
Q 21.234375 45.796875 17.078125 41.03125 
Q 12.9375 36.28125 12.9375 25.984375 
Q 12.9375 15.53125 16.9375 10.796875 
Q 20.953125 6.0625 27.390625 6.0625 
Q 32.5625 6.0625 36.03125 9.234375 
Q 39.5 12.40625 40.4375 19 
z
" id="ArialMT-99"/>
       <path d="M 25.78125 7.859375 
L 27.046875 0.09375 
Q 23.34375 -0.6875 20.40625 -0.6875 
Q 15.625 -0.6875 12.984375 0.828125 
Q 10.359375 2.34375 9.28125 4.8125 
Q 8.203125 7.28125 8.203125 15.1875 
L 8.203125 45.015625 
L 1.765625 45.015625 
L 1.765625 51.859375 
L 8.203125 51.859375 
L 8.203125 64.703125 
L 16.9375 69.96875 
L 16.9375 51.859375 
L 25.78125 51.859375 
L 25.78125 45.015625 
L 16.9375 45.015625 
L 16.9375 14.703125 
Q 16.9375 10.9375 17.40625 9.859375 
Q 17.875 8.796875 18.921875 8.15625 
Q 19.96875 7.515625 21.921875 7.515625 
Q 23.390625 7.515625 25.78125 7.859375 
z
" id="ArialMT-116"/>
       <path d="M 0 -1.21875 
L 20.75 72.796875 
L 27.78125 72.796875 
L 7.078125 -1.21875 
z
" id="ArialMT-47"/>
       <path d="M 4.828125 34.859375 
Q 4.828125 52.6875 14.390625 62.765625 
Q 23.96875 72.859375 39.109375 72.859375 
Q 49.03125 72.859375 56.984375 68.109375 
Q 64.9375 63.375 69.109375 54.90625 
Q 73.296875 46.4375 73.296875 35.6875 
Q 73.296875 24.8125 68.890625 16.21875 
Q 64.5 7.625 56.4375 3.203125 
Q 48.390625 -1.21875 39.0625 -1.21875 
Q 28.953125 -1.21875 20.984375 3.65625 
Q 13.03125 8.546875 8.921875 16.984375 
Q 4.828125 25.4375 4.828125 34.859375 
z
M 14.59375 34.71875 
Q 14.59375 21.78125 21.546875 14.328125 
Q 28.515625 6.890625 39.015625 6.890625 
Q 49.703125 6.890625 56.609375 14.40625 
Q 63.53125 21.921875 63.53125 35.75 
Q 63.53125 44.484375 60.578125 51 
Q 57.625 57.515625 51.921875 61.109375 
Q 46.234375 64.703125 39.15625 64.703125 
Q 29.109375 64.703125 21.84375 57.78125 
Q 14.59375 50.875 14.59375 34.71875 
z
" id="ArialMT-79"/>
       <path d="M 7.328125 0 
L 7.328125 71.578125 
L 16.796875 71.578125 
L 16.796875 36.078125 
L 52.34375 71.578125 
L 65.1875 71.578125 
L 35.15625 42.578125 
L 66.5 0 
L 54 0 
L 28.515625 36.234375 
L 16.796875 24.8125 
L 16.796875 0 
z
" id="ArialMT-75"/>
      </defs>
      <g style="fill:#262626;" transform="translate(186.540625 191.540963)scale(0.1 -0.1)">
       <use xlink:href="#ArialMT-69"/>
       <use x="66.699219" xlink:href="#ArialMT-120"/>
       <use x="116.699219" xlink:href="#ArialMT-112"/>
       <use x="172.314453" xlink:href="#ArialMT-101"/>
       <use x="227.929688" xlink:href="#ArialMT-99"/>
       <use x="277.929688" xlink:href="#ArialMT-116"/>
       <use x="305.712891" xlink:href="#ArialMT-101"/>
       <use x="361.328125" xlink:href="#ArialMT-100"/>
       <use x="416.943359" xlink:href="#ArialMT-47"/>
       <use x="444.726562" xlink:href="#ArialMT-79"/>
       <use x="522.509766" xlink:href="#ArialMT-75"/>
      </g>
     </g>
    </g>
    <g id="xtick_4">
     <g id="line2d_4">
      <path clip-path="url(#p64775de7d5)" d="M 283.68 174.755025 
L 283.68 25.24965 
" style="fill:none;stroke:#ffffff;stroke-linecap:round;"/>
     </g>
     <g id="text_4">
      <!-- Good -->
      <defs>
       <path d="M 41.21875 28.078125 
L 41.21875 36.46875 
L 71.53125 36.53125 
L 71.53125 9.96875 
Q 64.546875 4.390625 57.125 1.578125 
Q 49.703125 -1.21875 41.890625 -1.21875 
Q 31.34375 -1.21875 22.71875 3.296875 
Q 14.109375 7.8125 9.71875 16.359375 
Q 5.328125 24.90625 5.328125 35.453125 
Q 5.328125 45.90625 9.6875 54.953125 
Q 14.0625 64.015625 22.265625 68.40625 
Q 30.46875 72.796875 41.15625 72.796875 
Q 48.921875 72.796875 55.1875 70.28125 
Q 61.46875 67.78125 65.03125 63.28125 
Q 68.609375 58.796875 70.453125 51.5625 
L 61.921875 49.21875 
Q 60.296875 54.6875 57.90625 57.8125 
Q 55.515625 60.9375 51.0625 62.8125 
Q 46.625 64.703125 41.21875 64.703125 
Q 34.71875 64.703125 29.984375 62.71875 
Q 25.25 60.75 22.34375 57.515625 
Q 19.4375 54.296875 17.828125 50.4375 
Q 15.09375 43.796875 15.09375 36.03125 
Q 15.09375 26.46875 18.390625 20.015625 
Q 21.6875 13.578125 27.984375 10.453125 
Q 34.28125 7.328125 41.359375 7.328125 
Q 47.515625 7.328125 53.375 9.6875 
Q 59.234375 12.0625 62.25 14.75 
L 62.25 28.078125 
z
" id="ArialMT-71"/>
       <path d="M 3.328125 25.921875 
Q 3.328125 40.328125 11.328125 47.265625 
Q 18.015625 53.03125 27.640625 53.03125 
Q 38.328125 53.03125 45.109375 46.015625 
Q 51.90625 39.015625 51.90625 26.65625 
Q 51.90625 16.65625 48.90625 10.90625 
Q 45.90625 5.171875 40.15625 2 
Q 34.421875 -1.171875 27.640625 -1.171875 
Q 16.75 -1.171875 10.03125 5.8125 
Q 3.328125 12.796875 3.328125 25.921875 
z
M 12.359375 25.921875 
Q 12.359375 15.96875 16.703125 11.015625 
Q 21.046875 6.0625 27.640625 6.0625 
Q 34.1875 6.0625 38.53125 11.03125 
Q 42.875 16.015625 42.875 26.21875 
Q 42.875 35.84375 38.5 40.796875 
Q 34.125 45.75 27.640625 45.75 
Q 21.046875 45.75 16.703125 40.8125 
Q 12.359375 35.890625 12.359375 25.921875 
z
" id="ArialMT-111"/>
      </defs>
      <g style="fill:#262626;" transform="translate(271.449531 191.412837)scale(0.1 -0.1)">
       <use xlink:href="#ArialMT-71"/>
       <use x="77.783203" xlink:href="#ArialMT-111"/>
       <use x="133.398438" xlink:href="#ArialMT-111"/>
       <use x="189.013672" xlink:href="#ArialMT-100"/>
      </g>
     </g>
    </g>
    <g id="xtick_5">
     <g id="line2d_5">
      <path clip-path="url(#p64775de7d5)" d="M 351.36 174.755025 
L 351.36 25.24965 
" style="fill:none;stroke:#ffffff;stroke-linecap:round;"/>
     </g>
     <g id="text_5">
      <!-- Very good -->
      <defs>
       <path d="M 4.984375 -4.296875 
L 13.53125 -5.5625 
Q 14.0625 -9.515625 16.5 -11.328125 
Q 19.78125 -13.765625 25.4375 -13.765625 
Q 31.546875 -13.765625 34.859375 -11.328125 
Q 38.1875 -8.890625 39.359375 -4.5 
Q 40.046875 -1.8125 39.984375 6.78125 
Q 34.234375 0 25.640625 0 
Q 14.9375 0 9.078125 7.71875 
Q 3.21875 15.4375 3.21875 26.21875 
Q 3.21875 33.640625 5.90625 39.90625 
Q 8.59375 46.1875 13.6875 49.609375 
Q 18.796875 53.03125 25.6875 53.03125 
Q 34.859375 53.03125 40.828125 45.609375 
L 40.828125 51.859375 
L 48.921875 51.859375 
L 48.921875 7.03125 
Q 48.921875 -5.078125 46.453125 -10.125 
Q 44 -15.1875 38.640625 -18.109375 
Q 33.296875 -21.046875 25.484375 -21.046875 
Q 16.21875 -21.046875 10.5 -16.875 
Q 4.78125 -12.703125 4.984375 -4.296875 
z
M 12.25 26.859375 
Q 12.25 16.65625 16.296875 11.96875 
Q 20.359375 7.28125 26.46875 7.28125 
Q 32.515625 7.28125 36.609375 11.9375 
Q 40.71875 16.609375 40.71875 26.5625 
Q 40.71875 36.078125 36.5 40.90625 
Q 32.28125 45.75 26.3125 45.75 
Q 20.453125 45.75 16.34375 40.984375 
Q 12.25 36.234375 12.25 26.859375 
z
" id="ArialMT-103"/>
      </defs>
      <g style="fill:#262626;" transform="translate(328.843594 191.412837)scale(0.1 -0.1)">
       <use xlink:href="#ArialMT-86"/>
       <use x="61.199219" xlink:href="#ArialMT-101"/>
       <use x="116.814453" xlink:href="#ArialMT-114"/>
       <use x="150.115234" xlink:href="#ArialMT-121"/>
       <use x="200.115234" xlink:href="#ArialMT-32"/>
       <use x="227.898438" xlink:href="#ArialMT-103"/>
       <use x="283.513672" xlink:href="#ArialMT-111"/>
       <use x="339.128906" xlink:href="#ArialMT-111"/>
       <use x="394.744141" xlink:href="#ArialMT-100"/>
      </g>
     </g>
    </g>
    <g id="text_6">
     <!-- Social judgment -->
     <defs>
      <path d="M 4.5 23 
L 13.421875 23.78125 
Q 14.0625 18.40625 16.375 14.96875 
Q 18.703125 11.53125 23.578125 9.40625 
Q 28.46875 7.28125 34.578125 7.28125 
Q 39.984375 7.28125 44.140625 8.890625 
Q 48.296875 10.5 50.3125 13.296875 
Q 52.34375 16.109375 52.34375 19.4375 
Q 52.34375 22.796875 50.390625 25.3125 
Q 48.4375 27.828125 43.953125 29.546875 
Q 41.0625 30.671875 31.203125 33.03125 
Q 21.34375 35.40625 17.390625 37.5 
Q 12.25 40.1875 9.734375 44.15625 
Q 7.234375 48.140625 7.234375 53.078125 
Q 7.234375 58.5 10.296875 63.203125 
Q 13.375 67.921875 19.28125 70.359375 
Q 25.203125 72.796875 32.421875 72.796875 
Q 40.375 72.796875 46.453125 70.234375 
Q 52.546875 67.671875 55.8125 62.6875 
Q 59.078125 57.71875 59.328125 51.421875 
L 50.25 50.734375 
Q 49.515625 57.515625 45.28125 60.984375 
Q 41.0625 64.453125 32.8125 64.453125 
Q 24.21875 64.453125 20.28125 61.296875 
Q 16.359375 58.15625 16.359375 53.71875 
Q 16.359375 49.859375 19.140625 47.359375 
Q 21.875 44.875 33.421875 42.265625 
Q 44.96875 39.65625 49.265625 37.703125 
Q 55.515625 34.8125 58.484375 30.390625 
Q 61.46875 25.984375 61.46875 20.21875 
Q 61.46875 14.5 58.203125 9.4375 
Q 54.9375 4.390625 48.796875 1.578125 
Q 42.671875 -1.21875 35.015625 -1.21875 
Q 25.296875 -1.21875 18.71875 1.609375 
Q 12.15625 4.4375 8.421875 10.125 
Q 4.6875 15.828125 4.5 23 
z
" id="ArialMT-83"/>
      <path d="M 6.640625 61.46875 
L 6.640625 71.578125 
L 15.4375 71.578125 
L 15.4375 61.46875 
z
M 6.640625 0 
L 6.640625 51.859375 
L 15.4375 51.859375 
L 15.4375 0 
z
" id="ArialMT-105"/>
      <path d="M 6.390625 0 
L 6.390625 71.578125 
L 15.1875 71.578125 
L 15.1875 0 
z
" id="ArialMT-108"/>
      <path d="M 6.546875 61.375 
L 6.546875 71.578125 
L 15.328125 71.578125 
L 15.328125 61.375 
z
M -4.59375 -20.125 
L -2.9375 -12.640625 
Q -0.296875 -13.328125 1.21875 -13.328125 
Q 3.90625 -13.328125 5.21875 -11.546875 
Q 6.546875 -9.765625 6.546875 -2.640625 
L 6.546875 51.859375 
L 15.328125 51.859375 
L 15.328125 -2.828125 
Q 15.328125 -12.40625 12.84375 -16.15625 
Q 9.671875 -21.046875 2.296875 -21.046875 
Q -1.265625 -21.046875 -4.59375 -20.125 
z
" id="ArialMT-106"/>
      <path d="M 40.578125 0 
L 40.578125 7.625 
Q 34.515625 -1.171875 24.125 -1.171875 
Q 19.53125 -1.171875 15.546875 0.578125 
Q 11.578125 2.34375 9.640625 5 
Q 7.71875 7.671875 6.9375 11.53125 
Q 6.390625 14.109375 6.390625 19.734375 
L 6.390625 51.859375 
L 15.1875 51.859375 
L 15.1875 23.09375 
Q 15.1875 16.21875 15.71875 13.8125 
Q 16.546875 10.359375 19.234375 8.375 
Q 21.921875 6.390625 25.875 6.390625 
Q 29.828125 6.390625 33.296875 8.421875 
Q 36.765625 10.453125 38.203125 13.9375 
Q 39.65625 17.4375 39.65625 24.078125 
L 39.65625 51.859375 
L 48.4375 51.859375 
L 48.4375 0 
z
" id="ArialMT-117"/>
      <path d="M 6.59375 0 
L 6.59375 51.859375 
L 14.453125 51.859375 
L 14.453125 44.578125 
Q 16.890625 48.390625 20.9375 50.703125 
Q 25 53.03125 30.171875 53.03125 
Q 35.9375 53.03125 39.625 50.640625 
Q 43.3125 48.25 44.828125 43.953125 
Q 50.984375 53.03125 60.84375 53.03125 
Q 68.5625 53.03125 72.703125 48.75 
Q 76.859375 44.484375 76.859375 35.59375 
L 76.859375 0 
L 68.109375 0 
L 68.109375 32.671875 
Q 68.109375 37.9375 67.25 40.25 
Q 66.40625 42.578125 64.15625 43.984375 
Q 61.921875 45.40625 58.890625 45.40625 
Q 53.421875 45.40625 49.796875 41.765625 
Q 46.1875 38.140625 46.1875 30.125 
L 46.1875 0 
L 37.40625 0 
L 37.40625 33.6875 
Q 37.40625 39.546875 35.25 42.46875 
Q 33.109375 45.40625 28.21875 45.40625 
Q 24.515625 45.40625 21.359375 43.453125 
Q 18.21875 41.5 16.796875 37.734375 
Q 15.375 33.984375 15.375 26.90625 
L 15.375 0 
z
" id="ArialMT-109"/>
      <path d="M 6.59375 0 
L 6.59375 51.859375 
L 14.5 51.859375 
L 14.5 44.484375 
Q 20.21875 53.03125 31 53.03125 
Q 35.6875 53.03125 39.625 51.34375 
Q 43.5625 49.65625 45.515625 46.921875 
Q 47.46875 44.1875 48.25 40.4375 
Q 48.734375 37.984375 48.734375 31.890625 
L 48.734375 0 
L 39.9375 0 
L 39.9375 31.546875 
Q 39.9375 36.921875 38.90625 39.578125 
Q 37.890625 42.234375 35.28125 43.8125 
Q 32.671875 45.40625 29.15625 45.40625 
Q 23.53125 45.40625 19.453125 41.84375 
Q 15.375 38.28125 15.375 28.328125 
L 15.375 0 
z
" id="ArialMT-110"/>
     </defs>
     <g style="fill:#262626;" transform="translate(173.310937 206.264087)scale(0.12 -0.12)">
      <use xlink:href="#ArialMT-83"/>
      <use x="66.699219" xlink:href="#ArialMT-111"/>
      <use x="122.314453" xlink:href="#ArialMT-99"/>
      <use x="172.314453" xlink:href="#ArialMT-105"/>
      <use x="194.53125" xlink:href="#ArialMT-97"/>
      <use x="250.146484" xlink:href="#ArialMT-108"/>
      <use x="272.363281" xlink:href="#ArialMT-32"/>
      <use x="300.146484" xlink:href="#ArialMT-106"/>
      <use x="322.363281" xlink:href="#ArialMT-117"/>
      <use x="377.978516" xlink:href="#ArialMT-100"/>
      <use x="433.59375" xlink:href="#ArialMT-103"/>
      <use x="489.208984" xlink:href="#ArialMT-109"/>
      <use x="572.509766" xlink:href="#ArialMT-101"/>
      <use x="628.125" xlink:href="#ArialMT-110"/>
      <use x="683.740234" xlink:href="#ArialMT-116"/>
     </g>
    </g>
   </g>
   <g id="matplotlib.axis_2">
    <g id="ytick_1"/>
   </g>
   <g id="PolyCollection_1">
    <defs>
     <path d="M 36.692302 -115.601204 
L 36.692302 -116.394121 
L 40.31468 -116.54167 
L 43.937057 -116.724253 
L 47.559435 -116.942389 
L 51.181813 -117.19369 
L 54.804191 -117.472489 
L 58.426568 -117.769991 
L 62.048946 -118.075181 
L 65.671324 -118.376601 
L 69.293702 -118.665071 
L 72.916079 -118.937236 
L 76.538457 -119.199731 
L 80.160835 -119.473561 
L 83.783213 -119.798163 
L 87.40559 -120.234487 
L 91.027968 -120.866289 
L 94.650346 -121.798778 
L 98.272724 -123.153762 
L 101.895101 -125.060619 
L 105.517479 -127.642826 
L 109.139857 -131.000474 
L 112.762234 -135.190136 
L 116.384612 -140.204509 
L 120.00699 -145.955215 
L 123.629368 -152.26265 
L 127.251745 -158.856581 
L 130.874123 -165.390043 
L 134.496501 -171.467148 
L 138.118879 -176.682778 
L 141.741256 -180.669564 
L 145.363634 -183.145496 
L 148.986012 -183.954651 
L 152.60839 -183.094142 
L 156.230767 -180.722421 
L 159.853145 -177.14711 
L 163.475523 -172.793858 
L 167.097901 -168.160627 
L 170.720278 -163.763703 
L 174.342656 -160.082376 
L 177.965034 -157.508713 
L 181.587411 -156.307597 
L 185.209789 -156.590569 
L 188.832167 -158.305491 
L 192.454545 -161.242658 
L 196.076922 -165.056797 
L 199.6993 -169.303142 
L 203.321678 -173.484428 
L 206.944056 -177.104171 
L 210.566433 -179.72036 
L 214.188811 -180.992974 
L 217.811189 -180.719027 
L 221.433567 -178.850335 
L 225.055944 -175.491637 
L 228.678322 -170.879877 
L 232.3007 -165.348439 
L 235.923078 -159.282453 
L 239.545455 -153.072299 
L 243.167833 -147.072065 
L 246.790211 -141.56812 
L 250.412589 -136.760598 
L 254.034966 -132.758107 
L 257.657344 -129.583906 
L 261.279722 -127.190414 
L 264.902099 -125.478466 
L 268.524477 -124.317931 
L 272.146855 -123.567007 
L 275.769233 -123.088417 
L 279.39161 -122.761561 
L 283.013988 -122.490357 
L 286.636366 -122.206992 
L 290.258744 -121.872103 
L 293.881121 -121.472079 
L 297.503499 -121.014285 
L 301.125877 -120.521054 
L 304.748255 -120.02325 
L 308.370632 -119.554131 
L 311.99301 -119.14409 
L 315.615388 -118.816662 
L 319.237766 -118.585973 
L 322.860143 -118.455643 
L 326.482521 -118.419012 
L 330.104899 -118.460464 
L 333.727276 -118.557596 
L 337.349654 -118.683942 
L 340.972032 -118.811948 
L 344.59441 -118.915904 
L 348.216787 -118.974517 
L 351.839165 -118.972868 
L 355.461543 -118.903521 
L 359.083921 -118.766696 
L 362.706298 -118.569516 
L 366.328676 -118.324497 
L 369.951054 -118.047531 
L 373.573432 -117.755711 
L 377.195809 -117.465312 
L 380.818187 -117.19018 
L 384.440565 -116.940718 
L 388.062943 -116.723479 
L 391.68532 -116.541321 
L 395.307698 -116.393968 
L 395.307698 -115.601357 
L 395.307698 -115.601357 
L 391.68532 -115.454004 
L 388.062943 -115.271846 
L 384.440565 -115.054607 
L 380.818187 -114.805145 
L 377.195809 -114.530013 
L 373.573432 -114.239614 
L 369.951054 -113.947794 
L 366.328676 -113.670828 
L 362.706298 -113.425809 
L 359.083921 -113.228629 
L 355.461543 -113.091804 
L 351.839165 -113.022457 
L 348.216787 -113.020808 
L 344.59441 -113.079421 
L 340.972032 -113.183377 
L 337.349654 -113.311383 
L 333.727276 -113.437729 
L 330.104899 -113.534861 
L 326.482521 -113.576313 
L 322.860143 -113.539682 
L 319.237766 -113.409352 
L 315.615388 -113.178663 
L 311.99301 -112.851235 
L 308.370632 -112.441194 
L 304.748255 -111.972075 
L 301.125877 -111.474271 
L 297.503499 -110.98104 
L 293.881121 -110.523246 
L 290.258744 -110.123222 
L 286.636366 -109.788333 
L 283.013988 -109.504968 
L 279.39161 -109.233764 
L 275.769233 -108.906908 
L 272.146855 -108.428318 
L 268.524477 -107.677394 
L 264.902099 -106.516859 
L 261.279722 -104.804911 
L 257.657344 -102.411419 
L 254.034966 -99.237218 
L 250.412589 -95.234727 
L 246.790211 -90.427205 
L 243.167833 -84.92326 
L 239.545455 -78.923026 
L 235.923078 -72.712872 
L 232.3007 -66.646886 
L 228.678322 -61.115448 
L 225.055944 -56.503688 
L 221.433567 -53.14499 
L 217.811189 -51.276298 
L 214.188811 -51.002351 
L 210.566433 -52.274965 
L 206.944056 -54.891154 
L 203.321678 -58.510897 
L 199.6993 -62.692183 
L 196.076922 -66.938528 
L 192.454545 -70.752667 
L 188.832167 -73.689834 
L 185.209789 -75.404756 
L 181.587411 -75.687728 
L 177.965034 -74.486612 
L 174.342656 -71.912949 
L 170.720278 -68.231622 
L 167.097901 -63.834698 
L 163.475523 -59.201467 
L 159.853145 -54.848215 
L 156.230767 -51.272904 
L 152.60839 -48.901183 
L 148.986012 -48.040674 
L 145.363634 -48.849829 
L 141.741256 -51.325761 
L 138.118879 -55.312547 
L 134.496501 -60.528177 
L 130.874123 -66.605282 
L 127.251745 -73.138744 
L 123.629368 -79.732675 
L 120.00699 -86.04011 
L 116.384612 -91.790816 
L 112.762234 -96.805189 
L 109.139857 -100.994851 
L 105.517479 -104.352499 
L 101.895101 -106.934706 
L 98.272724 -108.841563 
L 94.650346 -110.196547 
L 91.027968 -111.129036 
L 87.40559 -111.760838 
L 83.783213 -112.197162 
L 80.160835 -112.521764 
L 76.538457 -112.795594 
L 72.916079 -113.058089 
L 69.293702 -113.330254 
L 65.671324 -113.618724 
L 62.048946 -113.920144 
L 58.426568 -114.225334 
L 54.804191 -114.522836 
L 51.181813 -114.801635 
L 47.559435 -115.052936 
L 43.937057 -115.271072 
L 40.31468 -115.453655 
L 36.692302 -115.601204 
z
" id="m2146fb1c9b" style="stroke:#6d6d6d;stroke-width:1.5;"/>
    </defs>
    <g clip-path="url(#p64775de7d5)">
     <use style="fill:#86e5c1;stroke:#6d6d6d;stroke-width:1.5;" x="0" xlink:href="#m2146fb1c9b" y="216"/>
    </g>
   </g>
   <g id="line2d_6">
    <path clip-path="url(#p64775de7d5)" d="M 80.64 100.002338 
L 283.68 100.002338 
" style="fill:none;stroke:#6d6d6d;stroke-linecap:round;stroke-width:1.5;"/>
   </g>
   <g id="line2d_7">
    <path clip-path="url(#p64775de7d5)" d="M 148.32 100.002338 
L 216 100.002338 
" style="fill:none;stroke:#6d6d6d;stroke-linecap:round;stroke-width:4.5;"/>
   </g>
   <g id="patch_3">
    <path d="M 12.96 174.755025 
L 12.96 25.24965 
" style="fill:none;stroke:#ffffff;stroke-linecap:square;stroke-linejoin:miter;stroke-width:1.25;"/>
   </g>
   <g id="patch_4">
    <path d="M 419.04 174.755025 
L 419.04 25.24965 
" style="fill:none;stroke:#ffffff;stroke-linecap:square;stroke-linejoin:miter;stroke-width:1.25;"/>
   </g>
   <g id="patch_5">
    <path d="M 12.96 174.755025 
L 419.04 174.755025 
" style="fill:none;stroke:#ffffff;stroke-linecap:square;stroke-linejoin:miter;stroke-width:1.25;"/>
   </g>
   <g id="patch_6">
    <path d="M 12.96 25.24965 
L 419.04 25.24965 
" style="fill:none;stroke:#ffffff;stroke-linecap:square;stroke-linejoin:miter;stroke-width:1.25;"/>
   </g>
   <g id="PathCollection_1">
    <defs>
     <path d="M 0 1.5 
C 0.397805 1.5 0.77937 1.341951 1.06066 1.06066 
C 1.341951 0.77937 1.5 0.397805 1.5 0 
C 1.5 -0.397805 1.341951 -0.77937 1.06066 -1.06066 
C 0.77937 -1.341951 0.397805 -1.5 0 -1.5 
C -0.397805 -1.5 -0.77937 -1.341951 -1.06066 -1.06066 
C -1.341951 -0.77937 -1.5 -0.397805 -1.5 0 
C -1.5 0.397805 -1.341951 0.77937 -1.06066 1.06066 
C -0.77937 1.341951 -0.397805 1.5 0 1.5 
z
" id="medc40178f9" style="stroke:#6d6d6d;"/>
    </defs>
    <g clip-path="url(#p64775de7d5)">
     <use style="fill:#ffffff;stroke:#6d6d6d;" x="216" xlink:href="#medc40178f9" y="100.002338"/>
    </g>
   </g>
   <g id="PathCollection_2">
    <defs>
     <path d="M 0 2.5 
C 0.663008 2.5 1.29895 2.236584 1.767767 1.767767 
C 2.236584 1.29895 2.5 0.663008 2.5 0 
C 2.5 -0.663008 2.236584 -1.29895 1.767767 -1.767767 
C 1.29895 -2.236584 0.663008 -2.5 0 -2.5 
C -0.663008 -2.5 -1.29895 -2.236584 -1.767767 -1.767767 
C -2.236584 -1.29895 -2.5 -0.663008 -2.5 0 
C -2.5 0.663008 -2.236584 1.29895 -1.767767 1.767767 
C -1.29895 2.236584 -0.663008 2.5 0 2.5 
z
" id="C0_0_6d7e5a2db7"/>
    </defs>
    <g clip-path="url(#p64775de7d5)">
     <use style="fill:#333333;" x="220.625033" xlink:href="#C0_0_6d7e5a2db7" y="109.435571"/>
    </g>
    <g clip-path="url(#p64775de7d5)">
     <use style="fill:#333333;" x="143.316575" xlink:href="#C0_0_6d7e5a2db7" y="103.781434"/>
    </g>
    <g clip-path="url(#p64775de7d5)">
     <use style="fill:#333333;" x="138.878812" xlink:href="#C0_0_6d7e5a2db7" y="92.027697"/>
    </g>
    <g clip-path="url(#p64775de7d5)">
     <use style="fill:#333333;" x="210.032292" xlink:href="#C0_0_6d7e5a2db7" y="92.707943"/>
    </g>
    <g clip-path="url(#p64775de7d5)">
     <use style="fill:#333333;" x="219.845356" xlink:href="#C0_0_6d7e5a2db7" y="98.422827"/>
    </g>
    <g clip-path="url(#p64775de7d5)">
     <use style="fill:#333333;" x="144.915627" xlink:href="#C0_0_6d7e5a2db7" y="98.18761"/>
    </g>
    <g clip-path="url(#p64775de7d5)">
     <use style="fill:#333333;" x="223.016917" xlink:href="#C0_0_6d7e5a2db7" y="99.670609"/>
    </g>
    <g clip-path="url(#p64775de7d5)">
     <use style="fill:#333333;" x="135.147687" xlink:href="#C0_0_6d7e5a2db7" y="115.658445"/>
    </g>
    <g clip-path="url(#p64775de7d5)">
     <use style="fill:#333333;" x="205.118727" xlink:href="#C0_0_6d7e5a2db7" y="115.927844"/>
    </g>
    <g clip-path="url(#p64775de7d5)">
     <use style="fill:#333333;" x="203.039515" xlink:href="#C0_0_6d7e5a2db7" y="83.423749"/>
    </g>
    <g clip-path="url(#p64775de7d5)">
     <use style="fill:#333333;" x="218.471173" xlink:href="#C0_0_6d7e5a2db7" y="84.230111"/>
    </g>
    <g clip-path="url(#p64775de7d5)">
     <use style="fill:#333333;" x="152.527545" xlink:href="#C0_0_6d7e5a2db7" y="101.053864"/>
    </g>
    <g clip-path="url(#p64775de7d5)">
     <use style="fill:#333333;" x="142.105477" xlink:href="#C0_0_6d7e5a2db7" y="112.147639"/>
    </g>
    <g clip-path="url(#p64775de7d5)">
     <use style="fill:#333333;" x="218.739818" xlink:href="#C0_0_6d7e5a2db7" y="92.677312"/>
    </g>
    <g clip-path="url(#p64775de7d5)">
     <use style="fill:#333333;" x="149.440582" xlink:href="#C0_0_6d7e5a2db7" y="112.492482"/>
    </g>
    <g clip-path="url(#p64775de7d5)">
     <use style="fill:#333333;" x="346.233097" xlink:href="#C0_0_6d7e5a2db7" y="112.012159"/>
    </g>
    <g clip-path="url(#p64775de7d5)">
     <use style="fill:#333333;" x="148.968578" xlink:href="#C0_0_6d7e5a2db7" y="92.944978"/>
    </g>
    <g clip-path="url(#p64775de7d5)">
     <use style="fill:#333333;" x="149.940389" xlink:href="#C0_0_6d7e5a2db7" y="96.241061"/>
    </g>
    <g clip-path="url(#p64775de7d5)">
     <use style="fill:#333333;" x="218.395806" xlink:href="#C0_0_6d7e5a2db7" y="107.844864"/>
    </g>
    <g clip-path="url(#p64775de7d5)">
     <use style="fill:#333333;" x="160.04114" xlink:href="#C0_0_6d7e5a2db7" y="104.73565"/>
    </g>
    <g clip-path="url(#p64775de7d5)">
     <use style="fill:#333333;" x="213.03329" xlink:href="#C0_0_6d7e5a2db7" y="106.834963"/>
    </g>
    <g clip-path="url(#p64775de7d5)">
     <use style="fill:#333333;" x="205.777649" xlink:href="#C0_0_6d7e5a2db7" y="104.240675"/>
    </g>
    <g clip-path="url(#p64775de7d5)">
     <use style="fill:#333333;" x="223.695779" xlink:href="#C0_0_6d7e5a2db7" y="86.825789"/>
    </g>
    <g clip-path="url(#p64775de7d5)">
     <use style="fill:#333333;" x="147.117888" xlink:href="#C0_0_6d7e5a2db7" y="90.239649"/>
    </g>
    <g clip-path="url(#p64775de7d5)">
     <use style="fill:#333333;" x="220.929988" xlink:href="#C0_0_6d7e5a2db7" y="107.357326"/>
    </g>
    <g clip-path="url(#p64775de7d5)">
     <use style="fill:#333333;" x="159.164286" xlink:href="#C0_0_6d7e5a2db7" y="83.803466"/>
    </g>
    <g clip-path="url(#p64775de7d5)">
     <use style="fill:#333333;" x="216.62861" xlink:href="#C0_0_6d7e5a2db7" y="85.8471"/>
    </g>
    <g clip-path="url(#p64775de7d5)">
     <use style="fill:#333333;" x="281.754426" xlink:href="#C0_0_6d7e5a2db7" y="87.675191"/>
    </g>
    <g clip-path="url(#p64775de7d5)">
     <use style="fill:#333333;" x="150.402503" xlink:href="#C0_0_6d7e5a2db7" y="115.387392"/>
    </g>
    <g clip-path="url(#p64775de7d5)">
     <use style="fill:#333333;" x="151.473661" xlink:href="#C0_0_6d7e5a2db7" y="93.878509"/>
    </g>
    <g clip-path="url(#p64775de7d5)">
     <use style="fill:#333333;" x="202.46812" xlink:href="#C0_0_6d7e5a2db7" y="105.23416"/>
    </g>
    <g clip-path="url(#p64775de7d5)">
     <use style="fill:#333333;" x="217.816647" xlink:href="#C0_0_6d7e5a2db7" y="102.110738"/>
    </g>
    <g clip-path="url(#p64775de7d5)">
     <use style="fill:#333333;" x="161.534788" xlink:href="#C0_0_6d7e5a2db7" y="109.850732"/>
    </g>
    <g clip-path="url(#p64775de7d5)">
     <use style="fill:#333333;" x="151.946481" xlink:href="#C0_0_6d7e5a2db7" y="84.510267"/>
    </g>
    <g clip-path="url(#p64775de7d5)">
     <use style="fill:#333333;" x="204.454811" xlink:href="#C0_0_6d7e5a2db7" y="88.43126"/>
    </g>
    <g clip-path="url(#p64775de7d5)">
     <use style="fill:#333333;" x="205.367605" xlink:href="#C0_0_6d7e5a2db7" y="115.596799"/>
    </g>
    <g clip-path="url(#p64775de7d5)">
     <use style="fill:#333333;" x="158.574224" xlink:href="#C0_0_6d7e5a2db7" y="89.020099"/>
    </g>
    <g clip-path="url(#p64775de7d5)">
     <use style="fill:#333333;" x="149.308084" xlink:href="#C0_0_6d7e5a2db7" y="85.941131"/>
    </g>
    <g clip-path="url(#p64775de7d5)">
     <use style="fill:#333333;" x="153.217274" xlink:href="#C0_0_6d7e5a2db7" y="108.395483"/>
    </g>
    <g clip-path="url(#p64775de7d5)">
     <use style="fill:#333333;" x="140.365278" xlink:href="#C0_0_6d7e5a2db7" y="104.055469"/>
    </g>
    <g clip-path="url(#p64775de7d5)">
     <use style="fill:#333333;" x="226.691974" xlink:href="#C0_0_6d7e5a2db7" y="103.747525"/>
    </g>
    <g clip-path="url(#p64775de7d5)">
     <use style="fill:#333333;" x="146.56402" xlink:href="#C0_0_6d7e5a2db7" y="85.133371"/>
    </g>
    <g clip-path="url(#p64775de7d5)">
     <use style="fill:#333333;" x="144.715532" xlink:href="#C0_0_6d7e5a2db7" y="107.179791"/>
    </g>
    <g clip-path="url(#p64775de7d5)">
     <use style="fill:#333333;" x="218.809855" xlink:href="#C0_0_6d7e5a2db7" y="90.741285"/>
    </g>
    <g clip-path="url(#p64775de7d5)">
     <use style="fill:#333333;" x="156.62513" xlink:href="#C0_0_6d7e5a2db7" y="113.503018"/>
    </g>
    <g clip-path="url(#p64775de7d5)">
     <use style="fill:#333333;" x="225.162339" xlink:href="#C0_0_6d7e5a2db7" y="83.911782"/>
    </g>
    <g clip-path="url(#p64775de7d5)">
     <use style="fill:#333333;" x="291.375645" xlink:href="#C0_0_6d7e5a2db7" y="100.969535"/>
    </g>
    <g clip-path="url(#p64775de7d5)">
     <use style="fill:#333333;" x="72.775925" xlink:href="#C0_0_6d7e5a2db7" y="99.384814"/>
    </g>
    <g clip-path="url(#p64775de7d5)">
     <use style="fill:#333333;" x="213.971343" xlink:href="#C0_0_6d7e5a2db7" y="110.414715"/>
    </g>
   </g>
   <g id="text_7">
    <!-- Action: helping out your parents if you don't feel like it. -->
    <defs>
     <path d="M -0.140625 0 
L 27.34375 71.578125 
L 37.546875 71.578125 
L 66.84375 0 
L 56.0625 0 
L 47.703125 21.6875 
L 17.78125 21.6875 
L 9.90625 0 
z
M 20.515625 29.390625 
L 44.78125 29.390625 
L 37.3125 49.21875 
Q 33.890625 58.25 32.234375 64.0625 
Q 30.859375 57.171875 28.375 50.390625 
z
" id="ArialMT-65"/>
     <path d="M 9.03125 41.84375 
L 9.03125 51.859375 
L 19.046875 51.859375 
L 19.046875 41.84375 
z
M 9.03125 0 
L 9.03125 10.015625 
L 19.046875 10.015625 
L 19.046875 0 
z
" id="ArialMT-58"/>
     <path d="M 6.59375 0 
L 6.59375 71.578125 
L 15.375 71.578125 
L 15.375 45.90625 
Q 21.53125 53.03125 30.90625 53.03125 
Q 36.671875 53.03125 40.921875 50.75 
Q 45.171875 48.484375 47 44.484375 
Q 48.828125 40.484375 48.828125 32.859375 
L 48.828125 0 
L 40.046875 0 
L 40.046875 32.859375 
Q 40.046875 39.453125 37.1875 42.453125 
Q 34.328125 45.453125 29.109375 45.453125 
Q 25.203125 45.453125 21.75 43.421875 
Q 18.3125 41.40625 16.84375 37.9375 
Q 15.375 34.46875 15.375 28.375 
L 15.375 0 
z
" id="ArialMT-104"/>
     <path d="M 3.078125 15.484375 
L 11.765625 16.84375 
Q 12.5 11.625 15.84375 8.84375 
Q 19.1875 6.0625 25.203125 6.0625 
Q 31.25 6.0625 34.171875 8.515625 
Q 37.109375 10.984375 37.109375 14.3125 
Q 37.109375 17.28125 34.515625 19 
Q 32.71875 20.171875 25.53125 21.96875 
Q 15.875 24.421875 12.140625 26.203125 
Q 8.40625 27.984375 6.46875 31.125 
Q 4.546875 34.28125 4.546875 38.09375 
Q 4.546875 41.546875 6.125 44.5 
Q 7.71875 47.46875 10.453125 49.421875 
Q 12.5 50.921875 16.03125 51.96875 
Q 19.578125 53.03125 23.640625 53.03125 
Q 29.734375 53.03125 34.34375 51.265625 
Q 38.96875 49.515625 41.15625 46.5 
Q 43.359375 43.5 44.1875 38.484375 
L 35.59375 37.3125 
Q 35.015625 41.3125 32.203125 43.546875 
Q 29.390625 45.796875 24.265625 45.796875 
Q 18.21875 45.796875 15.625 43.796875 
Q 13.03125 41.796875 13.03125 39.109375 
Q 13.03125 37.40625 14.109375 36.03125 
Q 15.1875 34.625 17.484375 33.6875 
Q 18.796875 33.203125 25.25 31.453125 
Q 34.578125 28.953125 38.25 27.359375 
Q 41.9375 25.78125 44.03125 22.75 
Q 46.140625 19.734375 46.140625 15.234375 
Q 46.140625 10.84375 43.578125 6.953125 
Q 41.015625 3.078125 36.171875 0.953125 
Q 31.34375 -1.171875 25.25 -1.171875 
Q 15.140625 -1.171875 9.84375 3.03125 
Q 4.546875 7.234375 3.078125 15.484375 
z
" id="ArialMT-115"/>
     <path d="M 8.6875 0 
L 8.6875 45.015625 
L 0.921875 45.015625 
L 0.921875 51.859375 
L 8.6875 51.859375 
L 8.6875 57.375 
Q 8.6875 62.59375 9.625 65.140625 
Q 10.890625 68.5625 14.078125 70.671875 
Q 17.28125 72.796875 23.046875 72.796875 
Q 26.765625 72.796875 31.25 71.921875 
L 29.9375 64.265625 
Q 27.203125 64.75 24.75 64.75 
Q 20.75 64.75 19.09375 63.03125 
Q 17.4375 61.328125 17.4375 56.640625 
L 17.4375 51.859375 
L 27.546875 51.859375 
L 27.546875 45.015625 
L 17.4375 45.015625 
L 17.4375 0 
z
" id="ArialMT-102"/>
     <path d="M 6.640625 46.234375 
L 4.390625 59.625 
L 4.390625 71.578125 
L 14.40625 71.578125 
L 14.40625 59.625 
L 12.0625 46.234375 
z
" id="ArialMT-39"/>
     <path d="M 6.640625 0 
L 6.640625 71.578125 
L 15.4375 71.578125 
L 15.4375 30.765625 
L 36.234375 51.859375 
L 47.609375 51.859375 
L 27.78125 32.625 
L 49.609375 0 
L 38.765625 0 
L 21.625 26.515625 
L 15.4375 20.5625 
L 15.4375 0 
z
" id="ArialMT-107"/>
     <path d="M 9.078125 0 
L 9.078125 10.015625 
L 19.09375 10.015625 
L 19.09375 0 
z
" id="ArialMT-46"/>
    </defs>
    <g style="fill:#262626;" transform="translate(72.78 19.24965)scale(0.12 -0.12)">
     <use xlink:href="#ArialMT-65"/>
     <use x="66.699219" xlink:href="#ArialMT-99"/>
     <use x="116.699219" xlink:href="#ArialMT-116"/>
     <use x="144.482422" xlink:href="#ArialMT-105"/>
     <use x="166.699219" xlink:href="#ArialMT-111"/>
     <use x="222.314453" xlink:href="#ArialMT-110"/>
     <use x="277.929688" xlink:href="#ArialMT-58"/>
     <use x="305.712891" xlink:href="#ArialMT-32"/>
     <use x="333.496094" xlink:href="#ArialMT-104"/>
     <use x="389.111328" xlink:href="#ArialMT-101"/>
     <use x="444.726562" xlink:href="#ArialMT-108"/>
     <use x="466.943359" xlink:href="#ArialMT-112"/>
     <use x="522.558594" xlink:href="#ArialMT-105"/>
     <use x="544.775391" xlink:href="#ArialMT-110"/>
     <use x="600.390625" xlink:href="#ArialMT-103"/>
     <use x="656.005859" xlink:href="#ArialMT-32"/>
     <use x="683.789062" xlink:href="#ArialMT-111"/>
     <use x="739.404297" xlink:href="#ArialMT-117"/>
     <use x="795.019531" xlink:href="#ArialMT-116"/>
     <use x="822.802734" xlink:href="#ArialMT-32"/>
     <use x="850.585938" xlink:href="#ArialMT-121"/>
     <use x="900.585938" xlink:href="#ArialMT-111"/>
     <use x="956.201172" xlink:href="#ArialMT-117"/>
     <use x="1011.816406" xlink:href="#ArialMT-114"/>
     <use x="1045.117188" xlink:href="#ArialMT-32"/>
     <use x="1072.900391" xlink:href="#ArialMT-112"/>
     <use x="1128.515625" xlink:href="#ArialMT-97"/>
     <use x="1184.130859" xlink:href="#ArialMT-114"/>
     <use x="1217.431641" xlink:href="#ArialMT-101"/>
     <use x="1273.046875" xlink:href="#ArialMT-110"/>
     <use x="1328.662109" xlink:href="#ArialMT-116"/>
     <use x="1356.445312" xlink:href="#ArialMT-115"/>
     <use x="1406.445312" xlink:href="#ArialMT-32"/>
     <use x="1434.228516" xlink:href="#ArialMT-105"/>
     <use x="1456.445312" xlink:href="#ArialMT-102"/>
     <use x="1484.228516" xlink:href="#ArialMT-32"/>
     <use x="1512.011719" xlink:href="#ArialMT-121"/>
     <use x="1562.011719" xlink:href="#ArialMT-111"/>
     <use x="1617.626953" xlink:href="#ArialMT-117"/>
     <use x="1673.242188" xlink:href="#ArialMT-32"/>
     <use x="1701.025391" xlink:href="#ArialMT-100"/>
     <use x="1756.640625" xlink:href="#ArialMT-111"/>
     <use x="1812.255859" xlink:href="#ArialMT-110"/>
     <use x="1867.871094" xlink:href="#ArialMT-39"/>
     <use x="1886.962891" xlink:href="#ArialMT-116"/>
     <use x="1914.746094" xlink:href="#ArialMT-32"/>
     <use x="1942.529297" xlink:href="#ArialMT-102"/>
     <use x="1970.3125" xlink:href="#ArialMT-101"/>
     <use x="2025.927734" xlink:href="#ArialMT-101"/>
     <use x="2081.542969" xlink:href="#ArialMT-108"/>
     <use x="2103.759766" xlink:href="#ArialMT-32"/>
     <use x="2131.542969" xlink:href="#ArialMT-108"/>
     <use x="2153.759766" xlink:href="#ArialMT-105"/>
     <use x="2175.976562" xlink:href="#ArialMT-107"/>
     <use x="2225.976562" xlink:href="#ArialMT-101"/>
     <use x="2281.591797" xlink:href="#ArialMT-32"/>
     <use x="2309.375" xlink:href="#ArialMT-105"/>
     <use x="2331.591797" xlink:href="#ArialMT-116"/>
     <use x="2359.375" xlink:href="#ArialMT-46"/>
    </g>
   </g>
  </g>
 </g>
 <defs>
  <clipPath id="p64775de7d5">
   <rect height="149.505375" width="406.08" x="12.96" y="25.24965"/>
  </clipPath>
 </defs>
</svg>
