<?xml version="1.0" encoding="iso-8859-1"?>
<!DOCTYPE svg PUBLIC "-//W3C//DTD SVG 1.0//EN" "http://www.w3.org/TR/2001/REC-SVG-20010904/DTD/svg10.dtd">
<!-- Creator: CorelDRAW -->
<svg xmlns="http://www.w3.org/2000/svg" xmlns:odm="http://product.corel.com/CGS/11/cddns/" xmlns:corel-charset="http://product.corel.com/CGS/11/cddns/" xml:space="preserve" width="2717px" height="425px" style="shape-rendering:geometricPrecision; text-rendering:geometricPrecision; image-rendering:optimizeQuality; fill-rule:evenodd; background-color: white;"
     viewBox="0 0 2717 425.27">
 <defs>
  <style type="text/css">
   <![CDATA[
    .str1 {stroke:#000000;stroke-width:0}
    .str2 {stroke:#0000FF;stroke-width:21.254;stroke-linejoin:round}
    .str3 {stroke:#0000FF;stroke-width:21.9994;stroke-linejoin:round}
    .str0 {stroke:#0000FF;stroke-width:23.2599}
    .fil3 {fill:none}
    .fil2 {fill:#FF0000}
    .fil0 {fill:#000000}
    .fil4 {fill:#0000FF}
    .fil1 {fill:#FF0000}
   ]]>
  </style>
 </defs>
 <g id="Laag_x0020_1">
  <path class="fil0" d="M2660.84 309.959l-3.61007 -1.14941 0 -113.396c0,-7.87694 -1.23092,-13.7019 -3.69276,-17.4774 -2.46184,-3.77309 -9.1622,-6.53616 -20.1023,-8.28685 -16.6292,-2.73472 -24.9444,-11.0487 -24.9444,-24.9432 0,-10.0647 3.17298,-18.1059 9.51777,-24.1234l4.43107 0c0.875347,6.78305 5.41628,10.8857 13.6204,12.308l13.7846 2.13344c7.6584,1.20257 13.266,4.15701 16.8206,8.86096 3.55573,4.70514 5.33359,14.0587 5.33359,28.0619l0 117.663c0,9.73631 -3.71875,16.5194 -11.1586,20.3491l0 0zm-103.385 -81.5596l-4.59527 -5.25208c11.5969,-8.64242 17.3959,-20.6764 17.3959,-36.1018 0,-11.0499 -8.151,-16.9033 -24.4518,-17.5601 -18.1614,-0.655624 -27.2409,-8.36836 -27.2409,-23.1382 0,-7.6584 2.57052,-16.2465 7.71274,-25.7642l4.42989 0c1.09507,7.43985 6.0719,11.5425 14.934,12.308l14.9329 0.984027c14.66,1.09389 21.99,11.2141 21.99,30.3595l0 12.308c0,25.9284 -8.36836,43.2133 -25.1074,51.8569l0 0zm-73.1901 81.3954l-4.43107 0c-0.656805,-8.42388 -3.50139,-15.481 -8.53374,-21.1702l-71.2208 -81.7226c-12.1438,6.12624 -18.2157,14.0032 -18.2157,23.6308 0,7.43867 3.88413,17.012 11.6512,28.7175 8.97201,13.3476 13.4574,23.9592 13.4574,31.8362 0,10.503 -3.99399,15.7539 -11.9796,15.7539l-31.0163 0 0 -4.42989c6.56451,-1.75069 9.84617,-5.52614 9.84617,-11.324 0,-3.61007 -2.07791,-10.7759 -6.23492,-21.4974 -4.15819,-10.6117 -6.23611,-18.817 -6.23611,-24.616 0,-17.6132 10.8302,-32.6016 32.4918,-44.964l-20.1849 -22.811c-8.42388,-9.62645 -12.6352,-19.6368 -12.6352,-30.0299 0,-9.40909 3.82861,-18.2712 11.487,-26.5853l4.26687 0c0.546944,9.51777 3.39152,17.1762 8.53374,22.974l61.7031 70.0726c3.1718,-15.7539 9.24371,-30.4682 18.2145,-44.1442 -17.3947,-2.8434 -26.0915,-11.5957 -26.0915,-26.2569 0,-8.64242 2.24212,-16.191 6.72753,-22.6456l4.26687 0c1.75069,6.78305 5.96204,10.9944 12.6364,12.6364l14.113 3.28166c12.3624,2.95444 18.5429,9.90051 18.5429,20.8418 0,4.81263 -0.492604,8.69676 -1.47663,11.65 -3.61007,1.09507 -9.57329,1.64201 -17.8873,1.64201 -11.3783,17.9417 -17.0663,32.6016 -17.0663,43.98 0,8.42388 2.89892,15.9724 8.69676,22.6456l15.2613 17.5589c8.53374,9.73749 12.8006,19.8022 12.8006,30.1953 0,9.40909 -3.82861,17.6688 -11.487,24.7802l0 0zm-160.822 -31.0163l-5.5793 28.0619 -81.888 0 7.87694 -33.477 69.4158 0c3.17298,-11.9253 4.75829,-26.3655 4.75829,-43.3232 0.109861,-16.8478 -3.30883,-30.4682 -10.2561,-40.8625 -6.94725,-10.3931 -16.8749,-15.5342 -29.7842,-15.4255 -17.286,0 -33.2856,10.9684 -48.0011,32.9029 -14.7143,21.9356 -22.1814,55.3311 -22.3999,100.185l-10.9944 0c-0.438264,-5.5793 -0.656805,-10.3388 -0.656805,-14.2772 0,-45.5109 12.6908,-82.2152 38.0723,-110.113 0,-4.15701 -1.09389,-7.13862 -3.28284,-8.94366 -2.18778,-1.80503 -7.27447,-3.5829 -15.2613,-5.33359 -13.7846,-2.95326 -20.6776,-10.2833 -20.6776,-21.99 0,-8.97083 2.29764,-17.5046 6.89291,-25.6l4.43107 0c1.96923,6.67319 6.18058,10.503 12.6352,11.487l10.1746 1.47663c9.19055,1.31361 13.7846,5.96322 13.7846,13.9488 0,1.53215 -0.218541,3.82979 -0.655624,6.89291 -0.546944,3.17298 -0.821007,5.52496 -0.821007,7.05593 0,4.48659 1.69635,7.8226 5.08788,10.0104 18.1602,-10.1734 28.0607,-23.521 29.7027,-40.0403 17.6132,2.95326 30.9336,12.855 39.9588,29.7015 9.02517,16.8489 13.5389,38.6192 13.5389,65.3143 0,14.8785 -2.02476,32.3276 -6.0719,52.3483l0 0zm-171.325 31.1805l-3.44586 -1.14941 0 -79.7546c0,-21.6616 -1.17658,-35.5006 -3.52856,-41.5181 -2.35198,-6.01638 -6.23611,-10.5018 -11.6512,-13.4562 -5.4151,-2.95326 -12.3352,-4.43107 -20.7591,-4.43107l-53.6619 0c-15.7539,0 -23.6308,-6.89173 -23.6308,-20.6764 0,-10.1746 3.336,-19.1454 10.0104,-26.9137l4.26569 0c1.75069,7.6584 7.22131,11.487 16.4107,11.487l37.2513 0c25.163,0 41.491,3.66559 48.9851,10.9956 7.49419,7.32999 11.2413,23.2481 11.2413,47.7542l0 101.416c0,6.78305 -3.82861,12.1981 -11.487,16.2465l0 0zm-234.997 -0.164201l-4.43107 0c-0.655624,-8.42388 -3.5002,-15.481 -8.53256,-21.1702l-71.2208 -81.7226c-12.1438,6.12624 -18.2157,14.0032 -18.2157,23.6308 0,7.43867 3.88295,17.012 11.6512,28.7175 8.97083,13.3476 13.4562,23.9592 13.4562,31.8362 0,10.503 -3.99281,15.7539 -11.9796,15.7539l-31.0151 0 0 -4.42989c6.56333,-1.75069 9.84617,-5.52614 9.84617,-11.324 0,-3.61007 -2.0791,-10.7759 -6.23611,-21.4974 -4.15701,-10.6117 -6.23611,-18.817 -6.23611,-24.616 0,-17.6132 10.8314,-32.6016 32.493,-44.964l-20.1849 -22.811c-8.42388,-9.62645 -12.6364,-19.6368 -12.6364,-30.0299 0,-9.40909 3.82979,-18.2712 11.487,-26.5853l4.26687 0c0.546944,9.51777 3.39152,17.1762 8.53374,22.974l61.7031 70.0726c3.17298,-15.7539 9.24489,-30.4682 18.2157,-44.1442 -17.3947,-2.8434 -26.0927,-11.5957 -26.0927,-26.2569 0,-8.64242 2.24212,-16.191 6.72871,-22.6456l4.26569 0c1.75069,6.78305 5.96322,10.9944 12.6364,12.6364l14.113 3.28166c12.3623,2.95444 18.5441,9.90051 18.5441,20.8418 0,4.81263 -0.492604,8.69676 -1.47781,11.65 -3.61007,1.09507 -9.57211,1.64201 -17.8873,1.64201 -11.3771,17.9417 -17.0663,32.6016 -17.0663,43.98 0,8.42388 2.89892,15.9724 8.69794,22.6456l15.2613 17.5589c8.53374,9.73749 12.7994,19.8022 12.7994,30.1953 0,9.40909 -3.82861,17.6688 -11.487,24.7802l0 0zm-162.791 -83.0374l-31.1793 34.9548c-7.54853,8.42388 -11.3228,16.6836 -11.3228,24.7802 0,1.31243 0.16302,3.28166 0.491423,5.90652 0.438264,2.62604 0.656805,4.59527 0.656805,5.9077 0,8.09666 -3.66559,12.1438 -10.9956,12.1438 -7.32881,0 -10.9944,-4.53975 -10.9944,-13.6204 0,-12.7994 8.09548,-27.5149 24.2876,-44.143l23.9592 -24.7802c6.78305,-7.00159 10.1746,-16.0823 10.1746,-27.2409l0 -9.84735c0,-8.53256 -2.05193,-14.1946 -6.1546,-16.9836 -4.10267,-2.79024 -12.171,-4.18536 -24.2049,-4.18536l-47.59 0c-17.0675,0 -25.6,-7.60287 -25.6,-22.8098 0,-9.73749 2.02357,-20.7862 6.0719,-33.1498l4.75829 -13.9477c0.766667,-2.51618 1.14941,-4.37673 1.14941,-5.58048 0,-3.1718 -1.96923,-5.7435 -5.9077,-7.71274l-9.19055 -4.43107c-4.70395,-2.29646 -7.05593,-5.52378 -7.05593,-9.68197 0,-5.14104 1.91489,-10.5018 5.7435,-16.0823l4.10267 0c0.546944,3.39271 2.84458,5.90888 6.89173,7.54972l6.23611 2.46066c6.89291,2.7359 10.3388,6.94725 10.3388,12.6364 0,1.09389 -1.64083,7.8226 -4.9225,20.1849l-2.29764 8.36954c-1.53215,5.79784 -2.29764,10.0647 -2.29764,12.7994 0,4.26687 1.14823,7.54853 3.44586,9.84617 2.29764,2.29764 7.60406,3.44586 15.9181,3.44586l53.4977 0c10.1746,0 17.97,2.46184 23.3851,7.38551 5.4151,4.9225 8.12265,16.9576 8.12265,36.1018l0 17.7243c0,14.2217 -3.1718,24.8889 -9.51777,31.9992l0 0zm-163.283 84.1857l-2.62486 -3.44586c2.84458,-4.81382 4.26569,-10.5573 4.26569,-17.2317 0,-6.45347 -0.437083,-16.1366 -1.31243,-29.0459 -0.875347,-13.0192 -1.31243,-22.7555 -1.31243,-29.2101 0,-26.3655 6.40031,-47.1518 19.1997,-62.3599l-96.6567 0c-16.5205,0 -24.7802,-6.89173 -24.7802,-20.6764 0,-10.7215 3.33718,-19.6923 10.0104,-26.9137l4.43107 0c1.75069,7.6584 6.89291,11.487 15.4255,11.487l80.083 0c6.89173,0 12.1438,1.14941 15.7539,3.44705 3.61007,2.29764 5.4151,7.6584 5.4151,16.0823l0 8.03996c0,4.04833 -1.9964,9.32758 -5.98921,15.8366 -3.99399,6.51017 -5.99039,16.6021 -5.99039,30.2768 0,7.87694 1.25809,19.6923 3.77427,35.4462 2.51618,15.7551 3.77545,27.5705 3.77545,35.4474 0,19.4726 -7.8226,30.4139 -23.4678,32.8202l0 0zm-99.2827 0.164201l-2.29764 -3.61007c2.84458,-2.95444 4.26687,-6.94725 4.26687,-11.9796 0,-3.39152 -0.164201,-8.53374 -0.491423,-15.4255 -0.328403,-6.89291 -0.492604,-12.0351 -0.492604,-15.4255 0,-22.8653 8.20534,-34.298 24.6148,-34.298 2.18896,0 4.04833,0.437083 5.58048,1.31243l0 4.43107c-5.25208,3.39152 -7.87694,10.5573 -7.87694,21.4974 0,3.61007 0.218541,8.97083 0.655624,16.0823 0.438264,7.11145 0.656805,12.4167 0.656805,15.9181 0,13.3476 -8.20534,20.5134 -24.616,21.4974l0 0zm-56.7794 -82.7078l-4.59527 -5.25208c11.5969,-8.64242 17.3947,-20.6764 17.3947,-36.1018 0,-11.0499 -8.14982,-16.9033 -24.4506,-17.5601 -18.1614,-0.655624 -27.2421,-8.36836 -27.2421,-23.1382 0,-7.6584 2.5717,-16.2465 7.71392,-25.7642l4.42989 0c1.09389,7.43985 6.0719,11.5425 14.934,12.308l14.9329 0.984027c14.66,1.09389 21.99,11.2141 21.99,30.3595l0 12.308c0,25.9284 -8.36954,43.2133 -25.1074,51.8569l0 0zm-200.863 78.441l0 -88.4513c0,-8.75228 3.33718,-16.9033 10.0104,-24.4518l21.0048 -24.2876 -10.5018 0c-15.8637,0 -23.795,-7.00159 -23.795,-21.0048 0,-10.2844 3.336,-19.1454 10.0104,-26.5853l4.26569 0c1.86055,7.6584 7.05711,11.487 15.5909,11.487l45.785 0c25.1618,0 41.4898,3.66559 48.984,10.9956 7.49419,7.32999 11.2413,23.2481 11.2413,47.7542l0 114.544 -132.596 0zm42.1749 -137.191l-20.1849 29.2101c-4.81382,7.00277 -7.22013,15.481 -7.22013,25.437l0 49.0667 103.548 0 0 -44.3084c0,-22.7555 -2.05074,-38.3451 -6.15341,-46.769 -4.10267,-8.42388 -13.3747,-12.6364 -27.8162,-12.6364l-42.1737 0zm-185.93 58.7498l-4.59409 -5.25208c11.5957,-8.64242 17.3947,-20.6764 17.3947,-36.1018 0,-11.0499 -8.151,-16.9033 -24.4518,-17.5601 -18.1602,-0.655624 -27.2409,-8.36836 -27.2409,-23.1382 0,-7.6584 2.57052,-16.2465 7.71274,-25.7642l4.43107 0c1.09389,7.43985 6.0719,11.5425 14.9329,12.308l14.934 0.984027c14.66,1.09389 21.99,11.2141 21.99,30.3595l0 12.308c0,25.9284 -8.36954,43.2133 -25.1086,51.8569l0 0zm-83.2004 10.1746l-36.103 23.9592c-8.53256,5.68798 -12.7994,14.0032 -12.7994,24.9432 0,1.31243 0.10868,3.22732 0.328403,5.7435 0.10868,2.62604 0.164201,4.59527 0.164201,5.9077 0,7.54853 -3.77545,11.3228 -11.324,11.3228 -6.67319,0 -10.0104,-4.26687 -10.0104,-12.7994 0,-18.1614 9.46343,-33.5868 28.3903,-46.2776l31.3435 -21.0048c8.53374,-5.68916 12.8006,-14.2772 12.8006,-25.7642l0 -11.8166c0,-9.40791 -2.16061,-15.6168 -6.48182,-18.6244 -4.32239,-3.00878 -11.1326,-4.51376 -20.4318,-4.51376l-61.0463 0c-15.8637,0 -23.795,-6.89173 -23.795,-20.6764 0,-10.1746 3.33718,-19.1454 10.0104,-26.9137l4.26687 0c1.75069,7.6584 7.22013,11.487 16.4107,11.487l55.6312 0c14.1119,0 24.3136,3.36435 30.6052,10.0931 6.29045,6.72871 9.43508,18.4614 9.43508,35.2005l0 15.9181c0,11.3771 -1.14823,20.348 -3.44586,26.9125 -2.29764,6.56451 -6.94725,12.1981 -13.9488,16.9033l0 0zm-102.893 126.359l-3.44586 -1.31243 0 -141.129c0,-9.51777 3.93847,-17.7231 11.8154,-24.616l2.78906 0 0 154.914c0,3.71993 -3.71875,7.76826 -11.1586,12.1438l0 0zm-53.3335 -54.9744l-3.61007 -1.14941 0 -113.396c0,-7.87694 -1.25809,-13.7019 -3.77427,-17.4774 -2.51736,-3.77309 -9.24489,-6.53616 -20.1849,-8.28685 -16.6292,-2.73472 -24.9444,-11.0487 -24.9444,-24.9432 0,-10.0647 3.17298,-18.1059 9.51777,-24.1234l4.43107 0c0.985208,6.78305 5.52496,10.8857 13.6204,12.308l13.7846 2.13344c7.54972,1.20257 13.129,4.15701 16.7391,8.86096 3.61007,4.70514 5.4151,14.0587 5.4151,28.0619l0 117.663c0,9.73631 -3.66441,16.5194 -10.9944,20.3491l0 0zm-93.7034 0l-3.61007 -1.14941 0 -113.396c0,-7.87694 -1.23092,-13.7019 -3.69276,-17.4774 -2.46184,-3.77309 -9.1622,-6.53616 -20.1023,-8.28685 -16.6292,-2.73472 -24.9444,-11.0487 -24.9444,-24.9432 0,-10.0647 3.17298,-18.1059 9.51895,-24.1234l4.42989 0c0.875347,6.78305 5.41628,10.8857 13.6204,12.308l13.7846 2.13344c7.6584,1.20257 13.266,4.15701 16.8218,8.86096 3.55454,4.70514 5.33241,14.0587 5.33241,28.0619l0 117.663c0,9.73631 -3.71875,16.5194 -11.1586,20.3491l0 0zm-189.54 0.984027l-2.62486 -3.44586c2.84458,-4.81382 4.26687,-10.5573 4.26687,-17.2317 0,-6.45347 -0.438264,-16.1366 -1.31361,-29.0459 -0.875347,-13.0192 -1.31243,-22.7555 -1.31243,-29.2101 0,-26.3655 6.40031,-47.1518 19.1997,-62.3599l-96.6567 0c-16.5205,0 -24.7802,-6.89173 -24.7802,-20.6764 0,-10.7215 3.33718,-19.6923 10.0104,-26.9137l4.43107 0c1.75069,7.6584 6.89291,11.487 15.4255,11.487l80.083 0c6.89173,0 12.1438,1.14941 15.7539,3.44705 3.61007,2.29764 5.4151,7.6584 5.4151,16.0823l0 8.03996c0,4.04833 -1.9964,9.32758 -5.98921,15.8366 -3.99399,6.51017 -5.99039,16.6021 -5.99039,30.2768 0,7.87694 1.25809,19.6923 3.77427,35.4462 2.51618,15.7551 3.77545,27.5705 3.77545,35.4474 0,19.4726 -7.8226,30.4139 -23.4678,32.8202l0 0zm-99.2827 0.164201l-2.29764 -3.61007c2.84458,-2.95444 4.26687,-6.94725 4.26687,-11.9796 0,-3.39152 -0.164201,-8.53374 -0.491423,-15.4255 -0.328403,-6.89291 -0.492604,-12.0351 -0.492604,-15.4255 0,-22.8653 8.20534,-34.298 24.6148,-34.298 2.18896,0 4.04833,0.437083 5.58048,1.31243l0 4.43107c-5.25208,3.39152 -7.87694,10.5573 -7.87694,21.4974 0,3.61007 0.218541,8.97083 0.655624,16.0823 0.438264,7.11145 0.656805,12.4167 0.656805,15.9181 0,13.3476 -8.20534,20.5134 -24.616,21.4974l0 0zm-38.7279 -32.3288l-5.5793 28.0619 -81.888 0 7.87694 -33.477 69.4158 0c3.17298,-11.9253 4.75948,-26.3655 4.75948,-43.3232 0.10868,-16.8478 -3.31001,-30.4682 -10.2573,-40.8625 -6.94725,-10.3931 -16.8749,-15.5342 -29.7842,-15.4255 -17.286,0 -33.2856,10.9684 -48.0011,32.9029 -14.7143,21.9356 -22.1814,55.3311 -22.3999,100.185l-10.9944 0c-0.438264,-5.5793 -0.656805,-10.3388 -0.656805,-14.2772 0,-45.5109 12.6908,-82.2152 38.0723,-110.113 0,-4.15701 -1.09389,-7.13862 -3.28284,-8.94366 -2.18778,-1.80503 -7.27447,-3.5829 -15.2613,-5.33359 -13.7846,-2.95326 -20.6764,-10.2833 -20.6764,-21.99 0,-8.97083 2.29646,-17.5046 6.89173,-25.6l4.43107 0c1.96923,6.67319 6.18058,10.503 12.6352,11.487l10.1746 1.47663c9.19055,1.31361 13.7846,5.96322 13.7846,13.9488 0,1.53215 -0.218541,3.82979 -0.655624,6.89291 -0.546944,3.17298 -0.821007,5.52496 -0.821007,7.05593 0,4.48659 1.69635,7.8226 5.08788,10.0104 18.1602,-10.1734 28.0607,-23.521 29.7027,-40.0403 17.6132,2.95326 30.9336,12.855 39.9588,29.7015 9.02635,16.8489 13.5389,38.6192 13.5389,65.3143 0,14.8785 -2.02476,32.3276 -6.0719,52.3483l0 0zm-181.499 -50.3791l-4.59527 -5.25208c11.5969,-8.64242 17.3959,-20.6764 17.3959,-36.1018 0,-11.0499 -8.151,-16.9033 -24.4518,-17.5601 -18.1614,-0.655624 -27.2409,-8.36836 -27.2409,-23.1382 0,-7.6584 2.57052,-16.2465 7.71274,-25.7642l4.43107 0c1.09389,7.43985 6.0719,11.5425 14.9329,12.308l14.934 0.984027c14.66,1.09389 21.99,11.2141 21.99,30.3595l0 12.308c0,25.9284 -8.36954,43.2133 -25.1086,51.8569l0 0zm-200.863 78.441l0 -88.4513c0,-8.75228 3.33718,-16.9033 10.0104,-24.4518l21.006 -24.2876 -10.503 0c-15.8637,0 -23.795,-7.00159 -23.795,-21.0048 0,-10.2844 3.33718,-19.1454 10.0104,-26.5853l4.26687 0c1.85937,7.6584 7.05593,11.487 15.5897,11.487l45.785 0c25.1618,0 41.491,3.66559 48.9851,10.9956 7.49419,7.32999 11.2401,23.2481 11.2401,47.7542l0 114.544 -132.596 0zm42.1749 -137.191l-20.1849 29.2101c-4.81382,7.00277 -7.22013,15.481 -7.22013,25.437l0 49.0667 103.55 0 0 -44.3084c0,-22.7555 -2.05193,-38.3451 -6.1546,-46.769 -4.10267,-8.42388 -13.3735,-12.6364 -27.815,-12.6364l-42.1749 0z"/>
  <path class="fil1" d="M323.041 355.938l0 -22.3125 85.5713 0 0 22.3125 -85.5713 0zm148.178 0l0 -22.3125 85.5701 0 0 22.3125 -85.5701 0z"/>
  <path class="fil1" d="M230.829 348.849c0,3.09974 0.741859,5.84391 2.22794,8.23487 1.4849,2.3886 3.42342,4.29404 5.8132,5.71515 2.38978,1.42111 5.06898,2.13107 8.04114,2.13225 3.09974,-0.0011813 5.84509,-0.711145 8.23487,-2.13225 2.38978,-1.42111 4.29404,-3.32655 5.71515,-5.71515 1.42111,-2.39096 2.13225,-5.13513 2.13225,-8.23487 0,-2.97216 -0.74304,-5.65136 -2.22912,-8.04232 -1.4849,-2.3886 -3.42342,-4.32712 -5.81202,-5.81202 -2.38978,-1.4849 -5.07016,-2.22794 -8.04114,-2.22794 -2.71346,0 -5.26389,0.646173 -7.65367,1.93734 -2.38978,1.29117 -4.39209,3.16471 -6.00693,5.61946 -1.61484,2.45357 -2.42167,5.29579 -2.42167,8.52547l0 0z"/>
  <path class="fil1" d="M354.628 228.327c0,3.10092 0.74304,5.84509 2.22912,8.23487 1.4849,2.38978 3.42224,4.29522 5.81202,5.71633 2.38978,1.42111 5.07016,2.13107 8.04114,2.13107 3.10092,0 5.84509,-0.709964 8.23487,-2.13107 2.38978,-1.42111 4.29522,-3.32655 5.71633,-5.71633 1.42111,-2.38978 2.13107,-5.13395 2.13107,-8.23487 0,-2.97098 -0.741859,-5.65136 -2.22794,-8.04114 -1.4849,-2.38978 -3.42342,-4.32712 -5.8132,-5.81202 -2.38978,-1.48608 -5.07016,-2.22912 -8.04114,-2.22912 -2.71227,0 -5.26389,0.646173 -7.65367,1.93734 -2.38978,1.29235 -4.39209,3.16471 -6.00575,5.61946 -1.61484,2.45475 -2.42286,5.29697 -2.42286,8.52547l0 0z"/>
  <path class="fil1" d="M709.189 218.264c0,3.09974 0.74304,5.84391 2.22794,8.23487 1.48608,2.3886 3.42342,4.29404 5.8132,5.71515 2.38978,1.42111 5.07016,2.13107 8.04114,2.13225 3.09974,-0.0011813 5.84509,-0.711145 8.23487,-2.13225 2.38978,-1.42111 4.29522,-3.32655 5.71633,-5.71515 1.41993,-2.39096 2.13107,-5.13513 2.13107,-8.23487 0,-2.97216 -0.74304,-5.65136 -2.22912,-8.04232 -1.4849,-2.3886 -3.42224,-4.32712 -5.81202,-5.81202 -2.38978,-1.4849 -5.07016,-2.22794 -8.04114,-2.22794 -2.71346,0 -5.26389,0.646173 -7.65367,1.93734 -2.38978,1.29117 -4.39209,3.16471 -6.00693,5.61946 -1.61484,2.45357 -2.42167,5.29579 -2.42167,8.52547l0 0z"/>
  <path class="fil1" d="M930.477 219.545c0,3.09974 0.74304,5.84391 2.22794,8.23487 1.48608,2.3886 3.42342,4.29404 5.8132,5.71515 2.38978,1.42111 5.07016,2.13107 8.04114,2.13225 3.09974,-0.0011813 5.84509,-0.711145 8.23487,-2.13225 2.38978,-1.42111 4.29522,-3.32655 5.71633,-5.71515 1.41993,-2.39096 2.13107,-5.13513 2.13107,-8.23487 0,-2.97216 -0.74304,-5.65136 -2.22912,-8.04232 -1.4849,-2.3886 -3.42224,-4.32712 -5.81202,-5.81202 -2.38978,-1.48608 -5.07016,-2.22794 -8.04114,-2.22794 -2.71346,0 -5.26389,0.644992 -7.65367,1.93616 -2.38978,1.29235 -4.39209,3.1659 -6.00693,5.62065 -1.61484,2.45357 -2.42167,5.29579 -2.42167,8.52547l0 0z"/>
  <path class="fil1" d="M1073.81 349.036c0,3.09974 0.74304,5.84391 2.22794,8.23487 1.48608,2.3886 3.42342,4.29404 5.8132,5.71515 2.38978,1.42111 5.07016,2.13107 8.04114,2.13225 3.09974,-0.0011813 5.84509,-0.711145 8.23487,-2.13225 2.38978,-1.42111 4.29522,-3.32655 5.71633,-5.71515 1.42111,-2.39096 2.13107,-5.13513 2.13107,-8.23487 0,-2.97216 -0.74304,-5.65254 -2.22794,-8.04232 -1.48608,-2.3886 -3.42342,-4.32712 -5.8132,-5.81202 -2.38978,-1.48608 -5.07016,-2.22794 -8.04114,-2.22794 -2.71227,0 -5.26389,0.644992 -7.65367,1.93616 -2.38978,1.29235 -4.39209,3.16471 -6.00693,5.61946 -1.61484,2.45475 -2.42167,5.29697 -2.42167,8.52665l0 0z"/>
  <path class="fil1" d="M1535.24 347.785c0,3.10092 0.74304,5.84509 2.22794,8.23487 1.48608,2.38978 3.42342,4.29522 5.8132,5.71515 2.38978,1.42229 5.07016,2.13225 8.04114,2.13225 3.09974,0 5.84509,-0.709964 8.23487,-2.13225 2.38978,-1.41993 4.29522,-3.32537 5.71633,-5.71515 1.41993,-2.38978 2.13107,-5.13395 2.13107,-8.23487 0,-2.97098 -0.74304,-5.65136 -2.22794,-8.04114 -1.48608,-2.38978 -3.42342,-4.32712 -5.8132,-5.8132 -2.38978,-1.4849 -5.07016,-2.22794 -8.04114,-2.22794 -2.71227,0 -5.26389,0.646173 -7.65367,1.93734 -2.38978,1.29117 -4.39209,3.16471 -6.00693,5.61946 -1.61484,2.45357 -2.42167,5.29579 -2.42167,8.52547l0 0z"/>
  <path class="fil1" d="M1601.88 93.805c0,3.09974 0.74304,5.84391 2.22794,8.23487 1.48608,2.3886 3.42342,4.29404 5.8132,5.71515 2.38978,1.42111 5.07016,2.13107 8.04114,2.13225 3.10092,-0.0011813 5.84509,-0.711145 8.23487,-2.13225 2.38978,-1.42111 4.29522,-3.32655 5.71633,-5.71515 1.42111,-2.39096 2.13107,-5.13513 2.13107,-8.23487 0,-2.97216 -0.74304,-5.65136 -2.22794,-8.04232 -1.48608,-2.3886 -3.42342,-4.32712 -5.8132,-5.81202 -2.38978,-1.4849 -5.07016,-2.22794 -8.04114,-2.22794 -2.71227,0 -5.26389,0.646173 -7.65367,1.93734 -2.38978,1.29117 -4.39209,3.16471 -6.00693,5.61946 -1.61366,2.45357 -2.42167,5.29579 -2.42167,8.52547l0 0z"/>
  <path class="fil1" d="M2492.06 93.805c0,3.09974 0.741859,5.84391 2.22794,8.23487 1.4849,2.3886 3.42342,4.29404 5.8132,5.71515 2.38978,1.42111 5.07016,2.13107 8.04114,2.13225 3.09974,-0.0011813 5.84509,-0.711145 8.23487,-2.13225 2.38978,-1.42111 4.29404,-3.32655 5.71515,-5.71515 1.42111,-2.39096 2.13225,-5.13513 2.13225,-8.23487 0,-2.97216 -0.74304,-5.65136 -2.22912,-8.04232 -1.4849,-2.3886 -3.42224,-4.32712 -5.81202,-5.81202 -2.38978,-1.4849 -5.07016,-2.22794 -8.04114,-2.22794 -2.71346,0 -5.26389,0.646173 -7.65367,1.93734 -2.38978,1.29117 -4.39209,3.16471 -6.00693,5.61946 -1.61484,2.45357 -2.42167,5.29579 -2.42167,8.52547l0 0z"/>
  <path class="fil1" d="M2514.69 206.949c0,3.09974 0.74304,5.84509 2.22794,8.23487 1.48608,2.3886 3.42342,4.29404 5.8132,5.71515 2.38978,1.42229 5.07016,2.13107 8.04114,2.13225 3.10092,-0.0011813 5.84509,-0.709964 8.23487,-2.13225 2.38978,-1.42111 4.29522,-3.32655 5.71633,-5.71515 1.42111,-2.38978 2.13107,-5.13513 2.13107,-8.23487 0,-2.97216 -0.74304,-5.65136 -2.22794,-8.04232 -1.48608,-2.3886 -3.42342,-4.32712 -5.8132,-5.81202 -2.38978,-1.4849 -5.07016,-2.22794 -8.04114,-2.22794 -2.71227,0 -5.26389,0.646173 -7.65367,1.93734 -2.38978,1.29117 -4.39209,3.16471 -6.00693,5.61946 -1.61366,2.45357 -2.42167,5.29579 -2.42167,8.52547l0 0z"/>
  <path class="fil2" d="M2614.69 352.443l0 -17.1053 65.6002 0 0 17.1053 -65.6002 0z"/>
  <path class="fil1" d="M961.957 365.854c4.79846,2.6792 7.19887,6.75234 7.19887,12.2218 0,2.67802 -0.614278,5.05008 -1.84165,7.115 -1.22856,2.06492 -2.87411,3.71166 -4.93903,4.93903 -2.06492,1.22738 -4.43698,1.84165 -7.115,1.84165 -2.34371,0 -4.52085,-0.530406 -6.52907,-1.59004 -2.0094,-1.06081 -3.74001,-2.6792 -5.19065,-4.85516 -1.45064,-2.17714 -2.17596,-4.66025 -2.17596,-7.45049 0,-5.46944 2.39923,-9.54258 7.19887,-12.2218l0 -12.5561 -26.6195 0 0 -17.2435 66.1294 0 0 17.2435 -26.1163 0 0 12.5561z"/>
  <path class="fil1" d="M1850.93 336.092c2.75598,0.115768 5.19656,0.804468 7.32054,2.06728 2.12399,1.26281 3.81798,2.9568 5.08079,5.08079 1.26281,2.12399 1.89481,4.50668 1.89481,7.14807 0,2.75598 -0.631998,5.19538 -1.89481,7.31936 -1.26281,2.12517 -2.9568,3.81798 -5.08079,5.08197 -2.12399,1.26281 -4.56456,1.89363 -7.32054,1.89363 -2.41104,0 -4.67797,-0.544581 -6.80313,-1.63611 -2.12399,-1.09034 -3.90303,-2.72645 -5.3395,-4.90832 -1.43528,-2.18187 -2.15234,-4.76538 -2.15234,-7.75054 0,-2.41104 0.545763,-4.6508 1.63611,-6.7169 1.09034,-2.06728 2.75598,-3.84751 4.99455,-5.3395 2.23975,-1.49317 4.79373,-2.23975 7.6643,-2.23975l0 0zm-39.6139 0c2.41104,0 4.67915,0.574114 6.80313,1.72234 2.12399,1.14823 3.90421,2.81387 5.3395,4.99574 1.43528,2.18069 2.15352,4.7075 2.15352,7.57807 0,2.75598 -0.631998,5.19538 -1.89481,7.31936 -1.26281,2.12517 -2.9568,3.81798 -5.08079,5.08197 -2.12517,1.26281 -4.56456,1.89363 -7.32054,1.89363 -2.75598,0 -5.19538,-0.630817 -7.31936,-1.89363 -2.12517,-1.264 -3.81798,-2.9568 -5.08197,-5.08197 -1.26281,-2.12399 -1.89363,-4.56338 -1.89363,-7.31936 0,-2.6414 0.660349,-5.02409 1.97987,-7.14807 1.3207,-2.12399 3.04304,-3.84633 5.16703,-5.16703 2.12517,-1.3207 4.50668,-1.98105 7.14807,-1.98105l0 0zm64.9328 14.2961c0,-2.6414 0.660349,-5.02409 1.98105,-7.14807 1.3207,-2.12399 3.04304,-3.84633 5.16703,-5.16703 2.12399,-1.3207 4.50668,-1.98105 7.14807,-1.98105 2.75598,0.115768 5.19538,0.804468 7.31936,2.06728 2.12517,1.26281 3.81798,2.9568 5.08197,5.08079 1.26281,2.12399 1.89363,4.50668 1.89363,7.14807 0,2.52563 -0.545763,4.82208 -1.63611,6.88937 -1.09034,2.06728 -2.75598,3.81798 -4.99455,5.25326 -2.23975,1.43528 -4.79373,2.15234 -7.6643,2.15234 -2.75598,0 -5.19656,-0.630817 -7.32054,-1.89363 -2.12399,-1.264 -3.81798,-2.9568 -5.08079,-5.08197 -1.26281,-2.12399 -1.89481,-4.56338 -1.89481,-7.31936l0 0zm-59.4208 38.5802c0,-2.64022 0.660349,-5.02291 1.98105,-7.14689 1.31952,-2.12517 3.04186,-3.84751 5.16703,-5.16703 2.12399,-1.3207 4.50668,-1.98105 7.14689,-1.98105 2.75598,0 5.19656,0.660349 7.32054,1.98105 2.12399,1.31952 3.81798,3.04186 5.08079,5.16703 1.26281,2.12399 1.89481,4.50668 1.89481,7.14689 0,2.75598 -0.631998,5.19656 -1.89481,7.32054 -1.26281,2.12399 -2.9568,3.81798 -5.08079,5.08079 -2.12399,1.26281 -4.56456,1.89481 -7.32054,1.89481 -2.75598,0 -5.19538,-0.631998 -7.31936,-1.89481 -2.12399,-1.26281 -3.81798,-2.9568 -5.08079,-5.08079 -1.264,-2.12399 -1.89481,-4.56456 -1.89481,-7.32054l0 0zm59.4208 0c0,-2.64022 0.631998,-5.02291 1.89481,-7.14689 1.26281,-2.12517 2.9568,-3.84751 5.08079,-5.16703 2.12399,-1.3207 4.56456,-1.98105 7.32054,-1.98105 2.75598,0 5.19538,0.660349 7.31936,1.98105 2.12517,1.31952 3.81798,3.04186 5.08197,5.16703 1.26281,2.12399 1.89363,4.50668 1.89363,7.14689 0,2.75598 -0.630817,5.19656 -1.89363,7.32054 -1.264,2.12399 -2.9568,3.81798 -5.08197,5.08079 -2.12399,1.26281 -4.56338,1.89481 -7.31936,1.89481 -2.75598,0 -5.19656,-0.631998 -7.32054,-1.89481 -2.12399,-1.26281 -3.81798,-2.9568 -5.08079,-5.08079 -1.26281,-2.12399 -1.89481,-4.56456 -1.89481,-7.32054l0 0z"/>
  <path class="fil1" d="M2279.79 333.585c2.60241,0 5.05126,0.620185 7.34417,1.86055 2.29409,1.23919 4.21608,3.03713 5.76477,5.39265 1.54987,2.35552 2.32481,5.08197 2.32481,8.18171 0,2.97571 -0.712327,5.61001 -2.13816,7.90293 -1.42583,2.29409 -3.28521,4.12157 -5.5793,5.48598 -2.29291,1.36323 -4.86579,2.04484 -7.71628,2.04484 -2.97571,0 -5.61001,-0.681613 -7.90293,-2.04484 -2.29409,-1.36441 -4.12275,-3.19188 -5.48598,-5.48598 -1.36441,-2.29291 -2.04602,-4.92722 -2.04602,-7.90293 0,-2.85167 0.681613,-5.42337 2.04602,-7.71746 1.36323,-2.29291 3.19188,-4.15228 5.48598,-5.57812 2.29291,-1.42583 4.92722,-2.13934 7.90293,-2.13934l0 0zm-42.7703 0c2.60359,0 5.05126,0.620185 7.34535,1.86055 2.29291,1.23919 4.21489,3.03713 5.76477,5.39265 1.54987,2.35552 2.32363,5.08197 2.32481,8.18171 -0.0011813,2.97571 -0.682794,5.61001 -2.04602,7.90293 -1.36441,2.29409 -3.19188,4.12157 -5.48598,5.48598 -2.29291,1.36323 -4.92722,2.04484 -7.90293,2.04484 -2.97571,0 -5.61001,-0.681613 -7.90293,-2.04484 -2.29409,-1.36441 -4.12157,-3.19188 -5.48598,-5.48598 -1.36323,-2.29291 -2.04484,-4.92722 -2.04484,-7.90293 0,-2.60359 0.58829,-5.02054 1.76605,-7.25203 1.17776,-2.23148 2.97571,-4.15347 5.39265,-5.76477 2.41813,-1.6113 5.17529,-2.41813 8.27504,-2.41813l0 0zm5.95023 57.0889c0,-2.60359 0.589471,-5.02054 1.76723,-7.25203 1.17776,-2.23148 2.97452,-4.15347 5.39265,-5.76477 2.41695,-1.6113 5.17529,-2.41813 8.27504,-2.41813 2.97452,0 5.61001,0.713508 7.90293,2.13934 2.29291,1.42583 4.12157,3.28521 5.48598,5.57812 1.36323,2.29409 2.04484,4.86579 2.04484,7.71746 0,2.97571 -0.681613,5.61001 -2.04484,7.90293 -1.36441,2.29409 -3.19307,4.12157 -5.48598,5.48598 -2.29291,1.36323 -4.9284,2.04484 -7.90293,2.04484 -2.97571,0 -5.61001,-0.681613 -7.90293,-2.04484 -2.29409,-1.36441 -4.12275,-3.19188 -5.48598,-5.48598 -1.36323,-2.29291 -2.04602,-4.92722 -2.04602,-7.90293l0 0z"/>
  <path class="fil3 str0" d="M2500.67 380.382l69.0213 0 0 -61.4774m-69.0213 61.4774z"/>
  <path class="fil4 str1" d="M1556.76 43.3917l-25.339 25.3378 25.7831 25.7831 25.3378 -25.339 -25.782 -25.782z"/>
  <path class="fil3 str2" d="M362.758 112.738c-2.0661,-34.4681 -10.9105,-70.6893 51.3903,-63.7786m-51.3903 63.7786z"/>
  <path class="fil3 str3" d="M832.154 114.183c2.13934,-35.6778 11.2933,-73.17 -53.1941,-66.0172m53.1941 66.0172z"/>
 </g>
</svg>
